%TF.GenerationSoftware,KiCad,Pcbnew,8.0.4-8.0.4-0~ubuntu22.04.1*%
%TF.CreationDate,2024-07-28T20:43:34+02:00*%
%TF.ProjectId,VoltageProcessor_panel,566f6c74-6167-4655-9072-6f636573736f,0.1*%
%TF.SameCoordinates,Original*%
%TF.FileFunction,Legend,Top*%
%TF.FilePolarity,Positive*%
%FSLAX46Y46*%
G04 Gerber Fmt 4.6, Leading zero omitted, Abs format (unit mm)*
G04 Created by KiCad (PCBNEW 8.0.4-8.0.4-0~ubuntu22.04.1) date 2024-07-28 20:43:34*
%MOMM*%
%LPD*%
G01*
G04 APERTURE LIST*
G04 Aperture macros list*
%AMRoundRect*
0 Rectangle with rounded corners*
0 $1 Rounding radius*
0 $2 $3 $4 $5 $6 $7 $8 $9 X,Y pos of 4 corners*
0 Add a 4 corners polygon primitive as box body*
4,1,4,$2,$3,$4,$5,$6,$7,$8,$9,$2,$3,0*
0 Add four circle primitives for the rounded corners*
1,1,$1+$1,$2,$3*
1,1,$1+$1,$4,$5*
1,1,$1+$1,$6,$7*
1,1,$1+$1,$8,$9*
0 Add four rect primitives between the rounded corners*
20,1,$1+$1,$2,$3,$4,$5,0*
20,1,$1+$1,$4,$5,$6,$7,0*
20,1,$1+$1,$6,$7,$8,$9,0*
20,1,$1+$1,$8,$9,$2,$3,0*%
G04 Aperture macros list end*
%ADD10C,0.150000*%
%ADD11C,0.200660*%
%ADD12C,0.120000*%
%ADD13C,0.381000*%
%ADD14C,3.500000*%
%ADD15O,1.500000X2.000000*%
%ADD16C,2.000000*%
%ADD17C,0.500000*%
%ADD18C,1.400000*%
%ADD19O,1.400000X1.400000*%
%ADD20C,1.600000*%
%ADD21R,1.600000X1.600000*%
%ADD22O,1.600000X1.600000*%
%ADD23RoundRect,0.250000X0.600000X0.600000X-0.600000X0.600000X-0.600000X-0.600000X0.600000X-0.600000X0*%
%ADD24C,1.700000*%
G04 APERTURE END LIST*
D10*
X168154819Y-84632857D02*
X167678628Y-84966190D01*
X168154819Y-85204285D02*
X167154819Y-85204285D01*
X167154819Y-85204285D02*
X167154819Y-84823333D01*
X167154819Y-84823333D02*
X167202438Y-84728095D01*
X167202438Y-84728095D02*
X167250057Y-84680476D01*
X167250057Y-84680476D02*
X167345295Y-84632857D01*
X167345295Y-84632857D02*
X167488152Y-84632857D01*
X167488152Y-84632857D02*
X167583390Y-84680476D01*
X167583390Y-84680476D02*
X167631009Y-84728095D01*
X167631009Y-84728095D02*
X167678628Y-84823333D01*
X167678628Y-84823333D02*
X167678628Y-85204285D01*
X168154819Y-83680476D02*
X168154819Y-84251904D01*
X168154819Y-83966190D02*
X167154819Y-83966190D01*
X167154819Y-83966190D02*
X167297676Y-84061428D01*
X167297676Y-84061428D02*
X167392914Y-84156666D01*
X167392914Y-84156666D02*
X167440533Y-84251904D01*
X167154819Y-83061428D02*
X167154819Y-82966190D01*
X167154819Y-82966190D02*
X167202438Y-82870952D01*
X167202438Y-82870952D02*
X167250057Y-82823333D01*
X167250057Y-82823333D02*
X167345295Y-82775714D01*
X167345295Y-82775714D02*
X167535771Y-82728095D01*
X167535771Y-82728095D02*
X167773866Y-82728095D01*
X167773866Y-82728095D02*
X167964342Y-82775714D01*
X167964342Y-82775714D02*
X168059580Y-82823333D01*
X168059580Y-82823333D02*
X168107200Y-82870952D01*
X168107200Y-82870952D02*
X168154819Y-82966190D01*
X168154819Y-82966190D02*
X168154819Y-83061428D01*
X168154819Y-83061428D02*
X168107200Y-83156666D01*
X168107200Y-83156666D02*
X168059580Y-83204285D01*
X168059580Y-83204285D02*
X167964342Y-83251904D01*
X167964342Y-83251904D02*
X167773866Y-83299523D01*
X167773866Y-83299523D02*
X167535771Y-83299523D01*
X167535771Y-83299523D02*
X167345295Y-83251904D01*
X167345295Y-83251904D02*
X167250057Y-83204285D01*
X167250057Y-83204285D02*
X167202438Y-83156666D01*
X167202438Y-83156666D02*
X167154819Y-83061428D01*
D11*
X120456464Y-63219021D02*
X119956084Y-62504193D01*
X119598670Y-63219021D02*
X119598670Y-61717881D01*
X119598670Y-61717881D02*
X120170533Y-61717881D01*
X120170533Y-61717881D02*
X120313498Y-61789364D01*
X120313498Y-61789364D02*
X120384981Y-61860847D01*
X120384981Y-61860847D02*
X120456464Y-62003813D01*
X120456464Y-62003813D02*
X120456464Y-62218261D01*
X120456464Y-62218261D02*
X120384981Y-62361227D01*
X120384981Y-62361227D02*
X120313498Y-62432710D01*
X120313498Y-62432710D02*
X120170533Y-62504193D01*
X120170533Y-62504193D02*
X119598670Y-62504193D01*
X120885361Y-61717881D02*
X121385741Y-63219021D01*
X121385741Y-63219021D02*
X121886121Y-61717881D01*
X122243535Y-61717881D02*
X123172812Y-61717881D01*
X123172812Y-61717881D02*
X122672432Y-62289744D01*
X122672432Y-62289744D02*
X122886881Y-62289744D01*
X122886881Y-62289744D02*
X123029847Y-62361227D01*
X123029847Y-62361227D02*
X123101329Y-62432710D01*
X123101329Y-62432710D02*
X123172812Y-62575676D01*
X123172812Y-62575676D02*
X123172812Y-62933090D01*
X123172812Y-62933090D02*
X123101329Y-63076056D01*
X123101329Y-63076056D02*
X123029847Y-63147539D01*
X123029847Y-63147539D02*
X122886881Y-63219021D01*
X122886881Y-63219021D02*
X122457984Y-63219021D01*
X122457984Y-63219021D02*
X122315018Y-63147539D01*
X122315018Y-63147539D02*
X122243535Y-63076056D01*
X119787635Y-58719021D02*
X118929841Y-58719021D01*
X119358738Y-58719021D02*
X119358738Y-57217881D01*
X119358738Y-57217881D02*
X119215772Y-57432330D01*
X119215772Y-57432330D02*
X119072807Y-57575296D01*
X119072807Y-57575296D02*
X118929841Y-57646779D01*
X120716912Y-57217881D02*
X120859878Y-57217881D01*
X120859878Y-57217881D02*
X121002844Y-57289364D01*
X121002844Y-57289364D02*
X121074327Y-57360847D01*
X121074327Y-57360847D02*
X121145809Y-57503813D01*
X121145809Y-57503813D02*
X121217292Y-57789744D01*
X121217292Y-57789744D02*
X121217292Y-58147159D01*
X121217292Y-58147159D02*
X121145809Y-58433090D01*
X121145809Y-58433090D02*
X121074327Y-58576056D01*
X121074327Y-58576056D02*
X121002844Y-58647539D01*
X121002844Y-58647539D02*
X120859878Y-58719021D01*
X120859878Y-58719021D02*
X120716912Y-58719021D01*
X120716912Y-58719021D02*
X120573947Y-58647539D01*
X120573947Y-58647539D02*
X120502464Y-58576056D01*
X120502464Y-58576056D02*
X120430981Y-58433090D01*
X120430981Y-58433090D02*
X120359498Y-58147159D01*
X120359498Y-58147159D02*
X120359498Y-57789744D01*
X120359498Y-57789744D02*
X120430981Y-57503813D01*
X120430981Y-57503813D02*
X120502464Y-57360847D01*
X120502464Y-57360847D02*
X120573947Y-57289364D01*
X120573947Y-57289364D02*
X120716912Y-57217881D01*
X122146569Y-57217881D02*
X122289535Y-57217881D01*
X122289535Y-57217881D02*
X122432501Y-57289364D01*
X122432501Y-57289364D02*
X122503984Y-57360847D01*
X122503984Y-57360847D02*
X122575466Y-57503813D01*
X122575466Y-57503813D02*
X122646949Y-57789744D01*
X122646949Y-57789744D02*
X122646949Y-58147159D01*
X122646949Y-58147159D02*
X122575466Y-58433090D01*
X122575466Y-58433090D02*
X122503984Y-58576056D01*
X122503984Y-58576056D02*
X122432501Y-58647539D01*
X122432501Y-58647539D02*
X122289535Y-58719021D01*
X122289535Y-58719021D02*
X122146569Y-58719021D01*
X122146569Y-58719021D02*
X122003604Y-58647539D01*
X122003604Y-58647539D02*
X121932121Y-58576056D01*
X121932121Y-58576056D02*
X121860638Y-58433090D01*
X121860638Y-58433090D02*
X121789155Y-58147159D01*
X121789155Y-58147159D02*
X121789155Y-57789744D01*
X121789155Y-57789744D02*
X121860638Y-57503813D01*
X121860638Y-57503813D02*
X121932121Y-57360847D01*
X121932121Y-57360847D02*
X122003604Y-57289364D01*
X122003604Y-57289364D02*
X122146569Y-57217881D01*
X123290295Y-58719021D02*
X123290295Y-57217881D01*
X123433261Y-58147159D02*
X123862158Y-58719021D01*
X123862158Y-57718261D02*
X123290295Y-58290124D01*
D10*
X158459580Y-70366666D02*
X158507200Y-70414285D01*
X158507200Y-70414285D02*
X158554819Y-70557142D01*
X158554819Y-70557142D02*
X158554819Y-70652380D01*
X158554819Y-70652380D02*
X158507200Y-70795237D01*
X158507200Y-70795237D02*
X158411961Y-70890475D01*
X158411961Y-70890475D02*
X158316723Y-70938094D01*
X158316723Y-70938094D02*
X158126247Y-70985713D01*
X158126247Y-70985713D02*
X157983390Y-70985713D01*
X157983390Y-70985713D02*
X157792914Y-70938094D01*
X157792914Y-70938094D02*
X157697676Y-70890475D01*
X157697676Y-70890475D02*
X157602438Y-70795237D01*
X157602438Y-70795237D02*
X157554819Y-70652380D01*
X157554819Y-70652380D02*
X157554819Y-70557142D01*
X157554819Y-70557142D02*
X157602438Y-70414285D01*
X157602438Y-70414285D02*
X157650057Y-70366666D01*
X157554819Y-70033332D02*
X157554819Y-69414285D01*
X157554819Y-69414285D02*
X157935771Y-69747618D01*
X157935771Y-69747618D02*
X157935771Y-69604761D01*
X157935771Y-69604761D02*
X157983390Y-69509523D01*
X157983390Y-69509523D02*
X158031009Y-69461904D01*
X158031009Y-69461904D02*
X158126247Y-69414285D01*
X158126247Y-69414285D02*
X158364342Y-69414285D01*
X158364342Y-69414285D02*
X158459580Y-69461904D01*
X158459580Y-69461904D02*
X158507200Y-69509523D01*
X158507200Y-69509523D02*
X158554819Y-69604761D01*
X158554819Y-69604761D02*
X158554819Y-69890475D01*
X158554819Y-69890475D02*
X158507200Y-69985713D01*
X158507200Y-69985713D02*
X158459580Y-70033332D01*
X127566666Y-23654819D02*
X127566666Y-24369104D01*
X127566666Y-24369104D02*
X127519047Y-24511961D01*
X127519047Y-24511961D02*
X127423809Y-24607200D01*
X127423809Y-24607200D02*
X127280952Y-24654819D01*
X127280952Y-24654819D02*
X127185714Y-24654819D01*
X127995238Y-23750057D02*
X128042857Y-23702438D01*
X128042857Y-23702438D02*
X128138095Y-23654819D01*
X128138095Y-23654819D02*
X128376190Y-23654819D01*
X128376190Y-23654819D02*
X128471428Y-23702438D01*
X128471428Y-23702438D02*
X128519047Y-23750057D01*
X128519047Y-23750057D02*
X128566666Y-23845295D01*
X128566666Y-23845295D02*
X128566666Y-23940533D01*
X128566666Y-23940533D02*
X128519047Y-24083390D01*
X128519047Y-24083390D02*
X127947619Y-24654819D01*
X127947619Y-24654819D02*
X128566666Y-24654819D01*
X131933333Y-83759580D02*
X131885714Y-83807200D01*
X131885714Y-83807200D02*
X131742857Y-83854819D01*
X131742857Y-83854819D02*
X131647619Y-83854819D01*
X131647619Y-83854819D02*
X131504762Y-83807200D01*
X131504762Y-83807200D02*
X131409524Y-83711961D01*
X131409524Y-83711961D02*
X131361905Y-83616723D01*
X131361905Y-83616723D02*
X131314286Y-83426247D01*
X131314286Y-83426247D02*
X131314286Y-83283390D01*
X131314286Y-83283390D02*
X131361905Y-83092914D01*
X131361905Y-83092914D02*
X131409524Y-82997676D01*
X131409524Y-82997676D02*
X131504762Y-82902438D01*
X131504762Y-82902438D02*
X131647619Y-82854819D01*
X131647619Y-82854819D02*
X131742857Y-82854819D01*
X131742857Y-82854819D02*
X131885714Y-82902438D01*
X131885714Y-82902438D02*
X131933333Y-82950057D01*
X132790476Y-83188152D02*
X132790476Y-83854819D01*
X132552381Y-82807200D02*
X132314286Y-83521485D01*
X132314286Y-83521485D02*
X132933333Y-83521485D01*
X138154819Y-56766666D02*
X137678628Y-57099999D01*
X138154819Y-57338094D02*
X137154819Y-57338094D01*
X137154819Y-57338094D02*
X137154819Y-56957142D01*
X137154819Y-56957142D02*
X137202438Y-56861904D01*
X137202438Y-56861904D02*
X137250057Y-56814285D01*
X137250057Y-56814285D02*
X137345295Y-56766666D01*
X137345295Y-56766666D02*
X137488152Y-56766666D01*
X137488152Y-56766666D02*
X137583390Y-56814285D01*
X137583390Y-56814285D02*
X137631009Y-56861904D01*
X137631009Y-56861904D02*
X137678628Y-56957142D01*
X137678628Y-56957142D02*
X137678628Y-57338094D01*
X137154819Y-56433332D02*
X137154819Y-55814285D01*
X137154819Y-55814285D02*
X137535771Y-56147618D01*
X137535771Y-56147618D02*
X137535771Y-56004761D01*
X137535771Y-56004761D02*
X137583390Y-55909523D01*
X137583390Y-55909523D02*
X137631009Y-55861904D01*
X137631009Y-55861904D02*
X137726247Y-55814285D01*
X137726247Y-55814285D02*
X137964342Y-55814285D01*
X137964342Y-55814285D02*
X138059580Y-55861904D01*
X138059580Y-55861904D02*
X138107200Y-55909523D01*
X138107200Y-55909523D02*
X138154819Y-56004761D01*
X138154819Y-56004761D02*
X138154819Y-56290475D01*
X138154819Y-56290475D02*
X138107200Y-56385713D01*
X138107200Y-56385713D02*
X138059580Y-56433332D01*
X120253095Y-73234819D02*
X120253095Y-74044342D01*
X120253095Y-74044342D02*
X120300714Y-74139580D01*
X120300714Y-74139580D02*
X120348333Y-74187200D01*
X120348333Y-74187200D02*
X120443571Y-74234819D01*
X120443571Y-74234819D02*
X120634047Y-74234819D01*
X120634047Y-74234819D02*
X120729285Y-74187200D01*
X120729285Y-74187200D02*
X120776904Y-74139580D01*
X120776904Y-74139580D02*
X120824523Y-74044342D01*
X120824523Y-74044342D02*
X120824523Y-73234819D01*
X121824523Y-74234819D02*
X121253095Y-74234819D01*
X121538809Y-74234819D02*
X121538809Y-73234819D01*
X121538809Y-73234819D02*
X121443571Y-73377676D01*
X121443571Y-73377676D02*
X121348333Y-73472914D01*
X121348333Y-73472914D02*
X121253095Y-73520533D01*
X168354819Y-56776666D02*
X167878628Y-57109999D01*
X168354819Y-57348094D02*
X167354819Y-57348094D01*
X167354819Y-57348094D02*
X167354819Y-56967142D01*
X167354819Y-56967142D02*
X167402438Y-56871904D01*
X167402438Y-56871904D02*
X167450057Y-56824285D01*
X167450057Y-56824285D02*
X167545295Y-56776666D01*
X167545295Y-56776666D02*
X167688152Y-56776666D01*
X167688152Y-56776666D02*
X167783390Y-56824285D01*
X167783390Y-56824285D02*
X167831009Y-56871904D01*
X167831009Y-56871904D02*
X167878628Y-56967142D01*
X167878628Y-56967142D02*
X167878628Y-57348094D01*
X168354819Y-55824285D02*
X168354819Y-56395713D01*
X168354819Y-56109999D02*
X167354819Y-56109999D01*
X167354819Y-56109999D02*
X167497676Y-56205237D01*
X167497676Y-56205237D02*
X167592914Y-56300475D01*
X167592914Y-56300475D02*
X167640533Y-56395713D01*
D11*
X181306464Y-48184021D02*
X180806084Y-47469193D01*
X180448670Y-48184021D02*
X180448670Y-46682881D01*
X180448670Y-46682881D02*
X181020533Y-46682881D01*
X181020533Y-46682881D02*
X181163498Y-46754364D01*
X181163498Y-46754364D02*
X181234981Y-46825847D01*
X181234981Y-46825847D02*
X181306464Y-46968813D01*
X181306464Y-46968813D02*
X181306464Y-47183261D01*
X181306464Y-47183261D02*
X181234981Y-47326227D01*
X181234981Y-47326227D02*
X181163498Y-47397710D01*
X181163498Y-47397710D02*
X181020533Y-47469193D01*
X181020533Y-47469193D02*
X180448670Y-47469193D01*
X181735361Y-46682881D02*
X182235741Y-48184021D01*
X182235741Y-48184021D02*
X182736121Y-46682881D01*
X183165018Y-46825847D02*
X183236501Y-46754364D01*
X183236501Y-46754364D02*
X183379467Y-46682881D01*
X183379467Y-46682881D02*
X183736881Y-46682881D01*
X183736881Y-46682881D02*
X183879847Y-46754364D01*
X183879847Y-46754364D02*
X183951329Y-46825847D01*
X183951329Y-46825847D02*
X184022812Y-46968813D01*
X184022812Y-46968813D02*
X184022812Y-47111779D01*
X184022812Y-47111779D02*
X183951329Y-47326227D01*
X183951329Y-47326227D02*
X183093535Y-48184021D01*
X183093535Y-48184021D02*
X184022812Y-48184021D01*
X180591635Y-43184021D02*
X179733841Y-43184021D01*
X180162738Y-43184021D02*
X180162738Y-41682881D01*
X180162738Y-41682881D02*
X180019772Y-41897330D01*
X180019772Y-41897330D02*
X179876807Y-42040296D01*
X179876807Y-42040296D02*
X179733841Y-42111779D01*
X181520912Y-41682881D02*
X181663878Y-41682881D01*
X181663878Y-41682881D02*
X181806844Y-41754364D01*
X181806844Y-41754364D02*
X181878327Y-41825847D01*
X181878327Y-41825847D02*
X181949809Y-41968813D01*
X181949809Y-41968813D02*
X182021292Y-42254744D01*
X182021292Y-42254744D02*
X182021292Y-42612159D01*
X182021292Y-42612159D02*
X181949809Y-42898090D01*
X181949809Y-42898090D02*
X181878327Y-43041056D01*
X181878327Y-43041056D02*
X181806844Y-43112539D01*
X181806844Y-43112539D02*
X181663878Y-43184021D01*
X181663878Y-43184021D02*
X181520912Y-43184021D01*
X181520912Y-43184021D02*
X181377947Y-43112539D01*
X181377947Y-43112539D02*
X181306464Y-43041056D01*
X181306464Y-43041056D02*
X181234981Y-42898090D01*
X181234981Y-42898090D02*
X181163498Y-42612159D01*
X181163498Y-42612159D02*
X181163498Y-42254744D01*
X181163498Y-42254744D02*
X181234981Y-41968813D01*
X181234981Y-41968813D02*
X181306464Y-41825847D01*
X181306464Y-41825847D02*
X181377947Y-41754364D01*
X181377947Y-41754364D02*
X181520912Y-41682881D01*
X182950569Y-41682881D02*
X183093535Y-41682881D01*
X183093535Y-41682881D02*
X183236501Y-41754364D01*
X183236501Y-41754364D02*
X183307984Y-41825847D01*
X183307984Y-41825847D02*
X183379466Y-41968813D01*
X183379466Y-41968813D02*
X183450949Y-42254744D01*
X183450949Y-42254744D02*
X183450949Y-42612159D01*
X183450949Y-42612159D02*
X183379466Y-42898090D01*
X183379466Y-42898090D02*
X183307984Y-43041056D01*
X183307984Y-43041056D02*
X183236501Y-43112539D01*
X183236501Y-43112539D02*
X183093535Y-43184021D01*
X183093535Y-43184021D02*
X182950569Y-43184021D01*
X182950569Y-43184021D02*
X182807604Y-43112539D01*
X182807604Y-43112539D02*
X182736121Y-43041056D01*
X182736121Y-43041056D02*
X182664638Y-42898090D01*
X182664638Y-42898090D02*
X182593155Y-42612159D01*
X182593155Y-42612159D02*
X182593155Y-42254744D01*
X182593155Y-42254744D02*
X182664638Y-41968813D01*
X182664638Y-41968813D02*
X182736121Y-41825847D01*
X182736121Y-41825847D02*
X182807604Y-41754364D01*
X182807604Y-41754364D02*
X182950569Y-41682881D01*
X184094295Y-43184021D02*
X184094295Y-41682881D01*
X184237261Y-42612159D02*
X184666158Y-43184021D01*
X184666158Y-42183261D02*
X184094295Y-42755124D01*
D10*
X116067142Y-104254819D02*
X115733809Y-103778628D01*
X115495714Y-104254819D02*
X115495714Y-103254819D01*
X115495714Y-103254819D02*
X115876666Y-103254819D01*
X115876666Y-103254819D02*
X115971904Y-103302438D01*
X115971904Y-103302438D02*
X116019523Y-103350057D01*
X116019523Y-103350057D02*
X116067142Y-103445295D01*
X116067142Y-103445295D02*
X116067142Y-103588152D01*
X116067142Y-103588152D02*
X116019523Y-103683390D01*
X116019523Y-103683390D02*
X115971904Y-103731009D01*
X115971904Y-103731009D02*
X115876666Y-103778628D01*
X115876666Y-103778628D02*
X115495714Y-103778628D01*
X117019523Y-104254819D02*
X116448095Y-104254819D01*
X116733809Y-104254819D02*
X116733809Y-103254819D01*
X116733809Y-103254819D02*
X116638571Y-103397676D01*
X116638571Y-103397676D02*
X116543333Y-103492914D01*
X116543333Y-103492914D02*
X116448095Y-103540533D01*
X117876666Y-103588152D02*
X117876666Y-104254819D01*
X117638571Y-103207200D02*
X117400476Y-103921485D01*
X117400476Y-103921485D02*
X118019523Y-103921485D01*
X145854819Y-84642857D02*
X145378628Y-84976190D01*
X145854819Y-85214285D02*
X144854819Y-85214285D01*
X144854819Y-85214285D02*
X144854819Y-84833333D01*
X144854819Y-84833333D02*
X144902438Y-84738095D01*
X144902438Y-84738095D02*
X144950057Y-84690476D01*
X144950057Y-84690476D02*
X145045295Y-84642857D01*
X145045295Y-84642857D02*
X145188152Y-84642857D01*
X145188152Y-84642857D02*
X145283390Y-84690476D01*
X145283390Y-84690476D02*
X145331009Y-84738095D01*
X145331009Y-84738095D02*
X145378628Y-84833333D01*
X145378628Y-84833333D02*
X145378628Y-85214285D01*
X145854819Y-83690476D02*
X145854819Y-84261904D01*
X145854819Y-83976190D02*
X144854819Y-83976190D01*
X144854819Y-83976190D02*
X144997676Y-84071428D01*
X144997676Y-84071428D02*
X145092914Y-84166666D01*
X145092914Y-84166666D02*
X145140533Y-84261904D01*
X144950057Y-83309523D02*
X144902438Y-83261904D01*
X144902438Y-83261904D02*
X144854819Y-83166666D01*
X144854819Y-83166666D02*
X144854819Y-82928571D01*
X144854819Y-82928571D02*
X144902438Y-82833333D01*
X144902438Y-82833333D02*
X144950057Y-82785714D01*
X144950057Y-82785714D02*
X145045295Y-82738095D01*
X145045295Y-82738095D02*
X145140533Y-82738095D01*
X145140533Y-82738095D02*
X145283390Y-82785714D01*
X145283390Y-82785714D02*
X145854819Y-83357142D01*
X145854819Y-83357142D02*
X145854819Y-82738095D01*
X157554819Y-56776666D02*
X157078628Y-57109999D01*
X157554819Y-57348094D02*
X156554819Y-57348094D01*
X156554819Y-57348094D02*
X156554819Y-56967142D01*
X156554819Y-56967142D02*
X156602438Y-56871904D01*
X156602438Y-56871904D02*
X156650057Y-56824285D01*
X156650057Y-56824285D02*
X156745295Y-56776666D01*
X156745295Y-56776666D02*
X156888152Y-56776666D01*
X156888152Y-56776666D02*
X156983390Y-56824285D01*
X156983390Y-56824285D02*
X157031009Y-56871904D01*
X157031009Y-56871904D02*
X157078628Y-56967142D01*
X157078628Y-56967142D02*
X157078628Y-57348094D01*
X156650057Y-56395713D02*
X156602438Y-56348094D01*
X156602438Y-56348094D02*
X156554819Y-56252856D01*
X156554819Y-56252856D02*
X156554819Y-56014761D01*
X156554819Y-56014761D02*
X156602438Y-55919523D01*
X156602438Y-55919523D02*
X156650057Y-55871904D01*
X156650057Y-55871904D02*
X156745295Y-55824285D01*
X156745295Y-55824285D02*
X156840533Y-55824285D01*
X156840533Y-55824285D02*
X156983390Y-55871904D01*
X156983390Y-55871904D02*
X157554819Y-56443332D01*
X157554819Y-56443332D02*
X157554819Y-55824285D01*
X141366666Y-23654819D02*
X141366666Y-24369104D01*
X141366666Y-24369104D02*
X141319047Y-24511961D01*
X141319047Y-24511961D02*
X141223809Y-24607200D01*
X141223809Y-24607200D02*
X141080952Y-24654819D01*
X141080952Y-24654819D02*
X140985714Y-24654819D01*
X142366666Y-24654819D02*
X141795238Y-24654819D01*
X142080952Y-24654819D02*
X142080952Y-23654819D01*
X142080952Y-23654819D02*
X141985714Y-23797676D01*
X141985714Y-23797676D02*
X141890476Y-23892914D01*
X141890476Y-23892914D02*
X141795238Y-23940533D01*
X113354819Y-84632857D02*
X112878628Y-84966190D01*
X113354819Y-85204285D02*
X112354819Y-85204285D01*
X112354819Y-85204285D02*
X112354819Y-84823333D01*
X112354819Y-84823333D02*
X112402438Y-84728095D01*
X112402438Y-84728095D02*
X112450057Y-84680476D01*
X112450057Y-84680476D02*
X112545295Y-84632857D01*
X112545295Y-84632857D02*
X112688152Y-84632857D01*
X112688152Y-84632857D02*
X112783390Y-84680476D01*
X112783390Y-84680476D02*
X112831009Y-84728095D01*
X112831009Y-84728095D02*
X112878628Y-84823333D01*
X112878628Y-84823333D02*
X112878628Y-85204285D01*
X113354819Y-83680476D02*
X113354819Y-84251904D01*
X113354819Y-83966190D02*
X112354819Y-83966190D01*
X112354819Y-83966190D02*
X112497676Y-84061428D01*
X112497676Y-84061428D02*
X112592914Y-84156666D01*
X112592914Y-84156666D02*
X112640533Y-84251904D01*
X112354819Y-83061428D02*
X112354819Y-82966190D01*
X112354819Y-82966190D02*
X112402438Y-82870952D01*
X112402438Y-82870952D02*
X112450057Y-82823333D01*
X112450057Y-82823333D02*
X112545295Y-82775714D01*
X112545295Y-82775714D02*
X112735771Y-82728095D01*
X112735771Y-82728095D02*
X112973866Y-82728095D01*
X112973866Y-82728095D02*
X113164342Y-82775714D01*
X113164342Y-82775714D02*
X113259580Y-82823333D01*
X113259580Y-82823333D02*
X113307200Y-82870952D01*
X113307200Y-82870952D02*
X113354819Y-82966190D01*
X113354819Y-82966190D02*
X113354819Y-83061428D01*
X113354819Y-83061428D02*
X113307200Y-83156666D01*
X113307200Y-83156666D02*
X113259580Y-83204285D01*
X113259580Y-83204285D02*
X113164342Y-83251904D01*
X113164342Y-83251904D02*
X112973866Y-83299523D01*
X112973866Y-83299523D02*
X112735771Y-83299523D01*
X112735771Y-83299523D02*
X112545295Y-83251904D01*
X112545295Y-83251904D02*
X112450057Y-83204285D01*
X112450057Y-83204285D02*
X112402438Y-83156666D01*
X112402438Y-83156666D02*
X112354819Y-83061428D01*
X130154819Y-56776666D02*
X129678628Y-57109999D01*
X130154819Y-57348094D02*
X129154819Y-57348094D01*
X129154819Y-57348094D02*
X129154819Y-56967142D01*
X129154819Y-56967142D02*
X129202438Y-56871904D01*
X129202438Y-56871904D02*
X129250057Y-56824285D01*
X129250057Y-56824285D02*
X129345295Y-56776666D01*
X129345295Y-56776666D02*
X129488152Y-56776666D01*
X129488152Y-56776666D02*
X129583390Y-56824285D01*
X129583390Y-56824285D02*
X129631009Y-56871904D01*
X129631009Y-56871904D02*
X129678628Y-56967142D01*
X129678628Y-56967142D02*
X129678628Y-57348094D01*
X129250057Y-56395713D02*
X129202438Y-56348094D01*
X129202438Y-56348094D02*
X129154819Y-56252856D01*
X129154819Y-56252856D02*
X129154819Y-56014761D01*
X129154819Y-56014761D02*
X129202438Y-55919523D01*
X129202438Y-55919523D02*
X129250057Y-55871904D01*
X129250057Y-55871904D02*
X129345295Y-55824285D01*
X129345295Y-55824285D02*
X129440533Y-55824285D01*
X129440533Y-55824285D02*
X129583390Y-55871904D01*
X129583390Y-55871904D02*
X130154819Y-56443332D01*
X130154819Y-56443332D02*
X130154819Y-55824285D01*
X124477142Y-83454819D02*
X124143809Y-82978628D01*
X123905714Y-83454819D02*
X123905714Y-82454819D01*
X123905714Y-82454819D02*
X124286666Y-82454819D01*
X124286666Y-82454819D02*
X124381904Y-82502438D01*
X124381904Y-82502438D02*
X124429523Y-82550057D01*
X124429523Y-82550057D02*
X124477142Y-82645295D01*
X124477142Y-82645295D02*
X124477142Y-82788152D01*
X124477142Y-82788152D02*
X124429523Y-82883390D01*
X124429523Y-82883390D02*
X124381904Y-82931009D01*
X124381904Y-82931009D02*
X124286666Y-82978628D01*
X124286666Y-82978628D02*
X123905714Y-82978628D01*
X125429523Y-83454819D02*
X124858095Y-83454819D01*
X125143809Y-83454819D02*
X125143809Y-82454819D01*
X125143809Y-82454819D02*
X125048571Y-82597676D01*
X125048571Y-82597676D02*
X124953333Y-82692914D01*
X124953333Y-82692914D02*
X124858095Y-82740533D01*
X126381904Y-83454819D02*
X125810476Y-83454819D01*
X126096190Y-83454819D02*
X126096190Y-82454819D01*
X126096190Y-82454819D02*
X126000952Y-82597676D01*
X126000952Y-82597676D02*
X125905714Y-82692914D01*
X125905714Y-82692914D02*
X125810476Y-82740533D01*
X170754819Y-84156666D02*
X170278628Y-84489999D01*
X170754819Y-84728094D02*
X169754819Y-84728094D01*
X169754819Y-84728094D02*
X169754819Y-84347142D01*
X169754819Y-84347142D02*
X169802438Y-84251904D01*
X169802438Y-84251904D02*
X169850057Y-84204285D01*
X169850057Y-84204285D02*
X169945295Y-84156666D01*
X169945295Y-84156666D02*
X170088152Y-84156666D01*
X170088152Y-84156666D02*
X170183390Y-84204285D01*
X170183390Y-84204285D02*
X170231009Y-84251904D01*
X170231009Y-84251904D02*
X170278628Y-84347142D01*
X170278628Y-84347142D02*
X170278628Y-84728094D01*
X169754819Y-83823332D02*
X169754819Y-83156666D01*
X169754819Y-83156666D02*
X170754819Y-83585237D01*
D11*
X147856464Y-63219021D02*
X147356084Y-62504193D01*
X146998670Y-63219021D02*
X146998670Y-61717881D01*
X146998670Y-61717881D02*
X147570533Y-61717881D01*
X147570533Y-61717881D02*
X147713498Y-61789364D01*
X147713498Y-61789364D02*
X147784981Y-61860847D01*
X147784981Y-61860847D02*
X147856464Y-62003813D01*
X147856464Y-62003813D02*
X147856464Y-62218261D01*
X147856464Y-62218261D02*
X147784981Y-62361227D01*
X147784981Y-62361227D02*
X147713498Y-62432710D01*
X147713498Y-62432710D02*
X147570533Y-62504193D01*
X147570533Y-62504193D02*
X146998670Y-62504193D01*
X148285361Y-61717881D02*
X148785741Y-63219021D01*
X148785741Y-63219021D02*
X149286121Y-61717881D01*
X149643535Y-61717881D02*
X150572812Y-61717881D01*
X150572812Y-61717881D02*
X150072432Y-62289744D01*
X150072432Y-62289744D02*
X150286881Y-62289744D01*
X150286881Y-62289744D02*
X150429847Y-62361227D01*
X150429847Y-62361227D02*
X150501329Y-62432710D01*
X150501329Y-62432710D02*
X150572812Y-62575676D01*
X150572812Y-62575676D02*
X150572812Y-62933090D01*
X150572812Y-62933090D02*
X150501329Y-63076056D01*
X150501329Y-63076056D02*
X150429847Y-63147539D01*
X150429847Y-63147539D02*
X150286881Y-63219021D01*
X150286881Y-63219021D02*
X149857984Y-63219021D01*
X149857984Y-63219021D02*
X149715018Y-63147539D01*
X149715018Y-63147539D02*
X149643535Y-63076056D01*
X147187635Y-58719021D02*
X146329841Y-58719021D01*
X146758738Y-58719021D02*
X146758738Y-57217881D01*
X146758738Y-57217881D02*
X146615772Y-57432330D01*
X146615772Y-57432330D02*
X146472807Y-57575296D01*
X146472807Y-57575296D02*
X146329841Y-57646779D01*
X148116912Y-57217881D02*
X148259878Y-57217881D01*
X148259878Y-57217881D02*
X148402844Y-57289364D01*
X148402844Y-57289364D02*
X148474327Y-57360847D01*
X148474327Y-57360847D02*
X148545809Y-57503813D01*
X148545809Y-57503813D02*
X148617292Y-57789744D01*
X148617292Y-57789744D02*
X148617292Y-58147159D01*
X148617292Y-58147159D02*
X148545809Y-58433090D01*
X148545809Y-58433090D02*
X148474327Y-58576056D01*
X148474327Y-58576056D02*
X148402844Y-58647539D01*
X148402844Y-58647539D02*
X148259878Y-58719021D01*
X148259878Y-58719021D02*
X148116912Y-58719021D01*
X148116912Y-58719021D02*
X147973947Y-58647539D01*
X147973947Y-58647539D02*
X147902464Y-58576056D01*
X147902464Y-58576056D02*
X147830981Y-58433090D01*
X147830981Y-58433090D02*
X147759498Y-58147159D01*
X147759498Y-58147159D02*
X147759498Y-57789744D01*
X147759498Y-57789744D02*
X147830981Y-57503813D01*
X147830981Y-57503813D02*
X147902464Y-57360847D01*
X147902464Y-57360847D02*
X147973947Y-57289364D01*
X147973947Y-57289364D02*
X148116912Y-57217881D01*
X149546569Y-57217881D02*
X149689535Y-57217881D01*
X149689535Y-57217881D02*
X149832501Y-57289364D01*
X149832501Y-57289364D02*
X149903984Y-57360847D01*
X149903984Y-57360847D02*
X149975466Y-57503813D01*
X149975466Y-57503813D02*
X150046949Y-57789744D01*
X150046949Y-57789744D02*
X150046949Y-58147159D01*
X150046949Y-58147159D02*
X149975466Y-58433090D01*
X149975466Y-58433090D02*
X149903984Y-58576056D01*
X149903984Y-58576056D02*
X149832501Y-58647539D01*
X149832501Y-58647539D02*
X149689535Y-58719021D01*
X149689535Y-58719021D02*
X149546569Y-58719021D01*
X149546569Y-58719021D02*
X149403604Y-58647539D01*
X149403604Y-58647539D02*
X149332121Y-58576056D01*
X149332121Y-58576056D02*
X149260638Y-58433090D01*
X149260638Y-58433090D02*
X149189155Y-58147159D01*
X149189155Y-58147159D02*
X149189155Y-57789744D01*
X149189155Y-57789744D02*
X149260638Y-57503813D01*
X149260638Y-57503813D02*
X149332121Y-57360847D01*
X149332121Y-57360847D02*
X149403604Y-57289364D01*
X149403604Y-57289364D02*
X149546569Y-57217881D01*
X150690295Y-58719021D02*
X150690295Y-57217881D01*
X150833261Y-58147159D02*
X151262158Y-58719021D01*
X151262158Y-57718261D02*
X150690295Y-58290124D01*
D10*
X179277142Y-83454819D02*
X178943809Y-82978628D01*
X178705714Y-83454819D02*
X178705714Y-82454819D01*
X178705714Y-82454819D02*
X179086666Y-82454819D01*
X179086666Y-82454819D02*
X179181904Y-82502438D01*
X179181904Y-82502438D02*
X179229523Y-82550057D01*
X179229523Y-82550057D02*
X179277142Y-82645295D01*
X179277142Y-82645295D02*
X179277142Y-82788152D01*
X179277142Y-82788152D02*
X179229523Y-82883390D01*
X179229523Y-82883390D02*
X179181904Y-82931009D01*
X179181904Y-82931009D02*
X179086666Y-82978628D01*
X179086666Y-82978628D02*
X178705714Y-82978628D01*
X180229523Y-83454819D02*
X179658095Y-83454819D01*
X179943809Y-83454819D02*
X179943809Y-82454819D01*
X179943809Y-82454819D02*
X179848571Y-82597676D01*
X179848571Y-82597676D02*
X179753333Y-82692914D01*
X179753333Y-82692914D02*
X179658095Y-82740533D01*
X181181904Y-83454819D02*
X180610476Y-83454819D01*
X180896190Y-83454819D02*
X180896190Y-82454819D01*
X180896190Y-82454819D02*
X180800952Y-82597676D01*
X180800952Y-82597676D02*
X180705714Y-82692914D01*
X180705714Y-82692914D02*
X180610476Y-82740533D01*
X173254819Y-84642857D02*
X172778628Y-84976190D01*
X173254819Y-85214285D02*
X172254819Y-85214285D01*
X172254819Y-85214285D02*
X172254819Y-84833333D01*
X172254819Y-84833333D02*
X172302438Y-84738095D01*
X172302438Y-84738095D02*
X172350057Y-84690476D01*
X172350057Y-84690476D02*
X172445295Y-84642857D01*
X172445295Y-84642857D02*
X172588152Y-84642857D01*
X172588152Y-84642857D02*
X172683390Y-84690476D01*
X172683390Y-84690476D02*
X172731009Y-84738095D01*
X172731009Y-84738095D02*
X172778628Y-84833333D01*
X172778628Y-84833333D02*
X172778628Y-85214285D01*
X173254819Y-83690476D02*
X173254819Y-84261904D01*
X173254819Y-83976190D02*
X172254819Y-83976190D01*
X172254819Y-83976190D02*
X172397676Y-84071428D01*
X172397676Y-84071428D02*
X172492914Y-84166666D01*
X172492914Y-84166666D02*
X172540533Y-84261904D01*
X172350057Y-83309523D02*
X172302438Y-83261904D01*
X172302438Y-83261904D02*
X172254819Y-83166666D01*
X172254819Y-83166666D02*
X172254819Y-82928571D01*
X172254819Y-82928571D02*
X172302438Y-82833333D01*
X172302438Y-82833333D02*
X172350057Y-82785714D01*
X172350057Y-82785714D02*
X172445295Y-82738095D01*
X172445295Y-82738095D02*
X172540533Y-82738095D01*
X172540533Y-82738095D02*
X172683390Y-82785714D01*
X172683390Y-82785714D02*
X173254819Y-83357142D01*
X173254819Y-83357142D02*
X173254819Y-82738095D01*
D11*
X126506464Y-48184021D02*
X126006084Y-47469193D01*
X125648670Y-48184021D02*
X125648670Y-46682881D01*
X125648670Y-46682881D02*
X126220533Y-46682881D01*
X126220533Y-46682881D02*
X126363498Y-46754364D01*
X126363498Y-46754364D02*
X126434981Y-46825847D01*
X126434981Y-46825847D02*
X126506464Y-46968813D01*
X126506464Y-46968813D02*
X126506464Y-47183261D01*
X126506464Y-47183261D02*
X126434981Y-47326227D01*
X126434981Y-47326227D02*
X126363498Y-47397710D01*
X126363498Y-47397710D02*
X126220533Y-47469193D01*
X126220533Y-47469193D02*
X125648670Y-47469193D01*
X126935361Y-46682881D02*
X127435741Y-48184021D01*
X127435741Y-48184021D02*
X127936121Y-46682881D01*
X128365018Y-46825847D02*
X128436501Y-46754364D01*
X128436501Y-46754364D02*
X128579467Y-46682881D01*
X128579467Y-46682881D02*
X128936881Y-46682881D01*
X128936881Y-46682881D02*
X129079847Y-46754364D01*
X129079847Y-46754364D02*
X129151329Y-46825847D01*
X129151329Y-46825847D02*
X129222812Y-46968813D01*
X129222812Y-46968813D02*
X129222812Y-47111779D01*
X129222812Y-47111779D02*
X129151329Y-47326227D01*
X129151329Y-47326227D02*
X128293535Y-48184021D01*
X128293535Y-48184021D02*
X129222812Y-48184021D01*
X125791635Y-43184021D02*
X124933841Y-43184021D01*
X125362738Y-43184021D02*
X125362738Y-41682881D01*
X125362738Y-41682881D02*
X125219772Y-41897330D01*
X125219772Y-41897330D02*
X125076807Y-42040296D01*
X125076807Y-42040296D02*
X124933841Y-42111779D01*
X126720912Y-41682881D02*
X126863878Y-41682881D01*
X126863878Y-41682881D02*
X127006844Y-41754364D01*
X127006844Y-41754364D02*
X127078327Y-41825847D01*
X127078327Y-41825847D02*
X127149809Y-41968813D01*
X127149809Y-41968813D02*
X127221292Y-42254744D01*
X127221292Y-42254744D02*
X127221292Y-42612159D01*
X127221292Y-42612159D02*
X127149809Y-42898090D01*
X127149809Y-42898090D02*
X127078327Y-43041056D01*
X127078327Y-43041056D02*
X127006844Y-43112539D01*
X127006844Y-43112539D02*
X126863878Y-43184021D01*
X126863878Y-43184021D02*
X126720912Y-43184021D01*
X126720912Y-43184021D02*
X126577947Y-43112539D01*
X126577947Y-43112539D02*
X126506464Y-43041056D01*
X126506464Y-43041056D02*
X126434981Y-42898090D01*
X126434981Y-42898090D02*
X126363498Y-42612159D01*
X126363498Y-42612159D02*
X126363498Y-42254744D01*
X126363498Y-42254744D02*
X126434981Y-41968813D01*
X126434981Y-41968813D02*
X126506464Y-41825847D01*
X126506464Y-41825847D02*
X126577947Y-41754364D01*
X126577947Y-41754364D02*
X126720912Y-41682881D01*
X128150569Y-41682881D02*
X128293535Y-41682881D01*
X128293535Y-41682881D02*
X128436501Y-41754364D01*
X128436501Y-41754364D02*
X128507984Y-41825847D01*
X128507984Y-41825847D02*
X128579466Y-41968813D01*
X128579466Y-41968813D02*
X128650949Y-42254744D01*
X128650949Y-42254744D02*
X128650949Y-42612159D01*
X128650949Y-42612159D02*
X128579466Y-42898090D01*
X128579466Y-42898090D02*
X128507984Y-43041056D01*
X128507984Y-43041056D02*
X128436501Y-43112539D01*
X128436501Y-43112539D02*
X128293535Y-43184021D01*
X128293535Y-43184021D02*
X128150569Y-43184021D01*
X128150569Y-43184021D02*
X128007604Y-43112539D01*
X128007604Y-43112539D02*
X127936121Y-43041056D01*
X127936121Y-43041056D02*
X127864638Y-42898090D01*
X127864638Y-42898090D02*
X127793155Y-42612159D01*
X127793155Y-42612159D02*
X127793155Y-42254744D01*
X127793155Y-42254744D02*
X127864638Y-41968813D01*
X127864638Y-41968813D02*
X127936121Y-41825847D01*
X127936121Y-41825847D02*
X128007604Y-41754364D01*
X128007604Y-41754364D02*
X128150569Y-41682881D01*
X129294295Y-43184021D02*
X129294295Y-41682881D01*
X129437261Y-42612159D02*
X129866158Y-43184021D01*
X129866158Y-42183261D02*
X129294295Y-42755124D01*
D10*
X115954819Y-84156666D02*
X115478628Y-84489999D01*
X115954819Y-84728094D02*
X114954819Y-84728094D01*
X114954819Y-84728094D02*
X114954819Y-84347142D01*
X114954819Y-84347142D02*
X115002438Y-84251904D01*
X115002438Y-84251904D02*
X115050057Y-84204285D01*
X115050057Y-84204285D02*
X115145295Y-84156666D01*
X115145295Y-84156666D02*
X115288152Y-84156666D01*
X115288152Y-84156666D02*
X115383390Y-84204285D01*
X115383390Y-84204285D02*
X115431009Y-84251904D01*
X115431009Y-84251904D02*
X115478628Y-84347142D01*
X115478628Y-84347142D02*
X115478628Y-84728094D01*
X114954819Y-83823332D02*
X114954819Y-83156666D01*
X114954819Y-83156666D02*
X115954819Y-83585237D01*
X184954819Y-56776666D02*
X184478628Y-57109999D01*
X184954819Y-57348094D02*
X183954819Y-57348094D01*
X183954819Y-57348094D02*
X183954819Y-56967142D01*
X183954819Y-56967142D02*
X184002438Y-56871904D01*
X184002438Y-56871904D02*
X184050057Y-56824285D01*
X184050057Y-56824285D02*
X184145295Y-56776666D01*
X184145295Y-56776666D02*
X184288152Y-56776666D01*
X184288152Y-56776666D02*
X184383390Y-56824285D01*
X184383390Y-56824285D02*
X184431009Y-56871904D01*
X184431009Y-56871904D02*
X184478628Y-56967142D01*
X184478628Y-56967142D02*
X184478628Y-57348094D01*
X184050057Y-56395713D02*
X184002438Y-56348094D01*
X184002438Y-56348094D02*
X183954819Y-56252856D01*
X183954819Y-56252856D02*
X183954819Y-56014761D01*
X183954819Y-56014761D02*
X184002438Y-55919523D01*
X184002438Y-55919523D02*
X184050057Y-55871904D01*
X184050057Y-55871904D02*
X184145295Y-55824285D01*
X184145295Y-55824285D02*
X184240533Y-55824285D01*
X184240533Y-55824285D02*
X184383390Y-55871904D01*
X184383390Y-55871904D02*
X184954819Y-56443332D01*
X184954819Y-56443332D02*
X184954819Y-55824285D01*
X140754819Y-84632857D02*
X140278628Y-84966190D01*
X140754819Y-85204285D02*
X139754819Y-85204285D01*
X139754819Y-85204285D02*
X139754819Y-84823333D01*
X139754819Y-84823333D02*
X139802438Y-84728095D01*
X139802438Y-84728095D02*
X139850057Y-84680476D01*
X139850057Y-84680476D02*
X139945295Y-84632857D01*
X139945295Y-84632857D02*
X140088152Y-84632857D01*
X140088152Y-84632857D02*
X140183390Y-84680476D01*
X140183390Y-84680476D02*
X140231009Y-84728095D01*
X140231009Y-84728095D02*
X140278628Y-84823333D01*
X140278628Y-84823333D02*
X140278628Y-85204285D01*
X140754819Y-83680476D02*
X140754819Y-84251904D01*
X140754819Y-83966190D02*
X139754819Y-83966190D01*
X139754819Y-83966190D02*
X139897676Y-84061428D01*
X139897676Y-84061428D02*
X139992914Y-84156666D01*
X139992914Y-84156666D02*
X140040533Y-84251904D01*
X139754819Y-83061428D02*
X139754819Y-82966190D01*
X139754819Y-82966190D02*
X139802438Y-82870952D01*
X139802438Y-82870952D02*
X139850057Y-82823333D01*
X139850057Y-82823333D02*
X139945295Y-82775714D01*
X139945295Y-82775714D02*
X140135771Y-82728095D01*
X140135771Y-82728095D02*
X140373866Y-82728095D01*
X140373866Y-82728095D02*
X140564342Y-82775714D01*
X140564342Y-82775714D02*
X140659580Y-82823333D01*
X140659580Y-82823333D02*
X140707200Y-82870952D01*
X140707200Y-82870952D02*
X140754819Y-82966190D01*
X140754819Y-82966190D02*
X140754819Y-83061428D01*
X140754819Y-83061428D02*
X140707200Y-83156666D01*
X140707200Y-83156666D02*
X140659580Y-83204285D01*
X140659580Y-83204285D02*
X140564342Y-83251904D01*
X140564342Y-83251904D02*
X140373866Y-83299523D01*
X140373866Y-83299523D02*
X140135771Y-83299523D01*
X140135771Y-83299523D02*
X139945295Y-83251904D01*
X139945295Y-83251904D02*
X139850057Y-83204285D01*
X139850057Y-83204285D02*
X139802438Y-83156666D01*
X139802438Y-83156666D02*
X139754819Y-83061428D01*
X113933333Y-67254819D02*
X113600000Y-66778628D01*
X113361905Y-67254819D02*
X113361905Y-66254819D01*
X113361905Y-66254819D02*
X113742857Y-66254819D01*
X113742857Y-66254819D02*
X113838095Y-66302438D01*
X113838095Y-66302438D02*
X113885714Y-66350057D01*
X113885714Y-66350057D02*
X113933333Y-66445295D01*
X113933333Y-66445295D02*
X113933333Y-66588152D01*
X113933333Y-66588152D02*
X113885714Y-66683390D01*
X113885714Y-66683390D02*
X113838095Y-66731009D01*
X113838095Y-66731009D02*
X113742857Y-66778628D01*
X113742857Y-66778628D02*
X113361905Y-66778628D01*
X114838095Y-66254819D02*
X114361905Y-66254819D01*
X114361905Y-66254819D02*
X114314286Y-66731009D01*
X114314286Y-66731009D02*
X114361905Y-66683390D01*
X114361905Y-66683390D02*
X114457143Y-66635771D01*
X114457143Y-66635771D02*
X114695238Y-66635771D01*
X114695238Y-66635771D02*
X114790476Y-66683390D01*
X114790476Y-66683390D02*
X114838095Y-66731009D01*
X114838095Y-66731009D02*
X114885714Y-66826247D01*
X114885714Y-66826247D02*
X114885714Y-67064342D01*
X114885714Y-67064342D02*
X114838095Y-67159580D01*
X114838095Y-67159580D02*
X114790476Y-67207200D01*
X114790476Y-67207200D02*
X114695238Y-67254819D01*
X114695238Y-67254819D02*
X114457143Y-67254819D01*
X114457143Y-67254819D02*
X114361905Y-67207200D01*
X114361905Y-67207200D02*
X114314286Y-67159580D01*
X182366666Y-23654819D02*
X182366666Y-24369104D01*
X182366666Y-24369104D02*
X182319047Y-24511961D01*
X182319047Y-24511961D02*
X182223809Y-24607200D01*
X182223809Y-24607200D02*
X182080952Y-24654819D01*
X182080952Y-24654819D02*
X181985714Y-24654819D01*
X182795238Y-23750057D02*
X182842857Y-23702438D01*
X182842857Y-23702438D02*
X182938095Y-23654819D01*
X182938095Y-23654819D02*
X183176190Y-23654819D01*
X183176190Y-23654819D02*
X183271428Y-23702438D01*
X183271428Y-23702438D02*
X183319047Y-23750057D01*
X183319047Y-23750057D02*
X183366666Y-23845295D01*
X183366666Y-23845295D02*
X183366666Y-23940533D01*
X183366666Y-23940533D02*
X183319047Y-24083390D01*
X183319047Y-24083390D02*
X182747619Y-24654819D01*
X182747619Y-24654819D02*
X183366666Y-24654819D01*
X141366666Y-115454819D02*
X141366666Y-116169104D01*
X141366666Y-116169104D02*
X141319047Y-116311961D01*
X141319047Y-116311961D02*
X141223809Y-116407200D01*
X141223809Y-116407200D02*
X141080952Y-116454819D01*
X141080952Y-116454819D02*
X140985714Y-116454819D01*
X142271428Y-115788152D02*
X142271428Y-116454819D01*
X142033333Y-115407200D02*
X141795238Y-116121485D01*
X141795238Y-116121485D02*
X142414285Y-116121485D01*
X131059580Y-70366666D02*
X131107200Y-70414285D01*
X131107200Y-70414285D02*
X131154819Y-70557142D01*
X131154819Y-70557142D02*
X131154819Y-70652380D01*
X131154819Y-70652380D02*
X131107200Y-70795237D01*
X131107200Y-70795237D02*
X131011961Y-70890475D01*
X131011961Y-70890475D02*
X130916723Y-70938094D01*
X130916723Y-70938094D02*
X130726247Y-70985713D01*
X130726247Y-70985713D02*
X130583390Y-70985713D01*
X130583390Y-70985713D02*
X130392914Y-70938094D01*
X130392914Y-70938094D02*
X130297676Y-70890475D01*
X130297676Y-70890475D02*
X130202438Y-70795237D01*
X130202438Y-70795237D02*
X130154819Y-70652380D01*
X130154819Y-70652380D02*
X130154819Y-70557142D01*
X130154819Y-70557142D02*
X130202438Y-70414285D01*
X130202438Y-70414285D02*
X130250057Y-70366666D01*
X130154819Y-70033332D02*
X130154819Y-69414285D01*
X130154819Y-69414285D02*
X130535771Y-69747618D01*
X130535771Y-69747618D02*
X130535771Y-69604761D01*
X130535771Y-69604761D02*
X130583390Y-69509523D01*
X130583390Y-69509523D02*
X130631009Y-69461904D01*
X130631009Y-69461904D02*
X130726247Y-69414285D01*
X130726247Y-69414285D02*
X130964342Y-69414285D01*
X130964342Y-69414285D02*
X131059580Y-69461904D01*
X131059580Y-69461904D02*
X131107200Y-69509523D01*
X131107200Y-69509523D02*
X131154819Y-69604761D01*
X131154819Y-69604761D02*
X131154819Y-69890475D01*
X131154819Y-69890475D02*
X131107200Y-69985713D01*
X131107200Y-69985713D02*
X131059580Y-70033332D01*
X140954819Y-56776666D02*
X140478628Y-57109999D01*
X140954819Y-57348094D02*
X139954819Y-57348094D01*
X139954819Y-57348094D02*
X139954819Y-56967142D01*
X139954819Y-56967142D02*
X140002438Y-56871904D01*
X140002438Y-56871904D02*
X140050057Y-56824285D01*
X140050057Y-56824285D02*
X140145295Y-56776666D01*
X140145295Y-56776666D02*
X140288152Y-56776666D01*
X140288152Y-56776666D02*
X140383390Y-56824285D01*
X140383390Y-56824285D02*
X140431009Y-56871904D01*
X140431009Y-56871904D02*
X140478628Y-56967142D01*
X140478628Y-56967142D02*
X140478628Y-57348094D01*
X140954819Y-55824285D02*
X140954819Y-56395713D01*
X140954819Y-56109999D02*
X139954819Y-56109999D01*
X139954819Y-56109999D02*
X140097676Y-56205237D01*
X140097676Y-56205237D02*
X140192914Y-56300475D01*
X140192914Y-56300475D02*
X140240533Y-56395713D01*
X151877142Y-83454819D02*
X151543809Y-82978628D01*
X151305714Y-83454819D02*
X151305714Y-82454819D01*
X151305714Y-82454819D02*
X151686666Y-82454819D01*
X151686666Y-82454819D02*
X151781904Y-82502438D01*
X151781904Y-82502438D02*
X151829523Y-82550057D01*
X151829523Y-82550057D02*
X151877142Y-82645295D01*
X151877142Y-82645295D02*
X151877142Y-82788152D01*
X151877142Y-82788152D02*
X151829523Y-82883390D01*
X151829523Y-82883390D02*
X151781904Y-82931009D01*
X151781904Y-82931009D02*
X151686666Y-82978628D01*
X151686666Y-82978628D02*
X151305714Y-82978628D01*
X152829523Y-83454819D02*
X152258095Y-83454819D01*
X152543809Y-83454819D02*
X152543809Y-82454819D01*
X152543809Y-82454819D02*
X152448571Y-82597676D01*
X152448571Y-82597676D02*
X152353333Y-82692914D01*
X152353333Y-82692914D02*
X152258095Y-82740533D01*
X153781904Y-83454819D02*
X153210476Y-83454819D01*
X153496190Y-83454819D02*
X153496190Y-82454819D01*
X153496190Y-82454819D02*
X153400952Y-82597676D01*
X153400952Y-82597676D02*
X153305714Y-82692914D01*
X153305714Y-82692914D02*
X153210476Y-82740533D01*
X170867142Y-104254819D02*
X170533809Y-103778628D01*
X170295714Y-104254819D02*
X170295714Y-103254819D01*
X170295714Y-103254819D02*
X170676666Y-103254819D01*
X170676666Y-103254819D02*
X170771904Y-103302438D01*
X170771904Y-103302438D02*
X170819523Y-103350057D01*
X170819523Y-103350057D02*
X170867142Y-103445295D01*
X170867142Y-103445295D02*
X170867142Y-103588152D01*
X170867142Y-103588152D02*
X170819523Y-103683390D01*
X170819523Y-103683390D02*
X170771904Y-103731009D01*
X170771904Y-103731009D02*
X170676666Y-103778628D01*
X170676666Y-103778628D02*
X170295714Y-103778628D01*
X171819523Y-104254819D02*
X171248095Y-104254819D01*
X171533809Y-104254819D02*
X171533809Y-103254819D01*
X171533809Y-103254819D02*
X171438571Y-103397676D01*
X171438571Y-103397676D02*
X171343333Y-103492914D01*
X171343333Y-103492914D02*
X171248095Y-103540533D01*
X172676666Y-103588152D02*
X172676666Y-104254819D01*
X172438571Y-103207200D02*
X172200476Y-103921485D01*
X172200476Y-103921485D02*
X172819523Y-103921485D01*
X132754819Y-66666666D02*
X132278628Y-66999999D01*
X132754819Y-67238094D02*
X131754819Y-67238094D01*
X131754819Y-67238094D02*
X131754819Y-66857142D01*
X131754819Y-66857142D02*
X131802438Y-66761904D01*
X131802438Y-66761904D02*
X131850057Y-66714285D01*
X131850057Y-66714285D02*
X131945295Y-66666666D01*
X131945295Y-66666666D02*
X132088152Y-66666666D01*
X132088152Y-66666666D02*
X132183390Y-66714285D01*
X132183390Y-66714285D02*
X132231009Y-66761904D01*
X132231009Y-66761904D02*
X132278628Y-66857142D01*
X132278628Y-66857142D02*
X132278628Y-67238094D01*
X131754819Y-65809523D02*
X131754819Y-65999999D01*
X131754819Y-65999999D02*
X131802438Y-66095237D01*
X131802438Y-66095237D02*
X131850057Y-66142856D01*
X131850057Y-66142856D02*
X131992914Y-66238094D01*
X131992914Y-66238094D02*
X132183390Y-66285713D01*
X132183390Y-66285713D02*
X132564342Y-66285713D01*
X132564342Y-66285713D02*
X132659580Y-66238094D01*
X132659580Y-66238094D02*
X132707200Y-66190475D01*
X132707200Y-66190475D02*
X132754819Y-66095237D01*
X132754819Y-66095237D02*
X132754819Y-65904761D01*
X132754819Y-65904761D02*
X132707200Y-65809523D01*
X132707200Y-65809523D02*
X132659580Y-65761904D01*
X132659580Y-65761904D02*
X132564342Y-65714285D01*
X132564342Y-65714285D02*
X132326247Y-65714285D01*
X132326247Y-65714285D02*
X132231009Y-65761904D01*
X132231009Y-65761904D02*
X132183390Y-65809523D01*
X132183390Y-65809523D02*
X132135771Y-65904761D01*
X132135771Y-65904761D02*
X132135771Y-66095237D01*
X132135771Y-66095237D02*
X132183390Y-66190475D01*
X132183390Y-66190475D02*
X132231009Y-66238094D01*
X132231009Y-66238094D02*
X132326247Y-66285713D01*
X159333333Y-83759580D02*
X159285714Y-83807200D01*
X159285714Y-83807200D02*
X159142857Y-83854819D01*
X159142857Y-83854819D02*
X159047619Y-83854819D01*
X159047619Y-83854819D02*
X158904762Y-83807200D01*
X158904762Y-83807200D02*
X158809524Y-83711961D01*
X158809524Y-83711961D02*
X158761905Y-83616723D01*
X158761905Y-83616723D02*
X158714286Y-83426247D01*
X158714286Y-83426247D02*
X158714286Y-83283390D01*
X158714286Y-83283390D02*
X158761905Y-83092914D01*
X158761905Y-83092914D02*
X158809524Y-82997676D01*
X158809524Y-82997676D02*
X158904762Y-82902438D01*
X158904762Y-82902438D02*
X159047619Y-82854819D01*
X159047619Y-82854819D02*
X159142857Y-82854819D01*
X159142857Y-82854819D02*
X159285714Y-82902438D01*
X159285714Y-82902438D02*
X159333333Y-82950057D01*
X160190476Y-83188152D02*
X160190476Y-83854819D01*
X159952381Y-82807200D02*
X159714286Y-83521485D01*
X159714286Y-83521485D02*
X160333333Y-83521485D01*
X141333333Y-67254819D02*
X141000000Y-66778628D01*
X140761905Y-67254819D02*
X140761905Y-66254819D01*
X140761905Y-66254819D02*
X141142857Y-66254819D01*
X141142857Y-66254819D02*
X141238095Y-66302438D01*
X141238095Y-66302438D02*
X141285714Y-66350057D01*
X141285714Y-66350057D02*
X141333333Y-66445295D01*
X141333333Y-66445295D02*
X141333333Y-66588152D01*
X141333333Y-66588152D02*
X141285714Y-66683390D01*
X141285714Y-66683390D02*
X141238095Y-66731009D01*
X141238095Y-66731009D02*
X141142857Y-66778628D01*
X141142857Y-66778628D02*
X140761905Y-66778628D01*
X142238095Y-66254819D02*
X141761905Y-66254819D01*
X141761905Y-66254819D02*
X141714286Y-66731009D01*
X141714286Y-66731009D02*
X141761905Y-66683390D01*
X141761905Y-66683390D02*
X141857143Y-66635771D01*
X141857143Y-66635771D02*
X142095238Y-66635771D01*
X142095238Y-66635771D02*
X142190476Y-66683390D01*
X142190476Y-66683390D02*
X142238095Y-66731009D01*
X142238095Y-66731009D02*
X142285714Y-66826247D01*
X142285714Y-66826247D02*
X142285714Y-67064342D01*
X142285714Y-67064342D02*
X142238095Y-67159580D01*
X142238095Y-67159580D02*
X142190476Y-67207200D01*
X142190476Y-67207200D02*
X142095238Y-67254819D01*
X142095238Y-67254819D02*
X141857143Y-67254819D01*
X141857143Y-67254819D02*
X141761905Y-67207200D01*
X141761905Y-67207200D02*
X141714286Y-67159580D01*
X185859580Y-70366666D02*
X185907200Y-70414285D01*
X185907200Y-70414285D02*
X185954819Y-70557142D01*
X185954819Y-70557142D02*
X185954819Y-70652380D01*
X185954819Y-70652380D02*
X185907200Y-70795237D01*
X185907200Y-70795237D02*
X185811961Y-70890475D01*
X185811961Y-70890475D02*
X185716723Y-70938094D01*
X185716723Y-70938094D02*
X185526247Y-70985713D01*
X185526247Y-70985713D02*
X185383390Y-70985713D01*
X185383390Y-70985713D02*
X185192914Y-70938094D01*
X185192914Y-70938094D02*
X185097676Y-70890475D01*
X185097676Y-70890475D02*
X185002438Y-70795237D01*
X185002438Y-70795237D02*
X184954819Y-70652380D01*
X184954819Y-70652380D02*
X184954819Y-70557142D01*
X184954819Y-70557142D02*
X185002438Y-70414285D01*
X185002438Y-70414285D02*
X185050057Y-70366666D01*
X184954819Y-70033332D02*
X184954819Y-69414285D01*
X184954819Y-69414285D02*
X185335771Y-69747618D01*
X185335771Y-69747618D02*
X185335771Y-69604761D01*
X185335771Y-69604761D02*
X185383390Y-69509523D01*
X185383390Y-69509523D02*
X185431009Y-69461904D01*
X185431009Y-69461904D02*
X185526247Y-69414285D01*
X185526247Y-69414285D02*
X185764342Y-69414285D01*
X185764342Y-69414285D02*
X185859580Y-69461904D01*
X185859580Y-69461904D02*
X185907200Y-69509523D01*
X185907200Y-69509523D02*
X185954819Y-69604761D01*
X185954819Y-69604761D02*
X185954819Y-69890475D01*
X185954819Y-69890475D02*
X185907200Y-69985713D01*
X185907200Y-69985713D02*
X185859580Y-70033332D01*
X110754819Y-56766666D02*
X110278628Y-57099999D01*
X110754819Y-57338094D02*
X109754819Y-57338094D01*
X109754819Y-57338094D02*
X109754819Y-56957142D01*
X109754819Y-56957142D02*
X109802438Y-56861904D01*
X109802438Y-56861904D02*
X109850057Y-56814285D01*
X109850057Y-56814285D02*
X109945295Y-56766666D01*
X109945295Y-56766666D02*
X110088152Y-56766666D01*
X110088152Y-56766666D02*
X110183390Y-56814285D01*
X110183390Y-56814285D02*
X110231009Y-56861904D01*
X110231009Y-56861904D02*
X110278628Y-56957142D01*
X110278628Y-56957142D02*
X110278628Y-57338094D01*
X109754819Y-56433332D02*
X109754819Y-55814285D01*
X109754819Y-55814285D02*
X110135771Y-56147618D01*
X110135771Y-56147618D02*
X110135771Y-56004761D01*
X110135771Y-56004761D02*
X110183390Y-55909523D01*
X110183390Y-55909523D02*
X110231009Y-55861904D01*
X110231009Y-55861904D02*
X110326247Y-55814285D01*
X110326247Y-55814285D02*
X110564342Y-55814285D01*
X110564342Y-55814285D02*
X110659580Y-55861904D01*
X110659580Y-55861904D02*
X110707200Y-55909523D01*
X110707200Y-55909523D02*
X110754819Y-56004761D01*
X110754819Y-56004761D02*
X110754819Y-56290475D01*
X110754819Y-56290475D02*
X110707200Y-56385713D01*
X110707200Y-56385713D02*
X110659580Y-56433332D01*
X138154819Y-84622857D02*
X137678628Y-84956190D01*
X138154819Y-85194285D02*
X137154819Y-85194285D01*
X137154819Y-85194285D02*
X137154819Y-84813333D01*
X137154819Y-84813333D02*
X137202438Y-84718095D01*
X137202438Y-84718095D02*
X137250057Y-84670476D01*
X137250057Y-84670476D02*
X137345295Y-84622857D01*
X137345295Y-84622857D02*
X137488152Y-84622857D01*
X137488152Y-84622857D02*
X137583390Y-84670476D01*
X137583390Y-84670476D02*
X137631009Y-84718095D01*
X137631009Y-84718095D02*
X137678628Y-84813333D01*
X137678628Y-84813333D02*
X137678628Y-85194285D01*
X138154819Y-83670476D02*
X138154819Y-84241904D01*
X138154819Y-83956190D02*
X137154819Y-83956190D01*
X137154819Y-83956190D02*
X137297676Y-84051428D01*
X137297676Y-84051428D02*
X137392914Y-84146666D01*
X137392914Y-84146666D02*
X137440533Y-84241904D01*
X137154819Y-83337142D02*
X137154819Y-82718095D01*
X137154819Y-82718095D02*
X137535771Y-83051428D01*
X137535771Y-83051428D02*
X137535771Y-82908571D01*
X137535771Y-82908571D02*
X137583390Y-82813333D01*
X137583390Y-82813333D02*
X137631009Y-82765714D01*
X137631009Y-82765714D02*
X137726247Y-82718095D01*
X137726247Y-82718095D02*
X137964342Y-82718095D01*
X137964342Y-82718095D02*
X138059580Y-82765714D01*
X138059580Y-82765714D02*
X138107200Y-82813333D01*
X138107200Y-82813333D02*
X138154819Y-82908571D01*
X138154819Y-82908571D02*
X138154819Y-83194285D01*
X138154819Y-83194285D02*
X138107200Y-83289523D01*
X138107200Y-83289523D02*
X138059580Y-83337142D01*
X187554819Y-56776666D02*
X187078628Y-57109999D01*
X187554819Y-57348094D02*
X186554819Y-57348094D01*
X186554819Y-57348094D02*
X186554819Y-56967142D01*
X186554819Y-56967142D02*
X186602438Y-56871904D01*
X186602438Y-56871904D02*
X186650057Y-56824285D01*
X186650057Y-56824285D02*
X186745295Y-56776666D01*
X186745295Y-56776666D02*
X186888152Y-56776666D01*
X186888152Y-56776666D02*
X186983390Y-56824285D01*
X186983390Y-56824285D02*
X187031009Y-56871904D01*
X187031009Y-56871904D02*
X187078628Y-56967142D01*
X187078628Y-56967142D02*
X187078628Y-57348094D01*
X186888152Y-55919523D02*
X187554819Y-55919523D01*
X186507200Y-56157618D02*
X187221485Y-56395713D01*
X187221485Y-56395713D02*
X187221485Y-55776666D01*
X110754819Y-84622857D02*
X110278628Y-84956190D01*
X110754819Y-85194285D02*
X109754819Y-85194285D01*
X109754819Y-85194285D02*
X109754819Y-84813333D01*
X109754819Y-84813333D02*
X109802438Y-84718095D01*
X109802438Y-84718095D02*
X109850057Y-84670476D01*
X109850057Y-84670476D02*
X109945295Y-84622857D01*
X109945295Y-84622857D02*
X110088152Y-84622857D01*
X110088152Y-84622857D02*
X110183390Y-84670476D01*
X110183390Y-84670476D02*
X110231009Y-84718095D01*
X110231009Y-84718095D02*
X110278628Y-84813333D01*
X110278628Y-84813333D02*
X110278628Y-85194285D01*
X110754819Y-83670476D02*
X110754819Y-84241904D01*
X110754819Y-83956190D02*
X109754819Y-83956190D01*
X109754819Y-83956190D02*
X109897676Y-84051428D01*
X109897676Y-84051428D02*
X109992914Y-84146666D01*
X109992914Y-84146666D02*
X110040533Y-84241904D01*
X109754819Y-83337142D02*
X109754819Y-82718095D01*
X109754819Y-82718095D02*
X110135771Y-83051428D01*
X110135771Y-83051428D02*
X110135771Y-82908571D01*
X110135771Y-82908571D02*
X110183390Y-82813333D01*
X110183390Y-82813333D02*
X110231009Y-82765714D01*
X110231009Y-82765714D02*
X110326247Y-82718095D01*
X110326247Y-82718095D02*
X110564342Y-82718095D01*
X110564342Y-82718095D02*
X110659580Y-82765714D01*
X110659580Y-82765714D02*
X110707200Y-82813333D01*
X110707200Y-82813333D02*
X110754819Y-82908571D01*
X110754819Y-82908571D02*
X110754819Y-83194285D01*
X110754819Y-83194285D02*
X110707200Y-83289523D01*
X110707200Y-83289523D02*
X110659580Y-83337142D01*
X160154819Y-66666666D02*
X159678628Y-66999999D01*
X160154819Y-67238094D02*
X159154819Y-67238094D01*
X159154819Y-67238094D02*
X159154819Y-66857142D01*
X159154819Y-66857142D02*
X159202438Y-66761904D01*
X159202438Y-66761904D02*
X159250057Y-66714285D01*
X159250057Y-66714285D02*
X159345295Y-66666666D01*
X159345295Y-66666666D02*
X159488152Y-66666666D01*
X159488152Y-66666666D02*
X159583390Y-66714285D01*
X159583390Y-66714285D02*
X159631009Y-66761904D01*
X159631009Y-66761904D02*
X159678628Y-66857142D01*
X159678628Y-66857142D02*
X159678628Y-67238094D01*
X159154819Y-65809523D02*
X159154819Y-65999999D01*
X159154819Y-65999999D02*
X159202438Y-66095237D01*
X159202438Y-66095237D02*
X159250057Y-66142856D01*
X159250057Y-66142856D02*
X159392914Y-66238094D01*
X159392914Y-66238094D02*
X159583390Y-66285713D01*
X159583390Y-66285713D02*
X159964342Y-66285713D01*
X159964342Y-66285713D02*
X160059580Y-66238094D01*
X160059580Y-66238094D02*
X160107200Y-66190475D01*
X160107200Y-66190475D02*
X160154819Y-66095237D01*
X160154819Y-66095237D02*
X160154819Y-65904761D01*
X160154819Y-65904761D02*
X160107200Y-65809523D01*
X160107200Y-65809523D02*
X160059580Y-65761904D01*
X160059580Y-65761904D02*
X159964342Y-65714285D01*
X159964342Y-65714285D02*
X159726247Y-65714285D01*
X159726247Y-65714285D02*
X159631009Y-65761904D01*
X159631009Y-65761904D02*
X159583390Y-65809523D01*
X159583390Y-65809523D02*
X159535771Y-65904761D01*
X159535771Y-65904761D02*
X159535771Y-66095237D01*
X159535771Y-66095237D02*
X159583390Y-66190475D01*
X159583390Y-66190475D02*
X159631009Y-66238094D01*
X159631009Y-66238094D02*
X159726247Y-66285713D01*
X186733333Y-83759580D02*
X186685714Y-83807200D01*
X186685714Y-83807200D02*
X186542857Y-83854819D01*
X186542857Y-83854819D02*
X186447619Y-83854819D01*
X186447619Y-83854819D02*
X186304762Y-83807200D01*
X186304762Y-83807200D02*
X186209524Y-83711961D01*
X186209524Y-83711961D02*
X186161905Y-83616723D01*
X186161905Y-83616723D02*
X186114286Y-83426247D01*
X186114286Y-83426247D02*
X186114286Y-83283390D01*
X186114286Y-83283390D02*
X186161905Y-83092914D01*
X186161905Y-83092914D02*
X186209524Y-82997676D01*
X186209524Y-82997676D02*
X186304762Y-82902438D01*
X186304762Y-82902438D02*
X186447619Y-82854819D01*
X186447619Y-82854819D02*
X186542857Y-82854819D01*
X186542857Y-82854819D02*
X186685714Y-82902438D01*
X186685714Y-82902438D02*
X186733333Y-82950057D01*
X187590476Y-83188152D02*
X187590476Y-83854819D01*
X187352381Y-82807200D02*
X187114286Y-83521485D01*
X187114286Y-83521485D02*
X187733333Y-83521485D01*
X175053095Y-73234819D02*
X175053095Y-74044342D01*
X175053095Y-74044342D02*
X175100714Y-74139580D01*
X175100714Y-74139580D02*
X175148333Y-74187200D01*
X175148333Y-74187200D02*
X175243571Y-74234819D01*
X175243571Y-74234819D02*
X175434047Y-74234819D01*
X175434047Y-74234819D02*
X175529285Y-74187200D01*
X175529285Y-74187200D02*
X175576904Y-74139580D01*
X175576904Y-74139580D02*
X175624523Y-74044342D01*
X175624523Y-74044342D02*
X175624523Y-73234819D01*
X176624523Y-74234819D02*
X176053095Y-74234819D01*
X176338809Y-74234819D02*
X176338809Y-73234819D01*
X176338809Y-73234819D02*
X176243571Y-73377676D01*
X176243571Y-73377676D02*
X176148333Y-73472914D01*
X176148333Y-73472914D02*
X176053095Y-73520533D01*
X132754819Y-56776666D02*
X132278628Y-57109999D01*
X132754819Y-57348094D02*
X131754819Y-57348094D01*
X131754819Y-57348094D02*
X131754819Y-56967142D01*
X131754819Y-56967142D02*
X131802438Y-56871904D01*
X131802438Y-56871904D02*
X131850057Y-56824285D01*
X131850057Y-56824285D02*
X131945295Y-56776666D01*
X131945295Y-56776666D02*
X132088152Y-56776666D01*
X132088152Y-56776666D02*
X132183390Y-56824285D01*
X132183390Y-56824285D02*
X132231009Y-56871904D01*
X132231009Y-56871904D02*
X132278628Y-56967142D01*
X132278628Y-56967142D02*
X132278628Y-57348094D01*
X132088152Y-55919523D02*
X132754819Y-55919523D01*
X131707200Y-56157618D02*
X132421485Y-56395713D01*
X132421485Y-56395713D02*
X132421485Y-55776666D01*
X165554819Y-84622857D02*
X165078628Y-84956190D01*
X165554819Y-85194285D02*
X164554819Y-85194285D01*
X164554819Y-85194285D02*
X164554819Y-84813333D01*
X164554819Y-84813333D02*
X164602438Y-84718095D01*
X164602438Y-84718095D02*
X164650057Y-84670476D01*
X164650057Y-84670476D02*
X164745295Y-84622857D01*
X164745295Y-84622857D02*
X164888152Y-84622857D01*
X164888152Y-84622857D02*
X164983390Y-84670476D01*
X164983390Y-84670476D02*
X165031009Y-84718095D01*
X165031009Y-84718095D02*
X165078628Y-84813333D01*
X165078628Y-84813333D02*
X165078628Y-85194285D01*
X165554819Y-83670476D02*
X165554819Y-84241904D01*
X165554819Y-83956190D02*
X164554819Y-83956190D01*
X164554819Y-83956190D02*
X164697676Y-84051428D01*
X164697676Y-84051428D02*
X164792914Y-84146666D01*
X164792914Y-84146666D02*
X164840533Y-84241904D01*
X164554819Y-83337142D02*
X164554819Y-82718095D01*
X164554819Y-82718095D02*
X164935771Y-83051428D01*
X164935771Y-83051428D02*
X164935771Y-82908571D01*
X164935771Y-82908571D02*
X164983390Y-82813333D01*
X164983390Y-82813333D02*
X165031009Y-82765714D01*
X165031009Y-82765714D02*
X165126247Y-82718095D01*
X165126247Y-82718095D02*
X165364342Y-82718095D01*
X165364342Y-82718095D02*
X165459580Y-82765714D01*
X165459580Y-82765714D02*
X165507200Y-82813333D01*
X165507200Y-82813333D02*
X165554819Y-82908571D01*
X165554819Y-82908571D02*
X165554819Y-83194285D01*
X165554819Y-83194285D02*
X165507200Y-83289523D01*
X165507200Y-83289523D02*
X165459580Y-83337142D01*
X155166666Y-115327319D02*
X155166666Y-116041604D01*
X155166666Y-116041604D02*
X155119047Y-116184461D01*
X155119047Y-116184461D02*
X155023809Y-116279700D01*
X155023809Y-116279700D02*
X154880952Y-116327319D01*
X154880952Y-116327319D02*
X154785714Y-116327319D01*
X156119047Y-115327319D02*
X155642857Y-115327319D01*
X155642857Y-115327319D02*
X155595238Y-115803509D01*
X155595238Y-115803509D02*
X155642857Y-115755890D01*
X155642857Y-115755890D02*
X155738095Y-115708271D01*
X155738095Y-115708271D02*
X155976190Y-115708271D01*
X155976190Y-115708271D02*
X156071428Y-115755890D01*
X156071428Y-115755890D02*
X156119047Y-115803509D01*
X156119047Y-115803509D02*
X156166666Y-115898747D01*
X156166666Y-115898747D02*
X156166666Y-116136842D01*
X156166666Y-116136842D02*
X156119047Y-116232080D01*
X156119047Y-116232080D02*
X156071428Y-116279700D01*
X156071428Y-116279700D02*
X155976190Y-116327319D01*
X155976190Y-116327319D02*
X155738095Y-116327319D01*
X155738095Y-116327319D02*
X155642857Y-116279700D01*
X155642857Y-116279700D02*
X155595238Y-116232080D01*
X143354819Y-84156666D02*
X142878628Y-84489999D01*
X143354819Y-84728094D02*
X142354819Y-84728094D01*
X142354819Y-84728094D02*
X142354819Y-84347142D01*
X142354819Y-84347142D02*
X142402438Y-84251904D01*
X142402438Y-84251904D02*
X142450057Y-84204285D01*
X142450057Y-84204285D02*
X142545295Y-84156666D01*
X142545295Y-84156666D02*
X142688152Y-84156666D01*
X142688152Y-84156666D02*
X142783390Y-84204285D01*
X142783390Y-84204285D02*
X142831009Y-84251904D01*
X142831009Y-84251904D02*
X142878628Y-84347142D01*
X142878628Y-84347142D02*
X142878628Y-84728094D01*
X142354819Y-83823332D02*
X142354819Y-83156666D01*
X142354819Y-83156666D02*
X143354819Y-83585237D01*
X160154819Y-56776666D02*
X159678628Y-57109999D01*
X160154819Y-57348094D02*
X159154819Y-57348094D01*
X159154819Y-57348094D02*
X159154819Y-56967142D01*
X159154819Y-56967142D02*
X159202438Y-56871904D01*
X159202438Y-56871904D02*
X159250057Y-56824285D01*
X159250057Y-56824285D02*
X159345295Y-56776666D01*
X159345295Y-56776666D02*
X159488152Y-56776666D01*
X159488152Y-56776666D02*
X159583390Y-56824285D01*
X159583390Y-56824285D02*
X159631009Y-56871904D01*
X159631009Y-56871904D02*
X159678628Y-56967142D01*
X159678628Y-56967142D02*
X159678628Y-57348094D01*
X159488152Y-55919523D02*
X160154819Y-55919523D01*
X159107200Y-56157618D02*
X159821485Y-56395713D01*
X159821485Y-56395713D02*
X159821485Y-55776666D01*
X113966666Y-115454819D02*
X113966666Y-116169104D01*
X113966666Y-116169104D02*
X113919047Y-116311961D01*
X113919047Y-116311961D02*
X113823809Y-116407200D01*
X113823809Y-116407200D02*
X113680952Y-116454819D01*
X113680952Y-116454819D02*
X113585714Y-116454819D01*
X114871428Y-115788152D02*
X114871428Y-116454819D01*
X114633333Y-115407200D02*
X114395238Y-116121485D01*
X114395238Y-116121485D02*
X115014285Y-116121485D01*
X118454819Y-84642857D02*
X117978628Y-84976190D01*
X118454819Y-85214285D02*
X117454819Y-85214285D01*
X117454819Y-85214285D02*
X117454819Y-84833333D01*
X117454819Y-84833333D02*
X117502438Y-84738095D01*
X117502438Y-84738095D02*
X117550057Y-84690476D01*
X117550057Y-84690476D02*
X117645295Y-84642857D01*
X117645295Y-84642857D02*
X117788152Y-84642857D01*
X117788152Y-84642857D02*
X117883390Y-84690476D01*
X117883390Y-84690476D02*
X117931009Y-84738095D01*
X117931009Y-84738095D02*
X117978628Y-84833333D01*
X117978628Y-84833333D02*
X117978628Y-85214285D01*
X118454819Y-83690476D02*
X118454819Y-84261904D01*
X118454819Y-83976190D02*
X117454819Y-83976190D01*
X117454819Y-83976190D02*
X117597676Y-84071428D01*
X117597676Y-84071428D02*
X117692914Y-84166666D01*
X117692914Y-84166666D02*
X117740533Y-84261904D01*
X117550057Y-83309523D02*
X117502438Y-83261904D01*
X117502438Y-83261904D02*
X117454819Y-83166666D01*
X117454819Y-83166666D02*
X117454819Y-82928571D01*
X117454819Y-82928571D02*
X117502438Y-82833333D01*
X117502438Y-82833333D02*
X117550057Y-82785714D01*
X117550057Y-82785714D02*
X117645295Y-82738095D01*
X117645295Y-82738095D02*
X117740533Y-82738095D01*
X117740533Y-82738095D02*
X117883390Y-82785714D01*
X117883390Y-82785714D02*
X118454819Y-83357142D01*
X118454819Y-83357142D02*
X118454819Y-82738095D01*
X182566666Y-115327319D02*
X182566666Y-116041604D01*
X182566666Y-116041604D02*
X182519047Y-116184461D01*
X182519047Y-116184461D02*
X182423809Y-116279700D01*
X182423809Y-116279700D02*
X182280952Y-116327319D01*
X182280952Y-116327319D02*
X182185714Y-116327319D01*
X183519047Y-115327319D02*
X183042857Y-115327319D01*
X183042857Y-115327319D02*
X182995238Y-115803509D01*
X182995238Y-115803509D02*
X183042857Y-115755890D01*
X183042857Y-115755890D02*
X183138095Y-115708271D01*
X183138095Y-115708271D02*
X183376190Y-115708271D01*
X183376190Y-115708271D02*
X183471428Y-115755890D01*
X183471428Y-115755890D02*
X183519047Y-115803509D01*
X183519047Y-115803509D02*
X183566666Y-115898747D01*
X183566666Y-115898747D02*
X183566666Y-116136842D01*
X183566666Y-116136842D02*
X183519047Y-116232080D01*
X183519047Y-116232080D02*
X183471428Y-116279700D01*
X183471428Y-116279700D02*
X183376190Y-116327319D01*
X183376190Y-116327319D02*
X183138095Y-116327319D01*
X183138095Y-116327319D02*
X183042857Y-116279700D01*
X183042857Y-116279700D02*
X182995238Y-116232080D01*
X187554819Y-66666666D02*
X187078628Y-66999999D01*
X187554819Y-67238094D02*
X186554819Y-67238094D01*
X186554819Y-67238094D02*
X186554819Y-66857142D01*
X186554819Y-66857142D02*
X186602438Y-66761904D01*
X186602438Y-66761904D02*
X186650057Y-66714285D01*
X186650057Y-66714285D02*
X186745295Y-66666666D01*
X186745295Y-66666666D02*
X186888152Y-66666666D01*
X186888152Y-66666666D02*
X186983390Y-66714285D01*
X186983390Y-66714285D02*
X187031009Y-66761904D01*
X187031009Y-66761904D02*
X187078628Y-66857142D01*
X187078628Y-66857142D02*
X187078628Y-67238094D01*
X186554819Y-65809523D02*
X186554819Y-65999999D01*
X186554819Y-65999999D02*
X186602438Y-66095237D01*
X186602438Y-66095237D02*
X186650057Y-66142856D01*
X186650057Y-66142856D02*
X186792914Y-66238094D01*
X186792914Y-66238094D02*
X186983390Y-66285713D01*
X186983390Y-66285713D02*
X187364342Y-66285713D01*
X187364342Y-66285713D02*
X187459580Y-66238094D01*
X187459580Y-66238094D02*
X187507200Y-66190475D01*
X187507200Y-66190475D02*
X187554819Y-66095237D01*
X187554819Y-66095237D02*
X187554819Y-65904761D01*
X187554819Y-65904761D02*
X187507200Y-65809523D01*
X187507200Y-65809523D02*
X187459580Y-65761904D01*
X187459580Y-65761904D02*
X187364342Y-65714285D01*
X187364342Y-65714285D02*
X187126247Y-65714285D01*
X187126247Y-65714285D02*
X187031009Y-65761904D01*
X187031009Y-65761904D02*
X186983390Y-65809523D01*
X186983390Y-65809523D02*
X186935771Y-65904761D01*
X186935771Y-65904761D02*
X186935771Y-66095237D01*
X186935771Y-66095237D02*
X186983390Y-66190475D01*
X186983390Y-66190475D02*
X187031009Y-66238094D01*
X187031009Y-66238094D02*
X187126247Y-66285713D01*
X113966666Y-23654819D02*
X113966666Y-24369104D01*
X113966666Y-24369104D02*
X113919047Y-24511961D01*
X113919047Y-24511961D02*
X113823809Y-24607200D01*
X113823809Y-24607200D02*
X113680952Y-24654819D01*
X113680952Y-24654819D02*
X113585714Y-24654819D01*
X114966666Y-24654819D02*
X114395238Y-24654819D01*
X114680952Y-24654819D02*
X114680952Y-23654819D01*
X114680952Y-23654819D02*
X114585714Y-23797676D01*
X114585714Y-23797676D02*
X114490476Y-23892914D01*
X114490476Y-23892914D02*
X114395238Y-23940533D01*
X154966666Y-23654819D02*
X154966666Y-24369104D01*
X154966666Y-24369104D02*
X154919047Y-24511961D01*
X154919047Y-24511961D02*
X154823809Y-24607200D01*
X154823809Y-24607200D02*
X154680952Y-24654819D01*
X154680952Y-24654819D02*
X154585714Y-24654819D01*
X155395238Y-23750057D02*
X155442857Y-23702438D01*
X155442857Y-23702438D02*
X155538095Y-23654819D01*
X155538095Y-23654819D02*
X155776190Y-23654819D01*
X155776190Y-23654819D02*
X155871428Y-23702438D01*
X155871428Y-23702438D02*
X155919047Y-23750057D01*
X155919047Y-23750057D02*
X155966666Y-23845295D01*
X155966666Y-23845295D02*
X155966666Y-23940533D01*
X155966666Y-23940533D02*
X155919047Y-24083390D01*
X155919047Y-24083390D02*
X155347619Y-24654819D01*
X155347619Y-24654819D02*
X155966666Y-24654819D01*
X143467142Y-104254819D02*
X143133809Y-103778628D01*
X142895714Y-104254819D02*
X142895714Y-103254819D01*
X142895714Y-103254819D02*
X143276666Y-103254819D01*
X143276666Y-103254819D02*
X143371904Y-103302438D01*
X143371904Y-103302438D02*
X143419523Y-103350057D01*
X143419523Y-103350057D02*
X143467142Y-103445295D01*
X143467142Y-103445295D02*
X143467142Y-103588152D01*
X143467142Y-103588152D02*
X143419523Y-103683390D01*
X143419523Y-103683390D02*
X143371904Y-103731009D01*
X143371904Y-103731009D02*
X143276666Y-103778628D01*
X143276666Y-103778628D02*
X142895714Y-103778628D01*
X144419523Y-104254819D02*
X143848095Y-104254819D01*
X144133809Y-104254819D02*
X144133809Y-103254819D01*
X144133809Y-103254819D02*
X144038571Y-103397676D01*
X144038571Y-103397676D02*
X143943333Y-103492914D01*
X143943333Y-103492914D02*
X143848095Y-103540533D01*
X145276666Y-103588152D02*
X145276666Y-104254819D01*
X145038571Y-103207200D02*
X144800476Y-103921485D01*
X144800476Y-103921485D02*
X145419523Y-103921485D01*
D11*
X153906464Y-48184021D02*
X153406084Y-47469193D01*
X153048670Y-48184021D02*
X153048670Y-46682881D01*
X153048670Y-46682881D02*
X153620533Y-46682881D01*
X153620533Y-46682881D02*
X153763498Y-46754364D01*
X153763498Y-46754364D02*
X153834981Y-46825847D01*
X153834981Y-46825847D02*
X153906464Y-46968813D01*
X153906464Y-46968813D02*
X153906464Y-47183261D01*
X153906464Y-47183261D02*
X153834981Y-47326227D01*
X153834981Y-47326227D02*
X153763498Y-47397710D01*
X153763498Y-47397710D02*
X153620533Y-47469193D01*
X153620533Y-47469193D02*
X153048670Y-47469193D01*
X154335361Y-46682881D02*
X154835741Y-48184021D01*
X154835741Y-48184021D02*
X155336121Y-46682881D01*
X155765018Y-46825847D02*
X155836501Y-46754364D01*
X155836501Y-46754364D02*
X155979467Y-46682881D01*
X155979467Y-46682881D02*
X156336881Y-46682881D01*
X156336881Y-46682881D02*
X156479847Y-46754364D01*
X156479847Y-46754364D02*
X156551329Y-46825847D01*
X156551329Y-46825847D02*
X156622812Y-46968813D01*
X156622812Y-46968813D02*
X156622812Y-47111779D01*
X156622812Y-47111779D02*
X156551329Y-47326227D01*
X156551329Y-47326227D02*
X155693535Y-48184021D01*
X155693535Y-48184021D02*
X156622812Y-48184021D01*
X153191635Y-43184021D02*
X152333841Y-43184021D01*
X152762738Y-43184021D02*
X152762738Y-41682881D01*
X152762738Y-41682881D02*
X152619772Y-41897330D01*
X152619772Y-41897330D02*
X152476807Y-42040296D01*
X152476807Y-42040296D02*
X152333841Y-42111779D01*
X154120912Y-41682881D02*
X154263878Y-41682881D01*
X154263878Y-41682881D02*
X154406844Y-41754364D01*
X154406844Y-41754364D02*
X154478327Y-41825847D01*
X154478327Y-41825847D02*
X154549809Y-41968813D01*
X154549809Y-41968813D02*
X154621292Y-42254744D01*
X154621292Y-42254744D02*
X154621292Y-42612159D01*
X154621292Y-42612159D02*
X154549809Y-42898090D01*
X154549809Y-42898090D02*
X154478327Y-43041056D01*
X154478327Y-43041056D02*
X154406844Y-43112539D01*
X154406844Y-43112539D02*
X154263878Y-43184021D01*
X154263878Y-43184021D02*
X154120912Y-43184021D01*
X154120912Y-43184021D02*
X153977947Y-43112539D01*
X153977947Y-43112539D02*
X153906464Y-43041056D01*
X153906464Y-43041056D02*
X153834981Y-42898090D01*
X153834981Y-42898090D02*
X153763498Y-42612159D01*
X153763498Y-42612159D02*
X153763498Y-42254744D01*
X153763498Y-42254744D02*
X153834981Y-41968813D01*
X153834981Y-41968813D02*
X153906464Y-41825847D01*
X153906464Y-41825847D02*
X153977947Y-41754364D01*
X153977947Y-41754364D02*
X154120912Y-41682881D01*
X155550569Y-41682881D02*
X155693535Y-41682881D01*
X155693535Y-41682881D02*
X155836501Y-41754364D01*
X155836501Y-41754364D02*
X155907984Y-41825847D01*
X155907984Y-41825847D02*
X155979466Y-41968813D01*
X155979466Y-41968813D02*
X156050949Y-42254744D01*
X156050949Y-42254744D02*
X156050949Y-42612159D01*
X156050949Y-42612159D02*
X155979466Y-42898090D01*
X155979466Y-42898090D02*
X155907984Y-43041056D01*
X155907984Y-43041056D02*
X155836501Y-43112539D01*
X155836501Y-43112539D02*
X155693535Y-43184021D01*
X155693535Y-43184021D02*
X155550569Y-43184021D01*
X155550569Y-43184021D02*
X155407604Y-43112539D01*
X155407604Y-43112539D02*
X155336121Y-43041056D01*
X155336121Y-43041056D02*
X155264638Y-42898090D01*
X155264638Y-42898090D02*
X155193155Y-42612159D01*
X155193155Y-42612159D02*
X155193155Y-42254744D01*
X155193155Y-42254744D02*
X155264638Y-41968813D01*
X155264638Y-41968813D02*
X155336121Y-41825847D01*
X155336121Y-41825847D02*
X155407604Y-41754364D01*
X155407604Y-41754364D02*
X155550569Y-41682881D01*
X156694295Y-43184021D02*
X156694295Y-41682881D01*
X156837261Y-42612159D02*
X157266158Y-43184021D01*
X157266158Y-42183261D02*
X156694295Y-42755124D01*
D10*
X138204819Y-73616666D02*
X137728628Y-73949999D01*
X138204819Y-74188094D02*
X137204819Y-74188094D01*
X137204819Y-74188094D02*
X137204819Y-73807142D01*
X137204819Y-73807142D02*
X137252438Y-73711904D01*
X137252438Y-73711904D02*
X137300057Y-73664285D01*
X137300057Y-73664285D02*
X137395295Y-73616666D01*
X137395295Y-73616666D02*
X137538152Y-73616666D01*
X137538152Y-73616666D02*
X137633390Y-73664285D01*
X137633390Y-73664285D02*
X137681009Y-73711904D01*
X137681009Y-73711904D02*
X137728628Y-73807142D01*
X137728628Y-73807142D02*
X137728628Y-74188094D01*
X137633390Y-73045237D02*
X137585771Y-73140475D01*
X137585771Y-73140475D02*
X137538152Y-73188094D01*
X137538152Y-73188094D02*
X137442914Y-73235713D01*
X137442914Y-73235713D02*
X137395295Y-73235713D01*
X137395295Y-73235713D02*
X137300057Y-73188094D01*
X137300057Y-73188094D02*
X137252438Y-73140475D01*
X137252438Y-73140475D02*
X137204819Y-73045237D01*
X137204819Y-73045237D02*
X137204819Y-72854761D01*
X137204819Y-72854761D02*
X137252438Y-72759523D01*
X137252438Y-72759523D02*
X137300057Y-72711904D01*
X137300057Y-72711904D02*
X137395295Y-72664285D01*
X137395295Y-72664285D02*
X137442914Y-72664285D01*
X137442914Y-72664285D02*
X137538152Y-72711904D01*
X137538152Y-72711904D02*
X137585771Y-72759523D01*
X137585771Y-72759523D02*
X137633390Y-72854761D01*
X137633390Y-72854761D02*
X137633390Y-73045237D01*
X137633390Y-73045237D02*
X137681009Y-73140475D01*
X137681009Y-73140475D02*
X137728628Y-73188094D01*
X137728628Y-73188094D02*
X137823866Y-73235713D01*
X137823866Y-73235713D02*
X138014342Y-73235713D01*
X138014342Y-73235713D02*
X138109580Y-73188094D01*
X138109580Y-73188094D02*
X138157200Y-73140475D01*
X138157200Y-73140475D02*
X138204819Y-73045237D01*
X138204819Y-73045237D02*
X138204819Y-72854761D01*
X138204819Y-72854761D02*
X138157200Y-72759523D01*
X138157200Y-72759523D02*
X138109580Y-72711904D01*
X138109580Y-72711904D02*
X138014342Y-72664285D01*
X138014342Y-72664285D02*
X137823866Y-72664285D01*
X137823866Y-72664285D02*
X137728628Y-72711904D01*
X137728628Y-72711904D02*
X137681009Y-72759523D01*
X137681009Y-72759523D02*
X137633390Y-72854761D01*
D11*
X113906464Y-48105771D02*
X113406084Y-47390943D01*
X113048670Y-48105771D02*
X113048670Y-46604631D01*
X113048670Y-46604631D02*
X113620533Y-46604631D01*
X113620533Y-46604631D02*
X113763498Y-46676114D01*
X113763498Y-46676114D02*
X113834981Y-46747597D01*
X113834981Y-46747597D02*
X113906464Y-46890563D01*
X113906464Y-46890563D02*
X113906464Y-47105011D01*
X113906464Y-47105011D02*
X113834981Y-47247977D01*
X113834981Y-47247977D02*
X113763498Y-47319460D01*
X113763498Y-47319460D02*
X113620533Y-47390943D01*
X113620533Y-47390943D02*
X113048670Y-47390943D01*
X114335361Y-46604631D02*
X114835741Y-48105771D01*
X114835741Y-48105771D02*
X115336121Y-46604631D01*
X116622812Y-48105771D02*
X115765018Y-48105771D01*
X116193915Y-48105771D02*
X116193915Y-46604631D01*
X116193915Y-46604631D02*
X116050949Y-46819080D01*
X116050949Y-46819080D02*
X115907984Y-46962046D01*
X115907984Y-46962046D02*
X115765018Y-47033529D01*
X113191635Y-43605771D02*
X112333841Y-43605771D01*
X112762738Y-43605771D02*
X112762738Y-42104631D01*
X112762738Y-42104631D02*
X112619772Y-42319080D01*
X112619772Y-42319080D02*
X112476807Y-42462046D01*
X112476807Y-42462046D02*
X112333841Y-42533529D01*
X114120912Y-42104631D02*
X114263878Y-42104631D01*
X114263878Y-42104631D02*
X114406844Y-42176114D01*
X114406844Y-42176114D02*
X114478327Y-42247597D01*
X114478327Y-42247597D02*
X114549809Y-42390563D01*
X114549809Y-42390563D02*
X114621292Y-42676494D01*
X114621292Y-42676494D02*
X114621292Y-43033909D01*
X114621292Y-43033909D02*
X114549809Y-43319840D01*
X114549809Y-43319840D02*
X114478327Y-43462806D01*
X114478327Y-43462806D02*
X114406844Y-43534289D01*
X114406844Y-43534289D02*
X114263878Y-43605771D01*
X114263878Y-43605771D02*
X114120912Y-43605771D01*
X114120912Y-43605771D02*
X113977947Y-43534289D01*
X113977947Y-43534289D02*
X113906464Y-43462806D01*
X113906464Y-43462806D02*
X113834981Y-43319840D01*
X113834981Y-43319840D02*
X113763498Y-43033909D01*
X113763498Y-43033909D02*
X113763498Y-42676494D01*
X113763498Y-42676494D02*
X113834981Y-42390563D01*
X113834981Y-42390563D02*
X113906464Y-42247597D01*
X113906464Y-42247597D02*
X113977947Y-42176114D01*
X113977947Y-42176114D02*
X114120912Y-42104631D01*
X115550569Y-42104631D02*
X115693535Y-42104631D01*
X115693535Y-42104631D02*
X115836501Y-42176114D01*
X115836501Y-42176114D02*
X115907984Y-42247597D01*
X115907984Y-42247597D02*
X115979466Y-42390563D01*
X115979466Y-42390563D02*
X116050949Y-42676494D01*
X116050949Y-42676494D02*
X116050949Y-43033909D01*
X116050949Y-43033909D02*
X115979466Y-43319840D01*
X115979466Y-43319840D02*
X115907984Y-43462806D01*
X115907984Y-43462806D02*
X115836501Y-43534289D01*
X115836501Y-43534289D02*
X115693535Y-43605771D01*
X115693535Y-43605771D02*
X115550569Y-43605771D01*
X115550569Y-43605771D02*
X115407604Y-43534289D01*
X115407604Y-43534289D02*
X115336121Y-43462806D01*
X115336121Y-43462806D02*
X115264638Y-43319840D01*
X115264638Y-43319840D02*
X115193155Y-43033909D01*
X115193155Y-43033909D02*
X115193155Y-42676494D01*
X115193155Y-42676494D02*
X115264638Y-42390563D01*
X115264638Y-42390563D02*
X115336121Y-42247597D01*
X115336121Y-42247597D02*
X115407604Y-42176114D01*
X115407604Y-42176114D02*
X115550569Y-42104631D01*
X116694295Y-43605771D02*
X116694295Y-42104631D01*
X116837261Y-43033909D02*
X117266158Y-43605771D01*
X117266158Y-42605011D02*
X116694295Y-43176874D01*
X141306464Y-48105771D02*
X140806084Y-47390943D01*
X140448670Y-48105771D02*
X140448670Y-46604631D01*
X140448670Y-46604631D02*
X141020533Y-46604631D01*
X141020533Y-46604631D02*
X141163498Y-46676114D01*
X141163498Y-46676114D02*
X141234981Y-46747597D01*
X141234981Y-46747597D02*
X141306464Y-46890563D01*
X141306464Y-46890563D02*
X141306464Y-47105011D01*
X141306464Y-47105011D02*
X141234981Y-47247977D01*
X141234981Y-47247977D02*
X141163498Y-47319460D01*
X141163498Y-47319460D02*
X141020533Y-47390943D01*
X141020533Y-47390943D02*
X140448670Y-47390943D01*
X141735361Y-46604631D02*
X142235741Y-48105771D01*
X142235741Y-48105771D02*
X142736121Y-46604631D01*
X144022812Y-48105771D02*
X143165018Y-48105771D01*
X143593915Y-48105771D02*
X143593915Y-46604631D01*
X143593915Y-46604631D02*
X143450949Y-46819080D01*
X143450949Y-46819080D02*
X143307984Y-46962046D01*
X143307984Y-46962046D02*
X143165018Y-47033529D01*
X140591635Y-43605771D02*
X139733841Y-43605771D01*
X140162738Y-43605771D02*
X140162738Y-42104631D01*
X140162738Y-42104631D02*
X140019772Y-42319080D01*
X140019772Y-42319080D02*
X139876807Y-42462046D01*
X139876807Y-42462046D02*
X139733841Y-42533529D01*
X141520912Y-42104631D02*
X141663878Y-42104631D01*
X141663878Y-42104631D02*
X141806844Y-42176114D01*
X141806844Y-42176114D02*
X141878327Y-42247597D01*
X141878327Y-42247597D02*
X141949809Y-42390563D01*
X141949809Y-42390563D02*
X142021292Y-42676494D01*
X142021292Y-42676494D02*
X142021292Y-43033909D01*
X142021292Y-43033909D02*
X141949809Y-43319840D01*
X141949809Y-43319840D02*
X141878327Y-43462806D01*
X141878327Y-43462806D02*
X141806844Y-43534289D01*
X141806844Y-43534289D02*
X141663878Y-43605771D01*
X141663878Y-43605771D02*
X141520912Y-43605771D01*
X141520912Y-43605771D02*
X141377947Y-43534289D01*
X141377947Y-43534289D02*
X141306464Y-43462806D01*
X141306464Y-43462806D02*
X141234981Y-43319840D01*
X141234981Y-43319840D02*
X141163498Y-43033909D01*
X141163498Y-43033909D02*
X141163498Y-42676494D01*
X141163498Y-42676494D02*
X141234981Y-42390563D01*
X141234981Y-42390563D02*
X141306464Y-42247597D01*
X141306464Y-42247597D02*
X141377947Y-42176114D01*
X141377947Y-42176114D02*
X141520912Y-42104631D01*
X142950569Y-42104631D02*
X143093535Y-42104631D01*
X143093535Y-42104631D02*
X143236501Y-42176114D01*
X143236501Y-42176114D02*
X143307984Y-42247597D01*
X143307984Y-42247597D02*
X143379466Y-42390563D01*
X143379466Y-42390563D02*
X143450949Y-42676494D01*
X143450949Y-42676494D02*
X143450949Y-43033909D01*
X143450949Y-43033909D02*
X143379466Y-43319840D01*
X143379466Y-43319840D02*
X143307984Y-43462806D01*
X143307984Y-43462806D02*
X143236501Y-43534289D01*
X143236501Y-43534289D02*
X143093535Y-43605771D01*
X143093535Y-43605771D02*
X142950569Y-43605771D01*
X142950569Y-43605771D02*
X142807604Y-43534289D01*
X142807604Y-43534289D02*
X142736121Y-43462806D01*
X142736121Y-43462806D02*
X142664638Y-43319840D01*
X142664638Y-43319840D02*
X142593155Y-43033909D01*
X142593155Y-43033909D02*
X142593155Y-42676494D01*
X142593155Y-42676494D02*
X142664638Y-42390563D01*
X142664638Y-42390563D02*
X142736121Y-42247597D01*
X142736121Y-42247597D02*
X142807604Y-42176114D01*
X142807604Y-42176114D02*
X142950569Y-42104631D01*
X144094295Y-43605771D02*
X144094295Y-42104631D01*
X144237261Y-43033909D02*
X144666158Y-43605771D01*
X144666158Y-42605011D02*
X144094295Y-43176874D01*
D10*
X147653095Y-73234819D02*
X147653095Y-74044342D01*
X147653095Y-74044342D02*
X147700714Y-74139580D01*
X147700714Y-74139580D02*
X147748333Y-74187200D01*
X147748333Y-74187200D02*
X147843571Y-74234819D01*
X147843571Y-74234819D02*
X148034047Y-74234819D01*
X148034047Y-74234819D02*
X148129285Y-74187200D01*
X148129285Y-74187200D02*
X148176904Y-74139580D01*
X148176904Y-74139580D02*
X148224523Y-74044342D01*
X148224523Y-74044342D02*
X148224523Y-73234819D01*
X149224523Y-74234819D02*
X148653095Y-74234819D01*
X148938809Y-74234819D02*
X148938809Y-73234819D01*
X148938809Y-73234819D02*
X148843571Y-73377676D01*
X148843571Y-73377676D02*
X148748333Y-73472914D01*
X148748333Y-73472914D02*
X148653095Y-73520533D01*
X165554819Y-56766666D02*
X165078628Y-57099999D01*
X165554819Y-57338094D02*
X164554819Y-57338094D01*
X164554819Y-57338094D02*
X164554819Y-56957142D01*
X164554819Y-56957142D02*
X164602438Y-56861904D01*
X164602438Y-56861904D02*
X164650057Y-56814285D01*
X164650057Y-56814285D02*
X164745295Y-56766666D01*
X164745295Y-56766666D02*
X164888152Y-56766666D01*
X164888152Y-56766666D02*
X164983390Y-56814285D01*
X164983390Y-56814285D02*
X165031009Y-56861904D01*
X165031009Y-56861904D02*
X165078628Y-56957142D01*
X165078628Y-56957142D02*
X165078628Y-57338094D01*
X164554819Y-56433332D02*
X164554819Y-55814285D01*
X164554819Y-55814285D02*
X164935771Y-56147618D01*
X164935771Y-56147618D02*
X164935771Y-56004761D01*
X164935771Y-56004761D02*
X164983390Y-55909523D01*
X164983390Y-55909523D02*
X165031009Y-55861904D01*
X165031009Y-55861904D02*
X165126247Y-55814285D01*
X165126247Y-55814285D02*
X165364342Y-55814285D01*
X165364342Y-55814285D02*
X165459580Y-55861904D01*
X165459580Y-55861904D02*
X165507200Y-55909523D01*
X165507200Y-55909523D02*
X165554819Y-56004761D01*
X165554819Y-56004761D02*
X165554819Y-56290475D01*
X165554819Y-56290475D02*
X165507200Y-56385713D01*
X165507200Y-56385713D02*
X165459580Y-56433332D01*
X152533333Y-80854819D02*
X152200000Y-80378628D01*
X151961905Y-80854819D02*
X151961905Y-79854819D01*
X151961905Y-79854819D02*
X152342857Y-79854819D01*
X152342857Y-79854819D02*
X152438095Y-79902438D01*
X152438095Y-79902438D02*
X152485714Y-79950057D01*
X152485714Y-79950057D02*
X152533333Y-80045295D01*
X152533333Y-80045295D02*
X152533333Y-80188152D01*
X152533333Y-80188152D02*
X152485714Y-80283390D01*
X152485714Y-80283390D02*
X152438095Y-80331009D01*
X152438095Y-80331009D02*
X152342857Y-80378628D01*
X152342857Y-80378628D02*
X151961905Y-80378628D01*
X153009524Y-80854819D02*
X153200000Y-80854819D01*
X153200000Y-80854819D02*
X153295238Y-80807200D01*
X153295238Y-80807200D02*
X153342857Y-80759580D01*
X153342857Y-80759580D02*
X153438095Y-80616723D01*
X153438095Y-80616723D02*
X153485714Y-80426247D01*
X153485714Y-80426247D02*
X153485714Y-80045295D01*
X153485714Y-80045295D02*
X153438095Y-79950057D01*
X153438095Y-79950057D02*
X153390476Y-79902438D01*
X153390476Y-79902438D02*
X153295238Y-79854819D01*
X153295238Y-79854819D02*
X153104762Y-79854819D01*
X153104762Y-79854819D02*
X153009524Y-79902438D01*
X153009524Y-79902438D02*
X152961905Y-79950057D01*
X152961905Y-79950057D02*
X152914286Y-80045295D01*
X152914286Y-80045295D02*
X152914286Y-80283390D01*
X152914286Y-80283390D02*
X152961905Y-80378628D01*
X152961905Y-80378628D02*
X153009524Y-80426247D01*
X153009524Y-80426247D02*
X153104762Y-80473866D01*
X153104762Y-80473866D02*
X153295238Y-80473866D01*
X153295238Y-80473866D02*
X153390476Y-80426247D01*
X153390476Y-80426247D02*
X153438095Y-80378628D01*
X153438095Y-80378628D02*
X153485714Y-80283390D01*
X127766666Y-115327319D02*
X127766666Y-116041604D01*
X127766666Y-116041604D02*
X127719047Y-116184461D01*
X127719047Y-116184461D02*
X127623809Y-116279700D01*
X127623809Y-116279700D02*
X127480952Y-116327319D01*
X127480952Y-116327319D02*
X127385714Y-116327319D01*
X128719047Y-115327319D02*
X128242857Y-115327319D01*
X128242857Y-115327319D02*
X128195238Y-115803509D01*
X128195238Y-115803509D02*
X128242857Y-115755890D01*
X128242857Y-115755890D02*
X128338095Y-115708271D01*
X128338095Y-115708271D02*
X128576190Y-115708271D01*
X128576190Y-115708271D02*
X128671428Y-115755890D01*
X128671428Y-115755890D02*
X128719047Y-115803509D01*
X128719047Y-115803509D02*
X128766666Y-115898747D01*
X128766666Y-115898747D02*
X128766666Y-116136842D01*
X128766666Y-116136842D02*
X128719047Y-116232080D01*
X128719047Y-116232080D02*
X128671428Y-116279700D01*
X128671428Y-116279700D02*
X128576190Y-116327319D01*
X128576190Y-116327319D02*
X128338095Y-116327319D01*
X128338095Y-116327319D02*
X128242857Y-116279700D01*
X128242857Y-116279700D02*
X128195238Y-116232080D01*
X168733333Y-67254819D02*
X168400000Y-66778628D01*
X168161905Y-67254819D02*
X168161905Y-66254819D01*
X168161905Y-66254819D02*
X168542857Y-66254819D01*
X168542857Y-66254819D02*
X168638095Y-66302438D01*
X168638095Y-66302438D02*
X168685714Y-66350057D01*
X168685714Y-66350057D02*
X168733333Y-66445295D01*
X168733333Y-66445295D02*
X168733333Y-66588152D01*
X168733333Y-66588152D02*
X168685714Y-66683390D01*
X168685714Y-66683390D02*
X168638095Y-66731009D01*
X168638095Y-66731009D02*
X168542857Y-66778628D01*
X168542857Y-66778628D02*
X168161905Y-66778628D01*
X169638095Y-66254819D02*
X169161905Y-66254819D01*
X169161905Y-66254819D02*
X169114286Y-66731009D01*
X169114286Y-66731009D02*
X169161905Y-66683390D01*
X169161905Y-66683390D02*
X169257143Y-66635771D01*
X169257143Y-66635771D02*
X169495238Y-66635771D01*
X169495238Y-66635771D02*
X169590476Y-66683390D01*
X169590476Y-66683390D02*
X169638095Y-66731009D01*
X169638095Y-66731009D02*
X169685714Y-66826247D01*
X169685714Y-66826247D02*
X169685714Y-67064342D01*
X169685714Y-67064342D02*
X169638095Y-67159580D01*
X169638095Y-67159580D02*
X169590476Y-67207200D01*
X169590476Y-67207200D02*
X169495238Y-67254819D01*
X169495238Y-67254819D02*
X169257143Y-67254819D01*
X169257143Y-67254819D02*
X169161905Y-67207200D01*
X169161905Y-67207200D02*
X169114286Y-67159580D01*
X179933333Y-80854819D02*
X179600000Y-80378628D01*
X179361905Y-80854819D02*
X179361905Y-79854819D01*
X179361905Y-79854819D02*
X179742857Y-79854819D01*
X179742857Y-79854819D02*
X179838095Y-79902438D01*
X179838095Y-79902438D02*
X179885714Y-79950057D01*
X179885714Y-79950057D02*
X179933333Y-80045295D01*
X179933333Y-80045295D02*
X179933333Y-80188152D01*
X179933333Y-80188152D02*
X179885714Y-80283390D01*
X179885714Y-80283390D02*
X179838095Y-80331009D01*
X179838095Y-80331009D02*
X179742857Y-80378628D01*
X179742857Y-80378628D02*
X179361905Y-80378628D01*
X180409524Y-80854819D02*
X180600000Y-80854819D01*
X180600000Y-80854819D02*
X180695238Y-80807200D01*
X180695238Y-80807200D02*
X180742857Y-80759580D01*
X180742857Y-80759580D02*
X180838095Y-80616723D01*
X180838095Y-80616723D02*
X180885714Y-80426247D01*
X180885714Y-80426247D02*
X180885714Y-80045295D01*
X180885714Y-80045295D02*
X180838095Y-79950057D01*
X180838095Y-79950057D02*
X180790476Y-79902438D01*
X180790476Y-79902438D02*
X180695238Y-79854819D01*
X180695238Y-79854819D02*
X180504762Y-79854819D01*
X180504762Y-79854819D02*
X180409524Y-79902438D01*
X180409524Y-79902438D02*
X180361905Y-79950057D01*
X180361905Y-79950057D02*
X180314286Y-80045295D01*
X180314286Y-80045295D02*
X180314286Y-80283390D01*
X180314286Y-80283390D02*
X180361905Y-80378628D01*
X180361905Y-80378628D02*
X180409524Y-80426247D01*
X180409524Y-80426247D02*
X180504762Y-80473866D01*
X180504762Y-80473866D02*
X180695238Y-80473866D01*
X180695238Y-80473866D02*
X180790476Y-80426247D01*
X180790476Y-80426247D02*
X180838095Y-80378628D01*
X180838095Y-80378628D02*
X180885714Y-80283390D01*
X110804819Y-73616666D02*
X110328628Y-73949999D01*
X110804819Y-74188094D02*
X109804819Y-74188094D01*
X109804819Y-74188094D02*
X109804819Y-73807142D01*
X109804819Y-73807142D02*
X109852438Y-73711904D01*
X109852438Y-73711904D02*
X109900057Y-73664285D01*
X109900057Y-73664285D02*
X109995295Y-73616666D01*
X109995295Y-73616666D02*
X110138152Y-73616666D01*
X110138152Y-73616666D02*
X110233390Y-73664285D01*
X110233390Y-73664285D02*
X110281009Y-73711904D01*
X110281009Y-73711904D02*
X110328628Y-73807142D01*
X110328628Y-73807142D02*
X110328628Y-74188094D01*
X110233390Y-73045237D02*
X110185771Y-73140475D01*
X110185771Y-73140475D02*
X110138152Y-73188094D01*
X110138152Y-73188094D02*
X110042914Y-73235713D01*
X110042914Y-73235713D02*
X109995295Y-73235713D01*
X109995295Y-73235713D02*
X109900057Y-73188094D01*
X109900057Y-73188094D02*
X109852438Y-73140475D01*
X109852438Y-73140475D02*
X109804819Y-73045237D01*
X109804819Y-73045237D02*
X109804819Y-72854761D01*
X109804819Y-72854761D02*
X109852438Y-72759523D01*
X109852438Y-72759523D02*
X109900057Y-72711904D01*
X109900057Y-72711904D02*
X109995295Y-72664285D01*
X109995295Y-72664285D02*
X110042914Y-72664285D01*
X110042914Y-72664285D02*
X110138152Y-72711904D01*
X110138152Y-72711904D02*
X110185771Y-72759523D01*
X110185771Y-72759523D02*
X110233390Y-72854761D01*
X110233390Y-72854761D02*
X110233390Y-73045237D01*
X110233390Y-73045237D02*
X110281009Y-73140475D01*
X110281009Y-73140475D02*
X110328628Y-73188094D01*
X110328628Y-73188094D02*
X110423866Y-73235713D01*
X110423866Y-73235713D02*
X110614342Y-73235713D01*
X110614342Y-73235713D02*
X110709580Y-73188094D01*
X110709580Y-73188094D02*
X110757200Y-73140475D01*
X110757200Y-73140475D02*
X110804819Y-73045237D01*
X110804819Y-73045237D02*
X110804819Y-72854761D01*
X110804819Y-72854761D02*
X110757200Y-72759523D01*
X110757200Y-72759523D02*
X110709580Y-72711904D01*
X110709580Y-72711904D02*
X110614342Y-72664285D01*
X110614342Y-72664285D02*
X110423866Y-72664285D01*
X110423866Y-72664285D02*
X110328628Y-72711904D01*
X110328628Y-72711904D02*
X110281009Y-72759523D01*
X110281009Y-72759523D02*
X110233390Y-72854761D01*
D11*
X168706464Y-48105771D02*
X168206084Y-47390943D01*
X167848670Y-48105771D02*
X167848670Y-46604631D01*
X167848670Y-46604631D02*
X168420533Y-46604631D01*
X168420533Y-46604631D02*
X168563498Y-46676114D01*
X168563498Y-46676114D02*
X168634981Y-46747597D01*
X168634981Y-46747597D02*
X168706464Y-46890563D01*
X168706464Y-46890563D02*
X168706464Y-47105011D01*
X168706464Y-47105011D02*
X168634981Y-47247977D01*
X168634981Y-47247977D02*
X168563498Y-47319460D01*
X168563498Y-47319460D02*
X168420533Y-47390943D01*
X168420533Y-47390943D02*
X167848670Y-47390943D01*
X169135361Y-46604631D02*
X169635741Y-48105771D01*
X169635741Y-48105771D02*
X170136121Y-46604631D01*
X171422812Y-48105771D02*
X170565018Y-48105771D01*
X170993915Y-48105771D02*
X170993915Y-46604631D01*
X170993915Y-46604631D02*
X170850949Y-46819080D01*
X170850949Y-46819080D02*
X170707984Y-46962046D01*
X170707984Y-46962046D02*
X170565018Y-47033529D01*
X167991635Y-43605771D02*
X167133841Y-43605771D01*
X167562738Y-43605771D02*
X167562738Y-42104631D01*
X167562738Y-42104631D02*
X167419772Y-42319080D01*
X167419772Y-42319080D02*
X167276807Y-42462046D01*
X167276807Y-42462046D02*
X167133841Y-42533529D01*
X168920912Y-42104631D02*
X169063878Y-42104631D01*
X169063878Y-42104631D02*
X169206844Y-42176114D01*
X169206844Y-42176114D02*
X169278327Y-42247597D01*
X169278327Y-42247597D02*
X169349809Y-42390563D01*
X169349809Y-42390563D02*
X169421292Y-42676494D01*
X169421292Y-42676494D02*
X169421292Y-43033909D01*
X169421292Y-43033909D02*
X169349809Y-43319840D01*
X169349809Y-43319840D02*
X169278327Y-43462806D01*
X169278327Y-43462806D02*
X169206844Y-43534289D01*
X169206844Y-43534289D02*
X169063878Y-43605771D01*
X169063878Y-43605771D02*
X168920912Y-43605771D01*
X168920912Y-43605771D02*
X168777947Y-43534289D01*
X168777947Y-43534289D02*
X168706464Y-43462806D01*
X168706464Y-43462806D02*
X168634981Y-43319840D01*
X168634981Y-43319840D02*
X168563498Y-43033909D01*
X168563498Y-43033909D02*
X168563498Y-42676494D01*
X168563498Y-42676494D02*
X168634981Y-42390563D01*
X168634981Y-42390563D02*
X168706464Y-42247597D01*
X168706464Y-42247597D02*
X168777947Y-42176114D01*
X168777947Y-42176114D02*
X168920912Y-42104631D01*
X170350569Y-42104631D02*
X170493535Y-42104631D01*
X170493535Y-42104631D02*
X170636501Y-42176114D01*
X170636501Y-42176114D02*
X170707984Y-42247597D01*
X170707984Y-42247597D02*
X170779466Y-42390563D01*
X170779466Y-42390563D02*
X170850949Y-42676494D01*
X170850949Y-42676494D02*
X170850949Y-43033909D01*
X170850949Y-43033909D02*
X170779466Y-43319840D01*
X170779466Y-43319840D02*
X170707984Y-43462806D01*
X170707984Y-43462806D02*
X170636501Y-43534289D01*
X170636501Y-43534289D02*
X170493535Y-43605771D01*
X170493535Y-43605771D02*
X170350569Y-43605771D01*
X170350569Y-43605771D02*
X170207604Y-43534289D01*
X170207604Y-43534289D02*
X170136121Y-43462806D01*
X170136121Y-43462806D02*
X170064638Y-43319840D01*
X170064638Y-43319840D02*
X169993155Y-43033909D01*
X169993155Y-43033909D02*
X169993155Y-42676494D01*
X169993155Y-42676494D02*
X170064638Y-42390563D01*
X170064638Y-42390563D02*
X170136121Y-42247597D01*
X170136121Y-42247597D02*
X170207604Y-42176114D01*
X170207604Y-42176114D02*
X170350569Y-42104631D01*
X171494295Y-43605771D02*
X171494295Y-42104631D01*
X171637261Y-43033909D02*
X172066158Y-43605771D01*
X172066158Y-42605011D02*
X171494295Y-43176874D01*
X175256464Y-63219021D02*
X174756084Y-62504193D01*
X174398670Y-63219021D02*
X174398670Y-61717881D01*
X174398670Y-61717881D02*
X174970533Y-61717881D01*
X174970533Y-61717881D02*
X175113498Y-61789364D01*
X175113498Y-61789364D02*
X175184981Y-61860847D01*
X175184981Y-61860847D02*
X175256464Y-62003813D01*
X175256464Y-62003813D02*
X175256464Y-62218261D01*
X175256464Y-62218261D02*
X175184981Y-62361227D01*
X175184981Y-62361227D02*
X175113498Y-62432710D01*
X175113498Y-62432710D02*
X174970533Y-62504193D01*
X174970533Y-62504193D02*
X174398670Y-62504193D01*
X175685361Y-61717881D02*
X176185741Y-63219021D01*
X176185741Y-63219021D02*
X176686121Y-61717881D01*
X177043535Y-61717881D02*
X177972812Y-61717881D01*
X177972812Y-61717881D02*
X177472432Y-62289744D01*
X177472432Y-62289744D02*
X177686881Y-62289744D01*
X177686881Y-62289744D02*
X177829847Y-62361227D01*
X177829847Y-62361227D02*
X177901329Y-62432710D01*
X177901329Y-62432710D02*
X177972812Y-62575676D01*
X177972812Y-62575676D02*
X177972812Y-62933090D01*
X177972812Y-62933090D02*
X177901329Y-63076056D01*
X177901329Y-63076056D02*
X177829847Y-63147539D01*
X177829847Y-63147539D02*
X177686881Y-63219021D01*
X177686881Y-63219021D02*
X177257984Y-63219021D01*
X177257984Y-63219021D02*
X177115018Y-63147539D01*
X177115018Y-63147539D02*
X177043535Y-63076056D01*
X174587635Y-58719021D02*
X173729841Y-58719021D01*
X174158738Y-58719021D02*
X174158738Y-57217881D01*
X174158738Y-57217881D02*
X174015772Y-57432330D01*
X174015772Y-57432330D02*
X173872807Y-57575296D01*
X173872807Y-57575296D02*
X173729841Y-57646779D01*
X175516912Y-57217881D02*
X175659878Y-57217881D01*
X175659878Y-57217881D02*
X175802844Y-57289364D01*
X175802844Y-57289364D02*
X175874327Y-57360847D01*
X175874327Y-57360847D02*
X175945809Y-57503813D01*
X175945809Y-57503813D02*
X176017292Y-57789744D01*
X176017292Y-57789744D02*
X176017292Y-58147159D01*
X176017292Y-58147159D02*
X175945809Y-58433090D01*
X175945809Y-58433090D02*
X175874327Y-58576056D01*
X175874327Y-58576056D02*
X175802844Y-58647539D01*
X175802844Y-58647539D02*
X175659878Y-58719021D01*
X175659878Y-58719021D02*
X175516912Y-58719021D01*
X175516912Y-58719021D02*
X175373947Y-58647539D01*
X175373947Y-58647539D02*
X175302464Y-58576056D01*
X175302464Y-58576056D02*
X175230981Y-58433090D01*
X175230981Y-58433090D02*
X175159498Y-58147159D01*
X175159498Y-58147159D02*
X175159498Y-57789744D01*
X175159498Y-57789744D02*
X175230981Y-57503813D01*
X175230981Y-57503813D02*
X175302464Y-57360847D01*
X175302464Y-57360847D02*
X175373947Y-57289364D01*
X175373947Y-57289364D02*
X175516912Y-57217881D01*
X176946569Y-57217881D02*
X177089535Y-57217881D01*
X177089535Y-57217881D02*
X177232501Y-57289364D01*
X177232501Y-57289364D02*
X177303984Y-57360847D01*
X177303984Y-57360847D02*
X177375466Y-57503813D01*
X177375466Y-57503813D02*
X177446949Y-57789744D01*
X177446949Y-57789744D02*
X177446949Y-58147159D01*
X177446949Y-58147159D02*
X177375466Y-58433090D01*
X177375466Y-58433090D02*
X177303984Y-58576056D01*
X177303984Y-58576056D02*
X177232501Y-58647539D01*
X177232501Y-58647539D02*
X177089535Y-58719021D01*
X177089535Y-58719021D02*
X176946569Y-58719021D01*
X176946569Y-58719021D02*
X176803604Y-58647539D01*
X176803604Y-58647539D02*
X176732121Y-58576056D01*
X176732121Y-58576056D02*
X176660638Y-58433090D01*
X176660638Y-58433090D02*
X176589155Y-58147159D01*
X176589155Y-58147159D02*
X176589155Y-57789744D01*
X176589155Y-57789744D02*
X176660638Y-57503813D01*
X176660638Y-57503813D02*
X176732121Y-57360847D01*
X176732121Y-57360847D02*
X176803604Y-57289364D01*
X176803604Y-57289364D02*
X176946569Y-57217881D01*
X178090295Y-58719021D02*
X178090295Y-57217881D01*
X178233261Y-58147159D02*
X178662158Y-58719021D01*
X178662158Y-57718261D02*
X178090295Y-58290124D01*
D10*
X168766666Y-23654819D02*
X168766666Y-24369104D01*
X168766666Y-24369104D02*
X168719047Y-24511961D01*
X168719047Y-24511961D02*
X168623809Y-24607200D01*
X168623809Y-24607200D02*
X168480952Y-24654819D01*
X168480952Y-24654819D02*
X168385714Y-24654819D01*
X169766666Y-24654819D02*
X169195238Y-24654819D01*
X169480952Y-24654819D02*
X169480952Y-23654819D01*
X169480952Y-23654819D02*
X169385714Y-23797676D01*
X169385714Y-23797676D02*
X169290476Y-23892914D01*
X169290476Y-23892914D02*
X169195238Y-23940533D01*
X165604819Y-73616666D02*
X165128628Y-73949999D01*
X165604819Y-74188094D02*
X164604819Y-74188094D01*
X164604819Y-74188094D02*
X164604819Y-73807142D01*
X164604819Y-73807142D02*
X164652438Y-73711904D01*
X164652438Y-73711904D02*
X164700057Y-73664285D01*
X164700057Y-73664285D02*
X164795295Y-73616666D01*
X164795295Y-73616666D02*
X164938152Y-73616666D01*
X164938152Y-73616666D02*
X165033390Y-73664285D01*
X165033390Y-73664285D02*
X165081009Y-73711904D01*
X165081009Y-73711904D02*
X165128628Y-73807142D01*
X165128628Y-73807142D02*
X165128628Y-74188094D01*
X165033390Y-73045237D02*
X164985771Y-73140475D01*
X164985771Y-73140475D02*
X164938152Y-73188094D01*
X164938152Y-73188094D02*
X164842914Y-73235713D01*
X164842914Y-73235713D02*
X164795295Y-73235713D01*
X164795295Y-73235713D02*
X164700057Y-73188094D01*
X164700057Y-73188094D02*
X164652438Y-73140475D01*
X164652438Y-73140475D02*
X164604819Y-73045237D01*
X164604819Y-73045237D02*
X164604819Y-72854761D01*
X164604819Y-72854761D02*
X164652438Y-72759523D01*
X164652438Y-72759523D02*
X164700057Y-72711904D01*
X164700057Y-72711904D02*
X164795295Y-72664285D01*
X164795295Y-72664285D02*
X164842914Y-72664285D01*
X164842914Y-72664285D02*
X164938152Y-72711904D01*
X164938152Y-72711904D02*
X164985771Y-72759523D01*
X164985771Y-72759523D02*
X165033390Y-72854761D01*
X165033390Y-72854761D02*
X165033390Y-73045237D01*
X165033390Y-73045237D02*
X165081009Y-73140475D01*
X165081009Y-73140475D02*
X165128628Y-73188094D01*
X165128628Y-73188094D02*
X165223866Y-73235713D01*
X165223866Y-73235713D02*
X165414342Y-73235713D01*
X165414342Y-73235713D02*
X165509580Y-73188094D01*
X165509580Y-73188094D02*
X165557200Y-73140475D01*
X165557200Y-73140475D02*
X165604819Y-73045237D01*
X165604819Y-73045237D02*
X165604819Y-72854761D01*
X165604819Y-72854761D02*
X165557200Y-72759523D01*
X165557200Y-72759523D02*
X165509580Y-72711904D01*
X165509580Y-72711904D02*
X165414342Y-72664285D01*
X165414342Y-72664285D02*
X165223866Y-72664285D01*
X165223866Y-72664285D02*
X165128628Y-72711904D01*
X165128628Y-72711904D02*
X165081009Y-72759523D01*
X165081009Y-72759523D02*
X165033390Y-72854761D01*
X125133333Y-80854819D02*
X124800000Y-80378628D01*
X124561905Y-80854819D02*
X124561905Y-79854819D01*
X124561905Y-79854819D02*
X124942857Y-79854819D01*
X124942857Y-79854819D02*
X125038095Y-79902438D01*
X125038095Y-79902438D02*
X125085714Y-79950057D01*
X125085714Y-79950057D02*
X125133333Y-80045295D01*
X125133333Y-80045295D02*
X125133333Y-80188152D01*
X125133333Y-80188152D02*
X125085714Y-80283390D01*
X125085714Y-80283390D02*
X125038095Y-80331009D01*
X125038095Y-80331009D02*
X124942857Y-80378628D01*
X124942857Y-80378628D02*
X124561905Y-80378628D01*
X125609524Y-80854819D02*
X125800000Y-80854819D01*
X125800000Y-80854819D02*
X125895238Y-80807200D01*
X125895238Y-80807200D02*
X125942857Y-80759580D01*
X125942857Y-80759580D02*
X126038095Y-80616723D01*
X126038095Y-80616723D02*
X126085714Y-80426247D01*
X126085714Y-80426247D02*
X126085714Y-80045295D01*
X126085714Y-80045295D02*
X126038095Y-79950057D01*
X126038095Y-79950057D02*
X125990476Y-79902438D01*
X125990476Y-79902438D02*
X125895238Y-79854819D01*
X125895238Y-79854819D02*
X125704762Y-79854819D01*
X125704762Y-79854819D02*
X125609524Y-79902438D01*
X125609524Y-79902438D02*
X125561905Y-79950057D01*
X125561905Y-79950057D02*
X125514286Y-80045295D01*
X125514286Y-80045295D02*
X125514286Y-80283390D01*
X125514286Y-80283390D02*
X125561905Y-80378628D01*
X125561905Y-80378628D02*
X125609524Y-80426247D01*
X125609524Y-80426247D02*
X125704762Y-80473866D01*
X125704762Y-80473866D02*
X125895238Y-80473866D01*
X125895238Y-80473866D02*
X125990476Y-80426247D01*
X125990476Y-80426247D02*
X126038095Y-80378628D01*
X126038095Y-80378628D02*
X126085714Y-80283390D01*
X168766666Y-115454819D02*
X168766666Y-116169104D01*
X168766666Y-116169104D02*
X168719047Y-116311961D01*
X168719047Y-116311961D02*
X168623809Y-116407200D01*
X168623809Y-116407200D02*
X168480952Y-116454819D01*
X168480952Y-116454819D02*
X168385714Y-116454819D01*
X169671428Y-115788152D02*
X169671428Y-116454819D01*
X169433333Y-115407200D02*
X169195238Y-116121485D01*
X169195238Y-116121485D02*
X169814285Y-116121485D01*
X113554819Y-56776666D02*
X113078628Y-57109999D01*
X113554819Y-57348094D02*
X112554819Y-57348094D01*
X112554819Y-57348094D02*
X112554819Y-56967142D01*
X112554819Y-56967142D02*
X112602438Y-56871904D01*
X112602438Y-56871904D02*
X112650057Y-56824285D01*
X112650057Y-56824285D02*
X112745295Y-56776666D01*
X112745295Y-56776666D02*
X112888152Y-56776666D01*
X112888152Y-56776666D02*
X112983390Y-56824285D01*
X112983390Y-56824285D02*
X113031009Y-56871904D01*
X113031009Y-56871904D02*
X113078628Y-56967142D01*
X113078628Y-56967142D02*
X113078628Y-57348094D01*
X113554819Y-55824285D02*
X113554819Y-56395713D01*
X113554819Y-56109999D02*
X112554819Y-56109999D01*
X112554819Y-56109999D02*
X112697676Y-56205237D01*
X112697676Y-56205237D02*
X112792914Y-56300475D01*
X112792914Y-56300475D02*
X112840533Y-56395713D01*
D12*
%TO.C,R10*%
X166780000Y-82070000D02*
X166780000Y-85910000D01*
X166780000Y-85910000D02*
X168620000Y-85910000D01*
X167700000Y-81120000D02*
X167700000Y-82070000D01*
X167700000Y-86860000D02*
X167700000Y-85910000D01*
X168620000Y-82070000D02*
X166780000Y-82070000D01*
X168620000Y-85910000D02*
X168620000Y-82070000D01*
D13*
%TO.C,RV3*%
X116450000Y-52000000D02*
X126250000Y-52000000D01*
X116450000Y-64000000D02*
X116450000Y-52000000D01*
X116450000Y-64000000D02*
X126250000Y-64000000D01*
X118749040Y-55998860D02*
X123950960Y-55998860D01*
X126250000Y-52000000D02*
X126250000Y-64000000D01*
X117950000Y-53100000D02*
G75*
G02*
X117150000Y-53100000I-400000J0D01*
G01*
X117150000Y-53100000D02*
G75*
G02*
X117950000Y-53100000I400000J0D01*
G01*
X117950000Y-61900000D02*
G75*
G02*
X117150000Y-61900000I-400000J0D01*
G01*
X117150000Y-61900000D02*
G75*
G02*
X117950000Y-61900000I400000J0D01*
G01*
X124751060Y-57500000D02*
G75*
G02*
X117948940Y-57500000I-3401060J0D01*
G01*
X117948940Y-57500000D02*
G75*
G02*
X124751060Y-57500000I3401060J0D01*
G01*
X124349740Y-57500000D02*
G75*
G02*
X118350260Y-57500000I-2999740J0D01*
G01*
X118350260Y-57500000D02*
G75*
G02*
X124349740Y-57500000I2999740J0D01*
G01*
X125550000Y-53100000D02*
G75*
G02*
X124750000Y-53100000I-400000J0D01*
G01*
X124750000Y-53100000D02*
G75*
G02*
X125550000Y-53100000I400000J0D01*
G01*
X125550000Y-61900000D02*
G75*
G02*
X124750000Y-61900000I-400000J0D01*
G01*
X124750000Y-61900000D02*
G75*
G02*
X125550000Y-61900000I400000J0D01*
G01*
D12*
%TO.C,C3*%
X158130000Y-71430000D02*
X158130000Y-76670000D01*
X160870000Y-71430000D02*
X158130000Y-71430000D01*
X160870000Y-71430000D02*
X160870000Y-76670000D01*
X160870000Y-76670000D02*
X158130000Y-76670000D01*
D10*
%TO.C,J2*%
X123400000Y-20800000D02*
X123400000Y-31700000D01*
X123400000Y-20800000D02*
X132400000Y-20800000D01*
X123400000Y-31700000D02*
X132400000Y-31700000D01*
X126100000Y-27000000D02*
X129700000Y-27000000D01*
X127900000Y-25200000D02*
X127900000Y-28800000D01*
X132400000Y-20800000D02*
X132400000Y-31700000D01*
X129700000Y-27000000D02*
G75*
G02*
X126100000Y-27000000I-1800000J0D01*
G01*
X126100000Y-27000000D02*
G75*
G02*
X129700000Y-27000000I1800000J0D01*
G01*
D12*
%TO.C,C4*%
X130730000Y-77180000D02*
X133470000Y-77180000D01*
X130730000Y-82420000D02*
X130730000Y-77180000D01*
X130730000Y-82420000D02*
X133470000Y-82420000D01*
X133470000Y-82420000D02*
X133470000Y-77180000D01*
%TO.C,R3*%
X136780000Y-54680000D02*
X136780000Y-58520000D01*
X136780000Y-58520000D02*
X138620000Y-58520000D01*
X137700000Y-53730000D02*
X137700000Y-54680000D01*
X137700000Y-59470000D02*
X137700000Y-58520000D01*
X138620000Y-54680000D02*
X136780000Y-54680000D01*
X138620000Y-58520000D02*
X138620000Y-54680000D01*
%TO.C,U1*%
X112070000Y-71140000D02*
X112070000Y-76440000D01*
X112070000Y-76440000D02*
X129970000Y-76440000D01*
X129970000Y-71140000D02*
X112070000Y-71140000D01*
X129970000Y-72790000D02*
X129970000Y-71140000D01*
X129970000Y-76440000D02*
X129970000Y-74790000D01*
X129970000Y-74790000D02*
G75*
G02*
X129970000Y-72790000I0J1000000D01*
G01*
%TO.C,R1*%
X166980000Y-54690000D02*
X166980000Y-58530000D01*
X166980000Y-58530000D02*
X168820000Y-58530000D01*
X167900000Y-53740000D02*
X167900000Y-54690000D01*
X167900000Y-59480000D02*
X167900000Y-58530000D01*
X168820000Y-54690000D02*
X166980000Y-54690000D01*
X168820000Y-58530000D02*
X168820000Y-54690000D01*
D13*
%TO.C,RV2*%
X177300000Y-37000000D02*
X187100000Y-37000000D01*
X177300000Y-49000000D02*
X177300000Y-37000000D01*
X177300000Y-49000000D02*
X187100000Y-49000000D01*
X179599040Y-40998860D02*
X184800960Y-40998860D01*
X187100000Y-37000000D02*
X187100000Y-49000000D01*
X178800000Y-38100000D02*
G75*
G02*
X178000000Y-38100000I-400000J0D01*
G01*
X178000000Y-38100000D02*
G75*
G02*
X178800000Y-38100000I400000J0D01*
G01*
X178800000Y-46900000D02*
G75*
G02*
X178000000Y-46900000I-400000J0D01*
G01*
X178000000Y-46900000D02*
G75*
G02*
X178800000Y-46900000I400000J0D01*
G01*
X185601060Y-42500000D02*
G75*
G02*
X178798940Y-42500000I-3401060J0D01*
G01*
X178798940Y-42500000D02*
G75*
G02*
X185601060Y-42500000I3401060J0D01*
G01*
X185199740Y-42500000D02*
G75*
G02*
X179200260Y-42500000I-2999740J0D01*
G01*
X179200260Y-42500000D02*
G75*
G02*
X185199740Y-42500000I2999740J0D01*
G01*
X186400000Y-38100000D02*
G75*
G02*
X185600000Y-38100000I-400000J0D01*
G01*
X185600000Y-38100000D02*
G75*
G02*
X186400000Y-38100000I400000J0D01*
G01*
X186400000Y-46900000D02*
G75*
G02*
X185600000Y-46900000I-400000J0D01*
G01*
X185600000Y-46900000D02*
G75*
G02*
X186400000Y-46900000I400000J0D01*
G01*
D12*
%TO.C,R14*%
X113840000Y-103800000D02*
X114790000Y-103800000D01*
X114790000Y-102880000D02*
X114790000Y-104720000D01*
X114790000Y-104720000D02*
X118630000Y-104720000D01*
X118630000Y-102880000D02*
X114790000Y-102880000D01*
X118630000Y-104720000D02*
X118630000Y-102880000D01*
X119580000Y-103800000D02*
X118630000Y-103800000D01*
%TO.C,R12*%
X144480000Y-82080000D02*
X144480000Y-85920000D01*
X144480000Y-85920000D02*
X146320000Y-85920000D01*
X145400000Y-81130000D02*
X145400000Y-82080000D01*
X145400000Y-86870000D02*
X145400000Y-85920000D01*
X146320000Y-82080000D02*
X144480000Y-82080000D01*
X146320000Y-85920000D02*
X146320000Y-82080000D01*
%TO.C,R2*%
X156180000Y-54690000D02*
X156180000Y-58530000D01*
X156180000Y-58530000D02*
X158020000Y-58530000D01*
X157100000Y-53740000D02*
X157100000Y-54690000D01*
X157100000Y-59480000D02*
X157100000Y-58530000D01*
X158020000Y-54690000D02*
X156180000Y-54690000D01*
X158020000Y-58530000D02*
X158020000Y-54690000D01*
D10*
%TO.C,J1*%
X137200000Y-20820000D02*
X137200000Y-31720000D01*
X137200000Y-20820000D02*
X146200000Y-20820000D01*
X137200000Y-31720000D02*
X146200000Y-31720000D01*
X139900000Y-27020000D02*
X143500000Y-27020000D01*
X141700000Y-25220000D02*
X141700000Y-28820000D01*
X146200000Y-20820000D02*
X146200000Y-31720000D01*
X143500000Y-27020000D02*
G75*
G02*
X139900000Y-27020000I-1800000J0D01*
G01*
X139900000Y-27020000D02*
G75*
G02*
X143500000Y-27020000I1800000J0D01*
G01*
D12*
%TO.C,R10*%
X111980000Y-82070000D02*
X111980000Y-85910000D01*
X111980000Y-85910000D02*
X113820000Y-85910000D01*
X112900000Y-81120000D02*
X112900000Y-82070000D01*
X112900000Y-86860000D02*
X112900000Y-85910000D01*
X113820000Y-82070000D02*
X111980000Y-82070000D01*
X113820000Y-85910000D02*
X113820000Y-82070000D01*
%TO.C,R2*%
X128780000Y-54690000D02*
X128780000Y-58530000D01*
X128780000Y-58530000D02*
X130620000Y-58530000D01*
X129700000Y-53740000D02*
X129700000Y-54690000D01*
X129700000Y-59480000D02*
X129700000Y-58530000D01*
X130620000Y-54690000D02*
X128780000Y-54690000D01*
X130620000Y-58530000D02*
X130620000Y-54690000D01*
%TO.C,R11*%
X122440000Y-83000000D02*
X123390000Y-83000000D01*
X123390000Y-82080000D02*
X123390000Y-83920000D01*
X123390000Y-83920000D02*
X127230000Y-83920000D01*
X127230000Y-82080000D02*
X123390000Y-82080000D01*
X127230000Y-83920000D02*
X127230000Y-82080000D01*
X128180000Y-83000000D02*
X127230000Y-83000000D01*
%TO.C,R7*%
X169380000Y-82070000D02*
X169380000Y-85910000D01*
X169380000Y-85910000D02*
X171220000Y-85910000D01*
X170300000Y-81120000D02*
X170300000Y-82070000D01*
X170300000Y-86860000D02*
X170300000Y-85910000D01*
X171220000Y-82070000D02*
X169380000Y-82070000D01*
X171220000Y-85910000D02*
X171220000Y-82070000D01*
D13*
%TO.C,RV3*%
X143850000Y-52000000D02*
X153650000Y-52000000D01*
X143850000Y-64000000D02*
X143850000Y-52000000D01*
X143850000Y-64000000D02*
X153650000Y-64000000D01*
X146149040Y-55998860D02*
X151350960Y-55998860D01*
X153650000Y-52000000D02*
X153650000Y-64000000D01*
X145350000Y-53100000D02*
G75*
G02*
X144550000Y-53100000I-400000J0D01*
G01*
X144550000Y-53100000D02*
G75*
G02*
X145350000Y-53100000I400000J0D01*
G01*
X145350000Y-61900000D02*
G75*
G02*
X144550000Y-61900000I-400000J0D01*
G01*
X144550000Y-61900000D02*
G75*
G02*
X145350000Y-61900000I400000J0D01*
G01*
X152151060Y-57500000D02*
G75*
G02*
X145348940Y-57500000I-3401060J0D01*
G01*
X145348940Y-57500000D02*
G75*
G02*
X152151060Y-57500000I3401060J0D01*
G01*
X151749740Y-57500000D02*
G75*
G02*
X145750260Y-57500000I-2999740J0D01*
G01*
X145750260Y-57500000D02*
G75*
G02*
X151749740Y-57500000I2999740J0D01*
G01*
X152950000Y-53100000D02*
G75*
G02*
X152150000Y-53100000I-400000J0D01*
G01*
X152150000Y-53100000D02*
G75*
G02*
X152950000Y-53100000I400000J0D01*
G01*
X152950000Y-61900000D02*
G75*
G02*
X152150000Y-61900000I-400000J0D01*
G01*
X152150000Y-61900000D02*
G75*
G02*
X152950000Y-61900000I400000J0D01*
G01*
D12*
%TO.C,R11*%
X177240000Y-83000000D02*
X178190000Y-83000000D01*
X178190000Y-82080000D02*
X178190000Y-83920000D01*
X178190000Y-83920000D02*
X182030000Y-83920000D01*
X182030000Y-82080000D02*
X178190000Y-82080000D01*
X182030000Y-83920000D02*
X182030000Y-82080000D01*
X182980000Y-83000000D02*
X182030000Y-83000000D01*
%TO.C,R12*%
X171880000Y-82080000D02*
X171880000Y-85920000D01*
X171880000Y-85920000D02*
X173720000Y-85920000D01*
X172800000Y-81130000D02*
X172800000Y-82080000D01*
X172800000Y-86870000D02*
X172800000Y-85920000D01*
X173720000Y-82080000D02*
X171880000Y-82080000D01*
X173720000Y-85920000D02*
X173720000Y-82080000D01*
D13*
%TO.C,RV2*%
X122500000Y-37000000D02*
X132300000Y-37000000D01*
X122500000Y-49000000D02*
X122500000Y-37000000D01*
X122500000Y-49000000D02*
X132300000Y-49000000D01*
X124799040Y-40998860D02*
X130000960Y-40998860D01*
X132300000Y-37000000D02*
X132300000Y-49000000D01*
X124000000Y-38100000D02*
G75*
G02*
X123200000Y-38100000I-400000J0D01*
G01*
X123200000Y-38100000D02*
G75*
G02*
X124000000Y-38100000I400000J0D01*
G01*
X124000000Y-46900000D02*
G75*
G02*
X123200000Y-46900000I-400000J0D01*
G01*
X123200000Y-46900000D02*
G75*
G02*
X124000000Y-46900000I400000J0D01*
G01*
X130801060Y-42500000D02*
G75*
G02*
X123998940Y-42500000I-3401060J0D01*
G01*
X123998940Y-42500000D02*
G75*
G02*
X130801060Y-42500000I3401060J0D01*
G01*
X130399740Y-42500000D02*
G75*
G02*
X124400260Y-42500000I-2999740J0D01*
G01*
X124400260Y-42500000D02*
G75*
G02*
X130399740Y-42500000I2999740J0D01*
G01*
X131600000Y-38100000D02*
G75*
G02*
X130800000Y-38100000I-400000J0D01*
G01*
X130800000Y-38100000D02*
G75*
G02*
X131600000Y-38100000I400000J0D01*
G01*
X131600000Y-46900000D02*
G75*
G02*
X130800000Y-46900000I-400000J0D01*
G01*
X130800000Y-46900000D02*
G75*
G02*
X131600000Y-46900000I400000J0D01*
G01*
D12*
%TO.C,R7*%
X114580000Y-82070000D02*
X114580000Y-85910000D01*
X114580000Y-85910000D02*
X116420000Y-85910000D01*
X115500000Y-81120000D02*
X115500000Y-82070000D01*
X115500000Y-86860000D02*
X115500000Y-85910000D01*
X116420000Y-82070000D02*
X114580000Y-82070000D01*
X116420000Y-85910000D02*
X116420000Y-82070000D01*
%TO.C,R2*%
X183580000Y-54690000D02*
X183580000Y-58530000D01*
X183580000Y-58530000D02*
X185420000Y-58530000D01*
X184500000Y-53740000D02*
X184500000Y-54690000D01*
X184500000Y-59480000D02*
X184500000Y-58530000D01*
X185420000Y-54690000D02*
X183580000Y-54690000D01*
X185420000Y-58530000D02*
X185420000Y-54690000D01*
%TO.C,R10*%
X139380000Y-82070000D02*
X139380000Y-85910000D01*
X139380000Y-85910000D02*
X141220000Y-85910000D01*
X140300000Y-81120000D02*
X140300000Y-82070000D01*
X140300000Y-86860000D02*
X140300000Y-85910000D01*
X141220000Y-82070000D02*
X139380000Y-82070000D01*
X141220000Y-85910000D02*
X141220000Y-82070000D01*
%TO.C,R5*%
X111230000Y-66800000D02*
X112180000Y-66800000D01*
X112180000Y-65880000D02*
X112180000Y-67720000D01*
X112180000Y-67720000D02*
X116020000Y-67720000D01*
X116020000Y-65880000D02*
X112180000Y-65880000D01*
X116020000Y-67720000D02*
X116020000Y-65880000D01*
X116970000Y-66800000D02*
X116020000Y-66800000D01*
D10*
%TO.C,J2*%
X178200000Y-20800000D02*
X178200000Y-31700000D01*
X178200000Y-20800000D02*
X187200000Y-20800000D01*
X178200000Y-31700000D02*
X187200000Y-31700000D01*
X180900000Y-27000000D02*
X184500000Y-27000000D01*
X182700000Y-25200000D02*
X182700000Y-28800000D01*
X187200000Y-20800000D02*
X187200000Y-31700000D01*
X184500000Y-27000000D02*
G75*
G02*
X180900000Y-27000000I-1800000J0D01*
G01*
X180900000Y-27000000D02*
G75*
G02*
X184500000Y-27000000I1800000J0D01*
G01*
%TO.C,J4*%
X137200000Y-119280000D02*
X137200000Y-108380000D01*
X141700000Y-114880000D02*
X141700000Y-111280000D01*
X143500000Y-113080000D02*
X139900000Y-113080000D01*
X146200000Y-108380000D02*
X137200000Y-108380000D01*
X146200000Y-119280000D02*
X137200000Y-119280000D01*
X146200000Y-119280000D02*
X146200000Y-108380000D01*
X143500000Y-113080000D02*
G75*
G02*
X139900000Y-113080000I-1800000J0D01*
G01*
X139900000Y-113080000D02*
G75*
G02*
X143500000Y-113080000I1800000J0D01*
G01*
D12*
%TO.C,C3*%
X130730000Y-71430000D02*
X130730000Y-76670000D01*
X133470000Y-71430000D02*
X130730000Y-71430000D01*
X133470000Y-71430000D02*
X133470000Y-76670000D01*
X133470000Y-76670000D02*
X130730000Y-76670000D01*
%TO.C,R1*%
X139580000Y-54690000D02*
X139580000Y-58530000D01*
X139580000Y-58530000D02*
X141420000Y-58530000D01*
X140500000Y-53740000D02*
X140500000Y-54690000D01*
X140500000Y-59480000D02*
X140500000Y-58530000D01*
X141420000Y-54690000D02*
X139580000Y-54690000D01*
X141420000Y-58530000D02*
X141420000Y-54690000D01*
%TO.C,R11*%
X149840000Y-83000000D02*
X150790000Y-83000000D01*
X150790000Y-82080000D02*
X150790000Y-83920000D01*
X150790000Y-83920000D02*
X154630000Y-83920000D01*
X154630000Y-82080000D02*
X150790000Y-82080000D01*
X154630000Y-83920000D02*
X154630000Y-82080000D01*
X155580000Y-83000000D02*
X154630000Y-83000000D01*
%TO.C,R14*%
X168640000Y-103800000D02*
X169590000Y-103800000D01*
X169590000Y-102880000D02*
X169590000Y-104720000D01*
X169590000Y-104720000D02*
X173430000Y-104720000D01*
X173430000Y-102880000D02*
X169590000Y-102880000D01*
X173430000Y-104720000D02*
X173430000Y-102880000D01*
X174380000Y-103800000D02*
X173430000Y-103800000D01*
%TO.C,R6*%
X131380000Y-64580000D02*
X131380000Y-68420000D01*
X131380000Y-68420000D02*
X133220000Y-68420000D01*
X132300000Y-63630000D02*
X132300000Y-64580000D01*
X132300000Y-69370000D02*
X132300000Y-68420000D01*
X133220000Y-64580000D02*
X131380000Y-64580000D01*
X133220000Y-68420000D02*
X133220000Y-64580000D01*
%TO.C,C4*%
X158130000Y-77180000D02*
X160870000Y-77180000D01*
X158130000Y-82420000D02*
X158130000Y-77180000D01*
X158130000Y-82420000D02*
X160870000Y-82420000D01*
X160870000Y-82420000D02*
X160870000Y-77180000D01*
%TO.C,R5*%
X138630000Y-66800000D02*
X139580000Y-66800000D01*
X139580000Y-65880000D02*
X139580000Y-67720000D01*
X139580000Y-67720000D02*
X143420000Y-67720000D01*
X143420000Y-65880000D02*
X139580000Y-65880000D01*
X143420000Y-67720000D02*
X143420000Y-65880000D01*
X144370000Y-66800000D02*
X143420000Y-66800000D01*
%TO.C,C3*%
X185530000Y-71430000D02*
X185530000Y-76670000D01*
X188270000Y-71430000D02*
X185530000Y-71430000D01*
X188270000Y-71430000D02*
X188270000Y-76670000D01*
X188270000Y-76670000D02*
X185530000Y-76670000D01*
%TO.C,R3*%
X109380000Y-54680000D02*
X109380000Y-58520000D01*
X109380000Y-58520000D02*
X111220000Y-58520000D01*
X110300000Y-53730000D02*
X110300000Y-54680000D01*
X110300000Y-59470000D02*
X110300000Y-58520000D01*
X111220000Y-54680000D02*
X109380000Y-54680000D01*
X111220000Y-58520000D02*
X111220000Y-54680000D01*
%TO.C,R13*%
X136780000Y-82060000D02*
X136780000Y-85900000D01*
X136780000Y-85900000D02*
X138620000Y-85900000D01*
X137700000Y-81110000D02*
X137700000Y-82060000D01*
X137700000Y-86850000D02*
X137700000Y-85900000D01*
X138620000Y-82060000D02*
X136780000Y-82060000D01*
X138620000Y-85900000D02*
X138620000Y-82060000D01*
%TO.C,R4*%
X186180000Y-54690000D02*
X186180000Y-58530000D01*
X186180000Y-58530000D02*
X188020000Y-58530000D01*
X187100000Y-53740000D02*
X187100000Y-54690000D01*
X187100000Y-59480000D02*
X187100000Y-58530000D01*
X188020000Y-54690000D02*
X186180000Y-54690000D01*
X188020000Y-58530000D02*
X188020000Y-54690000D01*
%TO.C,R13*%
X109380000Y-82060000D02*
X109380000Y-85900000D01*
X109380000Y-85900000D02*
X111220000Y-85900000D01*
X110300000Y-81110000D02*
X110300000Y-82060000D01*
X110300000Y-86850000D02*
X110300000Y-85900000D01*
X111220000Y-82060000D02*
X109380000Y-82060000D01*
X111220000Y-85900000D02*
X111220000Y-82060000D01*
%TO.C,R6*%
X158780000Y-64580000D02*
X158780000Y-68420000D01*
X158780000Y-68420000D02*
X160620000Y-68420000D01*
X159700000Y-63630000D02*
X159700000Y-64580000D01*
X159700000Y-69370000D02*
X159700000Y-68420000D01*
X160620000Y-64580000D02*
X158780000Y-64580000D01*
X160620000Y-68420000D02*
X160620000Y-64580000D01*
%TO.C,C4*%
X185530000Y-77180000D02*
X188270000Y-77180000D01*
X185530000Y-82420000D02*
X185530000Y-77180000D01*
X185530000Y-82420000D02*
X188270000Y-82420000D01*
X188270000Y-82420000D02*
X188270000Y-77180000D01*
%TO.C,U1*%
X166870000Y-71140000D02*
X166870000Y-76440000D01*
X166870000Y-76440000D02*
X184770000Y-76440000D01*
X184770000Y-71140000D02*
X166870000Y-71140000D01*
X184770000Y-72790000D02*
X184770000Y-71140000D01*
X184770000Y-76440000D02*
X184770000Y-74790000D01*
X184770000Y-74790000D02*
G75*
G02*
X184770000Y-72790000I0J1000000D01*
G01*
%TO.C,R4*%
X131380000Y-54690000D02*
X131380000Y-58530000D01*
X131380000Y-58530000D02*
X133220000Y-58530000D01*
X132300000Y-53740000D02*
X132300000Y-54690000D01*
X132300000Y-59480000D02*
X132300000Y-58530000D01*
X133220000Y-54690000D02*
X131380000Y-54690000D01*
X133220000Y-58530000D02*
X133220000Y-54690000D01*
%TO.C,R13*%
X164180000Y-82060000D02*
X164180000Y-85900000D01*
X164180000Y-85900000D02*
X166020000Y-85900000D01*
X165100000Y-81110000D02*
X165100000Y-82060000D01*
X165100000Y-86850000D02*
X165100000Y-85900000D01*
X166020000Y-82060000D02*
X164180000Y-82060000D01*
X166020000Y-85900000D02*
X166020000Y-82060000D01*
D10*
%TO.C,J5*%
X151000000Y-119152500D02*
X151000000Y-108252500D01*
X155500000Y-114752500D02*
X155500000Y-111152500D01*
X157300000Y-112952500D02*
X153700000Y-112952500D01*
X160000000Y-108252500D02*
X151000000Y-108252500D01*
X160000000Y-119152500D02*
X151000000Y-119152500D01*
X160000000Y-119152500D02*
X160000000Y-108252500D01*
X157300000Y-112952500D02*
G75*
G02*
X153700000Y-112952500I-1800000J0D01*
G01*
X153700000Y-112952500D02*
G75*
G02*
X157300000Y-112952500I1800000J0D01*
G01*
D12*
%TO.C,R7*%
X141980000Y-82070000D02*
X141980000Y-85910000D01*
X141980000Y-85910000D02*
X143820000Y-85910000D01*
X142900000Y-81120000D02*
X142900000Y-82070000D01*
X142900000Y-86860000D02*
X142900000Y-85910000D01*
X143820000Y-82070000D02*
X141980000Y-82070000D01*
X143820000Y-85910000D02*
X143820000Y-82070000D01*
%TO.C,R4*%
X158780000Y-54690000D02*
X158780000Y-58530000D01*
X158780000Y-58530000D02*
X160620000Y-58530000D01*
X159700000Y-53740000D02*
X159700000Y-54690000D01*
X159700000Y-59480000D02*
X159700000Y-58530000D01*
X160620000Y-54690000D02*
X158780000Y-54690000D01*
X160620000Y-58530000D02*
X160620000Y-54690000D01*
D10*
%TO.C,J4*%
X109800000Y-119280000D02*
X109800000Y-108380000D01*
X114300000Y-114880000D02*
X114300000Y-111280000D01*
X116100000Y-113080000D02*
X112500000Y-113080000D01*
X118800000Y-108380000D02*
X109800000Y-108380000D01*
X118800000Y-119280000D02*
X109800000Y-119280000D01*
X118800000Y-119280000D02*
X118800000Y-108380000D01*
X116100000Y-113080000D02*
G75*
G02*
X112500000Y-113080000I-1800000J0D01*
G01*
X112500000Y-113080000D02*
G75*
G02*
X116100000Y-113080000I1800000J0D01*
G01*
D12*
%TO.C,R12*%
X117080000Y-82080000D02*
X117080000Y-85920000D01*
X117080000Y-85920000D02*
X118920000Y-85920000D01*
X118000000Y-81130000D02*
X118000000Y-82080000D01*
X118000000Y-86870000D02*
X118000000Y-85920000D01*
X118920000Y-82080000D02*
X117080000Y-82080000D01*
X118920000Y-85920000D02*
X118920000Y-82080000D01*
D10*
%TO.C,J5*%
X178400000Y-119152500D02*
X178400000Y-108252500D01*
X182900000Y-114752500D02*
X182900000Y-111152500D01*
X184700000Y-112952500D02*
X181100000Y-112952500D01*
X187400000Y-108252500D02*
X178400000Y-108252500D01*
X187400000Y-119152500D02*
X178400000Y-119152500D01*
X187400000Y-119152500D02*
X187400000Y-108252500D01*
X184700000Y-112952500D02*
G75*
G02*
X181100000Y-112952500I-1800000J0D01*
G01*
X181100000Y-112952500D02*
G75*
G02*
X184700000Y-112952500I1800000J0D01*
G01*
D12*
%TO.C,R6*%
X186180000Y-64580000D02*
X186180000Y-68420000D01*
X186180000Y-68420000D02*
X188020000Y-68420000D01*
X187100000Y-63630000D02*
X187100000Y-64580000D01*
X187100000Y-69370000D02*
X187100000Y-68420000D01*
X188020000Y-64580000D02*
X186180000Y-64580000D01*
X188020000Y-68420000D02*
X188020000Y-64580000D01*
D10*
%TO.C,J1*%
X109800000Y-20820000D02*
X109800000Y-31720000D01*
X109800000Y-20820000D02*
X118800000Y-20820000D01*
X109800000Y-31720000D02*
X118800000Y-31720000D01*
X112500000Y-27020000D02*
X116100000Y-27020000D01*
X114300000Y-25220000D02*
X114300000Y-28820000D01*
X118800000Y-20820000D02*
X118800000Y-31720000D01*
X116100000Y-27020000D02*
G75*
G02*
X112500000Y-27020000I-1800000J0D01*
G01*
X112500000Y-27020000D02*
G75*
G02*
X116100000Y-27020000I1800000J0D01*
G01*
%TO.C,J2*%
X150800000Y-20800000D02*
X150800000Y-31700000D01*
X150800000Y-20800000D02*
X159800000Y-20800000D01*
X150800000Y-31700000D02*
X159800000Y-31700000D01*
X153500000Y-27000000D02*
X157100000Y-27000000D01*
X155300000Y-25200000D02*
X155300000Y-28800000D01*
X159800000Y-20800000D02*
X159800000Y-31700000D01*
X157100000Y-27000000D02*
G75*
G02*
X153500000Y-27000000I-1800000J0D01*
G01*
X153500000Y-27000000D02*
G75*
G02*
X157100000Y-27000000I1800000J0D01*
G01*
D12*
%TO.C,R14*%
X141240000Y-103800000D02*
X142190000Y-103800000D01*
X142190000Y-102880000D02*
X142190000Y-104720000D01*
X142190000Y-104720000D02*
X146030000Y-104720000D01*
X146030000Y-102880000D02*
X142190000Y-102880000D01*
X146030000Y-104720000D02*
X146030000Y-102880000D01*
X146980000Y-103800000D02*
X146030000Y-103800000D01*
D13*
%TO.C,RV2*%
X149900000Y-37000000D02*
X159700000Y-37000000D01*
X149900000Y-49000000D02*
X149900000Y-37000000D01*
X149900000Y-49000000D02*
X159700000Y-49000000D01*
X152199040Y-40998860D02*
X157400960Y-40998860D01*
X159700000Y-37000000D02*
X159700000Y-49000000D01*
X151400000Y-38100000D02*
G75*
G02*
X150600000Y-38100000I-400000J0D01*
G01*
X150600000Y-38100000D02*
G75*
G02*
X151400000Y-38100000I400000J0D01*
G01*
X151400000Y-46900000D02*
G75*
G02*
X150600000Y-46900000I-400000J0D01*
G01*
X150600000Y-46900000D02*
G75*
G02*
X151400000Y-46900000I400000J0D01*
G01*
X158201060Y-42500000D02*
G75*
G02*
X151398940Y-42500000I-3401060J0D01*
G01*
X151398940Y-42500000D02*
G75*
G02*
X158201060Y-42500000I3401060J0D01*
G01*
X157799740Y-42500000D02*
G75*
G02*
X151800260Y-42500000I-2999740J0D01*
G01*
X151800260Y-42500000D02*
G75*
G02*
X157799740Y-42500000I2999740J0D01*
G01*
X159000000Y-38100000D02*
G75*
G02*
X158200000Y-38100000I-400000J0D01*
G01*
X158200000Y-38100000D02*
G75*
G02*
X159000000Y-38100000I400000J0D01*
G01*
X159000000Y-46900000D02*
G75*
G02*
X158200000Y-46900000I-400000J0D01*
G01*
X158200000Y-46900000D02*
G75*
G02*
X159000000Y-46900000I400000J0D01*
G01*
D12*
%TO.C,R8*%
X136780000Y-71460000D02*
X136780000Y-75300000D01*
X136780000Y-75300000D02*
X138620000Y-75300000D01*
X137700000Y-70510000D02*
X137700000Y-71460000D01*
X137700000Y-76250000D02*
X137700000Y-75300000D01*
X138620000Y-71460000D02*
X136780000Y-71460000D01*
X138620000Y-75300000D02*
X138620000Y-71460000D01*
D13*
%TO.C,RV1*%
X109900000Y-37000000D02*
X119700000Y-37000000D01*
X109900000Y-49000000D02*
X109900000Y-37000000D01*
X109900000Y-49000000D02*
X119700000Y-49000000D01*
X112199040Y-40998860D02*
X117400960Y-40998860D01*
X119700000Y-37000000D02*
X119700000Y-49000000D01*
X111400000Y-38100000D02*
G75*
G02*
X110600000Y-38100000I-400000J0D01*
G01*
X110600000Y-38100000D02*
G75*
G02*
X111400000Y-38100000I400000J0D01*
G01*
X111400000Y-46900000D02*
G75*
G02*
X110600000Y-46900000I-400000J0D01*
G01*
X110600000Y-46900000D02*
G75*
G02*
X111400000Y-46900000I400000J0D01*
G01*
X118201060Y-42500000D02*
G75*
G02*
X111398940Y-42500000I-3401060J0D01*
G01*
X111398940Y-42500000D02*
G75*
G02*
X118201060Y-42500000I3401060J0D01*
G01*
X117799740Y-42500000D02*
G75*
G02*
X111800260Y-42500000I-2999740J0D01*
G01*
X111800260Y-42500000D02*
G75*
G02*
X117799740Y-42500000I2999740J0D01*
G01*
X119000000Y-38100000D02*
G75*
G02*
X118200000Y-38100000I-400000J0D01*
G01*
X118200000Y-38100000D02*
G75*
G02*
X119000000Y-38100000I400000J0D01*
G01*
X119000000Y-46900000D02*
G75*
G02*
X118200000Y-46900000I-400000J0D01*
G01*
X118200000Y-46900000D02*
G75*
G02*
X119000000Y-46900000I400000J0D01*
G01*
X137300000Y-37000000D02*
X147100000Y-37000000D01*
X137300000Y-49000000D02*
X137300000Y-37000000D01*
X137300000Y-49000000D02*
X147100000Y-49000000D01*
X139599040Y-40998860D02*
X144800960Y-40998860D01*
X147100000Y-37000000D02*
X147100000Y-49000000D01*
X138800000Y-38100000D02*
G75*
G02*
X138000000Y-38100000I-400000J0D01*
G01*
X138000000Y-38100000D02*
G75*
G02*
X138800000Y-38100000I400000J0D01*
G01*
X138800000Y-46900000D02*
G75*
G02*
X138000000Y-46900000I-400000J0D01*
G01*
X138000000Y-46900000D02*
G75*
G02*
X138800000Y-46900000I400000J0D01*
G01*
X145601060Y-42500000D02*
G75*
G02*
X138798940Y-42500000I-3401060J0D01*
G01*
X138798940Y-42500000D02*
G75*
G02*
X145601060Y-42500000I3401060J0D01*
G01*
X145199740Y-42500000D02*
G75*
G02*
X139200260Y-42500000I-2999740J0D01*
G01*
X139200260Y-42500000D02*
G75*
G02*
X145199740Y-42500000I2999740J0D01*
G01*
X146400000Y-38100000D02*
G75*
G02*
X145600000Y-38100000I-400000J0D01*
G01*
X145600000Y-38100000D02*
G75*
G02*
X146400000Y-38100000I400000J0D01*
G01*
X146400000Y-46900000D02*
G75*
G02*
X145600000Y-46900000I-400000J0D01*
G01*
X145600000Y-46900000D02*
G75*
G02*
X146400000Y-46900000I400000J0D01*
G01*
D12*
%TO.C,U1*%
X139470000Y-71140000D02*
X139470000Y-76440000D01*
X139470000Y-76440000D02*
X157370000Y-76440000D01*
X157370000Y-71140000D02*
X139470000Y-71140000D01*
X157370000Y-72790000D02*
X157370000Y-71140000D01*
X157370000Y-76440000D02*
X157370000Y-74790000D01*
X157370000Y-74790000D02*
G75*
G02*
X157370000Y-72790000I0J1000000D01*
G01*
%TO.C,R3*%
X164180000Y-54680000D02*
X164180000Y-58520000D01*
X164180000Y-58520000D02*
X166020000Y-58520000D01*
X165100000Y-53730000D02*
X165100000Y-54680000D01*
X165100000Y-59470000D02*
X165100000Y-58520000D01*
X166020000Y-54680000D02*
X164180000Y-54680000D01*
X166020000Y-58520000D02*
X166020000Y-54680000D01*
%TO.C,R9*%
X149830000Y-80400000D02*
X150780000Y-80400000D01*
X150780000Y-79480000D02*
X150780000Y-81320000D01*
X150780000Y-81320000D02*
X154620000Y-81320000D01*
X154620000Y-79480000D02*
X150780000Y-79480000D01*
X154620000Y-81320000D02*
X154620000Y-79480000D01*
X155570000Y-80400000D02*
X154620000Y-80400000D01*
D10*
%TO.C,J5*%
X123600000Y-119152500D02*
X123600000Y-108252500D01*
X128100000Y-114752500D02*
X128100000Y-111152500D01*
X129900000Y-112952500D02*
X126300000Y-112952500D01*
X132600000Y-108252500D02*
X123600000Y-108252500D01*
X132600000Y-119152500D02*
X123600000Y-119152500D01*
X132600000Y-119152500D02*
X132600000Y-108252500D01*
X129900000Y-112952500D02*
G75*
G02*
X126300000Y-112952500I-1800000J0D01*
G01*
X126300000Y-112952500D02*
G75*
G02*
X129900000Y-112952500I1800000J0D01*
G01*
D12*
%TO.C,R5*%
X166030000Y-66800000D02*
X166980000Y-66800000D01*
X166980000Y-65880000D02*
X166980000Y-67720000D01*
X166980000Y-67720000D02*
X170820000Y-67720000D01*
X170820000Y-65880000D02*
X166980000Y-65880000D01*
X170820000Y-67720000D02*
X170820000Y-65880000D01*
X171770000Y-66800000D02*
X170820000Y-66800000D01*
%TO.C,R9*%
X177230000Y-80400000D02*
X178180000Y-80400000D01*
X178180000Y-79480000D02*
X178180000Y-81320000D01*
X178180000Y-81320000D02*
X182020000Y-81320000D01*
X182020000Y-79480000D02*
X178180000Y-79480000D01*
X182020000Y-81320000D02*
X182020000Y-79480000D01*
X182970000Y-80400000D02*
X182020000Y-80400000D01*
%TO.C,R8*%
X109380000Y-71460000D02*
X109380000Y-75300000D01*
X109380000Y-75300000D02*
X111220000Y-75300000D01*
X110300000Y-70510000D02*
X110300000Y-71460000D01*
X110300000Y-76250000D02*
X110300000Y-75300000D01*
X111220000Y-71460000D02*
X109380000Y-71460000D01*
X111220000Y-75300000D02*
X111220000Y-71460000D01*
D13*
%TO.C,RV1*%
X164700000Y-37000000D02*
X174500000Y-37000000D01*
X164700000Y-49000000D02*
X164700000Y-37000000D01*
X164700000Y-49000000D02*
X174500000Y-49000000D01*
X166999040Y-40998860D02*
X172200960Y-40998860D01*
X174500000Y-37000000D02*
X174500000Y-49000000D01*
X166200000Y-38100000D02*
G75*
G02*
X165400000Y-38100000I-400000J0D01*
G01*
X165400000Y-38100000D02*
G75*
G02*
X166200000Y-38100000I400000J0D01*
G01*
X166200000Y-46900000D02*
G75*
G02*
X165400000Y-46900000I-400000J0D01*
G01*
X165400000Y-46900000D02*
G75*
G02*
X166200000Y-46900000I400000J0D01*
G01*
X173001060Y-42500000D02*
G75*
G02*
X166198940Y-42500000I-3401060J0D01*
G01*
X166198940Y-42500000D02*
G75*
G02*
X173001060Y-42500000I3401060J0D01*
G01*
X172599740Y-42500000D02*
G75*
G02*
X166600260Y-42500000I-2999740J0D01*
G01*
X166600260Y-42500000D02*
G75*
G02*
X172599740Y-42500000I2999740J0D01*
G01*
X173800000Y-38100000D02*
G75*
G02*
X173000000Y-38100000I-400000J0D01*
G01*
X173000000Y-38100000D02*
G75*
G02*
X173800000Y-38100000I400000J0D01*
G01*
X173800000Y-46900000D02*
G75*
G02*
X173000000Y-46900000I-400000J0D01*
G01*
X173000000Y-46900000D02*
G75*
G02*
X173800000Y-46900000I400000J0D01*
G01*
%TO.C,RV3*%
X171250000Y-52000000D02*
X181050000Y-52000000D01*
X171250000Y-64000000D02*
X171250000Y-52000000D01*
X171250000Y-64000000D02*
X181050000Y-64000000D01*
X173549040Y-55998860D02*
X178750960Y-55998860D01*
X181050000Y-52000000D02*
X181050000Y-64000000D01*
X172750000Y-53100000D02*
G75*
G02*
X171950000Y-53100000I-400000J0D01*
G01*
X171950000Y-53100000D02*
G75*
G02*
X172750000Y-53100000I400000J0D01*
G01*
X172750000Y-61900000D02*
G75*
G02*
X171950000Y-61900000I-400000J0D01*
G01*
X171950000Y-61900000D02*
G75*
G02*
X172750000Y-61900000I400000J0D01*
G01*
X179551060Y-57500000D02*
G75*
G02*
X172748940Y-57500000I-3401060J0D01*
G01*
X172748940Y-57500000D02*
G75*
G02*
X179551060Y-57500000I3401060J0D01*
G01*
X179149740Y-57500000D02*
G75*
G02*
X173150260Y-57500000I-2999740J0D01*
G01*
X173150260Y-57500000D02*
G75*
G02*
X179149740Y-57500000I2999740J0D01*
G01*
X180350000Y-53100000D02*
G75*
G02*
X179550000Y-53100000I-400000J0D01*
G01*
X179550000Y-53100000D02*
G75*
G02*
X180350000Y-53100000I400000J0D01*
G01*
X180350000Y-61900000D02*
G75*
G02*
X179550000Y-61900000I-400000J0D01*
G01*
X179550000Y-61900000D02*
G75*
G02*
X180350000Y-61900000I400000J0D01*
G01*
D10*
%TO.C,J1*%
X164600000Y-20820000D02*
X164600000Y-31720000D01*
X164600000Y-20820000D02*
X173600000Y-20820000D01*
X164600000Y-31720000D02*
X173600000Y-31720000D01*
X167300000Y-27020000D02*
X170900000Y-27020000D01*
X169100000Y-25220000D02*
X169100000Y-28820000D01*
X173600000Y-20820000D02*
X173600000Y-31720000D01*
X170900000Y-27020000D02*
G75*
G02*
X167300000Y-27020000I-1800000J0D01*
G01*
X167300000Y-27020000D02*
G75*
G02*
X170900000Y-27020000I1800000J0D01*
G01*
D12*
%TO.C,R8*%
X164180000Y-71460000D02*
X164180000Y-75300000D01*
X164180000Y-75300000D02*
X166020000Y-75300000D01*
X165100000Y-70510000D02*
X165100000Y-71460000D01*
X165100000Y-76250000D02*
X165100000Y-75300000D01*
X166020000Y-71460000D02*
X164180000Y-71460000D01*
X166020000Y-75300000D02*
X166020000Y-71460000D01*
%TO.C,R9*%
X122430000Y-80400000D02*
X123380000Y-80400000D01*
X123380000Y-79480000D02*
X123380000Y-81320000D01*
X123380000Y-81320000D02*
X127220000Y-81320000D01*
X127220000Y-79480000D02*
X123380000Y-79480000D01*
X127220000Y-81320000D02*
X127220000Y-79480000D01*
X128170000Y-80400000D02*
X127220000Y-80400000D01*
D10*
%TO.C,J4*%
X164600000Y-119280000D02*
X164600000Y-108380000D01*
X169100000Y-114880000D02*
X169100000Y-111280000D01*
X170900000Y-113080000D02*
X167300000Y-113080000D01*
X173600000Y-108380000D02*
X164600000Y-108380000D01*
X173600000Y-119280000D02*
X164600000Y-119280000D01*
X173600000Y-119280000D02*
X173600000Y-108380000D01*
X170900000Y-113080000D02*
G75*
G02*
X167300000Y-113080000I-1800000J0D01*
G01*
X167300000Y-113080000D02*
G75*
G02*
X170900000Y-113080000I1800000J0D01*
G01*
D12*
%TO.C,R1*%
X112180000Y-54690000D02*
X112180000Y-58530000D01*
X112180000Y-58530000D02*
X114020000Y-58530000D01*
X113100000Y-53740000D02*
X113100000Y-54690000D01*
X113100000Y-59480000D02*
X113100000Y-58530000D01*
X114020000Y-54690000D02*
X112180000Y-54690000D01*
X114020000Y-58530000D02*
X114020000Y-54690000D01*
%TD*%
D14*
%TO.C,RV3*%
X116550000Y-57500000D03*
X126150000Y-57500000D03*
D15*
X118850000Y-64500000D03*
X121350000Y-64500000D03*
X123850000Y-64500000D03*
%TD*%
D16*
%TO.C,J2*%
X127900000Y-33480000D03*
X127900000Y-30380000D03*
X127900000Y-22080000D03*
%TD*%
D14*
%TO.C,RV2*%
X177400000Y-42500000D03*
X187000000Y-42500000D03*
D15*
X179700000Y-49500000D03*
X182200000Y-49500000D03*
X184700000Y-49500000D03*
%TD*%
D16*
%TO.C,J1*%
X141700000Y-33500000D03*
X141700000Y-30400000D03*
X141700000Y-22100000D03*
%TD*%
D14*
%TO.C,RV3*%
X143950000Y-57500000D03*
X153550000Y-57500000D03*
D15*
X146250000Y-64500000D03*
X148750000Y-64500000D03*
X151250000Y-64500000D03*
%TD*%
D14*
%TO.C,RV2*%
X122600000Y-42500000D03*
X132200000Y-42500000D03*
D15*
X124900000Y-49500000D03*
X127400000Y-49500000D03*
X129900000Y-49500000D03*
%TD*%
D16*
%TO.C,J2*%
X182700000Y-33480000D03*
X182700000Y-30380000D03*
X182700000Y-22080000D03*
%TD*%
%TO.C,J4*%
X141700000Y-106600000D03*
X141700000Y-109700000D03*
X141700000Y-118000000D03*
%TD*%
%TO.C,J5*%
X155500000Y-106472500D03*
X155500000Y-109572500D03*
X155500000Y-117872500D03*
%TD*%
%TO.C,J4*%
X114300000Y-106600000D03*
X114300000Y-109700000D03*
X114300000Y-118000000D03*
%TD*%
%TO.C,J5*%
X182900000Y-106472500D03*
X182900000Y-109572500D03*
X182900000Y-117872500D03*
%TD*%
%TO.C,J1*%
X114300000Y-33500000D03*
X114300000Y-30400000D03*
X114300000Y-22100000D03*
%TD*%
%TO.C,J2*%
X155300000Y-33480000D03*
X155300000Y-30380000D03*
X155300000Y-22080000D03*
%TD*%
D14*
%TO.C,RV2*%
X150000000Y-42500000D03*
X159600000Y-42500000D03*
D15*
X152300000Y-49500000D03*
X154800000Y-49500000D03*
X157300000Y-49500000D03*
%TD*%
D14*
%TO.C,RV1*%
X110000000Y-42500000D03*
X119600000Y-42500000D03*
D15*
X112300000Y-49500000D03*
X114800000Y-49500000D03*
X117300000Y-49500000D03*
%TD*%
D14*
%TO.C,RV1*%
X137400000Y-42500000D03*
X147000000Y-42500000D03*
D15*
X139700000Y-49500000D03*
X142200000Y-49500000D03*
X144700000Y-49500000D03*
%TD*%
D16*
%TO.C,J5*%
X128100000Y-106472500D03*
X128100000Y-109572500D03*
X128100000Y-117872500D03*
%TD*%
D14*
%TO.C,RV1*%
X164800000Y-42500000D03*
X174400000Y-42500000D03*
D15*
X167100000Y-49500000D03*
X169600000Y-49500000D03*
X172100000Y-49500000D03*
%TD*%
D14*
%TO.C,RV3*%
X171350000Y-57500000D03*
X180950000Y-57500000D03*
D15*
X173650000Y-64500000D03*
X176150000Y-64500000D03*
X178650000Y-64500000D03*
%TD*%
D16*
%TO.C,J1*%
X169100000Y-33500000D03*
X169100000Y-30400000D03*
X169100000Y-22100000D03*
%TD*%
%TO.C,J4*%
X169100000Y-106600000D03*
X169100000Y-109700000D03*
X169100000Y-118000000D03*
%TD*%
%LPC*%
D17*
%TO.C,KiKit_MB_7_5*%
X136000000Y-52133334D03*
%TD*%
%TO.C,KiKit_MB_4_3*%
X133600000Y-86266666D03*
%TD*%
D18*
%TO.C,R10*%
X167700000Y-87800000D03*
D19*
X167700000Y-80180000D03*
%TD*%
D17*
%TO.C,KiKit_MB_10_5*%
X136000000Y-102133333D03*
%TD*%
%TO.C,KiKit_MB_3_5*%
X133600000Y-71200000D03*
%TD*%
%TO.C,KiKit_MB_14_5*%
X161000000Y-87866666D03*
%TD*%
D14*
%TO.C,RV3*%
X116550000Y-57500000D03*
X126150000Y-57500000D03*
D15*
X118850000Y-64500000D03*
X121350000Y-64500000D03*
X123850000Y-64500000D03*
%TD*%
D17*
%TO.C,KiKit_MB_20_1*%
X163400000Y-105333333D03*
%TD*%
D20*
%TO.C,C3*%
X159500000Y-72800000D03*
X159500000Y-75300000D03*
%TD*%
D16*
%TO.C,J2*%
X127900000Y-33480000D03*
X127900000Y-30380000D03*
X127900000Y-22080000D03*
%TD*%
D17*
%TO.C,KiKit_MB_2_1*%
X133600000Y-51333334D03*
%TD*%
D20*
%TO.C,C4*%
X132100000Y-81050000D03*
X132100000Y-78550000D03*
%TD*%
D18*
%TO.C,R3*%
X137700000Y-52790000D03*
D19*
X137700000Y-60410000D03*
%TD*%
D17*
%TO.C,KiKit_MB_9_1*%
X136000000Y-88666666D03*
%TD*%
D21*
%TO.C,U1*%
X128640000Y-69980000D03*
D22*
X126100000Y-69980000D03*
X123560000Y-69980000D03*
X121020000Y-69980000D03*
X118480000Y-69980000D03*
X115940000Y-69980000D03*
X113400000Y-69980000D03*
X113400000Y-77600000D03*
X115940000Y-77600000D03*
X118480000Y-77600000D03*
X121020000Y-77600000D03*
X123560000Y-77600000D03*
X126100000Y-77600000D03*
X128640000Y-77600000D03*
%TD*%
D17*
%TO.C,KiKit_MB_12_4*%
X161000000Y-53733334D03*
%TD*%
%TO.C,KiKit_MB_4_1*%
X133600000Y-84666666D03*
%TD*%
D18*
%TO.C,R1*%
X167900000Y-52800000D03*
D19*
X167900000Y-60420000D03*
%TD*%
D14*
%TO.C,RV2*%
X177400000Y-42500000D03*
X187000000Y-42500000D03*
D15*
X179700000Y-49500000D03*
X182200000Y-49500000D03*
X184700000Y-49500000D03*
%TD*%
D17*
%TO.C,KiKit_MB_16_5*%
X163400000Y-35466667D03*
%TD*%
%TO.C,KiKit_MB_8_6*%
X136000000Y-68000000D03*
%TD*%
%TO.C,KiKit_MB_9_3*%
X136000000Y-87066666D03*
%TD*%
D18*
%TO.C,R14*%
X112900000Y-103800000D03*
D19*
X120520000Y-103800000D03*
%TD*%
D17*
%TO.C,KiKit_MB_11_6*%
X161000000Y-38666667D03*
%TD*%
%TO.C,KiKit_MB_7_6*%
X136000000Y-51333334D03*
%TD*%
%TO.C,KiKit_MB_8_5*%
X136000000Y-68800000D03*
%TD*%
D18*
%TO.C,R12*%
X145400000Y-80190000D03*
D19*
X145400000Y-87810000D03*
%TD*%
D17*
%TO.C,KiKit_MB_1_5*%
X133600000Y-37866667D03*
%TD*%
%TO.C,KiKit_MB_13_4*%
X161000000Y-70400000D03*
%TD*%
D18*
%TO.C,R2*%
X157100000Y-52800000D03*
D19*
X157100000Y-60420000D03*
%TD*%
D16*
%TO.C,J1*%
X141700000Y-33500000D03*
X141700000Y-30400000D03*
X141700000Y-22100000D03*
%TD*%
D17*
%TO.C,KiKit_MB_4_5*%
X133600000Y-87866666D03*
%TD*%
%TO.C,KiKit_MB_12_3*%
X161000000Y-52933334D03*
%TD*%
%TO.C,KiKit_MB_8_4*%
X136000000Y-69600000D03*
%TD*%
D18*
%TO.C,R10*%
X112900000Y-87800000D03*
D19*
X112900000Y-80180000D03*
%TD*%
D17*
%TO.C,KiKit_MB_12_6*%
X161000000Y-55333334D03*
%TD*%
D18*
%TO.C,R2*%
X129700000Y-52800000D03*
D19*
X129700000Y-60420000D03*
%TD*%
D18*
%TO.C,R11*%
X129120000Y-83000000D03*
D19*
X121500000Y-83000000D03*
%TD*%
D18*
%TO.C,R7*%
X170300000Y-87800000D03*
D19*
X170300000Y-80180000D03*
%TD*%
D14*
%TO.C,RV3*%
X143950000Y-57500000D03*
X153550000Y-57500000D03*
D15*
X146250000Y-64500000D03*
X148750000Y-64500000D03*
X151250000Y-64500000D03*
%TD*%
D18*
%TO.C,R11*%
X183920000Y-83000000D03*
D19*
X176300000Y-83000000D03*
%TD*%
D17*
%TO.C,KiKit_MB_5_3*%
X133600000Y-102933333D03*
%TD*%
D18*
%TO.C,R12*%
X172800000Y-80190000D03*
D19*
X172800000Y-87810000D03*
%TD*%
D17*
%TO.C,KiKit_MB_16_2*%
X163400000Y-37866667D03*
%TD*%
%TO.C,KiKit_MB_5_4*%
X133600000Y-103733333D03*
%TD*%
%TO.C,KiKit_MB_17_1*%
X163400000Y-55333334D03*
%TD*%
%TO.C,KiKit_MB_2_3*%
X133600000Y-52933334D03*
%TD*%
D14*
%TO.C,RV2*%
X122600000Y-42500000D03*
X132200000Y-42500000D03*
D15*
X124900000Y-49500000D03*
X127400000Y-49500000D03*
X129900000Y-49500000D03*
%TD*%
D18*
%TO.C,R7*%
X115500000Y-87800000D03*
D19*
X115500000Y-80180000D03*
%TD*%
D17*
%TO.C,KiKit_MB_19_5*%
X163400000Y-85466666D03*
%TD*%
%TO.C,KiKit_MB_11_1*%
X161000000Y-34666667D03*
%TD*%
%TO.C,KiKit_MB_9_2*%
X136000000Y-87866666D03*
%TD*%
%TO.C,KiKit_MB_17_2*%
X163400000Y-54533334D03*
%TD*%
%TO.C,KiKit_MB_14_1*%
X161000000Y-84666666D03*
%TD*%
%TO.C,KiKit_MB_17_4*%
X163400000Y-52933334D03*
%TD*%
D18*
%TO.C,R2*%
X184500000Y-52800000D03*
D19*
X184500000Y-60420000D03*
%TD*%
D17*
%TO.C,KiKit_MB_18_1*%
X163400000Y-72000000D03*
%TD*%
%TO.C,KiKit_MB_12_2*%
X161000000Y-52133334D03*
%TD*%
D18*
%TO.C,R10*%
X140300000Y-87800000D03*
D19*
X140300000Y-80180000D03*
%TD*%
D17*
%TO.C,KiKit_MB_6_3*%
X136000000Y-37066667D03*
%TD*%
%TO.C,KiKit_MB_17_3*%
X163400000Y-53733334D03*
%TD*%
%TO.C,KiKit_MB_7_2*%
X136000000Y-54533334D03*
%TD*%
%TO.C,KiKit_MB_20_5*%
X163400000Y-102133333D03*
%TD*%
%TO.C,KiKit_MB_10_6*%
X136000000Y-101333333D03*
%TD*%
D18*
%TO.C,R5*%
X110290000Y-66800000D03*
D19*
X117910000Y-66800000D03*
%TD*%
D16*
%TO.C,J2*%
X182700000Y-33480000D03*
X182700000Y-30380000D03*
X182700000Y-22080000D03*
%TD*%
D17*
%TO.C,KiKit_MB_18_3*%
X163400000Y-70400000D03*
%TD*%
D16*
%TO.C,J4*%
X141700000Y-106600000D03*
X141700000Y-109700000D03*
X141700000Y-118000000D03*
%TD*%
D17*
%TO.C,KiKit_MB_7_1*%
X136000000Y-55333334D03*
%TD*%
%TO.C,KiKit_MB_15_4*%
X161000000Y-103733333D03*
%TD*%
%TO.C,KiKit_MB_18_4*%
X163400000Y-69600000D03*
%TD*%
D20*
%TO.C,C3*%
X132100000Y-72800000D03*
X132100000Y-75300000D03*
%TD*%
D18*
%TO.C,R1*%
X140500000Y-52800000D03*
D19*
X140500000Y-60420000D03*
%TD*%
D18*
%TO.C,R11*%
X156520000Y-83000000D03*
D19*
X148900000Y-83000000D03*
%TD*%
D17*
%TO.C,KiKit_MB_15_2*%
X161000000Y-102133333D03*
%TD*%
%TO.C,KiKit_MB_20_3*%
X163400000Y-103733333D03*
%TD*%
%TO.C,KiKit_MB_11_4*%
X161000000Y-37066667D03*
%TD*%
D18*
%TO.C,R14*%
X167700000Y-103800000D03*
D19*
X175320000Y-103800000D03*
%TD*%
D17*
%TO.C,KiKit_MB_16_3*%
X163400000Y-37066667D03*
%TD*%
D18*
%TO.C,R6*%
X132300000Y-62690000D03*
D19*
X132300000Y-70310000D03*
%TD*%
D17*
%TO.C,KiKit_MB_5_5*%
X133600000Y-104533333D03*
%TD*%
D20*
%TO.C,C4*%
X159500000Y-81050000D03*
X159500000Y-78550000D03*
%TD*%
D17*
%TO.C,KiKit_MB_12_1*%
X161000000Y-51333334D03*
%TD*%
%TO.C,KiKit_MB_1_1*%
X133600000Y-34666667D03*
%TD*%
%TO.C,KiKit_MB_2_5*%
X133600000Y-54533334D03*
%TD*%
%TO.C,KiKit_MB_3_3*%
X133600000Y-69600000D03*
%TD*%
%TO.C,KiKit_MB_5_6*%
X133600000Y-105333333D03*
%TD*%
%TO.C,KiKit_MB_11_5*%
X161000000Y-37866667D03*
%TD*%
%TO.C,KiKit_MB_16_1*%
X163400000Y-38666667D03*
%TD*%
%TO.C,KiKit_MB_8_3*%
X136000000Y-70400000D03*
%TD*%
%TO.C,KiKit_MB_19_6*%
X163400000Y-84666666D03*
%TD*%
%TO.C,KiKit_MB_4_6*%
X133600000Y-88666666D03*
%TD*%
%TO.C,KiKit_MB_15_6*%
X161000000Y-105333333D03*
%TD*%
%TO.C,KiKit_MB_20_4*%
X163400000Y-102933333D03*
%TD*%
D18*
%TO.C,R5*%
X137690000Y-66800000D03*
D19*
X145310000Y-66800000D03*
%TD*%
D20*
%TO.C,C3*%
X186900000Y-72800000D03*
X186900000Y-75300000D03*
%TD*%
D18*
%TO.C,R3*%
X110300000Y-52790000D03*
D19*
X110300000Y-60410000D03*
%TD*%
D17*
%TO.C,KiKit_MB_18_6*%
X163400000Y-68000000D03*
%TD*%
%TO.C,KiKit_MB_19_1*%
X163400000Y-88666666D03*
%TD*%
D18*
%TO.C,R13*%
X137700000Y-80170000D03*
D19*
X137700000Y-87790000D03*
%TD*%
D17*
%TO.C,KiKit_MB_1_2*%
X133600000Y-35466667D03*
%TD*%
%TO.C,KiKit_MB_13_5*%
X161000000Y-71200000D03*
%TD*%
D18*
%TO.C,R4*%
X187100000Y-52800000D03*
D19*
X187100000Y-60420000D03*
%TD*%
D17*
%TO.C,KiKit_MB_19_2*%
X163400000Y-87866666D03*
%TD*%
%TO.C,KiKit_MB_3_2*%
X133600000Y-68800000D03*
%TD*%
D18*
%TO.C,R13*%
X110300000Y-80170000D03*
D19*
X110300000Y-87790000D03*
%TD*%
D17*
%TO.C,KiKit_MB_6_4*%
X136000000Y-36266667D03*
%TD*%
%TO.C,KiKit_MB_13_2*%
X161000000Y-68800000D03*
%TD*%
D18*
%TO.C,R6*%
X159700000Y-62690000D03*
D19*
X159700000Y-70310000D03*
%TD*%
D17*
%TO.C,KiKit_MB_3_4*%
X133600000Y-70400000D03*
%TD*%
D20*
%TO.C,C4*%
X186900000Y-81050000D03*
X186900000Y-78550000D03*
%TD*%
D17*
%TO.C,KiKit_MB_6_6*%
X136000000Y-34666667D03*
%TD*%
%TO.C,KiKit_MB_10_1*%
X136000000Y-105333333D03*
%TD*%
%TO.C,KiKit_MB_16_6*%
X163400000Y-34666667D03*
%TD*%
%TO.C,KiKit_MB_13_3*%
X161000000Y-69600000D03*
%TD*%
%TO.C,KiKit_MB_12_5*%
X161000000Y-54533334D03*
%TD*%
D21*
%TO.C,U1*%
X183440000Y-69980000D03*
D22*
X180900000Y-69980000D03*
X178360000Y-69980000D03*
X175820000Y-69980000D03*
X173280000Y-69980000D03*
X170740000Y-69980000D03*
X168200000Y-69980000D03*
X168200000Y-77600000D03*
X170740000Y-77600000D03*
X173280000Y-77600000D03*
X175820000Y-77600000D03*
X178360000Y-77600000D03*
X180900000Y-77600000D03*
X183440000Y-77600000D03*
%TD*%
D17*
%TO.C,KiKit_MB_17_5*%
X163400000Y-52133334D03*
%TD*%
D18*
%TO.C,R4*%
X132300000Y-52800000D03*
D19*
X132300000Y-60420000D03*
%TD*%
D18*
%TO.C,R13*%
X165100000Y-80170000D03*
D19*
X165100000Y-87790000D03*
%TD*%
D16*
%TO.C,J5*%
X155500000Y-106472500D03*
X155500000Y-109572500D03*
X155500000Y-117872500D03*
%TD*%
D18*
%TO.C,R7*%
X142900000Y-87800000D03*
D19*
X142900000Y-80180000D03*
%TD*%
D18*
%TO.C,R4*%
X159700000Y-52800000D03*
D19*
X159700000Y-60420000D03*
%TD*%
D17*
%TO.C,KiKit_MB_13_1*%
X161000000Y-68000000D03*
%TD*%
D16*
%TO.C,J4*%
X114300000Y-106600000D03*
X114300000Y-109700000D03*
X114300000Y-118000000D03*
%TD*%
D17*
%TO.C,KiKit_MB_10_2*%
X136000000Y-104533333D03*
%TD*%
%TO.C,KiKit_MB_20_6*%
X163400000Y-101333333D03*
%TD*%
%TO.C,KiKit_MB_5_1*%
X133600000Y-101333333D03*
%TD*%
%TO.C,KiKit_MB_14_6*%
X161000000Y-88666666D03*
%TD*%
D18*
%TO.C,R12*%
X118000000Y-80190000D03*
D19*
X118000000Y-87810000D03*
%TD*%
D16*
%TO.C,J5*%
X182900000Y-106472500D03*
X182900000Y-109572500D03*
X182900000Y-117872500D03*
%TD*%
D17*
%TO.C,KiKit_MB_2_2*%
X133600000Y-52133334D03*
%TD*%
D18*
%TO.C,R6*%
X187100000Y-62690000D03*
D19*
X187100000Y-70310000D03*
%TD*%
D17*
%TO.C,KiKit_MB_9_6*%
X136000000Y-84666666D03*
%TD*%
%TO.C,KiKit_MB_17_6*%
X163400000Y-51333334D03*
%TD*%
%TO.C,KiKit_MB_14_3*%
X161000000Y-86266666D03*
%TD*%
%TO.C,KiKit_MB_16_4*%
X163400000Y-36266667D03*
%TD*%
D16*
%TO.C,J1*%
X114300000Y-33500000D03*
X114300000Y-30400000D03*
X114300000Y-22100000D03*
%TD*%
%TO.C,J2*%
X155300000Y-33480000D03*
X155300000Y-30380000D03*
X155300000Y-22080000D03*
%TD*%
D18*
%TO.C,R14*%
X140300000Y-103800000D03*
D19*
X147920000Y-103800000D03*
%TD*%
D14*
%TO.C,RV2*%
X150000000Y-42500000D03*
X159600000Y-42500000D03*
D15*
X152300000Y-49500000D03*
X154800000Y-49500000D03*
X157300000Y-49500000D03*
%TD*%
D17*
%TO.C,KiKit_MB_6_1*%
X136000000Y-38666667D03*
%TD*%
%TO.C,KiKit_MB_2_6*%
X133600000Y-55333334D03*
%TD*%
%TO.C,KiKit_MB_15_1*%
X161000000Y-101333333D03*
%TD*%
%TO.C,KiKit_MB_1_6*%
X133600000Y-38666667D03*
%TD*%
%TO.C,KiKit_MB_10_4*%
X136000000Y-102933333D03*
%TD*%
%TO.C,KiKit_MB_4_4*%
X133600000Y-87066666D03*
%TD*%
%TO.C,KiKit_MB_11_3*%
X161000000Y-36266667D03*
%TD*%
%TO.C,KiKit_MB_19_4*%
X163400000Y-86266666D03*
%TD*%
%TO.C,KiKit_MB_10_3*%
X136000000Y-103733333D03*
%TD*%
%TO.C,KiKit_MB_1_3*%
X133600000Y-36266667D03*
%TD*%
%TO.C,KiKit_MB_3_6*%
X133600000Y-72000000D03*
%TD*%
%TO.C,KiKit_MB_1_4*%
X133600000Y-37066667D03*
%TD*%
D18*
%TO.C,R8*%
X137700000Y-69570000D03*
D19*
X137700000Y-77190000D03*
%TD*%
D17*
%TO.C,KiKit_MB_6_5*%
X136000000Y-35466667D03*
%TD*%
%TO.C,KiKit_MB_15_3*%
X161000000Y-102933333D03*
%TD*%
%TO.C,KiKit_MB_7_3*%
X136000000Y-53733334D03*
%TD*%
D14*
%TO.C,RV1*%
X110000000Y-42500000D03*
X119600000Y-42500000D03*
D15*
X112300000Y-49500000D03*
X114800000Y-49500000D03*
X117300000Y-49500000D03*
%TD*%
D17*
%TO.C,KiKit_MB_7_4*%
X136000000Y-52933334D03*
%TD*%
%TO.C,KiKit_MB_18_2*%
X163400000Y-71200000D03*
%TD*%
D14*
%TO.C,RV1*%
X137400000Y-42500000D03*
X147000000Y-42500000D03*
D15*
X139700000Y-49500000D03*
X142200000Y-49500000D03*
X144700000Y-49500000D03*
%TD*%
D17*
%TO.C,KiKit_MB_8_2*%
X136000000Y-71200000D03*
%TD*%
%TO.C,KiKit_MB_20_2*%
X163400000Y-104533333D03*
%TD*%
%TO.C,KiKit_MB_8_1*%
X136000000Y-72000000D03*
%TD*%
%TO.C,KiKit_MB_2_4*%
X133600000Y-53733334D03*
%TD*%
D21*
%TO.C,U1*%
X156040000Y-69980000D03*
D22*
X153500000Y-69980000D03*
X150960000Y-69980000D03*
X148420000Y-69980000D03*
X145880000Y-69980000D03*
X143340000Y-69980000D03*
X140800000Y-69980000D03*
X140800000Y-77600000D03*
X143340000Y-77600000D03*
X145880000Y-77600000D03*
X148420000Y-77600000D03*
X150960000Y-77600000D03*
X153500000Y-77600000D03*
X156040000Y-77600000D03*
%TD*%
D17*
%TO.C,KiKit_MB_19_3*%
X163400000Y-87066666D03*
%TD*%
%TO.C,KiKit_MB_13_6*%
X161000000Y-72000000D03*
%TD*%
D18*
%TO.C,R3*%
X165100000Y-52790000D03*
D19*
X165100000Y-60410000D03*
%TD*%
D17*
%TO.C,KiKit_MB_11_2*%
X161000000Y-35466667D03*
%TD*%
D18*
%TO.C,R9*%
X156510000Y-80400000D03*
D19*
X148890000Y-80400000D03*
%TD*%
D17*
%TO.C,KiKit_MB_3_1*%
X133600000Y-68000000D03*
%TD*%
D16*
%TO.C,J5*%
X128100000Y-106472500D03*
X128100000Y-109572500D03*
X128100000Y-117872500D03*
%TD*%
D18*
%TO.C,R5*%
X165090000Y-66800000D03*
D19*
X172710000Y-66800000D03*
%TD*%
D18*
%TO.C,R9*%
X183910000Y-80400000D03*
D19*
X176290000Y-80400000D03*
%TD*%
D17*
%TO.C,KiKit_MB_14_4*%
X161000000Y-87066666D03*
%TD*%
D18*
%TO.C,R8*%
X110300000Y-69570000D03*
D19*
X110300000Y-77190000D03*
%TD*%
D14*
%TO.C,RV1*%
X164800000Y-42500000D03*
X174400000Y-42500000D03*
D15*
X167100000Y-49500000D03*
X169600000Y-49500000D03*
X172100000Y-49500000D03*
%TD*%
D17*
%TO.C,KiKit_MB_18_5*%
X163400000Y-68800000D03*
%TD*%
D14*
%TO.C,RV3*%
X171350000Y-57500000D03*
X180950000Y-57500000D03*
D15*
X173650000Y-64500000D03*
X176150000Y-64500000D03*
X178650000Y-64500000D03*
%TD*%
D17*
%TO.C,KiKit_MB_14_2*%
X161000000Y-85466666D03*
%TD*%
%TO.C,KiKit_MB_5_2*%
X133600000Y-102133333D03*
%TD*%
%TO.C,KiKit_MB_15_5*%
X161000000Y-104533333D03*
%TD*%
D16*
%TO.C,J1*%
X169100000Y-33500000D03*
X169100000Y-30400000D03*
X169100000Y-22100000D03*
%TD*%
D17*
%TO.C,KiKit_MB_9_5*%
X136000000Y-85466666D03*
%TD*%
D18*
%TO.C,R8*%
X165100000Y-69570000D03*
D19*
X165100000Y-77190000D03*
%TD*%
D18*
%TO.C,R9*%
X129110000Y-80400000D03*
D19*
X121490000Y-80400000D03*
%TD*%
D17*
%TO.C,KiKit_MB_6_2*%
X136000000Y-37866667D03*
%TD*%
%TO.C,KiKit_MB_9_4*%
X136000000Y-86266666D03*
%TD*%
D16*
%TO.C,J4*%
X169100000Y-106600000D03*
X169100000Y-109700000D03*
X169100000Y-118000000D03*
%TD*%
D17*
%TO.C,KiKit_MB_4_2*%
X133600000Y-85466666D03*
%TD*%
D18*
%TO.C,R1*%
X113100000Y-52800000D03*
D19*
X113100000Y-60420000D03*
%TD*%
D20*
%TO.C,C6*%
X120500000Y-97800000D03*
X120500000Y-99800000D03*
%TD*%
%TO.C,C2*%
X142900000Y-97500000D03*
X142900000Y-100000000D03*
%TD*%
%TO.C,C2*%
X115500000Y-97500000D03*
X115500000Y-100000000D03*
%TD*%
%TO.C,C6*%
X175300000Y-97800000D03*
X175300000Y-99800000D03*
%TD*%
D23*
%TO.C,J3*%
X184840000Y-89800000D03*
D24*
X182300000Y-89800000D03*
X184840000Y-92340000D03*
X182300000Y-92340000D03*
X184840000Y-94880000D03*
X182300000Y-94880000D03*
X184840000Y-97420000D03*
X182300000Y-97420000D03*
X184840000Y-99960000D03*
X182300000Y-99960000D03*
%TD*%
D20*
%TO.C,C5*%
X147900000Y-91400000D03*
X147900000Y-93400000D03*
%TD*%
%TO.C,C1*%
X170300000Y-91100000D03*
X170300000Y-93600000D03*
%TD*%
%TO.C,C2*%
X170300000Y-97500000D03*
X170300000Y-100000000D03*
%TD*%
%TO.C,C1*%
X142900000Y-91100000D03*
X142900000Y-93600000D03*
%TD*%
D23*
%TO.C,J3*%
X130040000Y-89800000D03*
D24*
X127500000Y-89800000D03*
X130040000Y-92340000D03*
X127500000Y-92340000D03*
X130040000Y-94880000D03*
X127500000Y-94880000D03*
X130040000Y-97420000D03*
X127500000Y-97420000D03*
X130040000Y-99960000D03*
X127500000Y-99960000D03*
%TD*%
D20*
%TO.C,C5*%
X175300000Y-91400000D03*
X175300000Y-93400000D03*
%TD*%
%TO.C,C1*%
X115500000Y-91100000D03*
X115500000Y-93600000D03*
%TD*%
D23*
%TO.C,J3*%
X157440000Y-89800000D03*
D24*
X154900000Y-89800000D03*
X157440000Y-92340000D03*
X154900000Y-92340000D03*
X157440000Y-94880000D03*
X154900000Y-94880000D03*
X157440000Y-97420000D03*
X154900000Y-97420000D03*
X157440000Y-99960000D03*
X154900000Y-99960000D03*
%TD*%
D20*
%TO.C,C5*%
X120500000Y-91400000D03*
X120500000Y-93400000D03*
%TD*%
%TO.C,C6*%
X147900000Y-97800000D03*
X147900000Y-99800000D03*
%TD*%
%LPD*%
M02*
