M48
; DRILL file {KiCad 8.0.4-8.0.4-0~ubuntu22.04.1} date 2024-07-28T20:44:16+0200
; FORMAT={-:-/ absolute / metric / decimal}
; #@! TF.CreationDate,2024-07-28T20:44:16+02:00
; #@! TF.GenerationSoftware,Kicad,Pcbnew,8.0.4-8.0.4-0~ubuntu22.04.1
; #@! TF.FileFunction,Plated,1,2,PTH
FMAT,2
METRIC
; #@! TA.AperFunction,Plated,PTH,ViaDrill
T1C0.300
; #@! TA.AperFunction,Plated,PTH,ViaDrill
T2C0.400
; #@! TA.AperFunction,Plated,PTH,ComponentDrill
T3C0.700
; #@! TA.AperFunction,Plated,PTH,ComponentDrill
T4C0.800
; #@! TA.AperFunction,Plated,PTH,ComponentDrill
T5C1.000
; #@! TA.AperFunction,Plated,PTH,ComponentDrill
T6C1.600
; #@! TA.AperFunction,Plated,PTH,ComponentDrill
T7C2.200
%
G90
G05
T1
X110.1Y-50.0
X110.6Y-24.3
X112.0Y-78.8
X113.1Y-73.3
X114.7Y-68.4
X116.7Y-78.9
X118.0Y-106.5
X119.4Y-74.5
X120.9Y-34.4
X121.5Y-51.0
X121.9Y-23.1
X122.3Y-116.6
X122.5Y-66.8
X123.7Y-96.4
X124.5Y-88.7
X125.548Y-68.061
X125.6Y-102.7
X126.2Y-73.9
X129.3Y-56.4
X129.5Y-86.4
X130.0Y-78.0
X130.3Y-75.4
X130.4Y-71.2
X130.4Y-73.0
X130.6Y-68.242
X131.8Y-24.9
X131.9Y-34.3
X132.8Y-82.7
X132.9Y-77.0
X137.5Y-50.0
X138.0Y-24.3
X139.4Y-78.8
X140.5Y-73.3
X142.1Y-68.4
X144.1Y-78.9
X145.4Y-106.5
X146.8Y-74.5
X148.3Y-34.4
X148.9Y-51.0
X149.3Y-23.1
X149.7Y-116.6
X149.9Y-66.8
X151.1Y-96.4
X151.9Y-88.7
X152.948Y-68.061
X153.0Y-102.7
X153.6Y-73.9
X156.7Y-56.4
X156.9Y-86.4
X157.4Y-78.0
X157.7Y-75.4
X157.8Y-71.2
X157.8Y-73.0
X158.0Y-68.242
X159.2Y-24.9
X159.3Y-34.3
X160.2Y-82.7
X160.3Y-77.0
X164.9Y-50.0
X165.4Y-24.3
X166.8Y-78.8
X167.9Y-73.3
X169.5Y-68.4
X171.5Y-78.9
X172.8Y-106.5
X174.2Y-74.5
X175.7Y-34.4
X176.3Y-51.0
X176.7Y-23.1
X177.1Y-116.6
X177.3Y-66.8
X178.5Y-96.4
X179.3Y-88.7
X180.348Y-68.061
X180.4Y-102.7
X181.0Y-73.9
X184.1Y-56.4
X184.3Y-86.4
X184.8Y-78.0
X185.1Y-75.4
X185.2Y-71.2
X185.2Y-73.0
X185.4Y-68.242
X186.6Y-24.9
X186.7Y-34.3
X187.6Y-82.7
X187.7Y-77.0
T2
X119.7Y-81.3
X147.1Y-81.3
X174.5Y-81.3
T3
X110.29Y-66.8
X110.3Y-52.79
X110.3Y-60.41
X110.3Y-69.57
X110.3Y-77.19
X110.3Y-80.17
X110.3Y-87.79
X112.9Y-80.18
X112.9Y-87.8
X112.9Y-103.8
X113.1Y-52.8
X113.1Y-60.42
X115.5Y-80.18
X115.5Y-87.8
X117.91Y-66.8
X118.0Y-80.19
X118.0Y-87.81
X120.52Y-103.8
X121.49Y-80.4
X121.5Y-83.0
X129.11Y-80.4
X129.12Y-83.0
X129.7Y-52.8
X129.7Y-60.42
X132.3Y-52.8
X132.3Y-60.42
X132.3Y-62.69
X132.3Y-70.31
X137.69Y-66.8
X137.7Y-52.79
X137.7Y-60.41
X137.7Y-69.57
X137.7Y-77.19
X137.7Y-80.17
X137.7Y-87.79
X140.3Y-80.18
X140.3Y-87.8
X140.3Y-103.8
X140.5Y-52.8
X140.5Y-60.42
X142.9Y-80.18
X142.9Y-87.8
X145.31Y-66.8
X145.4Y-80.19
X145.4Y-87.81
X147.92Y-103.8
X148.89Y-80.4
X148.9Y-83.0
X156.51Y-80.4
X156.52Y-83.0
X157.1Y-52.8
X157.1Y-60.42
X159.7Y-52.8
X159.7Y-60.42
X159.7Y-62.69
X159.7Y-70.31
X165.09Y-66.8
X165.1Y-52.79
X165.1Y-60.41
X165.1Y-69.57
X165.1Y-77.19
X165.1Y-80.17
X165.1Y-87.79
X167.7Y-80.18
X167.7Y-87.8
X167.7Y-103.8
X167.9Y-52.8
X167.9Y-60.42
X170.3Y-80.18
X170.3Y-87.8
X172.71Y-66.8
X172.8Y-80.19
X172.8Y-87.81
X175.32Y-103.8
X176.29Y-80.4
X176.3Y-83.0
X183.91Y-80.4
X183.92Y-83.0
X184.5Y-52.8
X184.5Y-60.42
X187.1Y-52.8
X187.1Y-60.42
X187.1Y-62.69
X187.1Y-70.31
T4
X113.4Y-69.98
X113.4Y-77.6
X115.5Y-91.1
X115.5Y-93.6
X115.5Y-97.5
X115.5Y-100.0
X115.94Y-69.98
X115.94Y-77.6
X118.48Y-69.98
X118.48Y-77.6
X120.5Y-91.4
X120.5Y-93.4
X120.5Y-97.8
X120.5Y-99.8
X121.02Y-69.98
X121.02Y-77.6
X123.56Y-69.98
X123.56Y-77.6
X126.1Y-69.98
X126.1Y-77.6
X128.64Y-69.98
X128.64Y-77.6
X132.1Y-72.8
X132.1Y-75.3
X132.1Y-78.55
X132.1Y-81.05
X140.8Y-69.98
X140.8Y-77.6
X142.9Y-91.1
X142.9Y-93.6
X142.9Y-97.5
X142.9Y-100.0
X143.34Y-69.98
X143.34Y-77.6
X145.88Y-69.98
X145.88Y-77.6
X147.9Y-91.4
X147.9Y-93.4
X147.9Y-97.8
X147.9Y-99.8
X148.42Y-69.98
X148.42Y-77.6
X150.96Y-69.98
X150.96Y-77.6
X153.5Y-69.98
X153.5Y-77.6
X156.04Y-69.98
X156.04Y-77.6
X159.5Y-72.8
X159.5Y-75.3
X159.5Y-78.55
X159.5Y-81.05
X168.2Y-69.98
X168.2Y-77.6
X170.3Y-91.1
X170.3Y-93.6
X170.3Y-97.5
X170.3Y-100.0
X170.74Y-69.98
X170.74Y-77.6
X173.28Y-69.98
X173.28Y-77.6
X175.3Y-91.4
X175.3Y-93.4
X175.3Y-97.8
X175.3Y-99.8
X175.82Y-69.98
X175.82Y-77.6
X178.36Y-69.98
X178.36Y-77.6
X180.9Y-69.98
X180.9Y-77.6
X183.44Y-69.98
X183.44Y-77.6
X186.9Y-72.8
X186.9Y-75.3
X186.9Y-78.55
X186.9Y-81.05
T5
X112.3Y-49.5
X114.8Y-49.5
X117.3Y-49.5
X118.85Y-64.5
X121.35Y-64.5
X123.85Y-64.5
X124.9Y-49.5
X127.4Y-49.5
X127.5Y-89.8
X127.5Y-92.34
X127.5Y-94.88
X127.5Y-97.42
X127.5Y-99.96
X129.9Y-49.5
X130.04Y-89.8
X130.04Y-92.34
X130.04Y-94.88
X130.04Y-97.42
X130.04Y-99.96
X139.7Y-49.5
X142.2Y-49.5
X144.7Y-49.5
X146.25Y-64.5
X148.75Y-64.5
X151.25Y-64.5
X152.3Y-49.5
X154.8Y-49.5
X154.9Y-89.8
X154.9Y-92.34
X154.9Y-94.88
X154.9Y-97.42
X154.9Y-99.96
X157.3Y-49.5
X157.44Y-89.8
X157.44Y-92.34
X157.44Y-94.88
X157.44Y-97.42
X157.44Y-99.96
X167.1Y-49.5
X169.6Y-49.5
X172.1Y-49.5
X173.65Y-64.5
X176.15Y-64.5
X178.65Y-64.5
X179.7Y-49.5
X182.2Y-49.5
X182.3Y-89.8
X182.3Y-92.34
X182.3Y-94.88
X182.3Y-97.42
X182.3Y-99.96
X184.7Y-49.5
X184.84Y-89.8
X184.84Y-92.34
X184.84Y-94.88
X184.84Y-97.42
X184.84Y-99.96
T6
X114.3Y-22.1
X114.3Y-30.4
X114.3Y-33.5
X114.3Y-106.6
X114.3Y-109.7
X114.3Y-118.0
X127.9Y-22.08
X127.9Y-30.38
X127.9Y-33.48
X128.1Y-106.472
X128.1Y-109.572
X128.1Y-117.872
X141.7Y-22.1
X141.7Y-30.4
X141.7Y-33.5
X141.7Y-106.6
X141.7Y-109.7
X141.7Y-118.0
X155.3Y-22.08
X155.3Y-30.38
X155.3Y-33.48
X155.5Y-106.472
X155.5Y-109.572
X155.5Y-117.872
X169.1Y-22.1
X169.1Y-30.4
X169.1Y-33.5
X169.1Y-106.6
X169.1Y-109.7
X169.1Y-118.0
X182.7Y-22.08
X182.7Y-30.38
X182.7Y-33.48
X182.9Y-106.472
X182.9Y-109.572
X182.9Y-117.872
T7
X110.0Y-42.5
X116.55Y-57.5
X119.6Y-42.5
X122.6Y-42.5
X126.15Y-57.5
X132.2Y-42.5
X137.4Y-42.5
X143.95Y-57.5
X147.0Y-42.5
X150.0Y-42.5
X153.55Y-57.5
X159.6Y-42.5
X164.8Y-42.5
X171.35Y-57.5
X174.4Y-42.5
X177.4Y-42.5
X180.95Y-57.5
X187.0Y-42.5
M30
