M48
; DRILL file {KiCad 8.0.4-8.0.4-0~ubuntu22.04.1} date 2024-10-09T19:39:02+0200
; FORMAT={-:-/ absolute / metric / decimal}
; #@! TF.CreationDate,2024-10-09T19:39:02+02:00
; #@! TF.GenerationSoftware,Kicad,Pcbnew,8.0.4-8.0.4-0~ubuntu22.04.1
; #@! TF.FileFunction,NonPlated,1,2,NPTH
FMAT,2
METRIC
; #@! TA.AperFunction,NonPlated,NPTH,ComponentDrill
T1C0.500
%
G90
G05
T1
X133.6Y-34.667
X133.6Y-35.467
X133.6Y-36.267
X133.6Y-37.067
X133.6Y-37.867
X133.6Y-38.667
X133.6Y-51.333
X133.6Y-52.133
X133.6Y-52.933
X133.6Y-53.733
X133.6Y-54.533
X133.6Y-55.333
X133.6Y-68.0
X133.6Y-68.8
X133.6Y-69.6
X133.6Y-70.4
X133.6Y-71.2
X133.6Y-72.0
X133.6Y-84.667
X133.6Y-85.467
X133.6Y-86.267
X133.6Y-87.067
X133.6Y-87.867
X133.6Y-88.667
X133.6Y-101.333
X133.6Y-102.133
X133.6Y-102.933
X133.6Y-103.733
X133.6Y-104.533
X133.6Y-105.333
X136.0Y-34.667
X136.0Y-35.467
X136.0Y-36.267
X136.0Y-37.067
X136.0Y-37.867
X136.0Y-38.667
X136.0Y-51.333
X136.0Y-52.133
X136.0Y-52.933
X136.0Y-53.733
X136.0Y-54.533
X136.0Y-55.333
X136.0Y-68.0
X136.0Y-68.8
X136.0Y-69.6
X136.0Y-70.4
X136.0Y-71.2
X136.0Y-72.0
X136.0Y-84.667
X136.0Y-85.467
X136.0Y-86.267
X136.0Y-87.067
X136.0Y-87.867
X136.0Y-88.667
X136.0Y-101.333
X136.0Y-102.133
X136.0Y-102.933
X136.0Y-103.733
X136.0Y-104.533
X136.0Y-105.333
X161.0Y-34.667
X161.0Y-35.467
X161.0Y-36.267
X161.0Y-37.067
X161.0Y-37.867
X161.0Y-38.667
X161.0Y-51.333
X161.0Y-52.133
X161.0Y-52.933
X161.0Y-53.733
X161.0Y-54.533
X161.0Y-55.333
X161.0Y-68.0
X161.0Y-68.8
X161.0Y-69.6
X161.0Y-70.4
X161.0Y-71.2
X161.0Y-72.0
X161.0Y-84.667
X161.0Y-85.467
X161.0Y-86.267
X161.0Y-87.067
X161.0Y-87.867
X161.0Y-88.667
X161.0Y-101.333
X161.0Y-102.133
X161.0Y-102.933
X161.0Y-103.733
X161.0Y-104.533
X161.0Y-105.333
X163.4Y-34.667
X163.4Y-35.467
X163.4Y-36.267
X163.4Y-37.067
X163.4Y-37.867
X163.4Y-38.667
X163.4Y-51.333
X163.4Y-52.133
X163.4Y-52.933
X163.4Y-53.733
X163.4Y-54.533
X163.4Y-55.333
X163.4Y-68.0
X163.4Y-68.8
X163.4Y-69.6
X163.4Y-70.4
X163.4Y-71.2
X163.4Y-72.0
X163.4Y-84.667
X163.4Y-85.467
X163.4Y-86.267
X163.4Y-87.067
X163.4Y-87.867
X163.4Y-88.667
X163.4Y-101.333
X163.4Y-102.133
X163.4Y-102.933
X163.4Y-103.733
X163.4Y-104.533
X163.4Y-105.333
M30
