M48
; DRILL file {KiCad 8.0.4-8.0.4-0~ubuntu22.04.1} date 2024-10-09T19:39:02+0200
; FORMAT={-:-/ absolute / metric / decimal}
; #@! TF.CreationDate,2024-10-09T19:39:02+02:00
; #@! TF.GenerationSoftware,Kicad,Pcbnew,8.0.4-8.0.4-0~ubuntu22.04.1
; #@! TF.FileFunction,Plated,1,2,PTH
FMAT,2
METRIC
; #@! TA.AperFunction,Plated,PTH,ViaDrill
T1C0.300
; #@! TA.AperFunction,Plated,PTH,ViaDrill
T2C0.400
; #@! TA.AperFunction,Plated,PTH,ViaDrill
T3C0.700
; #@! TA.AperFunction,Plated,PTH,ComponentDrill
T4C0.700
; #@! TA.AperFunction,Plated,PTH,ComponentDrill
T5C0.800
; #@! TA.AperFunction,Plated,PTH,ComponentDrill
T6C1.000
; #@! TA.AperFunction,Plated,PTH,ComponentDrill
T7C1.600
; #@! TA.AperFunction,Plated,PTH,ComponentDrill
T8C2.200
%
G90
G05
T1
X114.7Y-68.4
X115.35Y-72.25
X118.0Y-106.5
X119.4Y-74.5
X122.5Y-66.8
X124.5Y-88.7
X125.548Y-68.061
X125.6Y-102.7
X127.35Y-74.0
X129.5Y-86.4
X130.0Y-78.0
X130.3Y-75.4
X130.4Y-71.2
X130.4Y-73.0
X130.6Y-68.242
X132.8Y-82.7
X132.9Y-77.0
X142.1Y-68.4
X142.75Y-72.25
X145.4Y-106.5
X146.8Y-74.5
X149.9Y-66.8
X151.9Y-88.7
X152.948Y-68.061
X153.0Y-102.7
X154.75Y-74.0
X156.9Y-86.4
X157.4Y-78.0
X157.7Y-75.4
X157.8Y-71.2
X157.8Y-73.0
X158.0Y-68.242
X160.2Y-82.7
X160.3Y-77.0
X169.5Y-68.4
X170.15Y-72.25
X172.8Y-106.5
X174.2Y-74.5
X177.3Y-66.8
X179.3Y-88.7
X180.348Y-68.061
X180.4Y-102.7
X182.15Y-74.0
X184.3Y-86.4
X184.8Y-78.0
X185.1Y-75.4
X185.2Y-71.2
X185.2Y-73.0
X185.4Y-68.242
X187.6Y-82.7
X187.7Y-77.0
T2
X116.63Y-61.643
X117.298Y-71.94
X119.7Y-81.3
X119.85Y-45.5
X122.878Y-87.78
X124.85Y-71.75
X124.85Y-73.25
X126.1Y-47.25
X144.03Y-61.643
X144.698Y-71.94
X147.1Y-81.3
X147.25Y-45.5
X150.278Y-87.78
X152.25Y-71.75
X152.25Y-73.25
X153.5Y-47.25
X171.43Y-61.643
X172.098Y-71.94
X174.5Y-81.3
X174.65Y-45.5
X177.678Y-87.78
X179.65Y-71.75
X179.65Y-73.25
X180.9Y-47.25
T3
X110.076Y-35.151
X110.178Y-50.239
X110.35Y-73.25
X110.6Y-24.3
X111.6Y-92.5
X111.6Y-101.0
X111.7Y-56.6
X111.75Y-46.35
X112.1Y-109.5
X112.566Y-63.726
X112.85Y-74.0
X114.35Y-36.2
X116.15Y-52.3
X116.604Y-81.836
X117.45Y-23.15
X119.7Y-116.65
X120.4Y-52.7
X121.1Y-39.5
X121.2Y-23.1
X121.2Y-31.0
X122.6Y-116.65
X122.903Y-97.915
X123.5Y-38.1
X125.113Y-53.109
X125.35Y-24.35
X127.75Y-62.7
X128.05Y-38.35
X130.1Y-31.75
X131.8Y-24.9
X132.35Y-35.75
X137.476Y-35.151
X137.578Y-50.239
X137.75Y-73.25
X138.0Y-24.3
X139.0Y-92.5
X139.0Y-101.0
X139.1Y-56.6
X139.15Y-46.35
X139.5Y-109.5
X139.966Y-63.726
X140.25Y-74.0
X141.75Y-36.2
X143.55Y-52.3
X144.004Y-81.836
X144.85Y-23.15
X147.1Y-116.65
X147.8Y-52.7
X148.5Y-39.5
X148.6Y-23.1
X148.6Y-31.0
X150.0Y-116.65
X150.303Y-97.915
X150.9Y-38.1
X152.513Y-53.109
X152.75Y-24.35
X155.15Y-62.7
X155.45Y-38.35
X157.5Y-31.75
X159.2Y-24.9
X159.75Y-35.75
X164.876Y-35.151
X164.978Y-50.239
X165.15Y-73.25
X165.4Y-24.3
X166.4Y-92.5
X166.4Y-101.0
X166.5Y-56.6
X166.55Y-46.35
X166.9Y-109.5
X167.366Y-63.726
X167.65Y-74.0
X169.15Y-36.2
X170.95Y-52.3
X171.404Y-81.836
X172.25Y-23.15
X174.5Y-116.65
X175.2Y-52.7
X175.9Y-39.5
X176.0Y-23.1
X176.0Y-31.0
X177.4Y-116.65
X177.703Y-97.915
X178.3Y-38.1
X179.913Y-53.109
X180.15Y-24.35
X182.55Y-62.7
X182.85Y-38.35
X184.9Y-31.75
X186.6Y-24.9
X187.15Y-35.75
T4
X110.29Y-66.8
X110.3Y-52.79
X110.3Y-60.41
X110.3Y-69.57
X110.3Y-77.19
X110.3Y-80.17
X110.3Y-87.79
X112.9Y-80.18
X112.9Y-87.8
X112.9Y-103.8
X113.1Y-52.8
X113.1Y-60.42
X115.5Y-80.18
X115.5Y-87.8
X117.34Y-33.1
X117.34Y-35.45
X117.91Y-66.8
X118.0Y-80.19
X118.0Y-87.81
X120.52Y-103.8
X121.49Y-80.4
X121.5Y-83.0
X124.96Y-33.1
X124.96Y-35.45
X129.11Y-80.4
X129.12Y-83.0
X129.7Y-52.8
X129.7Y-60.42
X132.3Y-52.8
X132.3Y-60.42
X132.3Y-62.69
X132.3Y-70.31
X137.69Y-66.8
X137.7Y-52.79
X137.7Y-60.41
X137.7Y-69.57
X137.7Y-77.19
X137.7Y-80.17
X137.7Y-87.79
X140.3Y-80.18
X140.3Y-87.8
X140.3Y-103.8
X140.5Y-52.8
X140.5Y-60.42
X142.9Y-80.18
X142.9Y-87.8
X144.74Y-33.1
X144.74Y-35.45
X145.31Y-66.8
X145.4Y-80.19
X145.4Y-87.81
X147.92Y-103.8
X148.89Y-80.4
X148.9Y-83.0
X152.36Y-33.1
X152.36Y-35.45
X156.51Y-80.4
X156.52Y-83.0
X157.1Y-52.8
X157.1Y-60.42
X159.7Y-52.8
X159.7Y-60.42
X159.7Y-62.69
X159.7Y-70.31
X165.09Y-66.8
X165.1Y-52.79
X165.1Y-60.41
X165.1Y-69.57
X165.1Y-77.19
X165.1Y-80.17
X165.1Y-87.79
X167.7Y-80.18
X167.7Y-87.8
X167.7Y-103.8
X167.9Y-52.8
X167.9Y-60.42
X170.3Y-80.18
X170.3Y-87.8
X172.14Y-33.1
X172.14Y-35.45
X172.71Y-66.8
X172.8Y-80.19
X172.8Y-87.81
X175.32Y-103.8
X176.29Y-80.4
X176.3Y-83.0
X179.76Y-33.1
X179.76Y-35.45
X183.91Y-80.4
X183.92Y-83.0
X184.5Y-52.8
X184.5Y-60.42
X187.1Y-52.8
X187.1Y-60.42
X187.1Y-62.69
X187.1Y-70.31
T5
X113.4Y-69.98
X113.4Y-77.6
X115.5Y-91.0
X115.5Y-93.5
X115.5Y-97.7
X115.5Y-100.2
X115.94Y-69.98
X115.94Y-77.6
X118.48Y-69.98
X118.48Y-77.6
X120.5Y-91.3
X120.5Y-93.3
X120.5Y-98.0
X120.5Y-100.0
X121.02Y-69.98
X121.02Y-77.6
X123.56Y-69.98
X123.56Y-77.6
X126.1Y-69.98
X126.1Y-77.6
X128.64Y-69.98
X128.64Y-77.6
X132.1Y-72.8
X132.1Y-75.3
X132.1Y-78.55
X132.1Y-81.05
X140.8Y-69.98
X140.8Y-77.6
X142.9Y-91.0
X142.9Y-93.5
X142.9Y-97.7
X142.9Y-100.2
X143.34Y-69.98
X143.34Y-77.6
X145.88Y-69.98
X145.88Y-77.6
X147.9Y-91.3
X147.9Y-93.3
X147.9Y-98.0
X147.9Y-100.0
X148.42Y-69.98
X148.42Y-77.6
X150.96Y-69.98
X150.96Y-77.6
X153.5Y-69.98
X153.5Y-77.6
X156.04Y-69.98
X156.04Y-77.6
X159.5Y-72.8
X159.5Y-75.3
X159.5Y-78.55
X159.5Y-81.05
X168.2Y-69.98
X168.2Y-77.6
X170.3Y-91.0
X170.3Y-93.5
X170.3Y-97.7
X170.3Y-100.2
X170.74Y-69.98
X170.74Y-77.6
X173.28Y-69.98
X173.28Y-77.6
X175.3Y-91.3
X175.3Y-93.3
X175.3Y-98.0
X175.3Y-100.0
X175.82Y-69.98
X175.82Y-77.6
X178.36Y-69.98
X178.36Y-77.6
X180.9Y-69.98
X180.9Y-77.6
X183.44Y-69.98
X183.44Y-77.6
X186.9Y-72.8
X186.9Y-75.3
X186.9Y-78.55
X186.9Y-81.05
T6
X112.3Y-49.5
X114.8Y-49.5
X117.3Y-49.5
X118.85Y-64.5
X121.35Y-64.5
X123.85Y-64.5
X124.9Y-49.5
X127.4Y-49.5
X127.5Y-89.8
X127.5Y-92.34
X127.5Y-94.88
X127.5Y-97.42
X127.5Y-99.96
X129.9Y-49.5
X130.04Y-89.8
X130.04Y-92.34
X130.04Y-94.88
X130.04Y-97.42
X130.04Y-99.96
X139.7Y-49.5
X142.2Y-49.5
X144.7Y-49.5
X146.25Y-64.5
X148.75Y-64.5
X151.25Y-64.5
X152.3Y-49.5
X154.8Y-49.5
X154.9Y-89.8
X154.9Y-92.34
X154.9Y-94.88
X154.9Y-97.42
X154.9Y-99.96
X157.3Y-49.5
X157.44Y-89.8
X157.44Y-92.34
X157.44Y-94.88
X157.44Y-97.42
X157.44Y-99.96
X167.1Y-49.5
X169.6Y-49.5
X172.1Y-49.5
X173.65Y-64.5
X176.15Y-64.5
X178.65Y-64.5
X179.7Y-49.5
X182.2Y-49.5
X182.3Y-89.8
X182.3Y-92.34
X182.3Y-94.88
X182.3Y-97.42
X182.3Y-99.96
X184.7Y-49.5
X184.84Y-89.8
X184.84Y-92.34
X184.84Y-94.88
X184.84Y-97.42
X184.84Y-99.96
T7
X114.3Y-22.1
X114.3Y-30.4
X114.3Y-33.5
X114.3Y-106.6
X114.3Y-109.7
X114.3Y-118.0
X127.9Y-22.08
X127.9Y-30.38
X127.9Y-33.48
X128.1Y-106.472
X128.1Y-109.572
X128.1Y-117.872
X141.7Y-22.1
X141.7Y-30.4
X141.7Y-33.5
X141.7Y-106.6
X141.7Y-109.7
X141.7Y-118.0
X155.3Y-22.08
X155.3Y-30.38
X155.3Y-33.48
X155.5Y-106.472
X155.5Y-109.572
X155.5Y-117.872
X169.1Y-22.1
X169.1Y-30.4
X169.1Y-33.5
X169.1Y-106.6
X169.1Y-109.7
X169.1Y-118.0
X182.7Y-22.08
X182.7Y-30.38
X182.7Y-33.48
X182.9Y-106.472
X182.9Y-109.572
X182.9Y-117.872
T8
X110.0Y-42.5
X116.55Y-57.5
X119.6Y-42.5
X122.6Y-42.5
X126.15Y-57.5
X132.2Y-42.5
X137.4Y-42.5
X143.95Y-57.5
X147.0Y-42.5
X150.0Y-42.5
X153.55Y-57.5
X159.6Y-42.5
X164.8Y-42.5
X171.35Y-57.5
X174.4Y-42.5
X177.4Y-42.5
X180.95Y-57.5
X187.0Y-42.5
M30
