%TF.GenerationSoftware,KiCad,Pcbnew,8.0.4-8.0.4-0~ubuntu22.04.1*%
%TF.CreationDate,2024-07-28T23:06:12+02:00*%
%TF.ProjectId,FrontPanel,46726f6e-7450-4616-9e65-6c2e6b696361,0.1*%
%TF.SameCoordinates,Original*%
%TF.FileFunction,Drillmap*%
%TF.FilePolarity,Positive*%
%FSLAX45Y45*%
G04 Gerber Fmt 4.5, Leading zero omitted, Abs format (unit mm)*
G04 Created by KiCad (PCBNEW 8.0.4-8.0.4-0~ubuntu22.04.1) date 2024-07-28 23:06:12*
%MOMM*%
%LPD*%
G01*
G04 APERTURE LIST*
%ADD10C,0.050000*%
%ADD11C,0.200000*%
G04 APERTURE END LIST*
D10*
X7875000Y-18385000D02*
X7675000Y-18385000D01*
X7675000Y-18705000D02*
X7875000Y-18705000D01*
X7875000Y-18385000D02*
G75*
G02*
X7875000Y-18705000I0J-160000D01*
G01*
X6860000Y-18385000D02*
G75*
G02*
X6860000Y-18705000I0J-160000D01*
G01*
X6860000Y-18385000D02*
X6660000Y-18385000D01*
X7675000Y-18705000D02*
G75*
G02*
X7675000Y-18385000I0J160000D01*
G01*
X6660000Y-18705000D02*
X6860000Y-18705000D01*
X6660000Y-18705000D02*
G75*
G02*
X6660000Y-18385000I0J160000D01*
G01*
X7875000Y-6145000D02*
G75*
G02*
X7875000Y-6465000I0J-160000D01*
G01*
X7875000Y-6145000D02*
X7675000Y-6145000D01*
X7675000Y-6465000D02*
X7875000Y-6465000D01*
X7675000Y-6465000D02*
G75*
G02*
X7675000Y-6145000I0J160000D01*
G01*
X6660000Y-6465000D02*
X6860000Y-6465000D01*
X6860000Y-6145000D02*
X6660000Y-6145000D01*
X6860000Y-6145000D02*
G75*
G02*
X6860000Y-6465000I0J-160000D01*
G01*
X6660000Y-6465000D02*
G75*
G02*
X6660000Y-6145000I0J160000D01*
G01*
X7595000Y-11175000D02*
G75*
G02*
X6945000Y-11175000I-325000J0D01*
G01*
X6945000Y-11175000D02*
G75*
G02*
X7595000Y-11175000I325000J0D01*
G01*
X8540000Y-6000000D02*
X8540000Y-18850000D01*
X6000000Y-6000000D02*
X8540000Y-6000000D01*
X8235000Y-16720000D02*
G75*
G02*
X7655000Y-16720000I-290000J0D01*
G01*
X7655000Y-16720000D02*
G75*
G02*
X8235000Y-16720000I290000J0D01*
G01*
X8215000Y-8127500D02*
G75*
G02*
X7635000Y-8127500I-290000J0D01*
G01*
X7635000Y-8127500D02*
G75*
G02*
X8215000Y-8127500I290000J0D01*
G01*
X8200000Y-9675000D02*
G75*
G02*
X7550000Y-9675000I-325000J0D01*
G01*
X7550000Y-9675000D02*
G75*
G02*
X8200000Y-9675000I325000J0D01*
G01*
X6000000Y-18850000D02*
X8540000Y-18850000D01*
X6855000Y-16733061D02*
G75*
G02*
X6275000Y-16733061I-290000J0D01*
G01*
X6275000Y-16733061D02*
G75*
G02*
X6855000Y-16733061I290000J0D01*
G01*
X6855000Y-8127500D02*
G75*
G02*
X6275000Y-8127500I-290000J0D01*
G01*
X6275000Y-8127500D02*
G75*
G02*
X6855000Y-8127500I290000J0D01*
G01*
X6940000Y-9675000D02*
G75*
G02*
X6290000Y-9675000I-325000J0D01*
G01*
X6290000Y-9675000D02*
G75*
G02*
X6940000Y-9675000I325000J0D01*
G01*
X6000000Y-6000000D02*
X6000000Y-18850000D01*
D11*
X6258277Y-19163984D02*
X6258277Y-18963984D01*
X6258277Y-18963984D02*
X6305896Y-18963984D01*
X6305896Y-18963984D02*
X6334467Y-18973508D01*
X6334467Y-18973508D02*
X6353515Y-18992555D01*
X6353515Y-18992555D02*
X6363039Y-19011603D01*
X6363039Y-19011603D02*
X6372562Y-19049698D01*
X6372562Y-19049698D02*
X6372562Y-19078270D01*
X6372562Y-19078270D02*
X6363039Y-19116365D01*
X6363039Y-19116365D02*
X6353515Y-19135412D01*
X6353515Y-19135412D02*
X6334467Y-19154460D01*
X6334467Y-19154460D02*
X6305896Y-19163984D01*
X6305896Y-19163984D02*
X6258277Y-19163984D01*
X6458277Y-19163984D02*
X6458277Y-19030650D01*
X6458277Y-19068746D02*
X6467801Y-19049698D01*
X6467801Y-19049698D02*
X6477324Y-19040174D01*
X6477324Y-19040174D02*
X6496372Y-19030650D01*
X6496372Y-19030650D02*
X6515420Y-19030650D01*
X6582086Y-19163984D02*
X6582086Y-19030650D01*
X6582086Y-18963984D02*
X6572562Y-18973508D01*
X6572562Y-18973508D02*
X6582086Y-18983031D01*
X6582086Y-18983031D02*
X6591610Y-18973508D01*
X6591610Y-18973508D02*
X6582086Y-18963984D01*
X6582086Y-18963984D02*
X6582086Y-18983031D01*
X6705896Y-19163984D02*
X6686848Y-19154460D01*
X6686848Y-19154460D02*
X6677324Y-19135412D01*
X6677324Y-19135412D02*
X6677324Y-18963984D01*
X6810658Y-19163984D02*
X6791610Y-19154460D01*
X6791610Y-19154460D02*
X6782086Y-19135412D01*
X6782086Y-19135412D02*
X6782086Y-18963984D01*
X7039229Y-19163984D02*
X7039229Y-18963984D01*
X7039229Y-18963984D02*
X7105896Y-19106841D01*
X7105896Y-19106841D02*
X7172562Y-18963984D01*
X7172562Y-18963984D02*
X7172562Y-19163984D01*
X7353515Y-19163984D02*
X7353515Y-19059222D01*
X7353515Y-19059222D02*
X7343991Y-19040174D01*
X7343991Y-19040174D02*
X7324943Y-19030650D01*
X7324943Y-19030650D02*
X7286848Y-19030650D01*
X7286848Y-19030650D02*
X7267801Y-19040174D01*
X7353515Y-19154460D02*
X7334467Y-19163984D01*
X7334467Y-19163984D02*
X7286848Y-19163984D01*
X7286848Y-19163984D02*
X7267801Y-19154460D01*
X7267801Y-19154460D02*
X7258277Y-19135412D01*
X7258277Y-19135412D02*
X7258277Y-19116365D01*
X7258277Y-19116365D02*
X7267801Y-19097317D01*
X7267801Y-19097317D02*
X7286848Y-19087793D01*
X7286848Y-19087793D02*
X7334467Y-19087793D01*
X7334467Y-19087793D02*
X7353515Y-19078270D01*
X7448753Y-19030650D02*
X7448753Y-19230650D01*
X7448753Y-19040174D02*
X7467801Y-19030650D01*
X7467801Y-19030650D02*
X7505896Y-19030650D01*
X7505896Y-19030650D02*
X7524943Y-19040174D01*
X7524943Y-19040174D02*
X7534467Y-19049698D01*
X7534467Y-19049698D02*
X7543991Y-19068746D01*
X7543991Y-19068746D02*
X7543991Y-19125889D01*
X7543991Y-19125889D02*
X7534467Y-19144936D01*
X7534467Y-19144936D02*
X7524943Y-19154460D01*
X7524943Y-19154460D02*
X7505896Y-19163984D01*
X7505896Y-19163984D02*
X7467801Y-19163984D01*
X7467801Y-19163984D02*
X7448753Y-19154460D01*
X7629705Y-19144936D02*
X7639229Y-19154460D01*
X7639229Y-19154460D02*
X7629705Y-19163984D01*
X7629705Y-19163984D02*
X7620182Y-19154460D01*
X7620182Y-19154460D02*
X7629705Y-19144936D01*
X7629705Y-19144936D02*
X7629705Y-19163984D01*
X7629705Y-19040174D02*
X7639229Y-19049698D01*
X7639229Y-19049698D02*
X7629705Y-19059222D01*
X7629705Y-19059222D02*
X7620182Y-19049698D01*
X7620182Y-19049698D02*
X7629705Y-19040174D01*
X7629705Y-19040174D02*
X7629705Y-19059222D01*
M02*
