G04 #@! TF.GenerationSoftware,KiCad,Pcbnew,8.0.4-8.0.4-0~ubuntu22.04.1*
G04 #@! TF.CreationDate,2024-07-28T23:06:02+02:00*
G04 #@! TF.ProjectId,FrontPanel,46726f6e-7450-4616-9e65-6c2e6b696361,0.1*
G04 #@! TF.SameCoordinates,Original*
G04 #@! TF.FileFunction,Profile,NP*
%FSLAX46Y46*%
G04 Gerber Fmt 4.6, Leading zero omitted, Abs format (unit mm)*
G04 Created by KiCad (PCBNEW 8.0.4-8.0.4-0~ubuntu22.04.1) date 2024-07-28 23:06:02*
%MOMM*%
%LPD*%
G01*
G04 APERTURE LIST*
G04 #@! TA.AperFunction,Profile*
%ADD10C,0.050000*%
G04 #@! TD*
G04 APERTURE END LIST*
D10*
X78750000Y-183850000D02*
X76750000Y-183850000D01*
X76750000Y-187050000D02*
X78750000Y-187050000D01*
X78750000Y-183850000D02*
G75*
G02*
X78750000Y-187050000I0J-1600000D01*
G01*
X68600000Y-183850000D02*
G75*
G02*
X68600000Y-187050000I0J-1600000D01*
G01*
X68600000Y-183850000D02*
X66600000Y-183850000D01*
X76750000Y-187050000D02*
G75*
G02*
X76750000Y-183850000I0J1600000D01*
G01*
X66600000Y-187050000D02*
X68600000Y-187050000D01*
X66600000Y-187050000D02*
G75*
G02*
X66600000Y-183850000I0J1600000D01*
G01*
X78750000Y-61450000D02*
G75*
G02*
X78750000Y-64650000I0J-1600000D01*
G01*
X78750000Y-61450000D02*
X76750000Y-61450000D01*
X76750000Y-64650000D02*
X78750000Y-64650000D01*
X76750000Y-64650000D02*
G75*
G02*
X76750000Y-61450000I0J1600000D01*
G01*
X66600000Y-64650000D02*
X68600000Y-64650000D01*
X68600000Y-61450000D02*
X66600000Y-61450000D01*
X68600000Y-61450000D02*
G75*
G02*
X68600000Y-64650000I0J-1600000D01*
G01*
X66600000Y-64650000D02*
G75*
G02*
X66600000Y-61450000I0J1600000D01*
G01*
X75950000Y-111750000D02*
G75*
G02*
X69450000Y-111750000I-3250000J0D01*
G01*
X69450000Y-111750000D02*
G75*
G02*
X75950000Y-111750000I3250000J0D01*
G01*
X85400000Y-60000000D02*
X85400000Y-188500000D01*
X60000000Y-60000000D02*
X85400000Y-60000000D01*
X82350000Y-167200000D02*
G75*
G02*
X76550000Y-167200000I-2900000J0D01*
G01*
X76550000Y-167200000D02*
G75*
G02*
X82350000Y-167200000I2900000J0D01*
G01*
X82150000Y-81275000D02*
G75*
G02*
X76350000Y-81275000I-2900000J0D01*
G01*
X76350000Y-81275000D02*
G75*
G02*
X82150000Y-81275000I2900000J0D01*
G01*
X82000000Y-96750000D02*
G75*
G02*
X75500000Y-96750000I-3250000J0D01*
G01*
X75500000Y-96750000D02*
G75*
G02*
X82000000Y-96750000I3250000J0D01*
G01*
X60000000Y-188500000D02*
X85400000Y-188500000D01*
X68549999Y-167330612D02*
G75*
G02*
X62749999Y-167330612I-2900000J0D01*
G01*
X62749999Y-167330612D02*
G75*
G02*
X68549999Y-167330612I2900000J0D01*
G01*
X68550000Y-81275000D02*
G75*
G02*
X62750000Y-81275000I-2900000J0D01*
G01*
X62750000Y-81275000D02*
G75*
G02*
X68550000Y-81275000I2900000J0D01*
G01*
X69400000Y-96750000D02*
G75*
G02*
X62900000Y-96750000I-3250000J0D01*
G01*
X62900000Y-96750000D02*
G75*
G02*
X69400000Y-96750000I3250000J0D01*
G01*
X60000000Y-60000000D02*
X60000000Y-188500000D01*
M02*
