%TF.GenerationSoftware,KiCad,Pcbnew,8.0.4-8.0.4-0~ubuntu22.04.1*%
%TF.CreationDate,2024-07-28T19:50:54+02:00*%
%TF.ProjectId,VoltageProcessor,566f6c74-6167-4655-9072-6f636573736f,0.1*%
%TF.SameCoordinates,Original*%
%TF.FileFunction,Drillmap*%
%TF.FilePolarity,Positive*%
%FSLAX45Y45*%
G04 Gerber Fmt 4.5, Leading zero omitted, Abs format (unit mm)*
G04 Created by KiCad (PCBNEW 8.0.4-8.0.4-0~ubuntu22.04.1) date 2024-07-28 19:50:54*
%MOMM*%
%LPD*%
G01*
G04 APERTURE LIST*
%ADD10C,0.050000*%
%ADD11C,0.200000*%
G04 APERTURE END LIST*
D10*
X12020000Y-15675000D02*
X9480000Y-15675000D01*
X12020000Y-5675000D02*
X12020000Y-15675000D01*
X9480000Y-5675000D02*
X12020000Y-5675000D01*
X9480000Y-15675000D02*
X9480000Y-5675000D01*
D11*
X9738277Y-15988984D02*
X9738277Y-15788984D01*
X9738277Y-15788984D02*
X9785896Y-15788984D01*
X9785896Y-15788984D02*
X9814467Y-15798508D01*
X9814467Y-15798508D02*
X9833515Y-15817555D01*
X9833515Y-15817555D02*
X9843039Y-15836603D01*
X9843039Y-15836603D02*
X9852563Y-15874698D01*
X9852563Y-15874698D02*
X9852563Y-15903269D01*
X9852563Y-15903269D02*
X9843039Y-15941365D01*
X9843039Y-15941365D02*
X9833515Y-15960412D01*
X9833515Y-15960412D02*
X9814467Y-15979460D01*
X9814467Y-15979460D02*
X9785896Y-15988984D01*
X9785896Y-15988984D02*
X9738277Y-15988984D01*
X9938277Y-15988984D02*
X9938277Y-15855650D01*
X9938277Y-15893746D02*
X9947801Y-15874698D01*
X9947801Y-15874698D02*
X9957324Y-15865174D01*
X9957324Y-15865174D02*
X9976372Y-15855650D01*
X9976372Y-15855650D02*
X9995420Y-15855650D01*
X10062086Y-15988984D02*
X10062086Y-15855650D01*
X10062086Y-15788984D02*
X10052563Y-15798508D01*
X10052563Y-15798508D02*
X10062086Y-15808031D01*
X10062086Y-15808031D02*
X10071610Y-15798508D01*
X10071610Y-15798508D02*
X10062086Y-15788984D01*
X10062086Y-15788984D02*
X10062086Y-15808031D01*
X10185896Y-15988984D02*
X10166848Y-15979460D01*
X10166848Y-15979460D02*
X10157324Y-15960412D01*
X10157324Y-15960412D02*
X10157324Y-15788984D01*
X10290658Y-15988984D02*
X10271610Y-15979460D01*
X10271610Y-15979460D02*
X10262086Y-15960412D01*
X10262086Y-15960412D02*
X10262086Y-15788984D01*
X10519229Y-15988984D02*
X10519229Y-15788984D01*
X10519229Y-15788984D02*
X10585896Y-15931841D01*
X10585896Y-15931841D02*
X10652563Y-15788984D01*
X10652563Y-15788984D02*
X10652563Y-15988984D01*
X10833515Y-15988984D02*
X10833515Y-15884222D01*
X10833515Y-15884222D02*
X10823991Y-15865174D01*
X10823991Y-15865174D02*
X10804944Y-15855650D01*
X10804944Y-15855650D02*
X10766848Y-15855650D01*
X10766848Y-15855650D02*
X10747801Y-15865174D01*
X10833515Y-15979460D02*
X10814467Y-15988984D01*
X10814467Y-15988984D02*
X10766848Y-15988984D01*
X10766848Y-15988984D02*
X10747801Y-15979460D01*
X10747801Y-15979460D02*
X10738277Y-15960412D01*
X10738277Y-15960412D02*
X10738277Y-15941365D01*
X10738277Y-15941365D02*
X10747801Y-15922317D01*
X10747801Y-15922317D02*
X10766848Y-15912793D01*
X10766848Y-15912793D02*
X10814467Y-15912793D01*
X10814467Y-15912793D02*
X10833515Y-15903269D01*
X10928753Y-15855650D02*
X10928753Y-16055650D01*
X10928753Y-15865174D02*
X10947801Y-15855650D01*
X10947801Y-15855650D02*
X10985896Y-15855650D01*
X10985896Y-15855650D02*
X11004944Y-15865174D01*
X11004944Y-15865174D02*
X11014467Y-15874698D01*
X11014467Y-15874698D02*
X11023991Y-15893746D01*
X11023991Y-15893746D02*
X11023991Y-15950888D01*
X11023991Y-15950888D02*
X11014467Y-15969936D01*
X11014467Y-15969936D02*
X11004944Y-15979460D01*
X11004944Y-15979460D02*
X10985896Y-15988984D01*
X10985896Y-15988984D02*
X10947801Y-15988984D01*
X10947801Y-15988984D02*
X10928753Y-15979460D01*
X11109705Y-15969936D02*
X11119229Y-15979460D01*
X11119229Y-15979460D02*
X11109705Y-15988984D01*
X11109705Y-15988984D02*
X11100182Y-15979460D01*
X11100182Y-15979460D02*
X11109705Y-15969936D01*
X11109705Y-15969936D02*
X11109705Y-15988984D01*
X11109705Y-15865174D02*
X11119229Y-15874698D01*
X11119229Y-15874698D02*
X11109705Y-15884222D01*
X11109705Y-15884222D02*
X11100182Y-15874698D01*
X11100182Y-15874698D02*
X11109705Y-15865174D01*
X11109705Y-15865174D02*
X11109705Y-15884222D01*
M02*
