%TF.GenerationSoftware,KiCad,Pcbnew,8.0.4-8.0.4-0~ubuntu22.04.1*%
%TF.CreationDate,2024-07-28T19:50:56+02:00*%
%TF.ProjectId,VoltageProcessor,566f6c74-6167-4655-9072-6f636573736f,0.1*%
%TF.SameCoordinates,Original*%
%TF.FileFunction,Copper,L1,Top*%
%TF.FilePolarity,Positive*%
%FSLAX46Y46*%
G04 Gerber Fmt 4.6, Leading zero omitted, Abs format (unit mm)*
G04 Created by KiCad (PCBNEW 8.0.4-8.0.4-0~ubuntu22.04.1) date 2024-07-28 19:50:56*
%MOMM*%
%LPD*%
G01*
G04 APERTURE LIST*
G04 Aperture macros list*
%AMRoundRect*
0 Rectangle with rounded corners*
0 $1 Rounding radius*
0 $2 $3 $4 $5 $6 $7 $8 $9 X,Y pos of 4 corners*
0 Add a 4 corners polygon primitive as box body*
4,1,4,$2,$3,$4,$5,$6,$7,$8,$9,$2,$3,0*
0 Add four circle primitives for the rounded corners*
1,1,$1+$1,$2,$3*
1,1,$1+$1,$4,$5*
1,1,$1+$1,$6,$7*
1,1,$1+$1,$8,$9*
0 Add four rect primitives between the rounded corners*
20,1,$1+$1,$2,$3,$4,$5,0*
20,1,$1+$1,$4,$5,$6,$7,0*
20,1,$1+$1,$6,$7,$8,$9,0*
20,1,$1+$1,$8,$9,$2,$3,0*%
G04 Aperture macros list end*
%TA.AperFunction,ComponentPad*%
%ADD10C,1.400000*%
%TD*%
%TA.AperFunction,ComponentPad*%
%ADD11O,1.400000X1.400000*%
%TD*%
%TA.AperFunction,ComponentPad*%
%ADD12C,1.600000*%
%TD*%
%TA.AperFunction,ComponentPad*%
%ADD13C,2.000000*%
%TD*%
%TA.AperFunction,ComponentPad*%
%ADD14C,3.500000*%
%TD*%
%TA.AperFunction,ComponentPad*%
%ADD15O,1.500000X2.000000*%
%TD*%
%TA.AperFunction,ComponentPad*%
%ADD16R,1.600000X1.600000*%
%TD*%
%TA.AperFunction,ComponentPad*%
%ADD17O,1.600000X1.600000*%
%TD*%
%TA.AperFunction,ComponentPad*%
%ADD18RoundRect,0.250000X0.600000X0.600000X-0.600000X0.600000X-0.600000X-0.600000X0.600000X-0.600000X0*%
%TD*%
%TA.AperFunction,ComponentPad*%
%ADD19C,1.700000*%
%TD*%
%TA.AperFunction,ViaPad*%
%ADD20C,0.800000*%
%TD*%
%TA.AperFunction,ViaPad*%
%ADD21C,0.900000*%
%TD*%
%TA.AperFunction,Conductor*%
%ADD22C,0.500000*%
%TD*%
%TA.AperFunction,Conductor*%
%ADD23C,0.250000*%
%TD*%
G04 APERTURE END LIST*
D10*
%TO.P,R4,1*%
%TO.N,Net-(U1A--)*%
X118700000Y-89550000D03*
D11*
%TO.P,R4,2*%
%TO.N,Net-(R4-Pad2)*%
X118700000Y-97170000D03*
%TD*%
D10*
%TO.P,R10,1*%
%TO.N,Net-(U1C--)*%
X99300000Y-124550000D03*
D11*
%TO.P,R10,2*%
%TO.N,Net-(R10-Pad2)*%
X99300000Y-116930000D03*
%TD*%
D12*
%TO.P,C4,1*%
%TO.N,GND*%
X118500000Y-117800000D03*
%TO.P,C4,2*%
%TO.N,-12V*%
X118500000Y-115300000D03*
%TD*%
%TO.P,C3,1*%
%TO.N,+12V*%
X118500000Y-109550000D03*
%TO.P,C3,2*%
%TO.N,GND*%
X118500000Y-112050000D03*
%TD*%
D13*
%TO.P,J4,1*%
%TO.N,GND*%
X100700000Y-143350000D03*
%TO.P,J4,2*%
%TO.N,Net-(J4-Pad2)*%
X100700000Y-146450000D03*
%TO.P,J4,3*%
%TO.N,unconnected-(J4-Pad3)*%
X100700000Y-154750000D03*
%TD*%
D10*
%TO.P,R1,1*%
%TO.N,Net-(R1-Pad1)*%
X99500000Y-89550000D03*
D11*
%TO.P,R1,2*%
%TO.N,Net-(U1B-+)*%
X99500000Y-97170000D03*
%TD*%
D10*
%TO.P,R6,1*%
%TO.N,Net-(R4-Pad2)*%
X118700000Y-99440000D03*
D11*
%TO.P,R6,2*%
%TO.N,Net-(U1C--)*%
X118700000Y-107060000D03*
%TD*%
D14*
%TO.P,RV2,*%
%TO.N,*%
X109000000Y-79250000D03*
X118600000Y-79250000D03*
D15*
%TO.P,RV2,1,1*%
%TO.N,Net-(J2-Pad3)*%
X111300000Y-86250000D03*
%TO.P,RV2,2,2*%
%TO.N,Net-(R2-Pad1)*%
X113800000Y-86250000D03*
%TO.P,RV2,3,3*%
%TO.N,GND*%
X116300000Y-86250000D03*
%TD*%
D10*
%TO.P,R5,1*%
%TO.N,Net-(R3-Pad2)*%
X96690000Y-103550000D03*
D11*
%TO.P,R5,2*%
%TO.N,Net-(U1C--)*%
X104310000Y-103550000D03*
%TD*%
D10*
%TO.P,R8,1*%
%TO.N,Net-(R3-Pad2)*%
X96700000Y-106320000D03*
D11*
%TO.P,R8,2*%
%TO.N,Net-(U1D-+)*%
X96700000Y-113940000D03*
%TD*%
D10*
%TO.P,R12,1*%
%TO.N,Net-(U1D-+)*%
X104400000Y-116940000D03*
D11*
%TO.P,R12,2*%
%TO.N,Net-(R12-Pad2)*%
X104400000Y-124560000D03*
%TD*%
D10*
%TO.P,R14,1*%
%TO.N,Net-(R12-Pad2)*%
X99300000Y-140550000D03*
D11*
%TO.P,R14,2*%
%TO.N,Net-(J5-Pad2)*%
X106920000Y-140550000D03*
%TD*%
D14*
%TO.P,RV1,*%
%TO.N,*%
X96400000Y-79250000D03*
X106000000Y-79250000D03*
D15*
%TO.P,RV1,1,1*%
%TO.N,Net-(J1-Pad3)*%
X98700000Y-86250000D03*
%TO.P,RV1,2,2*%
%TO.N,Net-(R1-Pad1)*%
X101200000Y-86250000D03*
%TO.P,RV1,3,3*%
%TO.N,GND*%
X103700000Y-86250000D03*
%TD*%
D13*
%TO.P,J5,1*%
%TO.N,GND*%
X114500000Y-143222500D03*
%TO.P,J5,2*%
%TO.N,Net-(J5-Pad2)*%
X114500000Y-146322500D03*
%TO.P,J5,3*%
%TO.N,unconnected-(J5-Pad3)*%
X114500000Y-154622500D03*
%TD*%
D10*
%TO.P,R3,1*%
%TO.N,Net-(U1B-+)*%
X96700000Y-89540000D03*
D11*
%TO.P,R3,2*%
%TO.N,Net-(R3-Pad2)*%
X96700000Y-97160000D03*
%TD*%
D14*
%TO.P,RV3,*%
%TO.N,*%
X102950000Y-94250000D03*
X112550000Y-94250000D03*
D15*
%TO.P,RV3,1,1*%
%TO.N,+12V*%
X105250000Y-101250000D03*
%TO.P,RV3,2,2*%
%TO.N,Net-(R7-Pad1)*%
X107750000Y-101250000D03*
%TO.P,RV3,3,3*%
%TO.N,-12V*%
X110250000Y-101250000D03*
%TD*%
D13*
%TO.P,J1,1*%
%TO.N,GND*%
X100700000Y-70250000D03*
%TO.P,J1,2*%
X100700000Y-67150000D03*
%TO.P,J1,3*%
%TO.N,Net-(J1-Pad3)*%
X100700000Y-58850000D03*
%TD*%
%TO.P,J2,1*%
%TO.N,GND*%
X114300000Y-70230000D03*
%TO.P,J2,2*%
X114300000Y-67130000D03*
%TO.P,J2,3*%
%TO.N,Net-(J2-Pad3)*%
X114300000Y-58830000D03*
%TD*%
D10*
%TO.P,R9,1*%
%TO.N,Net-(R4-Pad2)*%
X115510000Y-117150000D03*
D11*
%TO.P,R9,2*%
%TO.N,Net-(U1D--)*%
X107890000Y-117150000D03*
%TD*%
D16*
%TO.P,U1,1*%
%TO.N,Net-(R4-Pad2)*%
X115040000Y-106730000D03*
D17*
%TO.P,U1,2,-*%
%TO.N,Net-(U1A--)*%
X112500000Y-106730000D03*
%TO.P,U1,3,+*%
%TO.N,GND*%
X109960000Y-106730000D03*
%TO.P,U1,4,V+*%
%TO.N,+12V*%
X107420000Y-106730000D03*
%TO.P,U1,5,+*%
%TO.N,Net-(U1B-+)*%
X104880000Y-106730000D03*
%TO.P,U1,6,-*%
%TO.N,unconnected-(U1B---Pad6)*%
X102340000Y-106730000D03*
%TO.P,U1,7*%
%TO.N,Net-(R3-Pad2)*%
X99800000Y-106730000D03*
%TO.P,U1,8*%
%TO.N,Net-(R10-Pad2)*%
X99800000Y-114350000D03*
%TO.P,U1,9,-*%
%TO.N,Net-(U1C--)*%
X102340000Y-114350000D03*
%TO.P,U1,10,+*%
%TO.N,GND*%
X104880000Y-114350000D03*
%TO.P,U1,11,V-*%
%TO.N,-12V*%
X107420000Y-114350000D03*
%TO.P,U1,12,+*%
%TO.N,Net-(U1D-+)*%
X109960000Y-114350000D03*
%TO.P,U1,13,-*%
%TO.N,Net-(U1D--)*%
X112500000Y-114350000D03*
%TO.P,U1,14*%
%TO.N,Net-(R12-Pad2)*%
X115040000Y-114350000D03*
%TD*%
D10*
%TO.P,R7,1*%
%TO.N,Net-(R7-Pad1)*%
X101900000Y-124550000D03*
D11*
%TO.P,R7,2*%
%TO.N,Net-(U1C--)*%
X101900000Y-116930000D03*
%TD*%
D10*
%TO.P,R13,1*%
%TO.N,Net-(R10-Pad2)*%
X96700000Y-116920000D03*
D11*
%TO.P,R13,2*%
%TO.N,Net-(J4-Pad2)*%
X96700000Y-124540000D03*
%TD*%
D10*
%TO.P,R2,1*%
%TO.N,Net-(R2-Pad1)*%
X116100000Y-89550000D03*
D11*
%TO.P,R2,2*%
%TO.N,Net-(U1A--)*%
X116100000Y-97170000D03*
%TD*%
D10*
%TO.P,R11,1*%
%TO.N,GND*%
X115520000Y-119750000D03*
D11*
%TO.P,R11,2*%
%TO.N,Net-(U1D--)*%
X107900000Y-119750000D03*
%TD*%
D12*
%TO.P,C6,1*%
%TO.N,GND*%
X106900000Y-134550000D03*
%TO.P,C6,2*%
%TO.N,-12V*%
X106900000Y-136550000D03*
%TD*%
%TO.P,C1,1*%
%TO.N,+12V*%
X101900000Y-127850000D03*
%TO.P,C1,2*%
%TO.N,GND*%
X101900000Y-130350000D03*
%TD*%
D18*
%TO.P,J3,1,Pin_1*%
%TO.N,+12V*%
X116440000Y-126550000D03*
D19*
%TO.P,J3,2,Pin_2*%
X113900000Y-126550000D03*
%TO.P,J3,3,Pin_3*%
%TO.N,GND*%
X116440000Y-129090000D03*
%TO.P,J3,4,Pin_4*%
X113900000Y-129090000D03*
%TO.P,J3,5,Pin_5*%
X116440000Y-131630000D03*
%TO.P,J3,6,Pin_6*%
X113900000Y-131630000D03*
%TO.P,J3,7,Pin_7*%
X116440000Y-134170000D03*
%TO.P,J3,8,Pin_8*%
X113900000Y-134170000D03*
%TO.P,J3,9,Pin_9*%
%TO.N,-12V*%
X116440000Y-136710000D03*
%TO.P,J3,10,Pin_10*%
X113900000Y-136710000D03*
%TD*%
D12*
%TO.P,C5,1*%
%TO.N,+12V*%
X106900000Y-128150000D03*
%TO.P,C5,2*%
%TO.N,GND*%
X106900000Y-130150000D03*
%TD*%
%TO.P,C2,1*%
%TO.N,GND*%
X101900000Y-134250000D03*
%TO.P,C2,2*%
%TO.N,-12V*%
X101900000Y-136750000D03*
%TD*%
D20*
%TO.N,GND*%
X99500000Y-110050000D03*
X112000000Y-139450000D03*
X118300000Y-71050000D03*
X111948008Y-104811295D03*
X105800000Y-111250000D03*
X118200000Y-61650000D03*
X110900000Y-125450000D03*
X96500000Y-86750000D03*
D21*
X106100000Y-118050000D03*
D20*
X108300000Y-59850000D03*
X97000000Y-61050000D03*
X115900000Y-123150000D03*
X119200000Y-119450000D03*
X119300000Y-113750000D03*
X108700000Y-153350000D03*
X107900000Y-87750000D03*
X107300000Y-71150000D03*
X115700000Y-93150000D03*
X110100000Y-133150000D03*
X112600000Y-110650000D03*
X104400000Y-143250000D03*
%TO.N,Net-(U1C--)*%
X108900000Y-103550000D03*
X117000000Y-104991942D03*
%TO.N,Net-(R7-Pad1)*%
X101100000Y-105150000D03*
%TO.N,Net-(U1D-+)*%
X98400000Y-115550000D03*
X103100000Y-115650000D03*
%TO.N,Net-(R4-Pad2)*%
X116800000Y-109750000D03*
X116700000Y-112150000D03*
X116800000Y-107950000D03*
X116400000Y-114750000D03*
%TD*%
D22*
%TO.N,+12V*%
X109540000Y-108850000D02*
X107420000Y-106730000D01*
X107850000Y-98650000D02*
X105250000Y-101250000D01*
X118500000Y-109550000D02*
X117800000Y-108850000D01*
X107420000Y-106730000D02*
X112700000Y-101450000D01*
X112700000Y-101450000D02*
X112700000Y-100350000D01*
D23*
X105250000Y-101250000D02*
X105250000Y-102075000D01*
D22*
X112700000Y-100350000D02*
X111000000Y-98650000D01*
X111000000Y-98650000D02*
X107850000Y-98650000D01*
X117800000Y-108850000D02*
X109540000Y-108850000D01*
%TO.N,GND*%
X112000000Y-111250000D02*
X105800000Y-111250000D01*
X112600000Y-110650000D02*
X112000000Y-111250000D01*
%TO.N,-12V*%
X118500000Y-115300000D02*
X115550000Y-112350000D01*
X115550000Y-112350000D02*
X109420000Y-112350000D01*
X109420000Y-112350000D02*
X107420000Y-114350000D01*
%TO.N,Net-(J2-Pad3)*%
X114300000Y-58830000D02*
X111300000Y-61830000D01*
X111300000Y-61830000D02*
X111300000Y-86250000D01*
D23*
%TO.N,Net-(U1A--)*%
X118700000Y-94570000D02*
X116100000Y-97170000D01*
X118700000Y-89550000D02*
X118700000Y-94570000D01*
X116100000Y-103130000D02*
X116100000Y-97170000D01*
X112500000Y-106730000D02*
X116100000Y-103130000D01*
D22*
%TO.N,Net-(J4-Pad2)*%
X96700000Y-124540000D02*
X96700000Y-141722500D01*
X96700000Y-141722500D02*
X100900000Y-145922500D01*
D23*
%TO.N,Net-(U1C--)*%
X102340000Y-112310000D02*
X102340000Y-114350000D01*
X118700000Y-105950000D02*
X118700000Y-107060000D01*
X117741942Y-104991942D02*
X118700000Y-105950000D01*
X117000000Y-104991942D02*
X117741942Y-104991942D01*
X106150000Y-105390000D02*
X106150000Y-108500000D01*
X99300000Y-124550000D02*
X99300000Y-119530000D01*
X101900000Y-114790000D02*
X102340000Y-114350000D01*
X104310000Y-103550000D02*
X108900000Y-103550000D01*
X104310000Y-103550000D02*
X106150000Y-105390000D01*
X101900000Y-116930000D02*
X101900000Y-114790000D01*
X99300000Y-119530000D02*
X101900000Y-116930000D01*
X118680000Y-106990000D02*
X118700000Y-106970000D01*
X102420000Y-114430000D02*
X102340000Y-114350000D01*
X106150000Y-108500000D02*
X102340000Y-112310000D01*
%TO.N,Net-(U1B-+)*%
X96700000Y-89540000D02*
X96700000Y-94370000D01*
X99500000Y-101350000D02*
X104880000Y-106730000D01*
X99500000Y-97170000D02*
X99500000Y-101350000D01*
X96700000Y-94370000D02*
X99500000Y-97170000D01*
%TO.N,Net-(R7-Pad1)*%
X100750000Y-125700000D02*
X101900000Y-124550000D01*
X98000000Y-120143604D02*
X98000000Y-125100000D01*
X98050000Y-125100000D02*
X98650000Y-125700000D01*
X98650000Y-125700000D02*
X100750000Y-125700000D01*
X101100000Y-115500000D02*
X100600000Y-116000000D01*
X100600000Y-117593604D02*
X98050000Y-120143604D01*
X101100000Y-105150000D02*
X101100000Y-115500000D01*
X100600000Y-116000000D02*
X100600000Y-117593604D01*
%TO.N,Net-(U1D--)*%
X112500000Y-114350000D02*
X109700000Y-117150000D01*
X107890000Y-119740000D02*
X107900000Y-119750000D01*
X109700000Y-117150000D02*
X107890000Y-117150000D01*
X107890000Y-117150000D02*
X107890000Y-119740000D01*
D22*
%TO.N,Net-(J5-Pad2)*%
X106920000Y-140550000D02*
X112692500Y-146322500D01*
X112692500Y-146322500D02*
X114500000Y-146322500D01*
D23*
%TO.N,Net-(U1D-+)*%
X98310000Y-115550000D02*
X98310000Y-115550000D01*
X98400000Y-115640000D02*
X96700000Y-113940000D01*
X109960000Y-114350000D02*
X108560000Y-115750000D01*
X105590000Y-115750000D02*
X104400000Y-116940000D01*
X104390000Y-116940000D02*
X103100000Y-115650000D01*
X98310000Y-115550000D02*
X98400000Y-115550000D01*
X108560000Y-115750000D02*
X105590000Y-115750000D01*
X98400000Y-115550000D02*
X98400000Y-115640000D01*
X104400000Y-116940000D02*
X104390000Y-116940000D01*
D22*
%TO.N,Net-(R1-Pad1)*%
X101200000Y-87850000D02*
X99500000Y-89550000D01*
X101200000Y-86250000D02*
X101200000Y-87850000D01*
%TO.N,Net-(R2-Pad1)*%
X113800000Y-86250000D02*
X116100000Y-88550000D01*
X116100000Y-88550000D02*
X116100000Y-89550000D01*
D23*
%TO.N,Net-(R3-Pad2)*%
X96690000Y-106310000D02*
X96700000Y-106320000D01*
X96700000Y-103540000D02*
X96690000Y-103550000D01*
X96690000Y-103550000D02*
X96690000Y-106310000D01*
X99390000Y-106320000D02*
X99800000Y-106730000D01*
X96700000Y-97160000D02*
X96700000Y-103540000D01*
X96700000Y-106320000D02*
X99390000Y-106320000D01*
%TO.N,Net-(R4-Pad2)*%
X116700000Y-109850000D02*
X116800000Y-109750000D01*
X118700000Y-97170000D02*
X118700000Y-99440000D01*
X116800000Y-107550000D02*
X116300000Y-107050000D01*
X116400000Y-116260000D02*
X116400000Y-114750000D01*
X115040000Y-105210000D02*
X116700000Y-103550000D01*
X116700000Y-103550000D02*
X116700000Y-101440000D01*
X115040000Y-106730000D02*
X115040000Y-105210000D01*
X115360000Y-107050000D02*
X115040000Y-106730000D01*
X116700000Y-101440000D02*
X118700000Y-99440000D01*
X115510000Y-117150000D02*
X116400000Y-116260000D01*
X116700000Y-112150000D02*
X116700000Y-109850000D01*
X116300000Y-107050000D02*
X115360000Y-107050000D01*
X116800000Y-107950000D02*
X116800000Y-107550000D01*
D22*
%TO.N,Net-(J1-Pad3)*%
X98700000Y-60850000D02*
X98700000Y-86250000D01*
X100700000Y-58850000D02*
X98700000Y-60850000D01*
D23*
%TO.N,Net-(R10-Pad2)*%
X99800000Y-116430000D02*
X99300000Y-116930000D01*
X99800000Y-114350000D02*
X99800000Y-116430000D01*
X99290000Y-116920000D02*
X99300000Y-116930000D01*
%TO.N,Net-(R12-Pad2)*%
X104300000Y-125950000D02*
X101136396Y-125950000D01*
X101136396Y-125950000D02*
X100936396Y-126150000D01*
X105890000Y-124560000D02*
X104400000Y-124560000D01*
X115040000Y-115410000D02*
X105890000Y-124560000D01*
X99300000Y-127150000D02*
X99300000Y-140550000D01*
X115040000Y-114350000D02*
X115040000Y-115410000D01*
X100300000Y-126150000D02*
X99300000Y-127150000D01*
X100936396Y-126150000D02*
X100300000Y-126150000D01*
X104400000Y-124560000D02*
X104400000Y-125850000D01*
X104400000Y-125850000D02*
X104300000Y-125950000D01*
%TD*%
%TA.AperFunction,Conductor*%
%TO.N,GND*%
G36*
X115974075Y-134362993D02*
G01*
X116039901Y-134477007D01*
X116132993Y-134570099D01*
X116247007Y-134635925D01*
X116310590Y-134652962D01*
X115678625Y-135284925D01*
X115754594Y-135338119D01*
X115798219Y-135392696D01*
X115805413Y-135462194D01*
X115773890Y-135524549D01*
X115754595Y-135541269D01*
X115568594Y-135671508D01*
X115401505Y-135838597D01*
X115271575Y-136024158D01*
X115216998Y-136067783D01*
X115147500Y-136074977D01*
X115085145Y-136043454D01*
X115068425Y-136024158D01*
X114938494Y-135838597D01*
X114771402Y-135671506D01*
X114771401Y-135671505D01*
X114585405Y-135541269D01*
X114541781Y-135486692D01*
X114534588Y-135417193D01*
X114566110Y-135354839D01*
X114585405Y-135338119D01*
X114661373Y-135284925D01*
X114029409Y-134652962D01*
X114092993Y-134635925D01*
X114207007Y-134570099D01*
X114300099Y-134477007D01*
X114365925Y-134362993D01*
X114382962Y-134299410D01*
X115014925Y-134931373D01*
X115068425Y-134854968D01*
X115123002Y-134811344D01*
X115192501Y-134804151D01*
X115254855Y-134835673D01*
X115271576Y-134854969D01*
X115325073Y-134931372D01*
X115957037Y-134299409D01*
X115974075Y-134362993D01*
G37*
%TD.AperFunction*%
%TA.AperFunction,Conductor*%
G36*
X115974075Y-131822993D02*
G01*
X116039901Y-131937007D01*
X116132993Y-132030099D01*
X116247007Y-132095925D01*
X116310590Y-132112962D01*
X115678625Y-132744925D01*
X115755031Y-132798425D01*
X115798655Y-132853002D01*
X115805848Y-132922501D01*
X115774326Y-132984855D01*
X115755029Y-133001576D01*
X115678625Y-133055072D01*
X116310590Y-133687037D01*
X116247007Y-133704075D01*
X116132993Y-133769901D01*
X116039901Y-133862993D01*
X115974075Y-133977007D01*
X115957037Y-134040590D01*
X115325072Y-133408625D01*
X115325072Y-133408626D01*
X115271574Y-133485030D01*
X115216998Y-133528655D01*
X115147499Y-133535849D01*
X115085144Y-133504326D01*
X115068424Y-133485030D01*
X115014925Y-133408626D01*
X115014925Y-133408625D01*
X114382962Y-134040589D01*
X114365925Y-133977007D01*
X114300099Y-133862993D01*
X114207007Y-133769901D01*
X114092993Y-133704075D01*
X114029410Y-133687037D01*
X114661373Y-133055073D01*
X114584969Y-133001576D01*
X114541344Y-132946999D01*
X114534150Y-132877501D01*
X114565672Y-132815146D01*
X114584968Y-132798425D01*
X114661373Y-132744925D01*
X114029409Y-132112962D01*
X114092993Y-132095925D01*
X114207007Y-132030099D01*
X114300099Y-131937007D01*
X114365925Y-131822993D01*
X114382962Y-131759410D01*
X115014925Y-132391373D01*
X115068425Y-132314968D01*
X115123002Y-132271344D01*
X115192501Y-132264151D01*
X115254855Y-132295673D01*
X115271576Y-132314969D01*
X115325073Y-132391372D01*
X115957037Y-131759409D01*
X115974075Y-131822993D01*
G37*
%TD.AperFunction*%
%TA.AperFunction,Conductor*%
G36*
X115974075Y-129282993D02*
G01*
X116039901Y-129397007D01*
X116132993Y-129490099D01*
X116247007Y-129555925D01*
X116310590Y-129572962D01*
X115678625Y-130204925D01*
X115755031Y-130258425D01*
X115798655Y-130313002D01*
X115805848Y-130382501D01*
X115774326Y-130444855D01*
X115755029Y-130461576D01*
X115678625Y-130515072D01*
X116310590Y-131147037D01*
X116247007Y-131164075D01*
X116132993Y-131229901D01*
X116039901Y-131322993D01*
X115974075Y-131437007D01*
X115957037Y-131500590D01*
X115325072Y-130868625D01*
X115325072Y-130868626D01*
X115271574Y-130945030D01*
X115216998Y-130988655D01*
X115147499Y-130995849D01*
X115085144Y-130964326D01*
X115068424Y-130945030D01*
X115014925Y-130868626D01*
X115014925Y-130868625D01*
X114382962Y-131500589D01*
X114365925Y-131437007D01*
X114300099Y-131322993D01*
X114207007Y-131229901D01*
X114092993Y-131164075D01*
X114029410Y-131147037D01*
X114661373Y-130515073D01*
X114584969Y-130461576D01*
X114541344Y-130406999D01*
X114534150Y-130337501D01*
X114565672Y-130275146D01*
X114584968Y-130258425D01*
X114661373Y-130204925D01*
X114029409Y-129572962D01*
X114092993Y-129555925D01*
X114207007Y-129490099D01*
X114300099Y-129397007D01*
X114365925Y-129282993D01*
X114382962Y-129219410D01*
X115014925Y-129851373D01*
X115068425Y-129774968D01*
X115123002Y-129731344D01*
X115192501Y-129724151D01*
X115254855Y-129755673D01*
X115271576Y-129774969D01*
X115325073Y-129851372D01*
X115957037Y-129219409D01*
X115974075Y-129282993D01*
G37*
%TD.AperFunction*%
%TA.AperFunction,Conductor*%
G36*
X115127038Y-127417053D02*
G01*
X115152335Y-127460733D01*
X115155186Y-127469334D01*
X115247288Y-127618656D01*
X115371344Y-127742712D01*
X115520666Y-127834814D01*
X115593032Y-127858793D01*
X115650476Y-127898566D01*
X115677299Y-127963081D01*
X115677412Y-127973859D01*
X116310590Y-128607037D01*
X116247007Y-128624075D01*
X116132993Y-128689901D01*
X116039901Y-128782993D01*
X115974075Y-128897007D01*
X115957037Y-128960590D01*
X115325072Y-128328625D01*
X115325072Y-128328626D01*
X115271574Y-128405030D01*
X115216998Y-128448655D01*
X115147499Y-128455849D01*
X115085144Y-128424326D01*
X115068424Y-128405030D01*
X115014925Y-128328626D01*
X115014925Y-128328625D01*
X114382962Y-128960589D01*
X114365925Y-128897007D01*
X114300099Y-128782993D01*
X114207007Y-128689901D01*
X114092993Y-128624075D01*
X114029410Y-128607037D01*
X114661373Y-127975073D01*
X114661373Y-127975072D01*
X114585405Y-127921880D01*
X114541780Y-127867304D01*
X114534586Y-127797805D01*
X114566108Y-127735451D01*
X114585399Y-127718734D01*
X114771401Y-127588495D01*
X114938495Y-127421401D01*
X114938504Y-127421388D01*
X114939636Y-127420040D01*
X114940293Y-127419602D01*
X114942323Y-127417573D01*
X114942730Y-127417980D01*
X114997805Y-127381334D01*
X115067666Y-127380220D01*
X115127038Y-127417053D01*
G37*
%TD.AperFunction*%
%TA.AperFunction,Conductor*%
G36*
X117230703Y-115670001D02*
G01*
X117268477Y-115728779D01*
X117269275Y-115731621D01*
X117273258Y-115746488D01*
X117273261Y-115746497D01*
X117369431Y-115952732D01*
X117369432Y-115952734D01*
X117499954Y-116139141D01*
X117660858Y-116300045D01*
X117660861Y-116300047D01*
X117847266Y-116430568D01*
X117862975Y-116437893D01*
X117915414Y-116484064D01*
X117934567Y-116551257D01*
X117914352Y-116618138D01*
X117862979Y-116662656D01*
X117847514Y-116669867D01*
X117847512Y-116669868D01*
X117774526Y-116720973D01*
X117774526Y-116720974D01*
X118453553Y-117400000D01*
X118447339Y-117400000D01*
X118345606Y-117427259D01*
X118254394Y-117479920D01*
X118179920Y-117554394D01*
X118127259Y-117645606D01*
X118100000Y-117747339D01*
X118100000Y-117753552D01*
X117420974Y-117074526D01*
X117420973Y-117074526D01*
X117369868Y-117147512D01*
X117369866Y-117147516D01*
X117273734Y-117353673D01*
X117273730Y-117353682D01*
X117214860Y-117573389D01*
X117214858Y-117573400D01*
X117195034Y-117799997D01*
X117195034Y-117800002D01*
X117214858Y-118026599D01*
X117214860Y-118026610D01*
X117273730Y-118246317D01*
X117273735Y-118246331D01*
X117369863Y-118452478D01*
X117420974Y-118525472D01*
X118100000Y-117846446D01*
X118100000Y-117852661D01*
X118127259Y-117954394D01*
X118179920Y-118045606D01*
X118254394Y-118120080D01*
X118345606Y-118172741D01*
X118447339Y-118200000D01*
X118453553Y-118200000D01*
X117774526Y-118879025D01*
X117847513Y-118930132D01*
X117847521Y-118930136D01*
X118053668Y-119026264D01*
X118053682Y-119026269D01*
X118273389Y-119085139D01*
X118273400Y-119085141D01*
X118499998Y-119104966D01*
X118500002Y-119104966D01*
X118726599Y-119085141D01*
X118726610Y-119085139D01*
X118946317Y-119026269D01*
X118946331Y-119026264D01*
X119152478Y-118930136D01*
X119225471Y-118879024D01*
X118546447Y-118200000D01*
X118552661Y-118200000D01*
X118654394Y-118172741D01*
X118745606Y-118120080D01*
X118820080Y-118045606D01*
X118872741Y-117954394D01*
X118900000Y-117852661D01*
X118900000Y-117846447D01*
X119584197Y-118530644D01*
X119633192Y-118540491D01*
X119683375Y-118589106D01*
X119699500Y-118650253D01*
X119699500Y-156125500D01*
X119679815Y-156192539D01*
X119627011Y-156238294D01*
X119575500Y-156249500D01*
X115125001Y-156249500D01*
X115057962Y-156229815D01*
X115012207Y-156177011D01*
X115002263Y-156107853D01*
X115031288Y-156044297D01*
X115084739Y-156008219D01*
X115104799Y-156001332D01*
X115104802Y-156001330D01*
X115104810Y-156001328D01*
X115323509Y-155882974D01*
X115519744Y-155730238D01*
X115688164Y-155547285D01*
X115824173Y-155339107D01*
X115924063Y-155111381D01*
X115985108Y-154870321D01*
X116005643Y-154622500D01*
X115985108Y-154374679D01*
X115924063Y-154133619D01*
X115824173Y-153905893D01*
X115771464Y-153825215D01*
X115688166Y-153697717D01*
X115637115Y-153642261D01*
X115519744Y-153514762D01*
X115323509Y-153362026D01*
X115323507Y-153362025D01*
X115323506Y-153362024D01*
X115104811Y-153243672D01*
X115104802Y-153243669D01*
X114869616Y-153162929D01*
X114624335Y-153122000D01*
X114375665Y-153122000D01*
X114130383Y-153162929D01*
X113895197Y-153243669D01*
X113895188Y-153243672D01*
X113676493Y-153362024D01*
X113480257Y-153514761D01*
X113311833Y-153697717D01*
X113175826Y-153905893D01*
X113075936Y-154133618D01*
X113014892Y-154374675D01*
X113014890Y-154374687D01*
X112994357Y-154622494D01*
X112994357Y-154622505D01*
X113014890Y-154870312D01*
X113014892Y-154870324D01*
X113075936Y-155111381D01*
X113175826Y-155339106D01*
X113311833Y-155547282D01*
X113311836Y-155547285D01*
X113480256Y-155730238D01*
X113676491Y-155882974D01*
X113676493Y-155882975D01*
X113895188Y-156001327D01*
X113895200Y-156001332D01*
X113915261Y-156008219D01*
X113972277Y-156048604D01*
X113998408Y-156113404D01*
X113985357Y-156182043D01*
X113937268Y-156232731D01*
X113874999Y-156249500D01*
X101571493Y-156249500D01*
X101504454Y-156229815D01*
X101458699Y-156177011D01*
X101448755Y-156107853D01*
X101477780Y-156044297D01*
X101512473Y-156016445D01*
X101523509Y-156010474D01*
X101719744Y-155857738D01*
X101888164Y-155674785D01*
X102024173Y-155466607D01*
X102124063Y-155238881D01*
X102185108Y-154997821D01*
X102205643Y-154750000D01*
X102195078Y-154622505D01*
X102185109Y-154502187D01*
X102185107Y-154502175D01*
X102124063Y-154261118D01*
X102024173Y-154033393D01*
X101888166Y-153825217D01*
X101866557Y-153801744D01*
X101719744Y-153642262D01*
X101523509Y-153489526D01*
X101523507Y-153489525D01*
X101523506Y-153489524D01*
X101304811Y-153371172D01*
X101304802Y-153371169D01*
X101069616Y-153290429D01*
X100824335Y-153249500D01*
X100575665Y-153249500D01*
X100330383Y-153290429D01*
X100095197Y-153371169D01*
X100095188Y-153371172D01*
X99876493Y-153489524D01*
X99680257Y-153642261D01*
X99511833Y-153825217D01*
X99375826Y-154033393D01*
X99275936Y-154261118D01*
X99214892Y-154502175D01*
X99214890Y-154502187D01*
X99194357Y-154749994D01*
X99194357Y-154750005D01*
X99214890Y-154997812D01*
X99214892Y-154997824D01*
X99275936Y-155238881D01*
X99375826Y-155466606D01*
X99511833Y-155674782D01*
X99511836Y-155674785D01*
X99680256Y-155857738D01*
X99876491Y-156010474D01*
X99887525Y-156016445D01*
X99937115Y-156065665D01*
X99952223Y-156133881D01*
X99928053Y-156199437D01*
X99872277Y-156241518D01*
X99828507Y-156249500D01*
X95424500Y-156249500D01*
X95357461Y-156229815D01*
X95311706Y-156177011D01*
X95300500Y-156125500D01*
X95300500Y-124896976D01*
X95320185Y-124829937D01*
X95372989Y-124784182D01*
X95442147Y-124774238D01*
X95505703Y-124803263D01*
X95543477Y-124862041D01*
X95543766Y-124863042D01*
X95575769Y-124975523D01*
X95575775Y-124975538D01*
X95674938Y-125174683D01*
X95674943Y-125174691D01*
X95720315Y-125234773D01*
X95809019Y-125352236D01*
X95909039Y-125443416D01*
X95945319Y-125503126D01*
X95949500Y-125535052D01*
X95949500Y-141796418D01*
X95949500Y-141796420D01*
X95949499Y-141796420D01*
X95978340Y-141941407D01*
X95978343Y-141941417D01*
X96034914Y-142077992D01*
X96034915Y-142077994D01*
X96034916Y-142077995D01*
X96067252Y-142126390D01*
X96067812Y-142127227D01*
X96067813Y-142127230D01*
X96117046Y-142200914D01*
X96117052Y-142200921D01*
X99412778Y-145496646D01*
X99446263Y-145557969D01*
X99441279Y-145627661D01*
X99428906Y-145652148D01*
X99375826Y-145733393D01*
X99275936Y-145961118D01*
X99214892Y-146202175D01*
X99214890Y-146202187D01*
X99194357Y-146449994D01*
X99194357Y-146450005D01*
X99214890Y-146697812D01*
X99214892Y-146697824D01*
X99275936Y-146938881D01*
X99375826Y-147166606D01*
X99511833Y-147374782D01*
X99511836Y-147374785D01*
X99680256Y-147557738D01*
X99876491Y-147710474D01*
X100095190Y-147828828D01*
X100330386Y-147909571D01*
X100575665Y-147950500D01*
X100824335Y-147950500D01*
X101069614Y-147909571D01*
X101304810Y-147828828D01*
X101523509Y-147710474D01*
X101719744Y-147557738D01*
X101888164Y-147374785D01*
X102024173Y-147166607D01*
X102124063Y-146938881D01*
X102185108Y-146697821D01*
X102205643Y-146450000D01*
X102195078Y-146322505D01*
X102185109Y-146202187D01*
X102185107Y-146202175D01*
X102124063Y-145961118D01*
X102024173Y-145733393D01*
X101888166Y-145525217D01*
X101861864Y-145496646D01*
X101719744Y-145342262D01*
X101523509Y-145189526D01*
X101523507Y-145189525D01*
X101523506Y-145189524D01*
X101304811Y-145071172D01*
X101304802Y-145071169D01*
X101147060Y-145017016D01*
X101090045Y-144976631D01*
X101063914Y-144911831D01*
X101076965Y-144843191D01*
X101125054Y-144792504D01*
X101147060Y-144782454D01*
X101304604Y-144728369D01*
X101304614Y-144728364D01*
X101523228Y-144610057D01*
X101523231Y-144610055D01*
X101570056Y-144573609D01*
X101062293Y-144065846D01*
X101078942Y-144058951D01*
X101209970Y-143971401D01*
X101321401Y-143859970D01*
X101408951Y-143728942D01*
X101415846Y-143712294D01*
X101923434Y-144219882D01*
X102023731Y-144066369D01*
X102123587Y-143838717D01*
X102184612Y-143597738D01*
X102184614Y-143597729D01*
X102205141Y-143350005D01*
X102205141Y-143349994D01*
X102184614Y-143102270D01*
X102184612Y-143102261D01*
X102123587Y-142861282D01*
X102023731Y-142633630D01*
X101923434Y-142480116D01*
X101415846Y-142987704D01*
X101408951Y-142971058D01*
X101321401Y-142840030D01*
X101209970Y-142728599D01*
X101078942Y-142641049D01*
X101062294Y-142634153D01*
X101570057Y-142126390D01*
X101570056Y-142126389D01*
X101523229Y-142089943D01*
X101304614Y-141971635D01*
X101304603Y-141971630D01*
X101069493Y-141890916D01*
X100824293Y-141850000D01*
X100575707Y-141850000D01*
X100330506Y-141890916D01*
X100095396Y-141971630D01*
X100095390Y-141971632D01*
X99876761Y-142089949D01*
X99829942Y-142126388D01*
X99829942Y-142126390D01*
X100337705Y-142634153D01*
X100321058Y-142641049D01*
X100190030Y-142728599D01*
X100078599Y-142840030D01*
X99991049Y-142971058D01*
X99984153Y-142987705D01*
X99476564Y-142480116D01*
X99376267Y-142633632D01*
X99276411Y-142861284D01*
X99276408Y-142861292D01*
X99253954Y-142949960D01*
X99218414Y-143010116D01*
X99155994Y-143041507D01*
X99086511Y-143034169D01*
X99046068Y-143007200D01*
X97486819Y-141447951D01*
X97453334Y-141386628D01*
X97450500Y-141360270D01*
X97450500Y-125717106D01*
X97470185Y-125650067D01*
X97522989Y-125604312D01*
X97592147Y-125594368D01*
X97643389Y-125614003D01*
X97703714Y-125654311D01*
X97708249Y-125656189D01*
X97748480Y-125683070D01*
X98161016Y-126095606D01*
X98161045Y-126095637D01*
X98251264Y-126185856D01*
X98289801Y-126211606D01*
X98289802Y-126211606D01*
X98353714Y-126254312D01*
X98434207Y-126287652D01*
X98467548Y-126301463D01*
X98527971Y-126313481D01*
X98588393Y-126325500D01*
X98588394Y-126325500D01*
X98940547Y-126325500D01*
X99007586Y-126345185D01*
X99053341Y-126397989D01*
X99063285Y-126467147D01*
X99034260Y-126530703D01*
X99028228Y-126537181D01*
X98901269Y-126664140D01*
X98901267Y-126664142D01*
X98861097Y-126704312D01*
X98814142Y-126751266D01*
X98791329Y-126785409D01*
X98791328Y-126785410D01*
X98745690Y-126853709D01*
X98745685Y-126853718D01*
X98698540Y-126967538D01*
X98698535Y-126967554D01*
X98681741Y-127051988D01*
X98674500Y-127088389D01*
X98674500Y-139456233D01*
X98654815Y-139523272D01*
X98615778Y-139561660D01*
X98573436Y-139587877D01*
X98409020Y-139737761D01*
X98274943Y-139915308D01*
X98274938Y-139915316D01*
X98175775Y-140114461D01*
X98175769Y-140114476D01*
X98114885Y-140328462D01*
X98114884Y-140328464D01*
X98094357Y-140549999D01*
X98094357Y-140550000D01*
X98114884Y-140771535D01*
X98114885Y-140771537D01*
X98175769Y-140985523D01*
X98175775Y-140985538D01*
X98274938Y-141184683D01*
X98274943Y-141184691D01*
X98409020Y-141362238D01*
X98573437Y-141512123D01*
X98573439Y-141512125D01*
X98762595Y-141629245D01*
X98762596Y-141629245D01*
X98762599Y-141629247D01*
X98970060Y-141709618D01*
X99188757Y-141750500D01*
X99188759Y-141750500D01*
X99411241Y-141750500D01*
X99411243Y-141750500D01*
X99629940Y-141709618D01*
X99837401Y-141629247D01*
X100026562Y-141512124D01*
X100190981Y-141362236D01*
X100325058Y-141184689D01*
X100424229Y-140985528D01*
X100485115Y-140771536D01*
X100505643Y-140550000D01*
X100505643Y-140549999D01*
X105714357Y-140549999D01*
X105714357Y-140550000D01*
X105734884Y-140771535D01*
X105734885Y-140771537D01*
X105795769Y-140985523D01*
X105795775Y-140985538D01*
X105894938Y-141184683D01*
X105894943Y-141184691D01*
X106029020Y-141362238D01*
X106193437Y-141512123D01*
X106193439Y-141512125D01*
X106382595Y-141629245D01*
X106382596Y-141629245D01*
X106382599Y-141629247D01*
X106590060Y-141709618D01*
X106808757Y-141750500D01*
X106808759Y-141750500D01*
X107007770Y-141750500D01*
X107074809Y-141770185D01*
X107095451Y-141786819D01*
X112214086Y-146905454D01*
X112243558Y-146925145D01*
X112287770Y-146954686D01*
X112337005Y-146987584D01*
X112337006Y-146987584D01*
X112337007Y-146987585D01*
X112337009Y-146987586D01*
X112461390Y-147039106D01*
X112473587Y-147044158D01*
X112473591Y-147044158D01*
X112473592Y-147044159D01*
X112618579Y-147073000D01*
X112618582Y-147073000D01*
X112618583Y-147073000D01*
X112766418Y-147073000D01*
X113130864Y-147073000D01*
X113197903Y-147092685D01*
X113234672Y-147129177D01*
X113311836Y-147247285D01*
X113480256Y-147430238D01*
X113676491Y-147582974D01*
X113895190Y-147701328D01*
X114130386Y-147782071D01*
X114375665Y-147823000D01*
X114624335Y-147823000D01*
X114869614Y-147782071D01*
X115104810Y-147701328D01*
X115323509Y-147582974D01*
X115519744Y-147430238D01*
X115688164Y-147247285D01*
X115824173Y-147039107D01*
X115924063Y-146811381D01*
X115985108Y-146570321D01*
X116005643Y-146322500D01*
X115985108Y-146074679D01*
X115924063Y-145833619D01*
X115824173Y-145605893D01*
X115789169Y-145552315D01*
X115688166Y-145397717D01*
X115637115Y-145342261D01*
X115519744Y-145214762D01*
X115323509Y-145062026D01*
X115323507Y-145062025D01*
X115323506Y-145062024D01*
X115104811Y-144943672D01*
X115104802Y-144943669D01*
X114947061Y-144889516D01*
X114890046Y-144849130D01*
X114863915Y-144784331D01*
X114876967Y-144715691D01*
X114925055Y-144665003D01*
X114947061Y-144654954D01*
X115104604Y-144600869D01*
X115104614Y-144600864D01*
X115323228Y-144482557D01*
X115323231Y-144482555D01*
X115370056Y-144446109D01*
X114862293Y-143938346D01*
X114878942Y-143931451D01*
X115009970Y-143843901D01*
X115121401Y-143732470D01*
X115208951Y-143601442D01*
X115215846Y-143584794D01*
X115723434Y-144092382D01*
X115823731Y-143938869D01*
X115923587Y-143711217D01*
X115984612Y-143470238D01*
X115984614Y-143470229D01*
X116005141Y-143222505D01*
X116005141Y-143222494D01*
X115984614Y-142974770D01*
X115984612Y-142974761D01*
X115923587Y-142733782D01*
X115823731Y-142506130D01*
X115723434Y-142352616D01*
X115215846Y-142860204D01*
X115208951Y-142843558D01*
X115121401Y-142712530D01*
X115009970Y-142601099D01*
X114878942Y-142513549D01*
X114862294Y-142506653D01*
X115370057Y-141998890D01*
X115370056Y-141998889D01*
X115323229Y-141962443D01*
X115104614Y-141844135D01*
X115104603Y-141844130D01*
X114869493Y-141763416D01*
X114624293Y-141722500D01*
X114375707Y-141722500D01*
X114130506Y-141763416D01*
X113895396Y-141844130D01*
X113895390Y-141844132D01*
X113676761Y-141962449D01*
X113629942Y-141998888D01*
X113629942Y-141998890D01*
X114137705Y-142506653D01*
X114121058Y-142513549D01*
X113990030Y-142601099D01*
X113878599Y-142712530D01*
X113791049Y-142843558D01*
X113784153Y-142860205D01*
X113276564Y-142352616D01*
X113176267Y-142506132D01*
X113076412Y-142733782D01*
X113015387Y-142974761D01*
X113015385Y-142974770D01*
X112994859Y-143222494D01*
X112994859Y-143222505D01*
X113015385Y-143470229D01*
X113015387Y-143470238D01*
X113076412Y-143711217D01*
X113176266Y-143938864D01*
X113276564Y-144092382D01*
X113784152Y-143584793D01*
X113791049Y-143601442D01*
X113878599Y-143732470D01*
X113990030Y-143843901D01*
X114121058Y-143931451D01*
X114137705Y-143938346D01*
X113629942Y-144446109D01*
X113676768Y-144482555D01*
X113676770Y-144482556D01*
X113895385Y-144600864D01*
X113895396Y-144600869D01*
X114052938Y-144654954D01*
X114109953Y-144695340D01*
X114136084Y-144760139D01*
X114123032Y-144828779D01*
X114074944Y-144879467D01*
X114052938Y-144889516D01*
X113895197Y-144943669D01*
X113895188Y-144943672D01*
X113676493Y-145062024D01*
X113480257Y-145214761D01*
X113311836Y-145397715D01*
X113234673Y-145515822D01*
X113181526Y-145561178D01*
X113130864Y-145572000D01*
X113054730Y-145572000D01*
X112987691Y-145552315D01*
X112967049Y-145535681D01*
X108154568Y-140723200D01*
X108121083Y-140661877D01*
X108118778Y-140624077D01*
X108125643Y-140549999D01*
X108105115Y-140328464D01*
X108105114Y-140328462D01*
X108044230Y-140114476D01*
X108044229Y-140114472D01*
X108044224Y-140114461D01*
X107945061Y-139915316D01*
X107945056Y-139915308D01*
X107810979Y-139737761D01*
X107646562Y-139587876D01*
X107646560Y-139587874D01*
X107457404Y-139470754D01*
X107457398Y-139470752D01*
X107249940Y-139390382D01*
X107031243Y-139349500D01*
X106808757Y-139349500D01*
X106590060Y-139390382D01*
X106458864Y-139441207D01*
X106382601Y-139470752D01*
X106382595Y-139470754D01*
X106193439Y-139587874D01*
X106193437Y-139587876D01*
X106029020Y-139737761D01*
X105894943Y-139915308D01*
X105894938Y-139915316D01*
X105795775Y-140114461D01*
X105795769Y-140114476D01*
X105734885Y-140328462D01*
X105734884Y-140328464D01*
X105714357Y-140549999D01*
X100505643Y-140549999D01*
X100485115Y-140328464D01*
X100424229Y-140114472D01*
X100424224Y-140114461D01*
X100325061Y-139915316D01*
X100325056Y-139915308D01*
X100190979Y-139737761D01*
X100026563Y-139587877D01*
X100026562Y-139587876D01*
X99984222Y-139561660D01*
X99937587Y-139509631D01*
X99925500Y-139456233D01*
X99925500Y-136749998D01*
X100594532Y-136749998D01*
X100594532Y-136750001D01*
X100614364Y-136976686D01*
X100614366Y-136976697D01*
X100673258Y-137196488D01*
X100673261Y-137196497D01*
X100769431Y-137402732D01*
X100769432Y-137402734D01*
X100899954Y-137589141D01*
X101060858Y-137750045D01*
X101060861Y-137750047D01*
X101247266Y-137880568D01*
X101453504Y-137976739D01*
X101453509Y-137976740D01*
X101453511Y-137976741D01*
X101480248Y-137983905D01*
X101673308Y-138035635D01*
X101835230Y-138049801D01*
X101899998Y-138055468D01*
X101900000Y-138055468D01*
X101900002Y-138055468D01*
X101956673Y-138050509D01*
X102126692Y-138035635D01*
X102346496Y-137976739D01*
X102552734Y-137880568D01*
X102739139Y-137750047D01*
X102900047Y-137589139D01*
X103030568Y-137402734D01*
X103126739Y-137196496D01*
X103185635Y-136976692D01*
X103205468Y-136750000D01*
X103201968Y-136710000D01*
X103187970Y-136549998D01*
X105594532Y-136549998D01*
X105594532Y-136550001D01*
X105614364Y-136776686D01*
X105614366Y-136776697D01*
X105673258Y-136996488D01*
X105673261Y-136996497D01*
X105769431Y-137202732D01*
X105769432Y-137202734D01*
X105899954Y-137389141D01*
X106060858Y-137550045D01*
X106060861Y-137550047D01*
X106247266Y-137680568D01*
X106453504Y-137776739D01*
X106673308Y-137835635D01*
X106835230Y-137849801D01*
X106899998Y-137855468D01*
X106900000Y-137855468D01*
X106900002Y-137855468D01*
X106956673Y-137850509D01*
X107126692Y-137835635D01*
X107346496Y-137776739D01*
X107552734Y-137680568D01*
X107739139Y-137550047D01*
X107900047Y-137389139D01*
X108030568Y-137202734D01*
X108126739Y-136996496D01*
X108185635Y-136776692D01*
X108205468Y-136550000D01*
X108185635Y-136323308D01*
X108126739Y-136103504D01*
X108030568Y-135897266D01*
X107900047Y-135710861D01*
X107900045Y-135710858D01*
X107739141Y-135549954D01*
X107552734Y-135419432D01*
X107552732Y-135419431D01*
X107346497Y-135323261D01*
X107341992Y-135322054D01*
X107286408Y-135289961D01*
X106946448Y-134950000D01*
X106952661Y-134950000D01*
X107054394Y-134922741D01*
X107145606Y-134870080D01*
X107220080Y-134795606D01*
X107272741Y-134704394D01*
X107300000Y-134602661D01*
X107300000Y-134596447D01*
X107979024Y-135275471D01*
X108030136Y-135202478D01*
X108126264Y-134996331D01*
X108126269Y-134996317D01*
X108185139Y-134776610D01*
X108185141Y-134776599D01*
X108204966Y-134550002D01*
X108204966Y-134549997D01*
X108185141Y-134323400D01*
X108185139Y-134323389D01*
X108126269Y-134103682D01*
X108126264Y-134103668D01*
X108030136Y-133897521D01*
X108030132Y-133897513D01*
X107979025Y-133824526D01*
X107300000Y-134503551D01*
X107300000Y-134497339D01*
X107272741Y-134395606D01*
X107220080Y-134304394D01*
X107145606Y-134229920D01*
X107054394Y-134177259D01*
X106952661Y-134150000D01*
X106946448Y-134150000D01*
X107625472Y-133470974D01*
X107552478Y-133419863D01*
X107346331Y-133323735D01*
X107346317Y-133323730D01*
X107126610Y-133264860D01*
X107126599Y-133264858D01*
X106900002Y-133245034D01*
X106899998Y-133245034D01*
X106673400Y-133264858D01*
X106673389Y-133264860D01*
X106453682Y-133323730D01*
X106453673Y-133323734D01*
X106247516Y-133419866D01*
X106247512Y-133419868D01*
X106174526Y-133470973D01*
X106174526Y-133470974D01*
X106853553Y-134150000D01*
X106847339Y-134150000D01*
X106745606Y-134177259D01*
X106654394Y-134229920D01*
X106579920Y-134304394D01*
X106527259Y-134395606D01*
X106500000Y-134497339D01*
X106500000Y-134503552D01*
X105820974Y-133824526D01*
X105820973Y-133824526D01*
X105769868Y-133897512D01*
X105769866Y-133897516D01*
X105673734Y-134103673D01*
X105673730Y-134103682D01*
X105614860Y-134323389D01*
X105614858Y-134323400D01*
X105595034Y-134549997D01*
X105595034Y-134550002D01*
X105614858Y-134776599D01*
X105614860Y-134776610D01*
X105673730Y-134996317D01*
X105673735Y-134996331D01*
X105769863Y-135202478D01*
X105820974Y-135275472D01*
X106500000Y-134596446D01*
X106500000Y-134602661D01*
X106527259Y-134704394D01*
X106579920Y-134795606D01*
X106654394Y-134870080D01*
X106745606Y-134922741D01*
X106847339Y-134950000D01*
X106853553Y-134950000D01*
X106513590Y-135289961D01*
X106458012Y-135322052D01*
X106453508Y-135323259D01*
X106453503Y-135323260D01*
X106247267Y-135419431D01*
X106247265Y-135419432D01*
X106060858Y-135549954D01*
X105899954Y-135710858D01*
X105769432Y-135897265D01*
X105769431Y-135897267D01*
X105673261Y-136103502D01*
X105673258Y-136103511D01*
X105614366Y-136323302D01*
X105614364Y-136323313D01*
X105594532Y-136549998D01*
X103187970Y-136549998D01*
X103185635Y-136523313D01*
X103185635Y-136523308D01*
X103132047Y-136323313D01*
X103126741Y-136303511D01*
X103126738Y-136303502D01*
X103030568Y-136097266D01*
X102900047Y-135910861D01*
X102900045Y-135910858D01*
X102739141Y-135749954D01*
X102552734Y-135619432D01*
X102552730Y-135619430D01*
X102537022Y-135612105D01*
X102484583Y-135565931D01*
X102465433Y-135498737D01*
X102485650Y-135431857D01*
X102537028Y-135387340D01*
X102552481Y-135380134D01*
X102625471Y-135329024D01*
X101946447Y-134650000D01*
X101952661Y-134650000D01*
X102054394Y-134622741D01*
X102145606Y-134570080D01*
X102220080Y-134495606D01*
X102272741Y-134404394D01*
X102300000Y-134302661D01*
X102300000Y-134296447D01*
X102979024Y-134975471D01*
X103030136Y-134902478D01*
X103126264Y-134696331D01*
X103126269Y-134696317D01*
X103185139Y-134476610D01*
X103185141Y-134476599D01*
X103204966Y-134250002D01*
X103204966Y-134249997D01*
X103185141Y-134023400D01*
X103185139Y-134023389D01*
X103126269Y-133803682D01*
X103126264Y-133803668D01*
X103030136Y-133597521D01*
X103030132Y-133597513D01*
X102979025Y-133524526D01*
X102300000Y-134203551D01*
X102300000Y-134197339D01*
X102272741Y-134095606D01*
X102220080Y-134004394D01*
X102145606Y-133929920D01*
X102054394Y-133877259D01*
X101952661Y-133850000D01*
X101946448Y-133850000D01*
X102625472Y-133170974D01*
X102552478Y-133119863D01*
X102346331Y-133023735D01*
X102346317Y-133023730D01*
X102126610Y-132964860D01*
X102126599Y-132964858D01*
X101900002Y-132945034D01*
X101899998Y-132945034D01*
X101673400Y-132964858D01*
X101673389Y-132964860D01*
X101453682Y-133023730D01*
X101453673Y-133023734D01*
X101247516Y-133119866D01*
X101247512Y-133119868D01*
X101174526Y-133170973D01*
X101174526Y-133170974D01*
X101853553Y-133850000D01*
X101847339Y-133850000D01*
X101745606Y-133877259D01*
X101654394Y-133929920D01*
X101579920Y-134004394D01*
X101527259Y-134095606D01*
X101500000Y-134197339D01*
X101500000Y-134203552D01*
X100820974Y-133524526D01*
X100820973Y-133524526D01*
X100769868Y-133597512D01*
X100769866Y-133597516D01*
X100673734Y-133803673D01*
X100673730Y-133803682D01*
X100614860Y-134023389D01*
X100614858Y-134023400D01*
X100595034Y-134249997D01*
X100595034Y-134250002D01*
X100614858Y-134476599D01*
X100614860Y-134476610D01*
X100673730Y-134696317D01*
X100673735Y-134696331D01*
X100769863Y-134902478D01*
X100820974Y-134975472D01*
X101500000Y-134296446D01*
X101500000Y-134302661D01*
X101527259Y-134404394D01*
X101579920Y-134495606D01*
X101654394Y-134570080D01*
X101745606Y-134622741D01*
X101847339Y-134650000D01*
X101853553Y-134650000D01*
X101174526Y-135329025D01*
X101247513Y-135380132D01*
X101247515Y-135380133D01*
X101262973Y-135387341D01*
X101315413Y-135433513D01*
X101334566Y-135500706D01*
X101314351Y-135567587D01*
X101262979Y-135612104D01*
X101247270Y-135619429D01*
X101247265Y-135619432D01*
X101060858Y-135749954D01*
X100899954Y-135910858D01*
X100769432Y-136097265D01*
X100769431Y-136097267D01*
X100673261Y-136303502D01*
X100673258Y-136303511D01*
X100614366Y-136523302D01*
X100614364Y-136523313D01*
X100594532Y-136749998D01*
X99925500Y-136749998D01*
X99925500Y-127460452D01*
X99945185Y-127393413D01*
X99961819Y-127372771D01*
X100522772Y-126811819D01*
X100584095Y-126778334D01*
X100610453Y-126775500D01*
X100835951Y-126775500D01*
X100902990Y-126795185D01*
X100948745Y-126847989D01*
X100958689Y-126917147D01*
X100929664Y-126980703D01*
X100923632Y-126987181D01*
X100899954Y-127010858D01*
X100769432Y-127197265D01*
X100769431Y-127197267D01*
X100673261Y-127403502D01*
X100673258Y-127403511D01*
X100614366Y-127623302D01*
X100614364Y-127623313D01*
X100594532Y-127849998D01*
X100594532Y-127850001D01*
X100614364Y-128076686D01*
X100614366Y-128076697D01*
X100673258Y-128296488D01*
X100673261Y-128296497D01*
X100769431Y-128502732D01*
X100769432Y-128502734D01*
X100899954Y-128689141D01*
X101060858Y-128850045D01*
X101060861Y-128850047D01*
X101247266Y-128980568D01*
X101262975Y-128987893D01*
X101315414Y-129034064D01*
X101334567Y-129101257D01*
X101314352Y-129168138D01*
X101262979Y-129212656D01*
X101247514Y-129219867D01*
X101247512Y-129219868D01*
X101174526Y-129270973D01*
X101174526Y-129270974D01*
X101853553Y-129950000D01*
X101847339Y-129950000D01*
X101745606Y-129977259D01*
X101654394Y-130029920D01*
X101579920Y-130104394D01*
X101527259Y-130195606D01*
X101500000Y-130297339D01*
X101500000Y-130303552D01*
X100820974Y-129624526D01*
X100820973Y-129624526D01*
X100769868Y-129697512D01*
X100769866Y-129697516D01*
X100673734Y-129903673D01*
X100673730Y-129903682D01*
X100614860Y-130123389D01*
X100614858Y-130123400D01*
X100595034Y-130349997D01*
X100595034Y-130350002D01*
X100614858Y-130576599D01*
X100614860Y-130576610D01*
X100673730Y-130796317D01*
X100673735Y-130796331D01*
X100769863Y-131002478D01*
X100820974Y-131075472D01*
X101500000Y-130396446D01*
X101500000Y-130402661D01*
X101527259Y-130504394D01*
X101579920Y-130595606D01*
X101654394Y-130670080D01*
X101745606Y-130722741D01*
X101847339Y-130750000D01*
X101853553Y-130750000D01*
X101174526Y-131429025D01*
X101247513Y-131480132D01*
X101247521Y-131480136D01*
X101453668Y-131576264D01*
X101453682Y-131576269D01*
X101673389Y-131635139D01*
X101673400Y-131635141D01*
X101899998Y-131654966D01*
X101900002Y-131654966D01*
X102126599Y-131635141D01*
X102126610Y-131635139D01*
X102346317Y-131576269D01*
X102346331Y-131576264D01*
X102552478Y-131480136D01*
X102625471Y-131429024D01*
X101946447Y-130750000D01*
X101952661Y-130750000D01*
X102054394Y-130722741D01*
X102145606Y-130670080D01*
X102220080Y-130595606D01*
X102272741Y-130504394D01*
X102300000Y-130402661D01*
X102300000Y-130396447D01*
X102979024Y-131075471D01*
X103030136Y-131002478D01*
X103126264Y-130796331D01*
X103126269Y-130796317D01*
X103185139Y-130576610D01*
X103185141Y-130576599D01*
X103204966Y-130350002D01*
X103204966Y-130349997D01*
X103185141Y-130123400D01*
X103185139Y-130123389D01*
X103126269Y-129903682D01*
X103126264Y-129903668D01*
X103030136Y-129697521D01*
X103030132Y-129697513D01*
X102979025Y-129624526D01*
X102300000Y-130303551D01*
X102300000Y-130297339D01*
X102272741Y-130195606D01*
X102220080Y-130104394D01*
X102145606Y-130029920D01*
X102054394Y-129977259D01*
X101952661Y-129950000D01*
X101946448Y-129950000D01*
X102625472Y-129270974D01*
X102552480Y-129219864D01*
X102537024Y-129212657D01*
X102484585Y-129166484D01*
X102465433Y-129099290D01*
X102485649Y-129032409D01*
X102537023Y-128987893D01*
X102552734Y-128980568D01*
X102739139Y-128850047D01*
X102900047Y-128689139D01*
X103030568Y-128502734D01*
X103126739Y-128296496D01*
X103165993Y-128149998D01*
X105594532Y-128149998D01*
X105594532Y-128150001D01*
X105614364Y-128376686D01*
X105614366Y-128376697D01*
X105673258Y-128596488D01*
X105673261Y-128596497D01*
X105769431Y-128802732D01*
X105769432Y-128802734D01*
X105899954Y-128989141D01*
X106060858Y-129150045D01*
X106060861Y-129150047D01*
X106247266Y-129280568D01*
X106453504Y-129376739D01*
X106453506Y-129376739D01*
X106453513Y-129376742D01*
X106458003Y-129377945D01*
X106513592Y-129410039D01*
X106853553Y-129750000D01*
X106847339Y-129750000D01*
X106745606Y-129777259D01*
X106654394Y-129829920D01*
X106579920Y-129904394D01*
X106527259Y-129995606D01*
X106500000Y-130097339D01*
X106500000Y-130103552D01*
X105820974Y-129424526D01*
X105820973Y-129424526D01*
X105769868Y-129497512D01*
X105769866Y-129497516D01*
X105673734Y-129703673D01*
X105673730Y-129703682D01*
X105614860Y-129923389D01*
X105614858Y-129923400D01*
X105595034Y-130149997D01*
X105595034Y-130150002D01*
X105614858Y-130376599D01*
X105614860Y-130376610D01*
X105673730Y-130596317D01*
X105673735Y-130596331D01*
X105769863Y-130802478D01*
X105820974Y-130875472D01*
X106500000Y-130196446D01*
X106500000Y-130202661D01*
X106527259Y-130304394D01*
X106579920Y-130395606D01*
X106654394Y-130470080D01*
X106745606Y-130522741D01*
X106847339Y-130550000D01*
X106853553Y-130550000D01*
X106174526Y-131229025D01*
X106247513Y-131280132D01*
X106247521Y-131280136D01*
X106453668Y-131376264D01*
X106453682Y-131376269D01*
X106673389Y-131435139D01*
X106673400Y-131435141D01*
X106899998Y-131454966D01*
X106900002Y-131454966D01*
X107126599Y-131435141D01*
X107126610Y-131435139D01*
X107346317Y-131376269D01*
X107346331Y-131376264D01*
X107552478Y-131280136D01*
X107625471Y-131229024D01*
X106946447Y-130550000D01*
X106952661Y-130550000D01*
X107054394Y-130522741D01*
X107145606Y-130470080D01*
X107220080Y-130395606D01*
X107272741Y-130304394D01*
X107300000Y-130202661D01*
X107300000Y-130196447D01*
X107979024Y-130875471D01*
X108030136Y-130802478D01*
X108126264Y-130596331D01*
X108126269Y-130596317D01*
X108185139Y-130376610D01*
X108185141Y-130376599D01*
X108204966Y-130150002D01*
X108204966Y-130149997D01*
X108185141Y-129923400D01*
X108185139Y-129923389D01*
X108126269Y-129703682D01*
X108126264Y-129703668D01*
X108030136Y-129497521D01*
X108030132Y-129497513D01*
X107979025Y-129424526D01*
X107300000Y-130103551D01*
X107300000Y-130097339D01*
X107272741Y-129995606D01*
X107220080Y-129904394D01*
X107145606Y-129829920D01*
X107054394Y-129777259D01*
X106952661Y-129750000D01*
X106946448Y-129750000D01*
X107286407Y-129410039D01*
X107341996Y-129377945D01*
X107343833Y-129377452D01*
X107346496Y-129376739D01*
X107552734Y-129280568D01*
X107739139Y-129150047D01*
X107900047Y-128989139D01*
X108030568Y-128802734D01*
X108126739Y-128596496D01*
X108185635Y-128376692D01*
X108205468Y-128150000D01*
X108185635Y-127923308D01*
X108126739Y-127703504D01*
X108030568Y-127497266D01*
X107900047Y-127310861D01*
X107900045Y-127310858D01*
X107739141Y-127149954D01*
X107552734Y-127019432D01*
X107552732Y-127019431D01*
X107346497Y-126923261D01*
X107346488Y-126923258D01*
X107126697Y-126864366D01*
X107126693Y-126864365D01*
X107126692Y-126864365D01*
X107126691Y-126864364D01*
X107126686Y-126864364D01*
X106900002Y-126844532D01*
X106899998Y-126844532D01*
X106673313Y-126864364D01*
X106673302Y-126864366D01*
X106453511Y-126923258D01*
X106453502Y-126923261D01*
X106247267Y-127019431D01*
X106247265Y-127019432D01*
X106060858Y-127149954D01*
X105899954Y-127310858D01*
X105769432Y-127497265D01*
X105769431Y-127497267D01*
X105673261Y-127703502D01*
X105673258Y-127703511D01*
X105614366Y-127923302D01*
X105614364Y-127923313D01*
X105594532Y-128149998D01*
X103165993Y-128149998D01*
X103185635Y-128076692D01*
X103205468Y-127850000D01*
X103204139Y-127834815D01*
X103198758Y-127773307D01*
X103185635Y-127623308D01*
X103131535Y-127421402D01*
X103126741Y-127403511D01*
X103126738Y-127403502D01*
X103112408Y-127372771D01*
X103030568Y-127197266D01*
X102928843Y-127051987D01*
X102900045Y-127010858D01*
X102739142Y-126849955D01*
X102728230Y-126842314D01*
X102669333Y-126801074D01*
X102625708Y-126746499D01*
X102618514Y-126677001D01*
X102650036Y-126614646D01*
X102710266Y-126579231D01*
X102740456Y-126575500D01*
X104361607Y-126575500D01*
X104422029Y-126563481D01*
X104482452Y-126551463D01*
X104482455Y-126551461D01*
X104482458Y-126551461D01*
X104485987Y-126549999D01*
X112544341Y-126549999D01*
X112544341Y-126550000D01*
X112564936Y-126785403D01*
X112564936Y-126785405D01*
X112564937Y-126785408D01*
X112572014Y-126811819D01*
X112626094Y-127013655D01*
X112626096Y-127013659D01*
X112626097Y-127013663D01*
X112660945Y-127088394D01*
X112725965Y-127227830D01*
X112725967Y-127227834D01*
X112784102Y-127310858D01*
X112861505Y-127421401D01*
X113028599Y-127588495D01*
X113192846Y-127703502D01*
X113214594Y-127718730D01*
X113258218Y-127773307D01*
X113265411Y-127842806D01*
X113233889Y-127905160D01*
X113214593Y-127921880D01*
X113138626Y-127975072D01*
X113138625Y-127975072D01*
X113770590Y-128607037D01*
X113707007Y-128624075D01*
X113592993Y-128689901D01*
X113499901Y-128782993D01*
X113434075Y-128897007D01*
X113417037Y-128960590D01*
X112785072Y-128328625D01*
X112726401Y-128412419D01*
X112626570Y-128626507D01*
X112626566Y-128626516D01*
X112565432Y-128854673D01*
X112565430Y-128854684D01*
X112544843Y-129089998D01*
X112544843Y-129090001D01*
X112565430Y-129325315D01*
X112565432Y-129325326D01*
X112626566Y-129553483D01*
X112626570Y-129553492D01*
X112726400Y-129767579D01*
X112726402Y-129767583D01*
X112785072Y-129851373D01*
X112785073Y-129851373D01*
X113417037Y-129219409D01*
X113434075Y-129282993D01*
X113499901Y-129397007D01*
X113592993Y-129490099D01*
X113707007Y-129555925D01*
X113770590Y-129572962D01*
X113138625Y-130204925D01*
X113215031Y-130258425D01*
X113258655Y-130313002D01*
X113265848Y-130382501D01*
X113234326Y-130444855D01*
X113215029Y-130461576D01*
X113138625Y-130515072D01*
X113770590Y-131147037D01*
X113707007Y-131164075D01*
X113592993Y-131229901D01*
X113499901Y-131322993D01*
X113434075Y-131437007D01*
X113417037Y-131500590D01*
X112785072Y-130868625D01*
X112726401Y-130952419D01*
X112626570Y-131166507D01*
X112626566Y-131166516D01*
X112565432Y-131394673D01*
X112565430Y-131394684D01*
X112544843Y-131629998D01*
X112544843Y-131630001D01*
X112565430Y-131865315D01*
X112565432Y-131865326D01*
X112626566Y-132093483D01*
X112626570Y-132093492D01*
X112726400Y-132307579D01*
X112726402Y-132307583D01*
X112785072Y-132391373D01*
X112785073Y-132391373D01*
X113417037Y-131759409D01*
X113434075Y-131822993D01*
X113499901Y-131937007D01*
X113592993Y-132030099D01*
X113707007Y-132095925D01*
X113770590Y-132112962D01*
X113138625Y-132744925D01*
X113215031Y-132798425D01*
X113258655Y-132853002D01*
X113265848Y-132922501D01*
X113234326Y-132984855D01*
X113215029Y-133001576D01*
X113138625Y-133055072D01*
X113770590Y-133687037D01*
X113707007Y-133704075D01*
X113592993Y-133769901D01*
X113499901Y-133862993D01*
X113434075Y-133977007D01*
X113417037Y-134040590D01*
X112785072Y-133408625D01*
X112726401Y-133492419D01*
X112626570Y-133706507D01*
X112626566Y-133706516D01*
X112565432Y-133934673D01*
X112565430Y-133934684D01*
X112544843Y-134169998D01*
X112544843Y-134170001D01*
X112565430Y-134405315D01*
X112565432Y-134405326D01*
X112626566Y-134633483D01*
X112626570Y-134633492D01*
X112726400Y-134847579D01*
X112726402Y-134847583D01*
X112785072Y-134931373D01*
X112785073Y-134931373D01*
X113417037Y-134299409D01*
X113434075Y-134362993D01*
X113499901Y-134477007D01*
X113592993Y-134570099D01*
X113707007Y-134635925D01*
X113770590Y-134652962D01*
X113138625Y-135284925D01*
X113214594Y-135338119D01*
X113258219Y-135392696D01*
X113265413Y-135462194D01*
X113233890Y-135524549D01*
X113214595Y-135541269D01*
X113028594Y-135671508D01*
X112861505Y-135838597D01*
X112725965Y-136032169D01*
X112725964Y-136032171D01*
X112626098Y-136246335D01*
X112626094Y-136246344D01*
X112564938Y-136474586D01*
X112564936Y-136474596D01*
X112544341Y-136709999D01*
X112544341Y-136710000D01*
X112564936Y-136945403D01*
X112564938Y-136945413D01*
X112626094Y-137173655D01*
X112626096Y-137173659D01*
X112626097Y-137173663D01*
X112706004Y-137345023D01*
X112725965Y-137387830D01*
X112725967Y-137387834D01*
X112834281Y-137542521D01*
X112861505Y-137581401D01*
X113028599Y-137748495D01*
X113125384Y-137816265D01*
X113222165Y-137884032D01*
X113222167Y-137884033D01*
X113222170Y-137884035D01*
X113436337Y-137983903D01*
X113664592Y-138045063D01*
X113852918Y-138061539D01*
X113899999Y-138065659D01*
X113900000Y-138065659D01*
X113900001Y-138065659D01*
X113939234Y-138062226D01*
X114135408Y-138045063D01*
X114363663Y-137983903D01*
X114577830Y-137884035D01*
X114771401Y-137748495D01*
X114938495Y-137581401D01*
X115063599Y-137402734D01*
X115068425Y-137395842D01*
X115123002Y-137352217D01*
X115192500Y-137345023D01*
X115254855Y-137376546D01*
X115271575Y-137395842D01*
X115401500Y-137581395D01*
X115401505Y-137581401D01*
X115568599Y-137748495D01*
X115665384Y-137816265D01*
X115762165Y-137884032D01*
X115762167Y-137884033D01*
X115762170Y-137884035D01*
X115976337Y-137983903D01*
X116204592Y-138045063D01*
X116392918Y-138061539D01*
X116439999Y-138065659D01*
X116440000Y-138065659D01*
X116440001Y-138065659D01*
X116479234Y-138062226D01*
X116675408Y-138045063D01*
X116903663Y-137983903D01*
X117117830Y-137884035D01*
X117311401Y-137748495D01*
X117478495Y-137581401D01*
X117614035Y-137387830D01*
X117713903Y-137173663D01*
X117775063Y-136945408D01*
X117795659Y-136710000D01*
X117775063Y-136474592D01*
X117713903Y-136246337D01*
X117614035Y-136032171D01*
X117608425Y-136024158D01*
X117478494Y-135838597D01*
X117311402Y-135671506D01*
X117311401Y-135671505D01*
X117125405Y-135541269D01*
X117081781Y-135486692D01*
X117074588Y-135417193D01*
X117106110Y-135354839D01*
X117125405Y-135338119D01*
X117201373Y-135284925D01*
X116569409Y-134652962D01*
X116632993Y-134635925D01*
X116747007Y-134570099D01*
X116840099Y-134477007D01*
X116905925Y-134362993D01*
X116922962Y-134299410D01*
X117554925Y-134931373D01*
X117554926Y-134931373D01*
X117613598Y-134847582D01*
X117613600Y-134847578D01*
X117713429Y-134633492D01*
X117713433Y-134633483D01*
X117774567Y-134405326D01*
X117774569Y-134405315D01*
X117795157Y-134170001D01*
X117795157Y-134169998D01*
X117774569Y-133934684D01*
X117774567Y-133934673D01*
X117713433Y-133706516D01*
X117713429Y-133706507D01*
X117613600Y-133492423D01*
X117613599Y-133492421D01*
X117554925Y-133408626D01*
X117554925Y-133408625D01*
X116922962Y-134040589D01*
X116905925Y-133977007D01*
X116840099Y-133862993D01*
X116747007Y-133769901D01*
X116632993Y-133704075D01*
X116569410Y-133687037D01*
X117201373Y-133055073D01*
X117124969Y-133001576D01*
X117081344Y-132946999D01*
X117074150Y-132877501D01*
X117105672Y-132815146D01*
X117124968Y-132798425D01*
X117201373Y-132744925D01*
X116569409Y-132112962D01*
X116632993Y-132095925D01*
X116747007Y-132030099D01*
X116840099Y-131937007D01*
X116905925Y-131822993D01*
X116922962Y-131759410D01*
X117554925Y-132391373D01*
X117554926Y-132391373D01*
X117613598Y-132307582D01*
X117613600Y-132307578D01*
X117713429Y-132093492D01*
X117713433Y-132093483D01*
X117774567Y-131865326D01*
X117774569Y-131865315D01*
X117795157Y-131630001D01*
X117795157Y-131629998D01*
X117774569Y-131394684D01*
X117774567Y-131394673D01*
X117713433Y-131166516D01*
X117713429Y-131166507D01*
X117613600Y-130952423D01*
X117613599Y-130952421D01*
X117554925Y-130868626D01*
X117554925Y-130868625D01*
X116922962Y-131500589D01*
X116905925Y-131437007D01*
X116840099Y-131322993D01*
X116747007Y-131229901D01*
X116632993Y-131164075D01*
X116569410Y-131147037D01*
X117201373Y-130515073D01*
X117124969Y-130461576D01*
X117081344Y-130406999D01*
X117074150Y-130337501D01*
X117105672Y-130275146D01*
X117124968Y-130258425D01*
X117201373Y-130204925D01*
X116569409Y-129572962D01*
X116632993Y-129555925D01*
X116747007Y-129490099D01*
X116840099Y-129397007D01*
X116905925Y-129282993D01*
X116922962Y-129219410D01*
X117554925Y-129851373D01*
X117554926Y-129851373D01*
X117613598Y-129767582D01*
X117613600Y-129767578D01*
X117713429Y-129553492D01*
X117713433Y-129553483D01*
X117774567Y-129325326D01*
X117774569Y-129325315D01*
X117795157Y-129090001D01*
X117795157Y-129089998D01*
X117774569Y-128854684D01*
X117774567Y-128854673D01*
X117713433Y-128626516D01*
X117713429Y-128626507D01*
X117613600Y-128412423D01*
X117613599Y-128412421D01*
X117554925Y-128328626D01*
X117554925Y-128328625D01*
X116922962Y-128960589D01*
X116905925Y-128897007D01*
X116840099Y-128782993D01*
X116747007Y-128689901D01*
X116632993Y-128624075D01*
X116569410Y-128607037D01*
X117205789Y-127970658D01*
X117216209Y-127918808D01*
X117264823Y-127868624D01*
X117286961Y-127858796D01*
X117359334Y-127834814D01*
X117508656Y-127742712D01*
X117632712Y-127618656D01*
X117724814Y-127469334D01*
X117779999Y-127302797D01*
X117790500Y-127200009D01*
X117790499Y-125899992D01*
X117779999Y-125797203D01*
X117724814Y-125630666D01*
X117632712Y-125481344D01*
X117508656Y-125357288D01*
X117415888Y-125300069D01*
X117359336Y-125265187D01*
X117359331Y-125265185D01*
X117357862Y-125264698D01*
X117192797Y-125210001D01*
X117192795Y-125210000D01*
X117090010Y-125199500D01*
X115789998Y-125199500D01*
X115789981Y-125199501D01*
X115687203Y-125210000D01*
X115687200Y-125210001D01*
X115520668Y-125265185D01*
X115520663Y-125265187D01*
X115371342Y-125357289D01*
X115247289Y-125481342D01*
X115155187Y-125630663D01*
X115155183Y-125630673D01*
X115152335Y-125639268D01*
X115112560Y-125696711D01*
X115048044Y-125723531D01*
X114979268Y-125711214D01*
X114942517Y-125682233D01*
X114942324Y-125682427D01*
X114940682Y-125680785D01*
X114939642Y-125679965D01*
X114938494Y-125678597D01*
X114771402Y-125511506D01*
X114771395Y-125511501D01*
X114759434Y-125503126D01*
X114726837Y-125480301D01*
X114577834Y-125375967D01*
X114577830Y-125375965D01*
X114467463Y-125324500D01*
X114363663Y-125276097D01*
X114363659Y-125276096D01*
X114363655Y-125276094D01*
X114135413Y-125214938D01*
X114135403Y-125214936D01*
X113900001Y-125194341D01*
X113899999Y-125194341D01*
X113664596Y-125214936D01*
X113664586Y-125214938D01*
X113436344Y-125276094D01*
X113436335Y-125276098D01*
X113222171Y-125375964D01*
X113222169Y-125375965D01*
X113028597Y-125511505D01*
X112861505Y-125678597D01*
X112725965Y-125872169D01*
X112725964Y-125872171D01*
X112626098Y-126086335D01*
X112626094Y-126086344D01*
X112564938Y-126314586D01*
X112564936Y-126314596D01*
X112544341Y-126549999D01*
X104485987Y-126549999D01*
X104515787Y-126537654D01*
X104515786Y-126537654D01*
X104515792Y-126537652D01*
X104596286Y-126504312D01*
X104647509Y-126470084D01*
X104698733Y-126435858D01*
X104785858Y-126348733D01*
X104785859Y-126348731D01*
X104885857Y-126248734D01*
X104887494Y-126246285D01*
X104954311Y-126146286D01*
X105001463Y-126032452D01*
X105025500Y-125911606D01*
X105025500Y-125653765D01*
X105045185Y-125586726D01*
X105084220Y-125548340D01*
X105126562Y-125522124D01*
X105286888Y-125375967D01*
X105290979Y-125372238D01*
X105306086Y-125352234D01*
X105394788Y-125234772D01*
X105450897Y-125193137D01*
X105493742Y-125185500D01*
X105951607Y-125185500D01*
X106012029Y-125173481D01*
X106072452Y-125161463D01*
X106072455Y-125161461D01*
X106072458Y-125161461D01*
X106105787Y-125147654D01*
X106105786Y-125147654D01*
X106105792Y-125147652D01*
X106186286Y-125114312D01*
X106245867Y-125074500D01*
X106288733Y-125045858D01*
X106375858Y-124958733D01*
X106375859Y-124958731D01*
X106382925Y-124951665D01*
X106382928Y-124951661D01*
X110577709Y-120756879D01*
X114866672Y-120756879D01*
X114866672Y-120756880D01*
X114982821Y-120828797D01*
X114982822Y-120828798D01*
X115190195Y-120909134D01*
X115408807Y-120950000D01*
X115631193Y-120950000D01*
X115849809Y-120909133D01*
X116057168Y-120828801D01*
X116057181Y-120828795D01*
X116173326Y-120756879D01*
X115520001Y-120103553D01*
X115520000Y-120103553D01*
X114866672Y-120756879D01*
X110577709Y-120756879D01*
X111584589Y-119749999D01*
X114314859Y-119749999D01*
X114314859Y-119750000D01*
X114335378Y-119971439D01*
X114396240Y-120185350D01*
X114495369Y-120384428D01*
X114511137Y-120405308D01*
X114511138Y-120405308D01*
X115166447Y-119750000D01*
X115120369Y-119703922D01*
X115170000Y-119703922D01*
X115170000Y-119796078D01*
X115193852Y-119885095D01*
X115239930Y-119964905D01*
X115305095Y-120030070D01*
X115384905Y-120076148D01*
X115473922Y-120100000D01*
X115566078Y-120100000D01*
X115655095Y-120076148D01*
X115734905Y-120030070D01*
X115800070Y-119964905D01*
X115846148Y-119885095D01*
X115870000Y-119796078D01*
X115870000Y-119749999D01*
X115873553Y-119749999D01*
X115873553Y-119750000D01*
X116528861Y-120405308D01*
X116544631Y-120384425D01*
X116544633Y-120384422D01*
X116643759Y-120185350D01*
X116704621Y-119971439D01*
X116725141Y-119750000D01*
X116725141Y-119749999D01*
X116704621Y-119528560D01*
X116643759Y-119314649D01*
X116544635Y-119115580D01*
X116544630Y-119115572D01*
X116528860Y-119094690D01*
X115873553Y-119749999D01*
X115870000Y-119749999D01*
X115870000Y-119703922D01*
X115846148Y-119614905D01*
X115800070Y-119535095D01*
X115734905Y-119469930D01*
X115655095Y-119423852D01*
X115566078Y-119400000D01*
X115473922Y-119400000D01*
X115384905Y-119423852D01*
X115305095Y-119469930D01*
X115239930Y-119535095D01*
X115193852Y-119614905D01*
X115170000Y-119703922D01*
X115120369Y-119703922D01*
X114511138Y-119094691D01*
X114511137Y-119094691D01*
X114495368Y-119115574D01*
X114396240Y-119314649D01*
X114335378Y-119528560D01*
X114314859Y-119749999D01*
X111584589Y-119749999D01*
X114107422Y-117227166D01*
X114168743Y-117193683D01*
X114238435Y-117198667D01*
X114294368Y-117240539D01*
X114318572Y-117303408D01*
X114324884Y-117371535D01*
X114324885Y-117371537D01*
X114385769Y-117585523D01*
X114385775Y-117585538D01*
X114484938Y-117784683D01*
X114484943Y-117784691D01*
X114619020Y-117962238D01*
X114783437Y-118112123D01*
X114783439Y-118112125D01*
X114972595Y-118229245D01*
X114972596Y-118229245D01*
X114972599Y-118229247D01*
X115180060Y-118309618D01*
X115285352Y-118329300D01*
X115347631Y-118360967D01*
X115382904Y-118421279D01*
X115379971Y-118491087D01*
X115339762Y-118548227D01*
X115285351Y-118573077D01*
X115190194Y-118590865D01*
X114982824Y-118671200D01*
X114982823Y-118671201D01*
X114866671Y-118743119D01*
X115520000Y-119396447D01*
X115520001Y-119396447D01*
X116173327Y-118743119D01*
X116057178Y-118671202D01*
X116057177Y-118671201D01*
X115849804Y-118590865D01*
X115744649Y-118571208D01*
X115682368Y-118539540D01*
X115647095Y-118479227D01*
X115650029Y-118409419D01*
X115690238Y-118352279D01*
X115744644Y-118327431D01*
X115839940Y-118309618D01*
X116047401Y-118229247D01*
X116236562Y-118112124D01*
X116400981Y-117962236D01*
X116535058Y-117784689D01*
X116634229Y-117585528D01*
X116695115Y-117371536D01*
X116715643Y-117150000D01*
X116715412Y-117147512D01*
X116707539Y-117062539D01*
X116695115Y-116928464D01*
X116695112Y-116928454D01*
X116694685Y-116926167D01*
X116694798Y-116925046D01*
X116694586Y-116922755D01*
X116695034Y-116922713D01*
X116701713Y-116856651D01*
X116728890Y-116815698D01*
X116798729Y-116745860D01*
X116798733Y-116745858D01*
X116885858Y-116658733D01*
X116934701Y-116585635D01*
X116954312Y-116556286D01*
X116959907Y-116542775D01*
X116998127Y-116450506D01*
X116998128Y-116450502D01*
X116999169Y-116447989D01*
X117001463Y-116442452D01*
X117003979Y-116429801D01*
X117023397Y-116332183D01*
X117023397Y-116332178D01*
X117025500Y-116321607D01*
X117025500Y-116198393D01*
X117025500Y-115763714D01*
X117045185Y-115696675D01*
X117097989Y-115650920D01*
X117167147Y-115640976D01*
X117230703Y-115670001D01*
G37*
%TD.AperFunction*%
%TA.AperFunction,Conductor*%
G36*
X106801331Y-116395185D02*
G01*
X106847086Y-116447989D01*
X106857030Y-116517147D01*
X106845292Y-116554772D01*
X106765775Y-116714461D01*
X106765769Y-116714476D01*
X106704885Y-116928462D01*
X106704884Y-116928464D01*
X106684357Y-117149999D01*
X106684357Y-117150000D01*
X106704884Y-117371535D01*
X106704885Y-117371537D01*
X106765769Y-117585523D01*
X106765775Y-117585538D01*
X106864938Y-117784683D01*
X106864943Y-117784691D01*
X106999020Y-117962238D01*
X107163433Y-118112120D01*
X107163435Y-118112122D01*
X107163437Y-118112123D01*
X107163438Y-118112124D01*
X107205778Y-118138339D01*
X107252412Y-118190364D01*
X107264500Y-118243765D01*
X107264500Y-118662425D01*
X107244815Y-118729464D01*
X107205778Y-118767852D01*
X107173436Y-118787877D01*
X107009020Y-118937761D01*
X106874943Y-119115308D01*
X106874938Y-119115316D01*
X106775775Y-119314461D01*
X106775769Y-119314476D01*
X106714885Y-119528462D01*
X106714884Y-119528464D01*
X106694357Y-119749999D01*
X106694357Y-119750000D01*
X106714884Y-119971535D01*
X106714885Y-119971537D01*
X106775769Y-120185523D01*
X106775775Y-120185538D01*
X106874938Y-120384683D01*
X106874943Y-120384691D01*
X107009020Y-120562238D01*
X107173437Y-120712123D01*
X107173439Y-120712125D01*
X107362595Y-120829245D01*
X107362596Y-120829245D01*
X107362599Y-120829247D01*
X107570060Y-120909618D01*
X107788757Y-120950500D01*
X107788759Y-120950500D01*
X108011241Y-120950500D01*
X108011243Y-120950500D01*
X108229940Y-120909618D01*
X108376971Y-120852657D01*
X108446591Y-120846796D01*
X108508332Y-120879506D01*
X108542586Y-120940402D01*
X108538481Y-121010151D01*
X108509443Y-121055966D01*
X105667229Y-123898181D01*
X105605906Y-123931666D01*
X105579548Y-123934500D01*
X105493742Y-123934500D01*
X105426703Y-123914815D01*
X105394788Y-123885227D01*
X105290979Y-123747761D01*
X105126562Y-123597876D01*
X105126560Y-123597874D01*
X104937404Y-123480754D01*
X104937398Y-123480752D01*
X104729940Y-123400382D01*
X104511243Y-123359500D01*
X104288757Y-123359500D01*
X104070060Y-123400382D01*
X103953233Y-123445641D01*
X103862601Y-123480752D01*
X103862595Y-123480754D01*
X103673439Y-123597874D01*
X103673437Y-123597876D01*
X103509020Y-123747761D01*
X103374943Y-123925308D01*
X103374938Y-123925316D01*
X103275775Y-124124461D01*
X103275768Y-124124479D01*
X103270687Y-124142338D01*
X103233407Y-124201431D01*
X103170096Y-124230987D01*
X103100857Y-124221623D01*
X103047672Y-124176312D01*
X103032158Y-124142339D01*
X103024229Y-124114472D01*
X103019250Y-124104472D01*
X102925061Y-123915316D01*
X102925056Y-123915308D01*
X102790979Y-123737761D01*
X102626562Y-123587876D01*
X102626560Y-123587874D01*
X102437404Y-123470754D01*
X102437398Y-123470752D01*
X102229940Y-123390382D01*
X102011243Y-123349500D01*
X101788757Y-123349500D01*
X101570060Y-123390382D01*
X101438864Y-123441207D01*
X101362601Y-123470752D01*
X101362595Y-123470754D01*
X101173439Y-123587874D01*
X101173437Y-123587876D01*
X101009020Y-123737761D01*
X100874943Y-123915308D01*
X100874938Y-123915316D01*
X100775775Y-124114461D01*
X100775769Y-124114476D01*
X100719266Y-124313066D01*
X100681987Y-124372160D01*
X100618677Y-124401717D01*
X100549438Y-124392355D01*
X100496251Y-124347045D01*
X100480734Y-124313066D01*
X100441824Y-124176312D01*
X100424229Y-124114472D01*
X100419250Y-124104472D01*
X100325061Y-123915316D01*
X100325056Y-123915308D01*
X100190979Y-123737761D01*
X100026563Y-123587877D01*
X100026562Y-123587876D01*
X99984222Y-123561660D01*
X99937587Y-123509631D01*
X99925500Y-123456233D01*
X99925500Y-119840451D01*
X99945185Y-119773412D01*
X99961814Y-119752775D01*
X101570106Y-118144482D01*
X101631427Y-118110999D01*
X101680570Y-118110276D01*
X101788757Y-118130500D01*
X101788759Y-118130500D01*
X102011241Y-118130500D01*
X102011243Y-118130500D01*
X102229940Y-118089618D01*
X102437401Y-118009247D01*
X102626562Y-117892124D01*
X102780858Y-117751464D01*
X102790979Y-117742238D01*
X102798532Y-117732237D01*
X102925058Y-117564689D01*
X103024229Y-117365528D01*
X103029311Y-117347664D01*
X103066588Y-117288572D01*
X103129897Y-117259013D01*
X103199136Y-117268374D01*
X103252324Y-117313682D01*
X103267842Y-117347661D01*
X103272924Y-117365523D01*
X103275770Y-117375525D01*
X103275775Y-117375538D01*
X103374938Y-117574683D01*
X103374943Y-117574691D01*
X103509020Y-117752238D01*
X103673437Y-117902123D01*
X103673439Y-117902125D01*
X103862595Y-118019245D01*
X103862596Y-118019245D01*
X103862599Y-118019247D01*
X104070060Y-118099618D01*
X104288757Y-118140500D01*
X104288759Y-118140500D01*
X104511241Y-118140500D01*
X104511243Y-118140500D01*
X104729940Y-118099618D01*
X104937401Y-118019247D01*
X105126562Y-117902124D01*
X105290981Y-117752236D01*
X105425058Y-117574689D01*
X105524229Y-117375528D01*
X105585115Y-117161536D01*
X105605643Y-116940000D01*
X105585115Y-116718464D01*
X105585112Y-116718454D01*
X105584685Y-116716167D01*
X105584798Y-116715046D01*
X105584586Y-116712755D01*
X105585034Y-116712713D01*
X105591713Y-116646651D01*
X105618887Y-116605701D01*
X105812772Y-116411816D01*
X105874095Y-116378334D01*
X105900452Y-116375500D01*
X106734292Y-116375500D01*
X106801331Y-116395185D01*
G37*
%TD.AperFunction*%
%TA.AperFunction,Conductor*%
G36*
X119618834Y-116122867D02*
G01*
X119674767Y-116164739D01*
X119699184Y-116230203D01*
X119699500Y-116239049D01*
X119699500Y-116949745D01*
X119679815Y-117016784D01*
X119627011Y-117062539D01*
X119583522Y-117070029D01*
X118900000Y-117753551D01*
X118900000Y-117747339D01*
X118872741Y-117645606D01*
X118820080Y-117554394D01*
X118745606Y-117479920D01*
X118654394Y-117427259D01*
X118552661Y-117400000D01*
X118546448Y-117400000D01*
X119225472Y-116720974D01*
X119152480Y-116669864D01*
X119137024Y-116662657D01*
X119084585Y-116616484D01*
X119065433Y-116549290D01*
X119085649Y-116482409D01*
X119137023Y-116437893D01*
X119152734Y-116430568D01*
X119339139Y-116300047D01*
X119408983Y-116230203D01*
X119487819Y-116151368D01*
X119549142Y-116117883D01*
X119618834Y-116122867D01*
G37*
%TD.AperFunction*%
%TA.AperFunction,Conductor*%
G36*
X95505703Y-106583263D02*
G01*
X95543477Y-106642041D01*
X95543766Y-106643042D01*
X95575769Y-106755523D01*
X95575775Y-106755538D01*
X95674938Y-106954683D01*
X95674943Y-106954691D01*
X95809020Y-107132238D01*
X95973437Y-107282123D01*
X95973439Y-107282125D01*
X96162595Y-107399245D01*
X96162596Y-107399245D01*
X96162599Y-107399247D01*
X96370060Y-107479618D01*
X96588757Y-107520500D01*
X96588759Y-107520500D01*
X96811241Y-107520500D01*
X96811243Y-107520500D01*
X97029940Y-107479618D01*
X97237401Y-107399247D01*
X97426562Y-107282124D01*
X97590981Y-107132236D01*
X97694788Y-106994772D01*
X97750897Y-106953137D01*
X97793742Y-106945500D01*
X98416217Y-106945500D01*
X98483256Y-106965185D01*
X98529011Y-107017989D01*
X98535992Y-107037407D01*
X98573258Y-107176488D01*
X98573261Y-107176497D01*
X98669431Y-107382732D01*
X98669432Y-107382734D01*
X98799954Y-107569141D01*
X98960858Y-107730045D01*
X98960861Y-107730047D01*
X99147266Y-107860568D01*
X99353504Y-107956739D01*
X99353509Y-107956740D01*
X99353511Y-107956741D01*
X99375019Y-107962504D01*
X99573308Y-108015635D01*
X99735230Y-108029801D01*
X99799998Y-108035468D01*
X99800000Y-108035468D01*
X99800002Y-108035468D01*
X99856796Y-108030499D01*
X100026692Y-108015635D01*
X100246496Y-107956739D01*
X100298098Y-107932676D01*
X100367171Y-107922185D01*
X100430956Y-107950704D01*
X100469196Y-108009180D01*
X100474500Y-108045059D01*
X100474500Y-113034940D01*
X100454815Y-113101979D01*
X100402011Y-113147734D01*
X100332853Y-113157678D01*
X100298096Y-113147322D01*
X100246502Y-113123263D01*
X100246488Y-113123258D01*
X100026697Y-113064366D01*
X100026693Y-113064365D01*
X100026692Y-113064365D01*
X100026691Y-113064364D01*
X100026686Y-113064364D01*
X99800002Y-113044532D01*
X99799998Y-113044532D01*
X99573313Y-113064364D01*
X99573302Y-113064366D01*
X99353511Y-113123258D01*
X99353502Y-113123261D01*
X99147267Y-113219431D01*
X99147265Y-113219432D01*
X98960858Y-113349954D01*
X98799954Y-113510858D01*
X98669432Y-113697265D01*
X98669431Y-113697267D01*
X98573261Y-113903502D01*
X98573258Y-113903511D01*
X98514366Y-114123302D01*
X98514364Y-114123313D01*
X98498910Y-114299954D01*
X98494532Y-114350000D01*
X98506228Y-114483689D01*
X98508941Y-114514692D01*
X98495174Y-114583192D01*
X98446559Y-114633375D01*
X98385413Y-114649500D01*
X98345452Y-114649500D01*
X98278413Y-114629815D01*
X98257771Y-114613181D01*
X97918892Y-114274302D01*
X97885407Y-114212979D01*
X97884736Y-114167258D01*
X97884586Y-114167245D01*
X97884715Y-114165846D01*
X97884686Y-114163826D01*
X97885110Y-114161551D01*
X97885115Y-114161536D01*
X97905643Y-113940000D01*
X97885115Y-113718464D01*
X97824229Y-113504472D01*
X97824224Y-113504461D01*
X97725061Y-113305316D01*
X97725056Y-113305308D01*
X97590979Y-113127761D01*
X97426562Y-112977876D01*
X97426560Y-112977874D01*
X97237404Y-112860754D01*
X97237398Y-112860752D01*
X97029940Y-112780382D01*
X96811243Y-112739500D01*
X96588757Y-112739500D01*
X96370060Y-112780382D01*
X96260342Y-112822887D01*
X96162601Y-112860752D01*
X96162595Y-112860754D01*
X95973439Y-112977874D01*
X95973437Y-112977876D01*
X95809020Y-113127761D01*
X95674943Y-113305308D01*
X95674938Y-113305316D01*
X95575775Y-113504461D01*
X95575770Y-113504474D01*
X95543766Y-113616958D01*
X95506487Y-113676051D01*
X95443177Y-113705608D01*
X95373937Y-113696246D01*
X95320751Y-113650936D01*
X95300504Y-113584064D01*
X95300500Y-113583023D01*
X95300500Y-106676976D01*
X95320185Y-106609937D01*
X95372989Y-106564182D01*
X95442147Y-106554238D01*
X95505703Y-106583263D01*
G37*
%TD.AperFunction*%
%TA.AperFunction,Conductor*%
G36*
X118100000Y-112102661D02*
G01*
X118127259Y-112204394D01*
X118179920Y-112295606D01*
X118254394Y-112370080D01*
X118345606Y-112422741D01*
X118447339Y-112450000D01*
X118453553Y-112450000D01*
X117774526Y-113129025D01*
X117847513Y-113180132D01*
X117847521Y-113180136D01*
X118053668Y-113276264D01*
X118053682Y-113276269D01*
X118273389Y-113335139D01*
X118273400Y-113335141D01*
X118499998Y-113354966D01*
X118500002Y-113354966D01*
X118726599Y-113335141D01*
X118726610Y-113335139D01*
X118946317Y-113276269D01*
X118946331Y-113276264D01*
X119152478Y-113180136D01*
X119225471Y-113129024D01*
X118546447Y-112450000D01*
X118552661Y-112450000D01*
X118654394Y-112422741D01*
X118745606Y-112370080D01*
X118820080Y-112295606D01*
X118872741Y-112204394D01*
X118900000Y-112102661D01*
X118900000Y-112096447D01*
X119584197Y-112780644D01*
X119633192Y-112790491D01*
X119683375Y-112839106D01*
X119699500Y-112900253D01*
X119699500Y-114360951D01*
X119679815Y-114427990D01*
X119627011Y-114473745D01*
X119557853Y-114483689D01*
X119494297Y-114454664D01*
X119487819Y-114448632D01*
X119339141Y-114299954D01*
X119152734Y-114169432D01*
X119152732Y-114169431D01*
X118946497Y-114073261D01*
X118946488Y-114073258D01*
X118726697Y-114014366D01*
X118726693Y-114014365D01*
X118726692Y-114014365D01*
X118726691Y-114014364D01*
X118726686Y-114014364D01*
X118500002Y-113994532D01*
X118499997Y-113994532D01*
X118333137Y-114009129D01*
X118264637Y-113995362D01*
X118234650Y-113973282D01*
X117280174Y-113018806D01*
X117246689Y-112957483D01*
X117251673Y-112887791D01*
X117293545Y-112831858D01*
X117294853Y-112830892D01*
X117305871Y-112822888D01*
X117312482Y-112815544D01*
X117371966Y-112778896D01*
X117415441Y-112774988D01*
X117420974Y-112775472D01*
X118100000Y-112096446D01*
X118100000Y-112102661D01*
G37*
%TD.AperFunction*%
%TA.AperFunction,Conductor*%
G36*
X106951905Y-107946667D02*
G01*
X106973504Y-107956739D01*
X106973509Y-107956740D01*
X106973511Y-107956741D01*
X106995019Y-107962504D01*
X107193308Y-108015635D01*
X107355230Y-108029801D01*
X107419998Y-108035468D01*
X107420000Y-108035468D01*
X107420001Y-108035468D01*
X107440062Y-108033712D01*
X107586861Y-108020869D01*
X107655359Y-108034635D01*
X107685348Y-108056716D01*
X109061578Y-109432947D01*
X109061585Y-109432953D01*
X109126129Y-109476079D01*
X109126131Y-109476080D01*
X109126134Y-109476082D01*
X109184505Y-109515084D01*
X109184506Y-109515084D01*
X109184507Y-109515085D01*
X109241079Y-109538518D01*
X109241080Y-109538518D01*
X109321088Y-109571659D01*
X109429293Y-109593182D01*
X109453819Y-109598060D01*
X109466081Y-109600500D01*
X109466082Y-109600500D01*
X109466083Y-109600500D01*
X109613918Y-109600500D01*
X115772537Y-109600500D01*
X115839576Y-109620185D01*
X115885331Y-109672989D01*
X115895857Y-109737460D01*
X115894540Y-109750000D01*
X115914326Y-109938256D01*
X115914327Y-109938259D01*
X115972818Y-110118277D01*
X115972821Y-110118284D01*
X116057887Y-110265623D01*
X116074500Y-110327622D01*
X116074500Y-111451312D01*
X116054815Y-111518351D01*
X116042650Y-111534284D01*
X115965245Y-111620251D01*
X115905758Y-111656900D01*
X115835901Y-111655569D01*
X115825642Y-111651840D01*
X115768913Y-111628342D01*
X115768907Y-111628340D01*
X115623920Y-111599500D01*
X115623918Y-111599500D01*
X109346082Y-111599500D01*
X109346080Y-111599500D01*
X109201092Y-111628340D01*
X109201082Y-111628343D01*
X109064508Y-111684913D01*
X108941584Y-111767048D01*
X108941584Y-111767049D01*
X107685348Y-113023282D01*
X107624025Y-113056767D01*
X107586861Y-113059129D01*
X107420003Y-113044532D01*
X107419998Y-113044532D01*
X107193313Y-113064364D01*
X107193302Y-113064366D01*
X106973511Y-113123258D01*
X106973502Y-113123261D01*
X106767267Y-113219431D01*
X106767265Y-113219432D01*
X106580858Y-113349954D01*
X106419954Y-113510858D01*
X106290146Y-113696246D01*
X106289432Y-113697266D01*
X106289315Y-113697518D01*
X106262106Y-113755867D01*
X106215933Y-113808306D01*
X106148739Y-113827457D01*
X106081858Y-113807241D01*
X106037342Y-113755865D01*
X106010135Y-113697520D01*
X106010134Y-113697518D01*
X105879657Y-113511179D01*
X105718820Y-113350342D01*
X105532482Y-113219865D01*
X105326328Y-113123734D01*
X105130000Y-113071127D01*
X105130000Y-114034314D01*
X105125606Y-114029920D01*
X105034394Y-113977259D01*
X104932661Y-113950000D01*
X104827339Y-113950000D01*
X104725606Y-113977259D01*
X104634394Y-114029920D01*
X104630000Y-114034314D01*
X104630000Y-113071127D01*
X104433671Y-113123734D01*
X104227517Y-113219865D01*
X104041179Y-113350342D01*
X103880342Y-113511179D01*
X103749867Y-113697515D01*
X103722657Y-113755867D01*
X103676484Y-113808306D01*
X103609290Y-113827457D01*
X103542409Y-113807241D01*
X103497893Y-113755865D01*
X103470685Y-113697518D01*
X103470568Y-113697266D01*
X103340047Y-113510861D01*
X103340045Y-113510858D01*
X103179140Y-113349953D01*
X103018377Y-113237386D01*
X102974752Y-113182809D01*
X102965500Y-113135811D01*
X102965500Y-112620452D01*
X102985185Y-112553413D01*
X103001819Y-112532771D01*
X104802182Y-110732409D01*
X106635858Y-108898733D01*
X106704312Y-108796285D01*
X106731932Y-108729603D01*
X106751463Y-108682452D01*
X106767764Y-108600500D01*
X106775501Y-108561606D01*
X106775501Y-108438393D01*
X106775501Y-108433283D01*
X106775500Y-108433257D01*
X106775500Y-108059048D01*
X106795185Y-107992009D01*
X106847989Y-107946254D01*
X106917147Y-107936310D01*
X106951905Y-107946667D01*
G37*
%TD.AperFunction*%
%TA.AperFunction,Conductor*%
G36*
X117528090Y-110423692D02*
G01*
X117554796Y-110443983D01*
X117660858Y-110550045D01*
X117660861Y-110550047D01*
X117847266Y-110680568D01*
X117862975Y-110687893D01*
X117915414Y-110734064D01*
X117934567Y-110801257D01*
X117914352Y-110868138D01*
X117862979Y-110912656D01*
X117847514Y-110919867D01*
X117847512Y-110919868D01*
X117774526Y-110970973D01*
X117774526Y-110970974D01*
X118453553Y-111650000D01*
X118447339Y-111650000D01*
X118345606Y-111677259D01*
X118254394Y-111729920D01*
X118179920Y-111804394D01*
X118127259Y-111895606D01*
X118100000Y-111997339D01*
X118100000Y-112003552D01*
X117406773Y-111310325D01*
X117391805Y-111307317D01*
X117341623Y-111258701D01*
X117325500Y-111197557D01*
X117325500Y-110544462D01*
X117345185Y-110477423D01*
X117376615Y-110444144D01*
X117394230Y-110431346D01*
X117460036Y-110407866D01*
X117528090Y-110423692D01*
G37*
%TD.AperFunction*%
%TA.AperFunction,Conductor*%
G36*
X119618834Y-110372867D02*
G01*
X119674767Y-110414739D01*
X119699184Y-110480203D01*
X119699500Y-110489049D01*
X119699500Y-111199745D01*
X119679815Y-111266784D01*
X119627011Y-111312539D01*
X119583522Y-111320029D01*
X118900000Y-112003551D01*
X118900000Y-111997339D01*
X118872741Y-111895606D01*
X118820080Y-111804394D01*
X118745606Y-111729920D01*
X118654394Y-111677259D01*
X118552661Y-111650000D01*
X118546448Y-111650000D01*
X119225472Y-110970974D01*
X119152480Y-110919864D01*
X119137024Y-110912657D01*
X119084585Y-110866484D01*
X119065433Y-110799290D01*
X119085649Y-110732409D01*
X119137023Y-110687893D01*
X119152734Y-110680568D01*
X119339139Y-110550047D01*
X119411763Y-110477423D01*
X119487819Y-110401368D01*
X119549142Y-110367883D01*
X119618834Y-110372867D01*
G37*
%TD.AperFunction*%
%TA.AperFunction,Conductor*%
G36*
X113643373Y-57270185D02*
G01*
X113689128Y-57322989D01*
X113699072Y-57392147D01*
X113670047Y-57455703D01*
X113635351Y-57483555D01*
X113476496Y-57569522D01*
X113476494Y-57569523D01*
X113280257Y-57722261D01*
X113111833Y-57905217D01*
X112975826Y-58113393D01*
X112875936Y-58341118D01*
X112814892Y-58582175D01*
X112814890Y-58582187D01*
X112794357Y-58829994D01*
X112794357Y-58830005D01*
X112814891Y-59077817D01*
X112833143Y-59149892D01*
X112830518Y-59219712D01*
X112800618Y-59268013D01*
X110717050Y-61351580D01*
X110717044Y-61351588D01*
X110667812Y-61425268D01*
X110667813Y-61425269D01*
X110634921Y-61474496D01*
X110634914Y-61474508D01*
X110578342Y-61611086D01*
X110578340Y-61611092D01*
X110549500Y-61756079D01*
X110549500Y-77346701D01*
X110529815Y-77413740D01*
X110477011Y-77459495D01*
X110407853Y-77469439D01*
X110356610Y-77449803D01*
X110127667Y-77296829D01*
X110127660Y-77296825D01*
X109863080Y-77166349D01*
X109583730Y-77071521D01*
X109583724Y-77071519D01*
X109583722Y-77071519D01*
X109294380Y-77013966D01*
X109294373Y-77013965D01*
X109294363Y-77013964D01*
X109000007Y-76994671D01*
X108999993Y-76994671D01*
X108705636Y-77013964D01*
X108705624Y-77013965D01*
X108705620Y-77013966D01*
X108705612Y-77013967D01*
X108705609Y-77013968D01*
X108416283Y-77071518D01*
X108416269Y-77071521D01*
X108136919Y-77166349D01*
X107872334Y-77296828D01*
X107627041Y-77460727D01*
X107581758Y-77500440D01*
X107518376Y-77529842D01*
X107449160Y-77520310D01*
X107418242Y-77500440D01*
X107372955Y-77460725D01*
X107127667Y-77296829D01*
X107127660Y-77296825D01*
X106863080Y-77166349D01*
X106583730Y-77071521D01*
X106583724Y-77071519D01*
X106583722Y-77071519D01*
X106294380Y-77013966D01*
X106294373Y-77013965D01*
X106294363Y-77013964D01*
X106000007Y-76994671D01*
X105999993Y-76994671D01*
X105705636Y-77013964D01*
X105705624Y-77013965D01*
X105705620Y-77013966D01*
X105705612Y-77013967D01*
X105705609Y-77013968D01*
X105416283Y-77071518D01*
X105416269Y-77071521D01*
X105136919Y-77166349D01*
X104872334Y-77296828D01*
X104627041Y-77460728D01*
X104405241Y-77655241D01*
X104210728Y-77877041D01*
X104046828Y-78122334D01*
X103916349Y-78386919D01*
X103821521Y-78666269D01*
X103821518Y-78666283D01*
X103763968Y-78955609D01*
X103763964Y-78955636D01*
X103744671Y-79249992D01*
X103744671Y-79250007D01*
X103763964Y-79544363D01*
X103763965Y-79544373D01*
X103763966Y-79544380D01*
X103763968Y-79544390D01*
X103821518Y-79833716D01*
X103821521Y-79833730D01*
X103916349Y-80113080D01*
X104046825Y-80377660D01*
X104046829Y-80377667D01*
X104210725Y-80622955D01*
X104405241Y-80844758D01*
X104627043Y-81039273D01*
X104872335Y-81203172D01*
X105136923Y-81333652D01*
X105416278Y-81428481D01*
X105705620Y-81486034D01*
X105733888Y-81487886D01*
X105999993Y-81505329D01*
X106000000Y-81505329D01*
X106000007Y-81505329D01*
X106235675Y-81489881D01*
X106294380Y-81486034D01*
X106583722Y-81428481D01*
X106863077Y-81333652D01*
X107127665Y-81203172D01*
X107372957Y-81039273D01*
X107418242Y-80999558D01*
X107481622Y-80970156D01*
X107550839Y-80979688D01*
X107581756Y-80999557D01*
X107615692Y-81029318D01*
X107627043Y-81039273D01*
X107627055Y-81039282D01*
X107797693Y-81153298D01*
X107872335Y-81203172D01*
X108136923Y-81333652D01*
X108416278Y-81428481D01*
X108705620Y-81486034D01*
X108733888Y-81487886D01*
X108999993Y-81505329D01*
X109000000Y-81505329D01*
X109000007Y-81505329D01*
X109235675Y-81489881D01*
X109294380Y-81486034D01*
X109583722Y-81428481D01*
X109863077Y-81333652D01*
X110127665Y-81203172D01*
X110356610Y-81050195D01*
X110423287Y-81029318D01*
X110490667Y-81047803D01*
X110537357Y-81099782D01*
X110549500Y-81153298D01*
X110549500Y-84936385D01*
X110529815Y-85003424D01*
X110498388Y-85036701D01*
X110485356Y-85046169D01*
X110346171Y-85185355D01*
X110230476Y-85344594D01*
X110141117Y-85519970D01*
X110080290Y-85707173D01*
X110049500Y-85901577D01*
X110049500Y-86598422D01*
X110080290Y-86792826D01*
X110141117Y-86980029D01*
X110230343Y-87155143D01*
X110230476Y-87155405D01*
X110346172Y-87314646D01*
X110485354Y-87453828D01*
X110644595Y-87569524D01*
X110727455Y-87611743D01*
X110819970Y-87658882D01*
X110819972Y-87658882D01*
X110819975Y-87658884D01*
X110919987Y-87691380D01*
X111007173Y-87719709D01*
X111201578Y-87750500D01*
X111201583Y-87750500D01*
X111398422Y-87750500D01*
X111592826Y-87719709D01*
X111607743Y-87714862D01*
X111780025Y-87658884D01*
X111955405Y-87569524D01*
X112114646Y-87453828D01*
X112253828Y-87314646D01*
X112369524Y-87155405D01*
X112439515Y-87018038D01*
X112487489Y-86967243D01*
X112555310Y-86950448D01*
X112621445Y-86972985D01*
X112660484Y-87018038D01*
X112730476Y-87155405D01*
X112846172Y-87314646D01*
X112985354Y-87453828D01*
X113144595Y-87569524D01*
X113227455Y-87611743D01*
X113319970Y-87658882D01*
X113319972Y-87658882D01*
X113319975Y-87658884D01*
X113419987Y-87691380D01*
X113507173Y-87719709D01*
X113701578Y-87750500D01*
X113701583Y-87750500D01*
X113898422Y-87750500D01*
X114006422Y-87733393D01*
X114092826Y-87719709D01*
X114107743Y-87714861D01*
X114177582Y-87712865D01*
X114233743Y-87745111D01*
X114694127Y-88205495D01*
X115140196Y-88651563D01*
X115173681Y-88712886D01*
X115168697Y-88782577D01*
X115151470Y-88813970D01*
X115074943Y-88915309D01*
X115074938Y-88915316D01*
X114975775Y-89114461D01*
X114975769Y-89114476D01*
X114914885Y-89328462D01*
X114914884Y-89328464D01*
X114894357Y-89549999D01*
X114894357Y-89550000D01*
X114914884Y-89771535D01*
X114914885Y-89771537D01*
X114975769Y-89985523D01*
X114975775Y-89985538D01*
X115074938Y-90184683D01*
X115074943Y-90184691D01*
X115209020Y-90362238D01*
X115373437Y-90512123D01*
X115373439Y-90512125D01*
X115562595Y-90629245D01*
X115562596Y-90629245D01*
X115562599Y-90629247D01*
X115770060Y-90709618D01*
X115988757Y-90750500D01*
X115988759Y-90750500D01*
X116211241Y-90750500D01*
X116211243Y-90750500D01*
X116429940Y-90709618D01*
X116637401Y-90629247D01*
X116826562Y-90512124D01*
X116990981Y-90362236D01*
X117125058Y-90184689D01*
X117224229Y-89985528D01*
X117280734Y-89786932D01*
X117318013Y-89727839D01*
X117381323Y-89698282D01*
X117450562Y-89707644D01*
X117503749Y-89752954D01*
X117519266Y-89786933D01*
X117575769Y-89985523D01*
X117575775Y-89985538D01*
X117674938Y-90184683D01*
X117674943Y-90184691D01*
X117809020Y-90362238D01*
X117973433Y-90512120D01*
X117973435Y-90512122D01*
X117973437Y-90512123D01*
X117973438Y-90512124D01*
X118015778Y-90538339D01*
X118062412Y-90590364D01*
X118074500Y-90643765D01*
X118074500Y-94259547D01*
X118054815Y-94326586D01*
X118038181Y-94347228D01*
X116429893Y-95955515D01*
X116368570Y-95989000D01*
X116319428Y-95989723D01*
X116211243Y-95969500D01*
X115988757Y-95969500D01*
X115770060Y-96010382D01*
X115665169Y-96051017D01*
X115562601Y-96090752D01*
X115562595Y-96090754D01*
X115373439Y-96207874D01*
X115373437Y-96207876D01*
X115209020Y-96357761D01*
X115074943Y-96535308D01*
X115074938Y-96535316D01*
X114975775Y-96734461D01*
X114975769Y-96734476D01*
X114914885Y-96948462D01*
X114914884Y-96948464D01*
X114894357Y-97169999D01*
X114894357Y-97170000D01*
X114914884Y-97391535D01*
X114914885Y-97391537D01*
X114975769Y-97605523D01*
X114975775Y-97605538D01*
X115074938Y-97804683D01*
X115074943Y-97804691D01*
X115209020Y-97982238D01*
X115373433Y-98132120D01*
X115373435Y-98132122D01*
X115373437Y-98132123D01*
X115373438Y-98132124D01*
X115415778Y-98158339D01*
X115462412Y-98210364D01*
X115474500Y-98263765D01*
X115474500Y-102819547D01*
X115454815Y-102886586D01*
X115438181Y-102907228D01*
X112914822Y-105430586D01*
X112853499Y-105464071D01*
X112795049Y-105462680D01*
X112726699Y-105444367D01*
X112726702Y-105444367D01*
X112726692Y-105444365D01*
X112726689Y-105444364D01*
X112726686Y-105444364D01*
X112500001Y-105424532D01*
X112499998Y-105424532D01*
X112273313Y-105444364D01*
X112273302Y-105444366D01*
X112053511Y-105503258D01*
X112053502Y-105503261D01*
X111847267Y-105599431D01*
X111847265Y-105599432D01*
X111660858Y-105729954D01*
X111499954Y-105890858D01*
X111370146Y-106076246D01*
X111369432Y-106077266D01*
X111369315Y-106077518D01*
X111342106Y-106135867D01*
X111295933Y-106188306D01*
X111228739Y-106207457D01*
X111161858Y-106187241D01*
X111117342Y-106135865D01*
X111090135Y-106077520D01*
X111090134Y-106077518D01*
X110959657Y-105891179D01*
X110798820Y-105730342D01*
X110612482Y-105599865D01*
X110406326Y-105503734D01*
X110406317Y-105503730D01*
X110186610Y-105444860D01*
X110186600Y-105444858D01*
X110065209Y-105434238D01*
X110000141Y-105408785D01*
X109959162Y-105352194D01*
X109955284Y-105282432D01*
X109988333Y-105223033D01*
X113282952Y-101928415D01*
X113344796Y-101835858D01*
X113365084Y-101805495D01*
X113398876Y-101723914D01*
X113421659Y-101668912D01*
X113448802Y-101532452D01*
X113450500Y-101523918D01*
X113450500Y-100276082D01*
X113450500Y-100276079D01*
X113421659Y-100131092D01*
X113421658Y-100131091D01*
X113421658Y-100131087D01*
X113365084Y-99994505D01*
X113319216Y-99925858D01*
X113319216Y-99925857D01*
X113282950Y-99871581D01*
X111478420Y-98067051D01*
X111393784Y-98010500D01*
X111393783Y-98010499D01*
X111355500Y-97984919D01*
X111355488Y-97984912D01*
X111218917Y-97928343D01*
X111218907Y-97928340D01*
X111073920Y-97899500D01*
X111073918Y-97899500D01*
X107923917Y-97899500D01*
X107776082Y-97899500D01*
X107776080Y-97899500D01*
X107631092Y-97928340D01*
X107631082Y-97928343D01*
X107494511Y-97984912D01*
X107494498Y-97984919D01*
X107371584Y-98067048D01*
X107371580Y-98067051D01*
X105683743Y-99754887D01*
X105622420Y-99788372D01*
X105557748Y-99785138D01*
X105542829Y-99780291D01*
X105348422Y-99749500D01*
X105348417Y-99749500D01*
X105151583Y-99749500D01*
X105151578Y-99749500D01*
X104957173Y-99780290D01*
X104769970Y-99841117D01*
X104594594Y-99930476D01*
X104506467Y-99994505D01*
X104435354Y-100046172D01*
X104435352Y-100046174D01*
X104435351Y-100046174D01*
X104296174Y-100185351D01*
X104296174Y-100185352D01*
X104296172Y-100185354D01*
X104264527Y-100228910D01*
X104180476Y-100344594D01*
X104091117Y-100519970D01*
X104030290Y-100707173D01*
X103999500Y-100901577D01*
X103999500Y-101598422D01*
X104030290Y-101792826D01*
X104091117Y-101980029D01*
X104180478Y-102155409D01*
X104191497Y-102170575D01*
X104214978Y-102236381D01*
X104199153Y-102304435D01*
X104149048Y-102353130D01*
X104113966Y-102365349D01*
X103980071Y-102390379D01*
X103980062Y-102390381D01*
X103980060Y-102390382D01*
X103848864Y-102441207D01*
X103772601Y-102470752D01*
X103772595Y-102470754D01*
X103583439Y-102587874D01*
X103583437Y-102587876D01*
X103419020Y-102737761D01*
X103284943Y-102915308D01*
X103284938Y-102915316D01*
X103185775Y-103114461D01*
X103185769Y-103114476D01*
X103124885Y-103328462D01*
X103124884Y-103328464D01*
X103104357Y-103549999D01*
X103104357Y-103550000D01*
X103125414Y-103777245D01*
X103123843Y-103777390D01*
X103117552Y-103839499D01*
X103074046Y-103894170D01*
X103007888Y-103916642D01*
X102940084Y-103899778D01*
X102915021Y-103880431D01*
X100161819Y-101127229D01*
X100128334Y-101065906D01*
X100125500Y-101039548D01*
X100125500Y-98263765D01*
X100145185Y-98196726D01*
X100184220Y-98158340D01*
X100226562Y-98132124D01*
X100390981Y-97982236D01*
X100525058Y-97804689D01*
X100624229Y-97605528D01*
X100685115Y-97391536D01*
X100705643Y-97170000D01*
X100685115Y-96948464D01*
X100624229Y-96734472D01*
X100619250Y-96724472D01*
X100525061Y-96535316D01*
X100525056Y-96535308D01*
X100390979Y-96357761D01*
X100226562Y-96207876D01*
X100226560Y-96207874D01*
X100037404Y-96090754D01*
X100037398Y-96090752D01*
X99829940Y-96010382D01*
X99611243Y-95969500D01*
X99388757Y-95969500D01*
X99339412Y-95978724D01*
X99280570Y-95989723D01*
X99211055Y-95982691D01*
X99170105Y-95955515D01*
X97464582Y-94249992D01*
X100694671Y-94249992D01*
X100694671Y-94250007D01*
X100713964Y-94544363D01*
X100713967Y-94544385D01*
X100771518Y-94833716D01*
X100771521Y-94833730D01*
X100866349Y-95113080D01*
X100996825Y-95377660D01*
X100996829Y-95377667D01*
X101160725Y-95622955D01*
X101355241Y-95844758D01*
X101577044Y-96039274D01*
X101781457Y-96175858D01*
X101822335Y-96203172D01*
X102086923Y-96333652D01*
X102366278Y-96428481D01*
X102655620Y-96486034D01*
X102683888Y-96487886D01*
X102949993Y-96505329D01*
X102950000Y-96505329D01*
X102950007Y-96505329D01*
X103185675Y-96489881D01*
X103244380Y-96486034D01*
X103533722Y-96428481D01*
X103813077Y-96333652D01*
X104077665Y-96203172D01*
X104322957Y-96039273D01*
X104544758Y-95844758D01*
X104739273Y-95622957D01*
X104903172Y-95377665D01*
X105033652Y-95113077D01*
X105128481Y-94833722D01*
X105186034Y-94544380D01*
X105193426Y-94431604D01*
X105205329Y-94250007D01*
X105205329Y-94249992D01*
X110294671Y-94249992D01*
X110294671Y-94250007D01*
X110313964Y-94544363D01*
X110313967Y-94544385D01*
X110371518Y-94833716D01*
X110371521Y-94833730D01*
X110466349Y-95113080D01*
X110596825Y-95377660D01*
X110596829Y-95377667D01*
X110760725Y-95622955D01*
X110955241Y-95844758D01*
X111177044Y-96039274D01*
X111381457Y-96175858D01*
X111422335Y-96203172D01*
X111686923Y-96333652D01*
X111966278Y-96428481D01*
X112255620Y-96486034D01*
X112283888Y-96487886D01*
X112549993Y-96505329D01*
X112550000Y-96505329D01*
X112550007Y-96505329D01*
X112785675Y-96489881D01*
X112844380Y-96486034D01*
X113133722Y-96428481D01*
X113413077Y-96333652D01*
X113677665Y-96203172D01*
X113922957Y-96039273D01*
X114144758Y-95844758D01*
X114339273Y-95622957D01*
X114503172Y-95377665D01*
X114633652Y-95113077D01*
X114728481Y-94833722D01*
X114786034Y-94544380D01*
X114793426Y-94431604D01*
X114805329Y-94250007D01*
X114805329Y-94249992D01*
X114786035Y-93955636D01*
X114786034Y-93955620D01*
X114728481Y-93666278D01*
X114633652Y-93386923D01*
X114503172Y-93122336D01*
X114339273Y-92877043D01*
X114296655Y-92828447D01*
X114144758Y-92655241D01*
X113922955Y-92460725D01*
X113677667Y-92296829D01*
X113677660Y-92296825D01*
X113413080Y-92166349D01*
X113133730Y-92071521D01*
X113133724Y-92071519D01*
X113133722Y-92071519D01*
X112844380Y-92013966D01*
X112844373Y-92013965D01*
X112844363Y-92013964D01*
X112550007Y-91994671D01*
X112549993Y-91994671D01*
X112255636Y-92013964D01*
X112255624Y-92013965D01*
X112255620Y-92013966D01*
X112255612Y-92013967D01*
X112255609Y-92013968D01*
X111966283Y-92071518D01*
X111966269Y-92071521D01*
X111686919Y-92166349D01*
X111422334Y-92296828D01*
X111177041Y-92460728D01*
X110955241Y-92655241D01*
X110760728Y-92877041D01*
X110596828Y-93122334D01*
X110466349Y-93386919D01*
X110371521Y-93666269D01*
X110371518Y-93666283D01*
X110313968Y-93955609D01*
X110313964Y-93955636D01*
X110294671Y-94249992D01*
X105205329Y-94249992D01*
X105186035Y-93955636D01*
X105186034Y-93955620D01*
X105128481Y-93666278D01*
X105033652Y-93386923D01*
X104903172Y-93122336D01*
X104739273Y-92877043D01*
X104696655Y-92828447D01*
X104544758Y-92655241D01*
X104322955Y-92460725D01*
X104077667Y-92296829D01*
X104077660Y-92296825D01*
X103813080Y-92166349D01*
X103533730Y-92071521D01*
X103533724Y-92071519D01*
X103533722Y-92071519D01*
X103244380Y-92013966D01*
X103244373Y-92013965D01*
X103244363Y-92013964D01*
X102950007Y-91994671D01*
X102949993Y-91994671D01*
X102655636Y-92013964D01*
X102655624Y-92013965D01*
X102655620Y-92013966D01*
X102655612Y-92013967D01*
X102655609Y-92013968D01*
X102366283Y-92071518D01*
X102366269Y-92071521D01*
X102086919Y-92166349D01*
X101822334Y-92296828D01*
X101577041Y-92460728D01*
X101355241Y-92655241D01*
X101160728Y-92877041D01*
X100996828Y-93122334D01*
X100866349Y-93386919D01*
X100771521Y-93666269D01*
X100771518Y-93666283D01*
X100713968Y-93955609D01*
X100713964Y-93955636D01*
X100694671Y-94249992D01*
X97464582Y-94249992D01*
X97361819Y-94147229D01*
X97328334Y-94085906D01*
X97325500Y-94059548D01*
X97325500Y-90633765D01*
X97345185Y-90566726D01*
X97384220Y-90528340D01*
X97426562Y-90502124D01*
X97536174Y-90402198D01*
X97590979Y-90352238D01*
X97691949Y-90218533D01*
X97725058Y-90174689D01*
X97824229Y-89975528D01*
X97885115Y-89761536D01*
X97905643Y-89540000D01*
X97885115Y-89318464D01*
X97824229Y-89104472D01*
X97730040Y-88915316D01*
X97725061Y-88905316D01*
X97725056Y-88905308D01*
X97590979Y-88727761D01*
X97426562Y-88577876D01*
X97426560Y-88577874D01*
X97237404Y-88460754D01*
X97237398Y-88460752D01*
X97029940Y-88380382D01*
X96811243Y-88339500D01*
X96588757Y-88339500D01*
X96370060Y-88380382D01*
X96238864Y-88431207D01*
X96162601Y-88460752D01*
X96162595Y-88460754D01*
X95973439Y-88577874D01*
X95973437Y-88577876D01*
X95809020Y-88727761D01*
X95674943Y-88905308D01*
X95674938Y-88905316D01*
X95575775Y-89104461D01*
X95575770Y-89104474D01*
X95543766Y-89216958D01*
X95506487Y-89276051D01*
X95443177Y-89305608D01*
X95373937Y-89296246D01*
X95320751Y-89250936D01*
X95300504Y-89184064D01*
X95300500Y-89183023D01*
X95300500Y-81416469D01*
X95320185Y-81349430D01*
X95372989Y-81303675D01*
X95442147Y-81293731D01*
X95479341Y-81305255D01*
X95536923Y-81333652D01*
X95816278Y-81428481D01*
X96105620Y-81486034D01*
X96133888Y-81487886D01*
X96399993Y-81505329D01*
X96400000Y-81505329D01*
X96400007Y-81505329D01*
X96635675Y-81489881D01*
X96694380Y-81486034D01*
X96983722Y-81428481D01*
X97263077Y-81333652D01*
X97527665Y-81203172D01*
X97756610Y-81050195D01*
X97823287Y-81029318D01*
X97890667Y-81047803D01*
X97937357Y-81099782D01*
X97949500Y-81153298D01*
X97949500Y-84936385D01*
X97929815Y-85003424D01*
X97898388Y-85036701D01*
X97885356Y-85046169D01*
X97746171Y-85185355D01*
X97630476Y-85344594D01*
X97541117Y-85519970D01*
X97480290Y-85707173D01*
X97449500Y-85901577D01*
X97449500Y-86598422D01*
X97480290Y-86792826D01*
X97541117Y-86980029D01*
X97630343Y-87155143D01*
X97630476Y-87155405D01*
X97746172Y-87314646D01*
X97885354Y-87453828D01*
X98044595Y-87569524D01*
X98127455Y-87611743D01*
X98219970Y-87658882D01*
X98219972Y-87658882D01*
X98219975Y-87658884D01*
X98319987Y-87691380D01*
X98407173Y-87719709D01*
X98601578Y-87750500D01*
X98601583Y-87750500D01*
X98798422Y-87750500D01*
X98992826Y-87719709D01*
X99007743Y-87714862D01*
X99180025Y-87658884D01*
X99355405Y-87569524D01*
X99514646Y-87453828D01*
X99653828Y-87314646D01*
X99769524Y-87155405D01*
X99839515Y-87018038D01*
X99887489Y-86967243D01*
X99955310Y-86950448D01*
X100021445Y-86972985D01*
X100060484Y-87018038D01*
X100130476Y-87155405D01*
X100246172Y-87314646D01*
X100246174Y-87314648D01*
X100372397Y-87440871D01*
X100405882Y-87502194D01*
X100400898Y-87571886D01*
X100372397Y-87616233D01*
X99675450Y-88313181D01*
X99614127Y-88346666D01*
X99587769Y-88349500D01*
X99388757Y-88349500D01*
X99170060Y-88390382D01*
X99038864Y-88441207D01*
X98962601Y-88470752D01*
X98962595Y-88470754D01*
X98773439Y-88587874D01*
X98773437Y-88587876D01*
X98609020Y-88737761D01*
X98474943Y-88915308D01*
X98474938Y-88915316D01*
X98375775Y-89114461D01*
X98375769Y-89114476D01*
X98314885Y-89328462D01*
X98314884Y-89328464D01*
X98294357Y-89549999D01*
X98294357Y-89550000D01*
X98314884Y-89771535D01*
X98314885Y-89771537D01*
X98375769Y-89985523D01*
X98375775Y-89985538D01*
X98474938Y-90184683D01*
X98474943Y-90184691D01*
X98609020Y-90362238D01*
X98773437Y-90512123D01*
X98773439Y-90512125D01*
X98962595Y-90629245D01*
X98962596Y-90629245D01*
X98962599Y-90629247D01*
X99170060Y-90709618D01*
X99388757Y-90750500D01*
X99388759Y-90750500D01*
X99611241Y-90750500D01*
X99611243Y-90750500D01*
X99829940Y-90709618D01*
X100037401Y-90629247D01*
X100226562Y-90512124D01*
X100390981Y-90362236D01*
X100525058Y-90184689D01*
X100624229Y-89985528D01*
X100685115Y-89771536D01*
X100705643Y-89550000D01*
X100698778Y-89475920D01*
X100712193Y-89407351D01*
X100734565Y-89376801D01*
X101782952Y-88328416D01*
X101832186Y-88254729D01*
X101865084Y-88205495D01*
X101921658Y-88068913D01*
X101931096Y-88021462D01*
X101950500Y-87923920D01*
X101950500Y-87563613D01*
X101970185Y-87496574D01*
X102001613Y-87463296D01*
X102014646Y-87453828D01*
X102153828Y-87314646D01*
X102269524Y-87155405D01*
X102339796Y-87017486D01*
X102387769Y-86966692D01*
X102455589Y-86949896D01*
X102521725Y-86972433D01*
X102560765Y-87017487D01*
X102630904Y-87155143D01*
X102746555Y-87314321D01*
X102885678Y-87453444D01*
X103044856Y-87569095D01*
X103220162Y-87658418D01*
X103407283Y-87719218D01*
X103450000Y-87725984D01*
X103450000Y-86683012D01*
X103507007Y-86715925D01*
X103634174Y-86750000D01*
X103765826Y-86750000D01*
X103892993Y-86715925D01*
X103950000Y-86683012D01*
X103950000Y-87725983D01*
X103992716Y-87719218D01*
X104179837Y-87658418D01*
X104355143Y-87569095D01*
X104514321Y-87453444D01*
X104653444Y-87314321D01*
X104769095Y-87155143D01*
X104858418Y-86979835D01*
X104919221Y-86792705D01*
X104950000Y-86598382D01*
X104950000Y-86500000D01*
X104133012Y-86500000D01*
X104165925Y-86442993D01*
X104200000Y-86315826D01*
X104200000Y-86184174D01*
X104165925Y-86057007D01*
X104133012Y-86000000D01*
X104950000Y-86000000D01*
X104950000Y-85901617D01*
X104919221Y-85707294D01*
X104858418Y-85520164D01*
X104769095Y-85344856D01*
X104653444Y-85185678D01*
X104514321Y-85046555D01*
X104355143Y-84930904D01*
X104179835Y-84841581D01*
X103992705Y-84780778D01*
X103950000Y-84774014D01*
X103950000Y-85816988D01*
X103892993Y-85784075D01*
X103765826Y-85750000D01*
X103634174Y-85750000D01*
X103507007Y-85784075D01*
X103450000Y-85816988D01*
X103450000Y-84774014D01*
X103449999Y-84774014D01*
X103407294Y-84780778D01*
X103220164Y-84841581D01*
X103044856Y-84930904D01*
X102885678Y-85046555D01*
X102746555Y-85185678D01*
X102630904Y-85344856D01*
X102560765Y-85482512D01*
X102512790Y-85533308D01*
X102444969Y-85550103D01*
X102378834Y-85527565D01*
X102339795Y-85482511D01*
X102339514Y-85481960D01*
X102269524Y-85344595D01*
X102269523Y-85344594D01*
X102252144Y-85320674D01*
X102153828Y-85185354D01*
X102014646Y-85046172D01*
X101855405Y-84930476D01*
X101680029Y-84841117D01*
X101492826Y-84780290D01*
X101298422Y-84749500D01*
X101298417Y-84749500D01*
X101101583Y-84749500D01*
X101101578Y-84749500D01*
X100907173Y-84780290D01*
X100719970Y-84841117D01*
X100544594Y-84930476D01*
X100474546Y-84981370D01*
X100385354Y-85046172D01*
X100385352Y-85046174D01*
X100385351Y-85046174D01*
X100246174Y-85185351D01*
X100246174Y-85185352D01*
X100246172Y-85185354D01*
X100245937Y-85185678D01*
X100130476Y-85344594D01*
X100060485Y-85481960D01*
X100012510Y-85532756D01*
X99944689Y-85549551D01*
X99878554Y-85527014D01*
X99839515Y-85481960D01*
X99804690Y-85413613D01*
X99769524Y-85344595D01*
X99653828Y-85185354D01*
X99514646Y-85046172D01*
X99514645Y-85046171D01*
X99514643Y-85046169D01*
X99501612Y-85036701D01*
X99458948Y-84981370D01*
X99450500Y-84936385D01*
X99450500Y-71425201D01*
X99470185Y-71358162D01*
X99522989Y-71312407D01*
X99592147Y-71302463D01*
X99655703Y-71331488D01*
X99665731Y-71341219D01*
X99680600Y-71357371D01*
X99680602Y-71357373D01*
X99876762Y-71510051D01*
X99876771Y-71510057D01*
X100095385Y-71628364D01*
X100095396Y-71628369D01*
X100330506Y-71709083D01*
X100575707Y-71750000D01*
X100824293Y-71750000D01*
X101069493Y-71709083D01*
X101304603Y-71628369D01*
X101304614Y-71628364D01*
X101523228Y-71510057D01*
X101523231Y-71510055D01*
X101570056Y-71473609D01*
X101062293Y-70965846D01*
X101078942Y-70958951D01*
X101209970Y-70871401D01*
X101321401Y-70759970D01*
X101408951Y-70628942D01*
X101415846Y-70612294D01*
X101923434Y-71119882D01*
X102023731Y-70966369D01*
X102123587Y-70738717D01*
X102184612Y-70497738D01*
X102184614Y-70497729D01*
X102205141Y-70250005D01*
X102205141Y-70249994D01*
X102184614Y-70002270D01*
X102184612Y-70002261D01*
X102123587Y-69761282D01*
X102023731Y-69533630D01*
X101923434Y-69380116D01*
X101415846Y-69887704D01*
X101408951Y-69871058D01*
X101321401Y-69740030D01*
X101209970Y-69628599D01*
X101078942Y-69541049D01*
X101062293Y-69534152D01*
X101570057Y-69026389D01*
X101523229Y-68989943D01*
X101304614Y-68871635D01*
X101304604Y-68871630D01*
X101146289Y-68817281D01*
X101089274Y-68776896D01*
X101063143Y-68712096D01*
X101076194Y-68643456D01*
X101124283Y-68592769D01*
X101146289Y-68582719D01*
X101304604Y-68528369D01*
X101304614Y-68528364D01*
X101523228Y-68410057D01*
X101523231Y-68410055D01*
X101570056Y-68373609D01*
X101062293Y-67865846D01*
X101078942Y-67858951D01*
X101209970Y-67771401D01*
X101321401Y-67659970D01*
X101408951Y-67528942D01*
X101415846Y-67512294D01*
X101923434Y-68019882D01*
X102023731Y-67866369D01*
X102123587Y-67638717D01*
X102184612Y-67397738D01*
X102184614Y-67397729D01*
X102205141Y-67150005D01*
X102205141Y-67149994D01*
X102184614Y-66902270D01*
X102184612Y-66902261D01*
X102123587Y-66661282D01*
X102023731Y-66433630D01*
X101923434Y-66280116D01*
X101415846Y-66787704D01*
X101408951Y-66771058D01*
X101321401Y-66640030D01*
X101209970Y-66528599D01*
X101078942Y-66441049D01*
X101062293Y-66434152D01*
X101570057Y-65926389D01*
X101523229Y-65889943D01*
X101304614Y-65771635D01*
X101304603Y-65771630D01*
X101069493Y-65690916D01*
X100824293Y-65650000D01*
X100575707Y-65650000D01*
X100330506Y-65690916D01*
X100095396Y-65771630D01*
X100095385Y-65771635D01*
X99876771Y-65889942D01*
X99876762Y-65889948D01*
X99680602Y-66042626D01*
X99680597Y-66042630D01*
X99665729Y-66058782D01*
X99605841Y-66094772D01*
X99536003Y-66092671D01*
X99478387Y-66053146D01*
X99451287Y-65988746D01*
X99450500Y-65974798D01*
X99450500Y-61212228D01*
X99470185Y-61145189D01*
X99486815Y-61124551D01*
X100260752Y-60350613D01*
X100322073Y-60317130D01*
X100368836Y-60315987D01*
X100575665Y-60350500D01*
X100575666Y-60350500D01*
X100824335Y-60350500D01*
X101069614Y-60309571D01*
X101304810Y-60228828D01*
X101523509Y-60110474D01*
X101719744Y-59957738D01*
X101888164Y-59774785D01*
X102024173Y-59566607D01*
X102124063Y-59338881D01*
X102185108Y-59097821D01*
X102186765Y-59077824D01*
X102205643Y-58850005D01*
X102205643Y-58849994D01*
X102185109Y-58602187D01*
X102185107Y-58602175D01*
X102124063Y-58361118D01*
X102024173Y-58133393D01*
X101888166Y-57925217D01*
X101866557Y-57901744D01*
X101719744Y-57742262D01*
X101523509Y-57589526D01*
X101523508Y-57589525D01*
X101523505Y-57589523D01*
X101523503Y-57589522D01*
X101327692Y-57483555D01*
X101278101Y-57434335D01*
X101262993Y-57366119D01*
X101287163Y-57300563D01*
X101342939Y-57258482D01*
X101386709Y-57250500D01*
X113576334Y-57250500D01*
X113643373Y-57270185D01*
G37*
%TD.AperFunction*%
%TA.AperFunction,Conductor*%
G36*
X119642539Y-57270185D02*
G01*
X119688294Y-57322989D01*
X119699500Y-57374500D01*
X119699500Y-77083530D01*
X119679815Y-77150569D01*
X119627011Y-77196324D01*
X119557853Y-77206268D01*
X119520657Y-77194742D01*
X119463085Y-77166351D01*
X119463082Y-77166350D01*
X119463078Y-77166348D01*
X119463077Y-77166348D01*
X119332398Y-77121988D01*
X119183730Y-77071521D01*
X119183724Y-77071519D01*
X119183722Y-77071519D01*
X118894380Y-77013966D01*
X118894373Y-77013965D01*
X118894363Y-77013964D01*
X118600007Y-76994671D01*
X118599993Y-76994671D01*
X118305636Y-77013964D01*
X118305624Y-77013965D01*
X118305620Y-77013966D01*
X118305612Y-77013967D01*
X118305609Y-77013968D01*
X118016283Y-77071518D01*
X118016269Y-77071521D01*
X117736919Y-77166349D01*
X117472334Y-77296828D01*
X117227041Y-77460728D01*
X117005241Y-77655241D01*
X116810728Y-77877041D01*
X116646828Y-78122334D01*
X116516349Y-78386919D01*
X116421521Y-78666269D01*
X116421518Y-78666283D01*
X116363968Y-78955609D01*
X116363964Y-78955636D01*
X116344671Y-79249992D01*
X116344671Y-79250007D01*
X116363964Y-79544363D01*
X116363965Y-79544373D01*
X116363966Y-79544380D01*
X116363968Y-79544390D01*
X116421518Y-79833716D01*
X116421521Y-79833730D01*
X116516349Y-80113080D01*
X116646825Y-80377660D01*
X116646829Y-80377667D01*
X116810725Y-80622955D01*
X117005241Y-80844758D01*
X117227043Y-81039273D01*
X117472335Y-81203172D01*
X117736923Y-81333652D01*
X118016278Y-81428481D01*
X118305620Y-81486034D01*
X118333888Y-81487886D01*
X118599993Y-81505329D01*
X118600000Y-81505329D01*
X118600007Y-81505329D01*
X118835675Y-81489881D01*
X118894380Y-81486034D01*
X119183722Y-81428481D01*
X119463077Y-81333652D01*
X119520657Y-81305256D01*
X119589487Y-81293260D01*
X119653878Y-81320381D01*
X119693385Y-81378010D01*
X119699500Y-81416469D01*
X119699500Y-88555858D01*
X119679815Y-88622897D01*
X119627011Y-88668652D01*
X119557853Y-88678596D01*
X119494297Y-88649571D01*
X119491962Y-88647496D01*
X119464978Y-88622897D01*
X119426562Y-88587876D01*
X119426559Y-88587874D01*
X119426558Y-88587873D01*
X119237404Y-88470754D01*
X119237398Y-88470752D01*
X119029940Y-88390382D01*
X118811243Y-88349500D01*
X118588757Y-88349500D01*
X118370060Y-88390382D01*
X118238864Y-88441207D01*
X118162601Y-88470752D01*
X118162595Y-88470754D01*
X117973439Y-88587874D01*
X117973437Y-88587876D01*
X117809020Y-88737761D01*
X117674943Y-88915308D01*
X117674938Y-88915316D01*
X117575775Y-89114461D01*
X117575769Y-89114476D01*
X117519266Y-89313066D01*
X117481987Y-89372160D01*
X117418677Y-89401717D01*
X117349438Y-89392355D01*
X117296251Y-89347045D01*
X117280734Y-89313066D01*
X117224230Y-89114476D01*
X117224229Y-89114472D01*
X117219250Y-89104472D01*
X117125061Y-88915316D01*
X117125056Y-88915308D01*
X117024822Y-88782577D01*
X116990981Y-88737764D01*
X116990978Y-88737761D01*
X116990974Y-88737757D01*
X116890962Y-88646584D01*
X116854680Y-88586873D01*
X116850500Y-88554947D01*
X116850500Y-88476079D01*
X116821659Y-88331092D01*
X116821658Y-88331091D01*
X116821658Y-88331087D01*
X116790027Y-88254723D01*
X116765087Y-88194511D01*
X116765080Y-88194498D01*
X116682952Y-88071585D01*
X116680274Y-88068907D01*
X116578416Y-87967049D01*
X116537899Y-87926532D01*
X116504415Y-87865210D01*
X116509399Y-87795518D01*
X116551271Y-87739585D01*
X116588520Y-87722094D01*
X116588076Y-87720726D01*
X116779835Y-87658418D01*
X116955143Y-87569095D01*
X117114321Y-87453444D01*
X117253444Y-87314321D01*
X117369095Y-87155143D01*
X117458418Y-86979835D01*
X117519221Y-86792705D01*
X117550000Y-86598382D01*
X117550000Y-86500000D01*
X116733012Y-86500000D01*
X116765925Y-86442993D01*
X116800000Y-86315826D01*
X116800000Y-86184174D01*
X116765925Y-86057007D01*
X116733012Y-86000000D01*
X117550000Y-86000000D01*
X117550000Y-85901617D01*
X117519221Y-85707294D01*
X117458418Y-85520164D01*
X117369095Y-85344856D01*
X117253444Y-85185678D01*
X117114321Y-85046555D01*
X116955143Y-84930904D01*
X116779835Y-84841581D01*
X116592705Y-84780778D01*
X116550000Y-84774014D01*
X116550000Y-85816988D01*
X116492993Y-85784075D01*
X116365826Y-85750000D01*
X116234174Y-85750000D01*
X116107007Y-85784075D01*
X116050000Y-85816988D01*
X116050000Y-84774014D01*
X116049999Y-84774014D01*
X116007294Y-84780778D01*
X115820164Y-84841581D01*
X115644856Y-84930904D01*
X115485678Y-85046555D01*
X115346555Y-85185678D01*
X115230904Y-85344856D01*
X115160765Y-85482512D01*
X115112790Y-85533308D01*
X115044969Y-85550103D01*
X114978834Y-85527565D01*
X114939795Y-85482511D01*
X114939514Y-85481960D01*
X114869524Y-85344595D01*
X114869523Y-85344594D01*
X114852144Y-85320674D01*
X114753828Y-85185354D01*
X114614646Y-85046172D01*
X114455405Y-84930476D01*
X114280029Y-84841117D01*
X114092826Y-84780290D01*
X113898422Y-84749500D01*
X113898417Y-84749500D01*
X113701583Y-84749500D01*
X113701578Y-84749500D01*
X113507173Y-84780290D01*
X113319970Y-84841117D01*
X113144594Y-84930476D01*
X113074546Y-84981370D01*
X112985354Y-85046172D01*
X112985352Y-85046174D01*
X112985351Y-85046174D01*
X112846174Y-85185351D01*
X112846174Y-85185352D01*
X112846172Y-85185354D01*
X112845937Y-85185678D01*
X112730476Y-85344594D01*
X112660485Y-85481960D01*
X112612510Y-85532756D01*
X112544689Y-85549551D01*
X112478554Y-85527014D01*
X112439515Y-85481960D01*
X112404690Y-85413613D01*
X112369524Y-85344595D01*
X112253828Y-85185354D01*
X112114646Y-85046172D01*
X112114645Y-85046171D01*
X112114643Y-85046169D01*
X112101612Y-85036701D01*
X112058948Y-84981370D01*
X112050500Y-84936385D01*
X112050500Y-67129994D01*
X112794859Y-67129994D01*
X112794859Y-67130005D01*
X112815385Y-67377729D01*
X112815387Y-67377738D01*
X112876412Y-67618717D01*
X112976266Y-67846364D01*
X113076564Y-67999882D01*
X113584152Y-67492293D01*
X113591049Y-67508942D01*
X113678599Y-67639970D01*
X113790030Y-67751401D01*
X113921058Y-67838951D01*
X113937705Y-67845846D01*
X113429942Y-68353609D01*
X113476768Y-68390055D01*
X113476770Y-68390056D01*
X113695385Y-68508364D01*
X113695396Y-68508369D01*
X113853710Y-68562719D01*
X113910725Y-68603105D01*
X113936856Y-68667904D01*
X113923804Y-68736544D01*
X113875716Y-68787232D01*
X113853710Y-68797281D01*
X113695396Y-68851630D01*
X113695390Y-68851632D01*
X113476761Y-68969949D01*
X113429942Y-69006388D01*
X113429942Y-69006390D01*
X113937705Y-69514153D01*
X113921058Y-69521049D01*
X113790030Y-69608599D01*
X113678599Y-69720030D01*
X113591049Y-69851058D01*
X113584153Y-69867705D01*
X113076564Y-69360116D01*
X112976267Y-69513632D01*
X112876412Y-69741282D01*
X112815387Y-69982261D01*
X112815385Y-69982270D01*
X112794859Y-70229994D01*
X112794859Y-70230005D01*
X112815385Y-70477729D01*
X112815387Y-70477738D01*
X112876412Y-70718717D01*
X112976266Y-70946364D01*
X113076564Y-71099882D01*
X113584152Y-70592293D01*
X113591049Y-70608942D01*
X113678599Y-70739970D01*
X113790030Y-70851401D01*
X113921058Y-70938951D01*
X113937705Y-70945846D01*
X113429942Y-71453609D01*
X113476768Y-71490055D01*
X113476770Y-71490056D01*
X113695385Y-71608364D01*
X113695396Y-71608369D01*
X113930506Y-71689083D01*
X114175707Y-71730000D01*
X114424293Y-71730000D01*
X114669493Y-71689083D01*
X114904603Y-71608369D01*
X114904614Y-71608364D01*
X115123228Y-71490057D01*
X115123231Y-71490055D01*
X115170056Y-71453609D01*
X114662293Y-70945846D01*
X114678942Y-70938951D01*
X114809970Y-70851401D01*
X114921401Y-70739970D01*
X115008951Y-70608942D01*
X115015846Y-70592294D01*
X115523434Y-71099882D01*
X115623731Y-70946369D01*
X115723587Y-70718717D01*
X115784612Y-70477738D01*
X115784614Y-70477729D01*
X115805141Y-70230005D01*
X115805141Y-70229994D01*
X115784614Y-69982270D01*
X115784612Y-69982261D01*
X115723587Y-69741282D01*
X115623731Y-69513630D01*
X115523434Y-69360116D01*
X115015846Y-69867704D01*
X115008951Y-69851058D01*
X114921401Y-69720030D01*
X114809970Y-69608599D01*
X114678942Y-69521049D01*
X114662294Y-69514153D01*
X115170057Y-69006390D01*
X115170056Y-69006389D01*
X115123229Y-68969943D01*
X114904614Y-68851635D01*
X114904604Y-68851630D01*
X114746289Y-68797281D01*
X114689274Y-68756896D01*
X114663143Y-68692096D01*
X114676194Y-68623456D01*
X114724283Y-68572769D01*
X114746289Y-68562719D01*
X114904604Y-68508369D01*
X114904614Y-68508364D01*
X115123228Y-68390057D01*
X115123231Y-68390055D01*
X115170056Y-68353609D01*
X114662293Y-67845846D01*
X114678942Y-67838951D01*
X114809970Y-67751401D01*
X114921401Y-67639970D01*
X115008951Y-67508942D01*
X115015846Y-67492294D01*
X115523434Y-67999882D01*
X115623731Y-67846369D01*
X115723587Y-67618717D01*
X115784612Y-67377738D01*
X115784614Y-67377729D01*
X115805141Y-67130005D01*
X115805141Y-67129994D01*
X115784614Y-66882270D01*
X115784612Y-66882261D01*
X115723587Y-66641282D01*
X115623731Y-66413630D01*
X115523434Y-66260116D01*
X115015846Y-66767704D01*
X115008951Y-66751058D01*
X114921401Y-66620030D01*
X114809970Y-66508599D01*
X114678942Y-66421049D01*
X114662294Y-66414153D01*
X115170057Y-65906390D01*
X115170056Y-65906389D01*
X115123229Y-65869943D01*
X114904614Y-65751635D01*
X114904603Y-65751630D01*
X114669493Y-65670916D01*
X114424293Y-65630000D01*
X114175707Y-65630000D01*
X113930506Y-65670916D01*
X113695396Y-65751630D01*
X113695390Y-65751632D01*
X113476761Y-65869949D01*
X113429942Y-65906388D01*
X113429942Y-65906390D01*
X113937705Y-66414153D01*
X113921058Y-66421049D01*
X113790030Y-66508599D01*
X113678599Y-66620030D01*
X113591049Y-66751058D01*
X113584153Y-66767705D01*
X113076564Y-66260116D01*
X112976267Y-66413632D01*
X112876412Y-66641282D01*
X112815387Y-66882261D01*
X112815385Y-66882270D01*
X112794859Y-67129994D01*
X112050500Y-67129994D01*
X112050500Y-62192228D01*
X112070185Y-62125189D01*
X112086814Y-62104552D01*
X113860752Y-60330613D01*
X113922073Y-60297130D01*
X113968836Y-60295987D01*
X114175665Y-60330500D01*
X114175666Y-60330500D01*
X114424335Y-60330500D01*
X114669614Y-60289571D01*
X114904810Y-60208828D01*
X115123509Y-60090474D01*
X115319744Y-59937738D01*
X115488164Y-59754785D01*
X115624173Y-59546607D01*
X115724063Y-59318881D01*
X115785108Y-59077821D01*
X115785109Y-59077812D01*
X115805643Y-58830005D01*
X115805643Y-58829994D01*
X115785109Y-58582187D01*
X115785107Y-58582175D01*
X115724063Y-58341118D01*
X115624173Y-58113393D01*
X115488166Y-57905217D01*
X115466557Y-57881744D01*
X115319744Y-57722262D01*
X115123509Y-57569526D01*
X115123508Y-57569525D01*
X115123505Y-57569523D01*
X115123503Y-57569522D01*
X114964649Y-57483555D01*
X114915058Y-57434335D01*
X114899950Y-57366119D01*
X114924120Y-57300563D01*
X114979896Y-57258482D01*
X115023666Y-57250500D01*
X119575500Y-57250500D01*
X119642539Y-57270185D01*
G37*
%TD.AperFunction*%
%TA.AperFunction,Conductor*%
G36*
X100080330Y-57270185D02*
G01*
X100126085Y-57322989D01*
X100136029Y-57392147D01*
X100107004Y-57455703D01*
X100072308Y-57483555D01*
X99876496Y-57589522D01*
X99876494Y-57589523D01*
X99680257Y-57742261D01*
X99511833Y-57925217D01*
X99375826Y-58133393D01*
X99275936Y-58361118D01*
X99214892Y-58602175D01*
X99214890Y-58602187D01*
X99194357Y-58849994D01*
X99194357Y-58850005D01*
X99214891Y-59097817D01*
X99233143Y-59169892D01*
X99230518Y-59239712D01*
X99200618Y-59288013D01*
X98117050Y-60371580D01*
X98117044Y-60371588D01*
X98067812Y-60445268D01*
X98067813Y-60445269D01*
X98034921Y-60494496D01*
X98034914Y-60494508D01*
X97978342Y-60631086D01*
X97978340Y-60631092D01*
X97949500Y-60776079D01*
X97949500Y-77346701D01*
X97929815Y-77413740D01*
X97877011Y-77459495D01*
X97807853Y-77469439D01*
X97756610Y-77449803D01*
X97527667Y-77296829D01*
X97527660Y-77296825D01*
X97263080Y-77166349D01*
X96983730Y-77071521D01*
X96983724Y-77071519D01*
X96983722Y-77071519D01*
X96694380Y-77013966D01*
X96694373Y-77013965D01*
X96694363Y-77013964D01*
X96400007Y-76994671D01*
X96399993Y-76994671D01*
X96105636Y-77013964D01*
X96105624Y-77013965D01*
X96105620Y-77013966D01*
X96105612Y-77013967D01*
X96105609Y-77013968D01*
X95816283Y-77071518D01*
X95816269Y-77071521D01*
X95536917Y-77166350D01*
X95536914Y-77166351D01*
X95479343Y-77194742D01*
X95410511Y-77206738D01*
X95346120Y-77179617D01*
X95306614Y-77121988D01*
X95300500Y-77083530D01*
X95300500Y-57374500D01*
X95320185Y-57307461D01*
X95372989Y-57261706D01*
X95424500Y-57250500D01*
X100013291Y-57250500D01*
X100080330Y-57270185D01*
G37*
%TD.AperFunction*%
%TD*%
M02*
