%TF.GenerationSoftware,KiCad,Pcbnew,8.0.4-8.0.4-0~ubuntu22.04.1*%
%TF.CreationDate,2024-07-28T19:50:56+02:00*%
%TF.ProjectId,VoltageProcessor,566f6c74-6167-4655-9072-6f636573736f,0.1*%
%TF.SameCoordinates,Original*%
%TF.FileFunction,Legend,Top*%
%TF.FilePolarity,Positive*%
%FSLAX46Y46*%
G04 Gerber Fmt 4.6, Leading zero omitted, Abs format (unit mm)*
G04 Created by KiCad (PCBNEW 8.0.4-8.0.4-0~ubuntu22.04.1) date 2024-07-28 19:50:56*
%MOMM*%
%LPD*%
G01*
G04 APERTURE LIST*
G04 Aperture macros list*
%AMRoundRect*
0 Rectangle with rounded corners*
0 $1 Rounding radius*
0 $2 $3 $4 $5 $6 $7 $8 $9 X,Y pos of 4 corners*
0 Add a 4 corners polygon primitive as box body*
4,1,4,$2,$3,$4,$5,$6,$7,$8,$9,$2,$3,0*
0 Add four circle primitives for the rounded corners*
1,1,$1+$1,$2,$3*
1,1,$1+$1,$4,$5*
1,1,$1+$1,$6,$7*
1,1,$1+$1,$8,$9*
0 Add four rect primitives between the rounded corners*
20,1,$1+$1,$2,$3,$4,$5,0*
20,1,$1+$1,$4,$5,$6,$7,0*
20,1,$1+$1,$6,$7,$8,$9,0*
20,1,$1+$1,$8,$9,$2,$3,0*%
G04 Aperture macros list end*
%ADD10C,0.150000*%
%ADD11C,0.200660*%
%ADD12C,0.120000*%
%ADD13C,0.381000*%
%ADD14C,2.000000*%
%ADD15C,3.500000*%
%ADD16O,1.500000X2.000000*%
%ADD17C,1.400000*%
%ADD18O,1.400000X1.400000*%
%ADD19C,1.600000*%
%ADD20R,1.600000X1.600000*%
%ADD21O,1.600000X1.600000*%
%ADD22RoundRect,0.250000X0.600000X0.600000X-0.600000X0.600000X-0.600000X-0.600000X0.600000X-0.600000X0*%
%ADD23C,1.700000*%
G04 APERTURE END LIST*
D10*
X119154819Y-93526666D02*
X118678628Y-93859999D01*
X119154819Y-94098094D02*
X118154819Y-94098094D01*
X118154819Y-94098094D02*
X118154819Y-93717142D01*
X118154819Y-93717142D02*
X118202438Y-93621904D01*
X118202438Y-93621904D02*
X118250057Y-93574285D01*
X118250057Y-93574285D02*
X118345295Y-93526666D01*
X118345295Y-93526666D02*
X118488152Y-93526666D01*
X118488152Y-93526666D02*
X118583390Y-93574285D01*
X118583390Y-93574285D02*
X118631009Y-93621904D01*
X118631009Y-93621904D02*
X118678628Y-93717142D01*
X118678628Y-93717142D02*
X118678628Y-94098094D01*
X118488152Y-92669523D02*
X119154819Y-92669523D01*
X118107200Y-92907618D02*
X118821485Y-93145713D01*
X118821485Y-93145713D02*
X118821485Y-92526666D01*
X99754819Y-121382857D02*
X99278628Y-121716190D01*
X99754819Y-121954285D02*
X98754819Y-121954285D01*
X98754819Y-121954285D02*
X98754819Y-121573333D01*
X98754819Y-121573333D02*
X98802438Y-121478095D01*
X98802438Y-121478095D02*
X98850057Y-121430476D01*
X98850057Y-121430476D02*
X98945295Y-121382857D01*
X98945295Y-121382857D02*
X99088152Y-121382857D01*
X99088152Y-121382857D02*
X99183390Y-121430476D01*
X99183390Y-121430476D02*
X99231009Y-121478095D01*
X99231009Y-121478095D02*
X99278628Y-121573333D01*
X99278628Y-121573333D02*
X99278628Y-121954285D01*
X99754819Y-120430476D02*
X99754819Y-121001904D01*
X99754819Y-120716190D02*
X98754819Y-120716190D01*
X98754819Y-120716190D02*
X98897676Y-120811428D01*
X98897676Y-120811428D02*
X98992914Y-120906666D01*
X98992914Y-120906666D02*
X99040533Y-121001904D01*
X98754819Y-119811428D02*
X98754819Y-119716190D01*
X98754819Y-119716190D02*
X98802438Y-119620952D01*
X98802438Y-119620952D02*
X98850057Y-119573333D01*
X98850057Y-119573333D02*
X98945295Y-119525714D01*
X98945295Y-119525714D02*
X99135771Y-119478095D01*
X99135771Y-119478095D02*
X99373866Y-119478095D01*
X99373866Y-119478095D02*
X99564342Y-119525714D01*
X99564342Y-119525714D02*
X99659580Y-119573333D01*
X99659580Y-119573333D02*
X99707200Y-119620952D01*
X99707200Y-119620952D02*
X99754819Y-119716190D01*
X99754819Y-119716190D02*
X99754819Y-119811428D01*
X99754819Y-119811428D02*
X99707200Y-119906666D01*
X99707200Y-119906666D02*
X99659580Y-119954285D01*
X99659580Y-119954285D02*
X99564342Y-120001904D01*
X99564342Y-120001904D02*
X99373866Y-120049523D01*
X99373866Y-120049523D02*
X99135771Y-120049523D01*
X99135771Y-120049523D02*
X98945295Y-120001904D01*
X98945295Y-120001904D02*
X98850057Y-119954285D01*
X98850057Y-119954285D02*
X98802438Y-119906666D01*
X98802438Y-119906666D02*
X98754819Y-119811428D01*
X118333333Y-120509580D02*
X118285714Y-120557200D01*
X118285714Y-120557200D02*
X118142857Y-120604819D01*
X118142857Y-120604819D02*
X118047619Y-120604819D01*
X118047619Y-120604819D02*
X117904762Y-120557200D01*
X117904762Y-120557200D02*
X117809524Y-120461961D01*
X117809524Y-120461961D02*
X117761905Y-120366723D01*
X117761905Y-120366723D02*
X117714286Y-120176247D01*
X117714286Y-120176247D02*
X117714286Y-120033390D01*
X117714286Y-120033390D02*
X117761905Y-119842914D01*
X117761905Y-119842914D02*
X117809524Y-119747676D01*
X117809524Y-119747676D02*
X117904762Y-119652438D01*
X117904762Y-119652438D02*
X118047619Y-119604819D01*
X118047619Y-119604819D02*
X118142857Y-119604819D01*
X118142857Y-119604819D02*
X118285714Y-119652438D01*
X118285714Y-119652438D02*
X118333333Y-119700057D01*
X119190476Y-119938152D02*
X119190476Y-120604819D01*
X118952381Y-119557200D02*
X118714286Y-120271485D01*
X118714286Y-120271485D02*
X119333333Y-120271485D01*
X117459580Y-107116666D02*
X117507200Y-107164285D01*
X117507200Y-107164285D02*
X117554819Y-107307142D01*
X117554819Y-107307142D02*
X117554819Y-107402380D01*
X117554819Y-107402380D02*
X117507200Y-107545237D01*
X117507200Y-107545237D02*
X117411961Y-107640475D01*
X117411961Y-107640475D02*
X117316723Y-107688094D01*
X117316723Y-107688094D02*
X117126247Y-107735713D01*
X117126247Y-107735713D02*
X116983390Y-107735713D01*
X116983390Y-107735713D02*
X116792914Y-107688094D01*
X116792914Y-107688094D02*
X116697676Y-107640475D01*
X116697676Y-107640475D02*
X116602438Y-107545237D01*
X116602438Y-107545237D02*
X116554819Y-107402380D01*
X116554819Y-107402380D02*
X116554819Y-107307142D01*
X116554819Y-107307142D02*
X116602438Y-107164285D01*
X116602438Y-107164285D02*
X116650057Y-107116666D01*
X116554819Y-106783332D02*
X116554819Y-106164285D01*
X116554819Y-106164285D02*
X116935771Y-106497618D01*
X116935771Y-106497618D02*
X116935771Y-106354761D01*
X116935771Y-106354761D02*
X116983390Y-106259523D01*
X116983390Y-106259523D02*
X117031009Y-106211904D01*
X117031009Y-106211904D02*
X117126247Y-106164285D01*
X117126247Y-106164285D02*
X117364342Y-106164285D01*
X117364342Y-106164285D02*
X117459580Y-106211904D01*
X117459580Y-106211904D02*
X117507200Y-106259523D01*
X117507200Y-106259523D02*
X117554819Y-106354761D01*
X117554819Y-106354761D02*
X117554819Y-106640475D01*
X117554819Y-106640475D02*
X117507200Y-106735713D01*
X117507200Y-106735713D02*
X117459580Y-106783332D01*
X100366666Y-152204819D02*
X100366666Y-152919104D01*
X100366666Y-152919104D02*
X100319047Y-153061961D01*
X100319047Y-153061961D02*
X100223809Y-153157200D01*
X100223809Y-153157200D02*
X100080952Y-153204819D01*
X100080952Y-153204819D02*
X99985714Y-153204819D01*
X101271428Y-152538152D02*
X101271428Y-153204819D01*
X101033333Y-152157200D02*
X100795238Y-152871485D01*
X100795238Y-152871485D02*
X101414285Y-152871485D01*
X99954819Y-93526666D02*
X99478628Y-93859999D01*
X99954819Y-94098094D02*
X98954819Y-94098094D01*
X98954819Y-94098094D02*
X98954819Y-93717142D01*
X98954819Y-93717142D02*
X99002438Y-93621904D01*
X99002438Y-93621904D02*
X99050057Y-93574285D01*
X99050057Y-93574285D02*
X99145295Y-93526666D01*
X99145295Y-93526666D02*
X99288152Y-93526666D01*
X99288152Y-93526666D02*
X99383390Y-93574285D01*
X99383390Y-93574285D02*
X99431009Y-93621904D01*
X99431009Y-93621904D02*
X99478628Y-93717142D01*
X99478628Y-93717142D02*
X99478628Y-94098094D01*
X99954819Y-92574285D02*
X99954819Y-93145713D01*
X99954819Y-92859999D02*
X98954819Y-92859999D01*
X98954819Y-92859999D02*
X99097676Y-92955237D01*
X99097676Y-92955237D02*
X99192914Y-93050475D01*
X99192914Y-93050475D02*
X99240533Y-93145713D01*
X119154819Y-103416666D02*
X118678628Y-103749999D01*
X119154819Y-103988094D02*
X118154819Y-103988094D01*
X118154819Y-103988094D02*
X118154819Y-103607142D01*
X118154819Y-103607142D02*
X118202438Y-103511904D01*
X118202438Y-103511904D02*
X118250057Y-103464285D01*
X118250057Y-103464285D02*
X118345295Y-103416666D01*
X118345295Y-103416666D02*
X118488152Y-103416666D01*
X118488152Y-103416666D02*
X118583390Y-103464285D01*
X118583390Y-103464285D02*
X118631009Y-103511904D01*
X118631009Y-103511904D02*
X118678628Y-103607142D01*
X118678628Y-103607142D02*
X118678628Y-103988094D01*
X118154819Y-102559523D02*
X118154819Y-102749999D01*
X118154819Y-102749999D02*
X118202438Y-102845237D01*
X118202438Y-102845237D02*
X118250057Y-102892856D01*
X118250057Y-102892856D02*
X118392914Y-102988094D01*
X118392914Y-102988094D02*
X118583390Y-103035713D01*
X118583390Y-103035713D02*
X118964342Y-103035713D01*
X118964342Y-103035713D02*
X119059580Y-102988094D01*
X119059580Y-102988094D02*
X119107200Y-102940475D01*
X119107200Y-102940475D02*
X119154819Y-102845237D01*
X119154819Y-102845237D02*
X119154819Y-102654761D01*
X119154819Y-102654761D02*
X119107200Y-102559523D01*
X119107200Y-102559523D02*
X119059580Y-102511904D01*
X119059580Y-102511904D02*
X118964342Y-102464285D01*
X118964342Y-102464285D02*
X118726247Y-102464285D01*
X118726247Y-102464285D02*
X118631009Y-102511904D01*
X118631009Y-102511904D02*
X118583390Y-102559523D01*
X118583390Y-102559523D02*
X118535771Y-102654761D01*
X118535771Y-102654761D02*
X118535771Y-102845237D01*
X118535771Y-102845237D02*
X118583390Y-102940475D01*
X118583390Y-102940475D02*
X118631009Y-102988094D01*
X118631009Y-102988094D02*
X118726247Y-103035713D01*
D11*
X112906464Y-84934021D02*
X112406084Y-84219193D01*
X112048670Y-84934021D02*
X112048670Y-83432881D01*
X112048670Y-83432881D02*
X112620533Y-83432881D01*
X112620533Y-83432881D02*
X112763498Y-83504364D01*
X112763498Y-83504364D02*
X112834981Y-83575847D01*
X112834981Y-83575847D02*
X112906464Y-83718813D01*
X112906464Y-83718813D02*
X112906464Y-83933261D01*
X112906464Y-83933261D02*
X112834981Y-84076227D01*
X112834981Y-84076227D02*
X112763498Y-84147710D01*
X112763498Y-84147710D02*
X112620533Y-84219193D01*
X112620533Y-84219193D02*
X112048670Y-84219193D01*
X113335361Y-83432881D02*
X113835741Y-84934021D01*
X113835741Y-84934021D02*
X114336121Y-83432881D01*
X114765018Y-83575847D02*
X114836501Y-83504364D01*
X114836501Y-83504364D02*
X114979467Y-83432881D01*
X114979467Y-83432881D02*
X115336881Y-83432881D01*
X115336881Y-83432881D02*
X115479847Y-83504364D01*
X115479847Y-83504364D02*
X115551329Y-83575847D01*
X115551329Y-83575847D02*
X115622812Y-83718813D01*
X115622812Y-83718813D02*
X115622812Y-83861779D01*
X115622812Y-83861779D02*
X115551329Y-84076227D01*
X115551329Y-84076227D02*
X114693535Y-84934021D01*
X114693535Y-84934021D02*
X115622812Y-84934021D01*
X112191635Y-79934021D02*
X111333841Y-79934021D01*
X111762738Y-79934021D02*
X111762738Y-78432881D01*
X111762738Y-78432881D02*
X111619772Y-78647330D01*
X111619772Y-78647330D02*
X111476807Y-78790296D01*
X111476807Y-78790296D02*
X111333841Y-78861779D01*
X113120912Y-78432881D02*
X113263878Y-78432881D01*
X113263878Y-78432881D02*
X113406844Y-78504364D01*
X113406844Y-78504364D02*
X113478327Y-78575847D01*
X113478327Y-78575847D02*
X113549809Y-78718813D01*
X113549809Y-78718813D02*
X113621292Y-79004744D01*
X113621292Y-79004744D02*
X113621292Y-79362159D01*
X113621292Y-79362159D02*
X113549809Y-79648090D01*
X113549809Y-79648090D02*
X113478327Y-79791056D01*
X113478327Y-79791056D02*
X113406844Y-79862539D01*
X113406844Y-79862539D02*
X113263878Y-79934021D01*
X113263878Y-79934021D02*
X113120912Y-79934021D01*
X113120912Y-79934021D02*
X112977947Y-79862539D01*
X112977947Y-79862539D02*
X112906464Y-79791056D01*
X112906464Y-79791056D02*
X112834981Y-79648090D01*
X112834981Y-79648090D02*
X112763498Y-79362159D01*
X112763498Y-79362159D02*
X112763498Y-79004744D01*
X112763498Y-79004744D02*
X112834981Y-78718813D01*
X112834981Y-78718813D02*
X112906464Y-78575847D01*
X112906464Y-78575847D02*
X112977947Y-78504364D01*
X112977947Y-78504364D02*
X113120912Y-78432881D01*
X114550569Y-78432881D02*
X114693535Y-78432881D01*
X114693535Y-78432881D02*
X114836501Y-78504364D01*
X114836501Y-78504364D02*
X114907984Y-78575847D01*
X114907984Y-78575847D02*
X114979466Y-78718813D01*
X114979466Y-78718813D02*
X115050949Y-79004744D01*
X115050949Y-79004744D02*
X115050949Y-79362159D01*
X115050949Y-79362159D02*
X114979466Y-79648090D01*
X114979466Y-79648090D02*
X114907984Y-79791056D01*
X114907984Y-79791056D02*
X114836501Y-79862539D01*
X114836501Y-79862539D02*
X114693535Y-79934021D01*
X114693535Y-79934021D02*
X114550569Y-79934021D01*
X114550569Y-79934021D02*
X114407604Y-79862539D01*
X114407604Y-79862539D02*
X114336121Y-79791056D01*
X114336121Y-79791056D02*
X114264638Y-79648090D01*
X114264638Y-79648090D02*
X114193155Y-79362159D01*
X114193155Y-79362159D02*
X114193155Y-79004744D01*
X114193155Y-79004744D02*
X114264638Y-78718813D01*
X114264638Y-78718813D02*
X114336121Y-78575847D01*
X114336121Y-78575847D02*
X114407604Y-78504364D01*
X114407604Y-78504364D02*
X114550569Y-78432881D01*
X115694295Y-79934021D02*
X115694295Y-78432881D01*
X115837261Y-79362159D02*
X116266158Y-79934021D01*
X116266158Y-78933261D02*
X115694295Y-79505124D01*
D10*
X100333333Y-104004819D02*
X100000000Y-103528628D01*
X99761905Y-104004819D02*
X99761905Y-103004819D01*
X99761905Y-103004819D02*
X100142857Y-103004819D01*
X100142857Y-103004819D02*
X100238095Y-103052438D01*
X100238095Y-103052438D02*
X100285714Y-103100057D01*
X100285714Y-103100057D02*
X100333333Y-103195295D01*
X100333333Y-103195295D02*
X100333333Y-103338152D01*
X100333333Y-103338152D02*
X100285714Y-103433390D01*
X100285714Y-103433390D02*
X100238095Y-103481009D01*
X100238095Y-103481009D02*
X100142857Y-103528628D01*
X100142857Y-103528628D02*
X99761905Y-103528628D01*
X101238095Y-103004819D02*
X100761905Y-103004819D01*
X100761905Y-103004819D02*
X100714286Y-103481009D01*
X100714286Y-103481009D02*
X100761905Y-103433390D01*
X100761905Y-103433390D02*
X100857143Y-103385771D01*
X100857143Y-103385771D02*
X101095238Y-103385771D01*
X101095238Y-103385771D02*
X101190476Y-103433390D01*
X101190476Y-103433390D02*
X101238095Y-103481009D01*
X101238095Y-103481009D02*
X101285714Y-103576247D01*
X101285714Y-103576247D02*
X101285714Y-103814342D01*
X101285714Y-103814342D02*
X101238095Y-103909580D01*
X101238095Y-103909580D02*
X101190476Y-103957200D01*
X101190476Y-103957200D02*
X101095238Y-104004819D01*
X101095238Y-104004819D02*
X100857143Y-104004819D01*
X100857143Y-104004819D02*
X100761905Y-103957200D01*
X100761905Y-103957200D02*
X100714286Y-103909580D01*
X97204819Y-110366666D02*
X96728628Y-110699999D01*
X97204819Y-110938094D02*
X96204819Y-110938094D01*
X96204819Y-110938094D02*
X96204819Y-110557142D01*
X96204819Y-110557142D02*
X96252438Y-110461904D01*
X96252438Y-110461904D02*
X96300057Y-110414285D01*
X96300057Y-110414285D02*
X96395295Y-110366666D01*
X96395295Y-110366666D02*
X96538152Y-110366666D01*
X96538152Y-110366666D02*
X96633390Y-110414285D01*
X96633390Y-110414285D02*
X96681009Y-110461904D01*
X96681009Y-110461904D02*
X96728628Y-110557142D01*
X96728628Y-110557142D02*
X96728628Y-110938094D01*
X96633390Y-109795237D02*
X96585771Y-109890475D01*
X96585771Y-109890475D02*
X96538152Y-109938094D01*
X96538152Y-109938094D02*
X96442914Y-109985713D01*
X96442914Y-109985713D02*
X96395295Y-109985713D01*
X96395295Y-109985713D02*
X96300057Y-109938094D01*
X96300057Y-109938094D02*
X96252438Y-109890475D01*
X96252438Y-109890475D02*
X96204819Y-109795237D01*
X96204819Y-109795237D02*
X96204819Y-109604761D01*
X96204819Y-109604761D02*
X96252438Y-109509523D01*
X96252438Y-109509523D02*
X96300057Y-109461904D01*
X96300057Y-109461904D02*
X96395295Y-109414285D01*
X96395295Y-109414285D02*
X96442914Y-109414285D01*
X96442914Y-109414285D02*
X96538152Y-109461904D01*
X96538152Y-109461904D02*
X96585771Y-109509523D01*
X96585771Y-109509523D02*
X96633390Y-109604761D01*
X96633390Y-109604761D02*
X96633390Y-109795237D01*
X96633390Y-109795237D02*
X96681009Y-109890475D01*
X96681009Y-109890475D02*
X96728628Y-109938094D01*
X96728628Y-109938094D02*
X96823866Y-109985713D01*
X96823866Y-109985713D02*
X97014342Y-109985713D01*
X97014342Y-109985713D02*
X97109580Y-109938094D01*
X97109580Y-109938094D02*
X97157200Y-109890475D01*
X97157200Y-109890475D02*
X97204819Y-109795237D01*
X97204819Y-109795237D02*
X97204819Y-109604761D01*
X97204819Y-109604761D02*
X97157200Y-109509523D01*
X97157200Y-109509523D02*
X97109580Y-109461904D01*
X97109580Y-109461904D02*
X97014342Y-109414285D01*
X97014342Y-109414285D02*
X96823866Y-109414285D01*
X96823866Y-109414285D02*
X96728628Y-109461904D01*
X96728628Y-109461904D02*
X96681009Y-109509523D01*
X96681009Y-109509523D02*
X96633390Y-109604761D01*
X104854819Y-121392857D02*
X104378628Y-121726190D01*
X104854819Y-121964285D02*
X103854819Y-121964285D01*
X103854819Y-121964285D02*
X103854819Y-121583333D01*
X103854819Y-121583333D02*
X103902438Y-121488095D01*
X103902438Y-121488095D02*
X103950057Y-121440476D01*
X103950057Y-121440476D02*
X104045295Y-121392857D01*
X104045295Y-121392857D02*
X104188152Y-121392857D01*
X104188152Y-121392857D02*
X104283390Y-121440476D01*
X104283390Y-121440476D02*
X104331009Y-121488095D01*
X104331009Y-121488095D02*
X104378628Y-121583333D01*
X104378628Y-121583333D02*
X104378628Y-121964285D01*
X104854819Y-120440476D02*
X104854819Y-121011904D01*
X104854819Y-120726190D02*
X103854819Y-120726190D01*
X103854819Y-120726190D02*
X103997676Y-120821428D01*
X103997676Y-120821428D02*
X104092914Y-120916666D01*
X104092914Y-120916666D02*
X104140533Y-121011904D01*
X103950057Y-120059523D02*
X103902438Y-120011904D01*
X103902438Y-120011904D02*
X103854819Y-119916666D01*
X103854819Y-119916666D02*
X103854819Y-119678571D01*
X103854819Y-119678571D02*
X103902438Y-119583333D01*
X103902438Y-119583333D02*
X103950057Y-119535714D01*
X103950057Y-119535714D02*
X104045295Y-119488095D01*
X104045295Y-119488095D02*
X104140533Y-119488095D01*
X104140533Y-119488095D02*
X104283390Y-119535714D01*
X104283390Y-119535714D02*
X104854819Y-120107142D01*
X104854819Y-120107142D02*
X104854819Y-119488095D01*
X102467142Y-141004819D02*
X102133809Y-140528628D01*
X101895714Y-141004819D02*
X101895714Y-140004819D01*
X101895714Y-140004819D02*
X102276666Y-140004819D01*
X102276666Y-140004819D02*
X102371904Y-140052438D01*
X102371904Y-140052438D02*
X102419523Y-140100057D01*
X102419523Y-140100057D02*
X102467142Y-140195295D01*
X102467142Y-140195295D02*
X102467142Y-140338152D01*
X102467142Y-140338152D02*
X102419523Y-140433390D01*
X102419523Y-140433390D02*
X102371904Y-140481009D01*
X102371904Y-140481009D02*
X102276666Y-140528628D01*
X102276666Y-140528628D02*
X101895714Y-140528628D01*
X103419523Y-141004819D02*
X102848095Y-141004819D01*
X103133809Y-141004819D02*
X103133809Y-140004819D01*
X103133809Y-140004819D02*
X103038571Y-140147676D01*
X103038571Y-140147676D02*
X102943333Y-140242914D01*
X102943333Y-140242914D02*
X102848095Y-140290533D01*
X104276666Y-140338152D02*
X104276666Y-141004819D01*
X104038571Y-139957200D02*
X103800476Y-140671485D01*
X103800476Y-140671485D02*
X104419523Y-140671485D01*
D11*
X100306464Y-84855771D02*
X99806084Y-84140943D01*
X99448670Y-84855771D02*
X99448670Y-83354631D01*
X99448670Y-83354631D02*
X100020533Y-83354631D01*
X100020533Y-83354631D02*
X100163498Y-83426114D01*
X100163498Y-83426114D02*
X100234981Y-83497597D01*
X100234981Y-83497597D02*
X100306464Y-83640563D01*
X100306464Y-83640563D02*
X100306464Y-83855011D01*
X100306464Y-83855011D02*
X100234981Y-83997977D01*
X100234981Y-83997977D02*
X100163498Y-84069460D01*
X100163498Y-84069460D02*
X100020533Y-84140943D01*
X100020533Y-84140943D02*
X99448670Y-84140943D01*
X100735361Y-83354631D02*
X101235741Y-84855771D01*
X101235741Y-84855771D02*
X101736121Y-83354631D01*
X103022812Y-84855771D02*
X102165018Y-84855771D01*
X102593915Y-84855771D02*
X102593915Y-83354631D01*
X102593915Y-83354631D02*
X102450949Y-83569080D01*
X102450949Y-83569080D02*
X102307984Y-83712046D01*
X102307984Y-83712046D02*
X102165018Y-83783529D01*
X99591635Y-80355771D02*
X98733841Y-80355771D01*
X99162738Y-80355771D02*
X99162738Y-78854631D01*
X99162738Y-78854631D02*
X99019772Y-79069080D01*
X99019772Y-79069080D02*
X98876807Y-79212046D01*
X98876807Y-79212046D02*
X98733841Y-79283529D01*
X100520912Y-78854631D02*
X100663878Y-78854631D01*
X100663878Y-78854631D02*
X100806844Y-78926114D01*
X100806844Y-78926114D02*
X100878327Y-78997597D01*
X100878327Y-78997597D02*
X100949809Y-79140563D01*
X100949809Y-79140563D02*
X101021292Y-79426494D01*
X101021292Y-79426494D02*
X101021292Y-79783909D01*
X101021292Y-79783909D02*
X100949809Y-80069840D01*
X100949809Y-80069840D02*
X100878327Y-80212806D01*
X100878327Y-80212806D02*
X100806844Y-80284289D01*
X100806844Y-80284289D02*
X100663878Y-80355771D01*
X100663878Y-80355771D02*
X100520912Y-80355771D01*
X100520912Y-80355771D02*
X100377947Y-80284289D01*
X100377947Y-80284289D02*
X100306464Y-80212806D01*
X100306464Y-80212806D02*
X100234981Y-80069840D01*
X100234981Y-80069840D02*
X100163498Y-79783909D01*
X100163498Y-79783909D02*
X100163498Y-79426494D01*
X100163498Y-79426494D02*
X100234981Y-79140563D01*
X100234981Y-79140563D02*
X100306464Y-78997597D01*
X100306464Y-78997597D02*
X100377947Y-78926114D01*
X100377947Y-78926114D02*
X100520912Y-78854631D01*
X101950569Y-78854631D02*
X102093535Y-78854631D01*
X102093535Y-78854631D02*
X102236501Y-78926114D01*
X102236501Y-78926114D02*
X102307984Y-78997597D01*
X102307984Y-78997597D02*
X102379466Y-79140563D01*
X102379466Y-79140563D02*
X102450949Y-79426494D01*
X102450949Y-79426494D02*
X102450949Y-79783909D01*
X102450949Y-79783909D02*
X102379466Y-80069840D01*
X102379466Y-80069840D02*
X102307984Y-80212806D01*
X102307984Y-80212806D02*
X102236501Y-80284289D01*
X102236501Y-80284289D02*
X102093535Y-80355771D01*
X102093535Y-80355771D02*
X101950569Y-80355771D01*
X101950569Y-80355771D02*
X101807604Y-80284289D01*
X101807604Y-80284289D02*
X101736121Y-80212806D01*
X101736121Y-80212806D02*
X101664638Y-80069840D01*
X101664638Y-80069840D02*
X101593155Y-79783909D01*
X101593155Y-79783909D02*
X101593155Y-79426494D01*
X101593155Y-79426494D02*
X101664638Y-79140563D01*
X101664638Y-79140563D02*
X101736121Y-78997597D01*
X101736121Y-78997597D02*
X101807604Y-78926114D01*
X101807604Y-78926114D02*
X101950569Y-78854631D01*
X103094295Y-80355771D02*
X103094295Y-78854631D01*
X103237261Y-79783909D02*
X103666158Y-80355771D01*
X103666158Y-79355011D02*
X103094295Y-79926874D01*
D10*
X114166666Y-152077319D02*
X114166666Y-152791604D01*
X114166666Y-152791604D02*
X114119047Y-152934461D01*
X114119047Y-152934461D02*
X114023809Y-153029700D01*
X114023809Y-153029700D02*
X113880952Y-153077319D01*
X113880952Y-153077319D02*
X113785714Y-153077319D01*
X115119047Y-152077319D02*
X114642857Y-152077319D01*
X114642857Y-152077319D02*
X114595238Y-152553509D01*
X114595238Y-152553509D02*
X114642857Y-152505890D01*
X114642857Y-152505890D02*
X114738095Y-152458271D01*
X114738095Y-152458271D02*
X114976190Y-152458271D01*
X114976190Y-152458271D02*
X115071428Y-152505890D01*
X115071428Y-152505890D02*
X115119047Y-152553509D01*
X115119047Y-152553509D02*
X115166666Y-152648747D01*
X115166666Y-152648747D02*
X115166666Y-152886842D01*
X115166666Y-152886842D02*
X115119047Y-152982080D01*
X115119047Y-152982080D02*
X115071428Y-153029700D01*
X115071428Y-153029700D02*
X114976190Y-153077319D01*
X114976190Y-153077319D02*
X114738095Y-153077319D01*
X114738095Y-153077319D02*
X114642857Y-153029700D01*
X114642857Y-153029700D02*
X114595238Y-152982080D01*
X97154819Y-93516666D02*
X96678628Y-93849999D01*
X97154819Y-94088094D02*
X96154819Y-94088094D01*
X96154819Y-94088094D02*
X96154819Y-93707142D01*
X96154819Y-93707142D02*
X96202438Y-93611904D01*
X96202438Y-93611904D02*
X96250057Y-93564285D01*
X96250057Y-93564285D02*
X96345295Y-93516666D01*
X96345295Y-93516666D02*
X96488152Y-93516666D01*
X96488152Y-93516666D02*
X96583390Y-93564285D01*
X96583390Y-93564285D02*
X96631009Y-93611904D01*
X96631009Y-93611904D02*
X96678628Y-93707142D01*
X96678628Y-93707142D02*
X96678628Y-94088094D01*
X96154819Y-93183332D02*
X96154819Y-92564285D01*
X96154819Y-92564285D02*
X96535771Y-92897618D01*
X96535771Y-92897618D02*
X96535771Y-92754761D01*
X96535771Y-92754761D02*
X96583390Y-92659523D01*
X96583390Y-92659523D02*
X96631009Y-92611904D01*
X96631009Y-92611904D02*
X96726247Y-92564285D01*
X96726247Y-92564285D02*
X96964342Y-92564285D01*
X96964342Y-92564285D02*
X97059580Y-92611904D01*
X97059580Y-92611904D02*
X97107200Y-92659523D01*
X97107200Y-92659523D02*
X97154819Y-92754761D01*
X97154819Y-92754761D02*
X97154819Y-93040475D01*
X97154819Y-93040475D02*
X97107200Y-93135713D01*
X97107200Y-93135713D02*
X97059580Y-93183332D01*
D11*
X106856464Y-99969021D02*
X106356084Y-99254193D01*
X105998670Y-99969021D02*
X105998670Y-98467881D01*
X105998670Y-98467881D02*
X106570533Y-98467881D01*
X106570533Y-98467881D02*
X106713498Y-98539364D01*
X106713498Y-98539364D02*
X106784981Y-98610847D01*
X106784981Y-98610847D02*
X106856464Y-98753813D01*
X106856464Y-98753813D02*
X106856464Y-98968261D01*
X106856464Y-98968261D02*
X106784981Y-99111227D01*
X106784981Y-99111227D02*
X106713498Y-99182710D01*
X106713498Y-99182710D02*
X106570533Y-99254193D01*
X106570533Y-99254193D02*
X105998670Y-99254193D01*
X107285361Y-98467881D02*
X107785741Y-99969021D01*
X107785741Y-99969021D02*
X108286121Y-98467881D01*
X108643535Y-98467881D02*
X109572812Y-98467881D01*
X109572812Y-98467881D02*
X109072432Y-99039744D01*
X109072432Y-99039744D02*
X109286881Y-99039744D01*
X109286881Y-99039744D02*
X109429847Y-99111227D01*
X109429847Y-99111227D02*
X109501329Y-99182710D01*
X109501329Y-99182710D02*
X109572812Y-99325676D01*
X109572812Y-99325676D02*
X109572812Y-99683090D01*
X109572812Y-99683090D02*
X109501329Y-99826056D01*
X109501329Y-99826056D02*
X109429847Y-99897539D01*
X109429847Y-99897539D02*
X109286881Y-99969021D01*
X109286881Y-99969021D02*
X108857984Y-99969021D01*
X108857984Y-99969021D02*
X108715018Y-99897539D01*
X108715018Y-99897539D02*
X108643535Y-99826056D01*
X106187635Y-95469021D02*
X105329841Y-95469021D01*
X105758738Y-95469021D02*
X105758738Y-93967881D01*
X105758738Y-93967881D02*
X105615772Y-94182330D01*
X105615772Y-94182330D02*
X105472807Y-94325296D01*
X105472807Y-94325296D02*
X105329841Y-94396779D01*
X107116912Y-93967881D02*
X107259878Y-93967881D01*
X107259878Y-93967881D02*
X107402844Y-94039364D01*
X107402844Y-94039364D02*
X107474327Y-94110847D01*
X107474327Y-94110847D02*
X107545809Y-94253813D01*
X107545809Y-94253813D02*
X107617292Y-94539744D01*
X107617292Y-94539744D02*
X107617292Y-94897159D01*
X107617292Y-94897159D02*
X107545809Y-95183090D01*
X107545809Y-95183090D02*
X107474327Y-95326056D01*
X107474327Y-95326056D02*
X107402844Y-95397539D01*
X107402844Y-95397539D02*
X107259878Y-95469021D01*
X107259878Y-95469021D02*
X107116912Y-95469021D01*
X107116912Y-95469021D02*
X106973947Y-95397539D01*
X106973947Y-95397539D02*
X106902464Y-95326056D01*
X106902464Y-95326056D02*
X106830981Y-95183090D01*
X106830981Y-95183090D02*
X106759498Y-94897159D01*
X106759498Y-94897159D02*
X106759498Y-94539744D01*
X106759498Y-94539744D02*
X106830981Y-94253813D01*
X106830981Y-94253813D02*
X106902464Y-94110847D01*
X106902464Y-94110847D02*
X106973947Y-94039364D01*
X106973947Y-94039364D02*
X107116912Y-93967881D01*
X108546569Y-93967881D02*
X108689535Y-93967881D01*
X108689535Y-93967881D02*
X108832501Y-94039364D01*
X108832501Y-94039364D02*
X108903984Y-94110847D01*
X108903984Y-94110847D02*
X108975466Y-94253813D01*
X108975466Y-94253813D02*
X109046949Y-94539744D01*
X109046949Y-94539744D02*
X109046949Y-94897159D01*
X109046949Y-94897159D02*
X108975466Y-95183090D01*
X108975466Y-95183090D02*
X108903984Y-95326056D01*
X108903984Y-95326056D02*
X108832501Y-95397539D01*
X108832501Y-95397539D02*
X108689535Y-95469021D01*
X108689535Y-95469021D02*
X108546569Y-95469021D01*
X108546569Y-95469021D02*
X108403604Y-95397539D01*
X108403604Y-95397539D02*
X108332121Y-95326056D01*
X108332121Y-95326056D02*
X108260638Y-95183090D01*
X108260638Y-95183090D02*
X108189155Y-94897159D01*
X108189155Y-94897159D02*
X108189155Y-94539744D01*
X108189155Y-94539744D02*
X108260638Y-94253813D01*
X108260638Y-94253813D02*
X108332121Y-94110847D01*
X108332121Y-94110847D02*
X108403604Y-94039364D01*
X108403604Y-94039364D02*
X108546569Y-93967881D01*
X109690295Y-95469021D02*
X109690295Y-93967881D01*
X109833261Y-94897159D02*
X110262158Y-95469021D01*
X110262158Y-94468261D02*
X109690295Y-95040124D01*
D10*
X100366666Y-60404819D02*
X100366666Y-61119104D01*
X100366666Y-61119104D02*
X100319047Y-61261961D01*
X100319047Y-61261961D02*
X100223809Y-61357200D01*
X100223809Y-61357200D02*
X100080952Y-61404819D01*
X100080952Y-61404819D02*
X99985714Y-61404819D01*
X101366666Y-61404819D02*
X100795238Y-61404819D01*
X101080952Y-61404819D02*
X101080952Y-60404819D01*
X101080952Y-60404819D02*
X100985714Y-60547676D01*
X100985714Y-60547676D02*
X100890476Y-60642914D01*
X100890476Y-60642914D02*
X100795238Y-60690533D01*
X113966666Y-60404819D02*
X113966666Y-61119104D01*
X113966666Y-61119104D02*
X113919047Y-61261961D01*
X113919047Y-61261961D02*
X113823809Y-61357200D01*
X113823809Y-61357200D02*
X113680952Y-61404819D01*
X113680952Y-61404819D02*
X113585714Y-61404819D01*
X114395238Y-60500057D02*
X114442857Y-60452438D01*
X114442857Y-60452438D02*
X114538095Y-60404819D01*
X114538095Y-60404819D02*
X114776190Y-60404819D01*
X114776190Y-60404819D02*
X114871428Y-60452438D01*
X114871428Y-60452438D02*
X114919047Y-60500057D01*
X114919047Y-60500057D02*
X114966666Y-60595295D01*
X114966666Y-60595295D02*
X114966666Y-60690533D01*
X114966666Y-60690533D02*
X114919047Y-60833390D01*
X114919047Y-60833390D02*
X114347619Y-61404819D01*
X114347619Y-61404819D02*
X114966666Y-61404819D01*
X111533333Y-117604819D02*
X111200000Y-117128628D01*
X110961905Y-117604819D02*
X110961905Y-116604819D01*
X110961905Y-116604819D02*
X111342857Y-116604819D01*
X111342857Y-116604819D02*
X111438095Y-116652438D01*
X111438095Y-116652438D02*
X111485714Y-116700057D01*
X111485714Y-116700057D02*
X111533333Y-116795295D01*
X111533333Y-116795295D02*
X111533333Y-116938152D01*
X111533333Y-116938152D02*
X111485714Y-117033390D01*
X111485714Y-117033390D02*
X111438095Y-117081009D01*
X111438095Y-117081009D02*
X111342857Y-117128628D01*
X111342857Y-117128628D02*
X110961905Y-117128628D01*
X112009524Y-117604819D02*
X112200000Y-117604819D01*
X112200000Y-117604819D02*
X112295238Y-117557200D01*
X112295238Y-117557200D02*
X112342857Y-117509580D01*
X112342857Y-117509580D02*
X112438095Y-117366723D01*
X112438095Y-117366723D02*
X112485714Y-117176247D01*
X112485714Y-117176247D02*
X112485714Y-116795295D01*
X112485714Y-116795295D02*
X112438095Y-116700057D01*
X112438095Y-116700057D02*
X112390476Y-116652438D01*
X112390476Y-116652438D02*
X112295238Y-116604819D01*
X112295238Y-116604819D02*
X112104762Y-116604819D01*
X112104762Y-116604819D02*
X112009524Y-116652438D01*
X112009524Y-116652438D02*
X111961905Y-116700057D01*
X111961905Y-116700057D02*
X111914286Y-116795295D01*
X111914286Y-116795295D02*
X111914286Y-117033390D01*
X111914286Y-117033390D02*
X111961905Y-117128628D01*
X111961905Y-117128628D02*
X112009524Y-117176247D01*
X112009524Y-117176247D02*
X112104762Y-117223866D01*
X112104762Y-117223866D02*
X112295238Y-117223866D01*
X112295238Y-117223866D02*
X112390476Y-117176247D01*
X112390476Y-117176247D02*
X112438095Y-117128628D01*
X112438095Y-117128628D02*
X112485714Y-117033390D01*
X106653095Y-109984819D02*
X106653095Y-110794342D01*
X106653095Y-110794342D02*
X106700714Y-110889580D01*
X106700714Y-110889580D02*
X106748333Y-110937200D01*
X106748333Y-110937200D02*
X106843571Y-110984819D01*
X106843571Y-110984819D02*
X107034047Y-110984819D01*
X107034047Y-110984819D02*
X107129285Y-110937200D01*
X107129285Y-110937200D02*
X107176904Y-110889580D01*
X107176904Y-110889580D02*
X107224523Y-110794342D01*
X107224523Y-110794342D02*
X107224523Y-109984819D01*
X108224523Y-110984819D02*
X107653095Y-110984819D01*
X107938809Y-110984819D02*
X107938809Y-109984819D01*
X107938809Y-109984819D02*
X107843571Y-110127676D01*
X107843571Y-110127676D02*
X107748333Y-110222914D01*
X107748333Y-110222914D02*
X107653095Y-110270533D01*
X102354819Y-120906666D02*
X101878628Y-121239999D01*
X102354819Y-121478094D02*
X101354819Y-121478094D01*
X101354819Y-121478094D02*
X101354819Y-121097142D01*
X101354819Y-121097142D02*
X101402438Y-121001904D01*
X101402438Y-121001904D02*
X101450057Y-120954285D01*
X101450057Y-120954285D02*
X101545295Y-120906666D01*
X101545295Y-120906666D02*
X101688152Y-120906666D01*
X101688152Y-120906666D02*
X101783390Y-120954285D01*
X101783390Y-120954285D02*
X101831009Y-121001904D01*
X101831009Y-121001904D02*
X101878628Y-121097142D01*
X101878628Y-121097142D02*
X101878628Y-121478094D01*
X101354819Y-120573332D02*
X101354819Y-119906666D01*
X101354819Y-119906666D02*
X102354819Y-120335237D01*
X97154819Y-121372857D02*
X96678628Y-121706190D01*
X97154819Y-121944285D02*
X96154819Y-121944285D01*
X96154819Y-121944285D02*
X96154819Y-121563333D01*
X96154819Y-121563333D02*
X96202438Y-121468095D01*
X96202438Y-121468095D02*
X96250057Y-121420476D01*
X96250057Y-121420476D02*
X96345295Y-121372857D01*
X96345295Y-121372857D02*
X96488152Y-121372857D01*
X96488152Y-121372857D02*
X96583390Y-121420476D01*
X96583390Y-121420476D02*
X96631009Y-121468095D01*
X96631009Y-121468095D02*
X96678628Y-121563333D01*
X96678628Y-121563333D02*
X96678628Y-121944285D01*
X97154819Y-120420476D02*
X97154819Y-120991904D01*
X97154819Y-120706190D02*
X96154819Y-120706190D01*
X96154819Y-120706190D02*
X96297676Y-120801428D01*
X96297676Y-120801428D02*
X96392914Y-120896666D01*
X96392914Y-120896666D02*
X96440533Y-120991904D01*
X96154819Y-120087142D02*
X96154819Y-119468095D01*
X96154819Y-119468095D02*
X96535771Y-119801428D01*
X96535771Y-119801428D02*
X96535771Y-119658571D01*
X96535771Y-119658571D02*
X96583390Y-119563333D01*
X96583390Y-119563333D02*
X96631009Y-119515714D01*
X96631009Y-119515714D02*
X96726247Y-119468095D01*
X96726247Y-119468095D02*
X96964342Y-119468095D01*
X96964342Y-119468095D02*
X97059580Y-119515714D01*
X97059580Y-119515714D02*
X97107200Y-119563333D01*
X97107200Y-119563333D02*
X97154819Y-119658571D01*
X97154819Y-119658571D02*
X97154819Y-119944285D01*
X97154819Y-119944285D02*
X97107200Y-120039523D01*
X97107200Y-120039523D02*
X97059580Y-120087142D01*
X116554819Y-93526666D02*
X116078628Y-93859999D01*
X116554819Y-94098094D02*
X115554819Y-94098094D01*
X115554819Y-94098094D02*
X115554819Y-93717142D01*
X115554819Y-93717142D02*
X115602438Y-93621904D01*
X115602438Y-93621904D02*
X115650057Y-93574285D01*
X115650057Y-93574285D02*
X115745295Y-93526666D01*
X115745295Y-93526666D02*
X115888152Y-93526666D01*
X115888152Y-93526666D02*
X115983390Y-93574285D01*
X115983390Y-93574285D02*
X116031009Y-93621904D01*
X116031009Y-93621904D02*
X116078628Y-93717142D01*
X116078628Y-93717142D02*
X116078628Y-94098094D01*
X115650057Y-93145713D02*
X115602438Y-93098094D01*
X115602438Y-93098094D02*
X115554819Y-93002856D01*
X115554819Y-93002856D02*
X115554819Y-92764761D01*
X115554819Y-92764761D02*
X115602438Y-92669523D01*
X115602438Y-92669523D02*
X115650057Y-92621904D01*
X115650057Y-92621904D02*
X115745295Y-92574285D01*
X115745295Y-92574285D02*
X115840533Y-92574285D01*
X115840533Y-92574285D02*
X115983390Y-92621904D01*
X115983390Y-92621904D02*
X116554819Y-93193332D01*
X116554819Y-93193332D02*
X116554819Y-92574285D01*
X110877142Y-120204819D02*
X110543809Y-119728628D01*
X110305714Y-120204819D02*
X110305714Y-119204819D01*
X110305714Y-119204819D02*
X110686666Y-119204819D01*
X110686666Y-119204819D02*
X110781904Y-119252438D01*
X110781904Y-119252438D02*
X110829523Y-119300057D01*
X110829523Y-119300057D02*
X110877142Y-119395295D01*
X110877142Y-119395295D02*
X110877142Y-119538152D01*
X110877142Y-119538152D02*
X110829523Y-119633390D01*
X110829523Y-119633390D02*
X110781904Y-119681009D01*
X110781904Y-119681009D02*
X110686666Y-119728628D01*
X110686666Y-119728628D02*
X110305714Y-119728628D01*
X111829523Y-120204819D02*
X111258095Y-120204819D01*
X111543809Y-120204819D02*
X111543809Y-119204819D01*
X111543809Y-119204819D02*
X111448571Y-119347676D01*
X111448571Y-119347676D02*
X111353333Y-119442914D01*
X111353333Y-119442914D02*
X111258095Y-119490533D01*
X112781904Y-120204819D02*
X112210476Y-120204819D01*
X112496190Y-120204819D02*
X112496190Y-119204819D01*
X112496190Y-119204819D02*
X112400952Y-119347676D01*
X112400952Y-119347676D02*
X112305714Y-119442914D01*
X112305714Y-119442914D02*
X112210476Y-119490533D01*
D12*
%TO.C,R4*%
X117780000Y-91440000D02*
X117780000Y-95280000D01*
X117780000Y-95280000D02*
X119620000Y-95280000D01*
X118700000Y-90490000D02*
X118700000Y-91440000D01*
X118700000Y-96230000D02*
X118700000Y-95280000D01*
X119620000Y-91440000D02*
X117780000Y-91440000D01*
X119620000Y-95280000D02*
X119620000Y-91440000D01*
%TO.C,R10*%
X98380000Y-118820000D02*
X98380000Y-122660000D01*
X98380000Y-122660000D02*
X100220000Y-122660000D01*
X99300000Y-117870000D02*
X99300000Y-118820000D01*
X99300000Y-123610000D02*
X99300000Y-122660000D01*
X100220000Y-118820000D02*
X98380000Y-118820000D01*
X100220000Y-122660000D02*
X100220000Y-118820000D01*
%TO.C,C4*%
X117130000Y-113930000D02*
X119870000Y-113930000D01*
X117130000Y-119170000D02*
X117130000Y-113930000D01*
X117130000Y-119170000D02*
X119870000Y-119170000D01*
X119870000Y-119170000D02*
X119870000Y-113930000D01*
%TO.C,C3*%
X117130000Y-108180000D02*
X117130000Y-113420000D01*
X119870000Y-108180000D02*
X117130000Y-108180000D01*
X119870000Y-108180000D02*
X119870000Y-113420000D01*
X119870000Y-113420000D02*
X117130000Y-113420000D01*
D10*
%TO.C,J4*%
X96200000Y-156030000D02*
X96200000Y-145130000D01*
X100700000Y-151630000D02*
X100700000Y-148030000D01*
X102500000Y-149830000D02*
X98900000Y-149830000D01*
X105200000Y-145130000D02*
X96200000Y-145130000D01*
X105200000Y-156030000D02*
X96200000Y-156030000D01*
X105200000Y-156030000D02*
X105200000Y-145130000D01*
X102500000Y-149830000D02*
G75*
G02*
X98900000Y-149830000I-1800000J0D01*
G01*
X98900000Y-149830000D02*
G75*
G02*
X102500000Y-149830000I1800000J0D01*
G01*
D12*
%TO.C,R1*%
X98580000Y-91440000D02*
X98580000Y-95280000D01*
X98580000Y-95280000D02*
X100420000Y-95280000D01*
X99500000Y-90490000D02*
X99500000Y-91440000D01*
X99500000Y-96230000D02*
X99500000Y-95280000D01*
X100420000Y-91440000D02*
X98580000Y-91440000D01*
X100420000Y-95280000D02*
X100420000Y-91440000D01*
%TO.C,R6*%
X117780000Y-101330000D02*
X117780000Y-105170000D01*
X117780000Y-105170000D02*
X119620000Y-105170000D01*
X118700000Y-100380000D02*
X118700000Y-101330000D01*
X118700000Y-106120000D02*
X118700000Y-105170000D01*
X119620000Y-101330000D02*
X117780000Y-101330000D01*
X119620000Y-105170000D02*
X119620000Y-101330000D01*
D13*
%TO.C,RV2*%
X108900000Y-73750000D02*
X118700000Y-73750000D01*
X108900000Y-85750000D02*
X108900000Y-73750000D01*
X108900000Y-85750000D02*
X118700000Y-85750000D01*
X111199040Y-77748860D02*
X116400960Y-77748860D01*
X118700000Y-73750000D02*
X118700000Y-85750000D01*
X110400000Y-74850000D02*
G75*
G02*
X109600000Y-74850000I-400000J0D01*
G01*
X109600000Y-74850000D02*
G75*
G02*
X110400000Y-74850000I400000J0D01*
G01*
X110400000Y-83650000D02*
G75*
G02*
X109600000Y-83650000I-400000J0D01*
G01*
X109600000Y-83650000D02*
G75*
G02*
X110400000Y-83650000I400000J0D01*
G01*
X117201060Y-79250000D02*
G75*
G02*
X110398940Y-79250000I-3401060J0D01*
G01*
X110398940Y-79250000D02*
G75*
G02*
X117201060Y-79250000I3401060J0D01*
G01*
X116799740Y-79250000D02*
G75*
G02*
X110800260Y-79250000I-2999740J0D01*
G01*
X110800260Y-79250000D02*
G75*
G02*
X116799740Y-79250000I2999740J0D01*
G01*
X118000000Y-74850000D02*
G75*
G02*
X117200000Y-74850000I-400000J0D01*
G01*
X117200000Y-74850000D02*
G75*
G02*
X118000000Y-74850000I400000J0D01*
G01*
X118000000Y-83650000D02*
G75*
G02*
X117200000Y-83650000I-400000J0D01*
G01*
X117200000Y-83650000D02*
G75*
G02*
X118000000Y-83650000I400000J0D01*
G01*
D12*
%TO.C,R5*%
X97630000Y-103550000D02*
X98580000Y-103550000D01*
X98580000Y-102630000D02*
X98580000Y-104470000D01*
X98580000Y-104470000D02*
X102420000Y-104470000D01*
X102420000Y-102630000D02*
X98580000Y-102630000D01*
X102420000Y-104470000D02*
X102420000Y-102630000D01*
X103370000Y-103550000D02*
X102420000Y-103550000D01*
%TO.C,R8*%
X95780000Y-108210000D02*
X95780000Y-112050000D01*
X95780000Y-112050000D02*
X97620000Y-112050000D01*
X96700000Y-107260000D02*
X96700000Y-108210000D01*
X96700000Y-113000000D02*
X96700000Y-112050000D01*
X97620000Y-108210000D02*
X95780000Y-108210000D01*
X97620000Y-112050000D02*
X97620000Y-108210000D01*
%TO.C,R12*%
X103480000Y-118830000D02*
X103480000Y-122670000D01*
X103480000Y-122670000D02*
X105320000Y-122670000D01*
X104400000Y-117880000D02*
X104400000Y-118830000D01*
X104400000Y-123620000D02*
X104400000Y-122670000D01*
X105320000Y-118830000D02*
X103480000Y-118830000D01*
X105320000Y-122670000D02*
X105320000Y-118830000D01*
%TO.C,R14*%
X100240000Y-140550000D02*
X101190000Y-140550000D01*
X101190000Y-139630000D02*
X101190000Y-141470000D01*
X101190000Y-141470000D02*
X105030000Y-141470000D01*
X105030000Y-139630000D02*
X101190000Y-139630000D01*
X105030000Y-141470000D02*
X105030000Y-139630000D01*
X105980000Y-140550000D02*
X105030000Y-140550000D01*
D13*
%TO.C,RV1*%
X96300000Y-73750000D02*
X106100000Y-73750000D01*
X96300000Y-85750000D02*
X96300000Y-73750000D01*
X96300000Y-85750000D02*
X106100000Y-85750000D01*
X98599040Y-77748860D02*
X103800960Y-77748860D01*
X106100000Y-73750000D02*
X106100000Y-85750000D01*
X97800000Y-74850000D02*
G75*
G02*
X97000000Y-74850000I-400000J0D01*
G01*
X97000000Y-74850000D02*
G75*
G02*
X97800000Y-74850000I400000J0D01*
G01*
X97800000Y-83650000D02*
G75*
G02*
X97000000Y-83650000I-400000J0D01*
G01*
X97000000Y-83650000D02*
G75*
G02*
X97800000Y-83650000I400000J0D01*
G01*
X104601060Y-79250000D02*
G75*
G02*
X97798940Y-79250000I-3401060J0D01*
G01*
X97798940Y-79250000D02*
G75*
G02*
X104601060Y-79250000I3401060J0D01*
G01*
X104199740Y-79250000D02*
G75*
G02*
X98200260Y-79250000I-2999740J0D01*
G01*
X98200260Y-79250000D02*
G75*
G02*
X104199740Y-79250000I2999740J0D01*
G01*
X105400000Y-74850000D02*
G75*
G02*
X104600000Y-74850000I-400000J0D01*
G01*
X104600000Y-74850000D02*
G75*
G02*
X105400000Y-74850000I400000J0D01*
G01*
X105400000Y-83650000D02*
G75*
G02*
X104600000Y-83650000I-400000J0D01*
G01*
X104600000Y-83650000D02*
G75*
G02*
X105400000Y-83650000I400000J0D01*
G01*
D10*
%TO.C,J5*%
X110000000Y-155902500D02*
X110000000Y-145002500D01*
X114500000Y-151502500D02*
X114500000Y-147902500D01*
X116300000Y-149702500D02*
X112700000Y-149702500D01*
X119000000Y-145002500D02*
X110000000Y-145002500D01*
X119000000Y-155902500D02*
X110000000Y-155902500D01*
X119000000Y-155902500D02*
X119000000Y-145002500D01*
X116300000Y-149702500D02*
G75*
G02*
X112700000Y-149702500I-1800000J0D01*
G01*
X112700000Y-149702500D02*
G75*
G02*
X116300000Y-149702500I1800000J0D01*
G01*
D12*
%TO.C,R3*%
X95780000Y-91430000D02*
X95780000Y-95270000D01*
X95780000Y-95270000D02*
X97620000Y-95270000D01*
X96700000Y-90480000D02*
X96700000Y-91430000D01*
X96700000Y-96220000D02*
X96700000Y-95270000D01*
X97620000Y-91430000D02*
X95780000Y-91430000D01*
X97620000Y-95270000D02*
X97620000Y-91430000D01*
D13*
%TO.C,RV3*%
X102850000Y-88750000D02*
X112650000Y-88750000D01*
X102850000Y-100750000D02*
X102850000Y-88750000D01*
X102850000Y-100750000D02*
X112650000Y-100750000D01*
X105149040Y-92748860D02*
X110350960Y-92748860D01*
X112650000Y-88750000D02*
X112650000Y-100750000D01*
X104350000Y-89850000D02*
G75*
G02*
X103550000Y-89850000I-400000J0D01*
G01*
X103550000Y-89850000D02*
G75*
G02*
X104350000Y-89850000I400000J0D01*
G01*
X104350000Y-98650000D02*
G75*
G02*
X103550000Y-98650000I-400000J0D01*
G01*
X103550000Y-98650000D02*
G75*
G02*
X104350000Y-98650000I400000J0D01*
G01*
X111151060Y-94250000D02*
G75*
G02*
X104348940Y-94250000I-3401060J0D01*
G01*
X104348940Y-94250000D02*
G75*
G02*
X111151060Y-94250000I3401060J0D01*
G01*
X110749740Y-94250000D02*
G75*
G02*
X104750260Y-94250000I-2999740J0D01*
G01*
X104750260Y-94250000D02*
G75*
G02*
X110749740Y-94250000I2999740J0D01*
G01*
X111950000Y-89850000D02*
G75*
G02*
X111150000Y-89850000I-400000J0D01*
G01*
X111150000Y-89850000D02*
G75*
G02*
X111950000Y-89850000I400000J0D01*
G01*
X111950000Y-98650000D02*
G75*
G02*
X111150000Y-98650000I-400000J0D01*
G01*
X111150000Y-98650000D02*
G75*
G02*
X111950000Y-98650000I400000J0D01*
G01*
D10*
%TO.C,J1*%
X96200000Y-57570000D02*
X96200000Y-68470000D01*
X96200000Y-57570000D02*
X105200000Y-57570000D01*
X96200000Y-68470000D02*
X105200000Y-68470000D01*
X98900000Y-63770000D02*
X102500000Y-63770000D01*
X100700000Y-61970000D02*
X100700000Y-65570000D01*
X105200000Y-57570000D02*
X105200000Y-68470000D01*
X102500000Y-63770000D02*
G75*
G02*
X98900000Y-63770000I-1800000J0D01*
G01*
X98900000Y-63770000D02*
G75*
G02*
X102500000Y-63770000I1800000J0D01*
G01*
%TO.C,J2*%
X109800000Y-57550000D02*
X109800000Y-68450000D01*
X109800000Y-57550000D02*
X118800000Y-57550000D01*
X109800000Y-68450000D02*
X118800000Y-68450000D01*
X112500000Y-63750000D02*
X116100000Y-63750000D01*
X114300000Y-61950000D02*
X114300000Y-65550000D01*
X118800000Y-57550000D02*
X118800000Y-68450000D01*
X116100000Y-63750000D02*
G75*
G02*
X112500000Y-63750000I-1800000J0D01*
G01*
X112500000Y-63750000D02*
G75*
G02*
X116100000Y-63750000I1800000J0D01*
G01*
D12*
%TO.C,R9*%
X108830000Y-117150000D02*
X109780000Y-117150000D01*
X109780000Y-116230000D02*
X109780000Y-118070000D01*
X109780000Y-118070000D02*
X113620000Y-118070000D01*
X113620000Y-116230000D02*
X109780000Y-116230000D01*
X113620000Y-118070000D02*
X113620000Y-116230000D01*
X114570000Y-117150000D02*
X113620000Y-117150000D01*
%TO.C,U1*%
X98470000Y-107890000D02*
X98470000Y-113190000D01*
X98470000Y-113190000D02*
X116370000Y-113190000D01*
X116370000Y-107890000D02*
X98470000Y-107890000D01*
X116370000Y-109540000D02*
X116370000Y-107890000D01*
X116370000Y-113190000D02*
X116370000Y-111540000D01*
X116370000Y-111540000D02*
G75*
G02*
X116370000Y-109540000I0J1000000D01*
G01*
%TO.C,R7*%
X100980000Y-118820000D02*
X100980000Y-122660000D01*
X100980000Y-122660000D02*
X102820000Y-122660000D01*
X101900000Y-117870000D02*
X101900000Y-118820000D01*
X101900000Y-123610000D02*
X101900000Y-122660000D01*
X102820000Y-118820000D02*
X100980000Y-118820000D01*
X102820000Y-122660000D02*
X102820000Y-118820000D01*
%TO.C,R13*%
X95780000Y-118810000D02*
X95780000Y-122650000D01*
X95780000Y-122650000D02*
X97620000Y-122650000D01*
X96700000Y-117860000D02*
X96700000Y-118810000D01*
X96700000Y-123600000D02*
X96700000Y-122650000D01*
X97620000Y-118810000D02*
X95780000Y-118810000D01*
X97620000Y-122650000D02*
X97620000Y-118810000D01*
%TO.C,R2*%
X115180000Y-91440000D02*
X115180000Y-95280000D01*
X115180000Y-95280000D02*
X117020000Y-95280000D01*
X116100000Y-90490000D02*
X116100000Y-91440000D01*
X116100000Y-96230000D02*
X116100000Y-95280000D01*
X117020000Y-91440000D02*
X115180000Y-91440000D01*
X117020000Y-95280000D02*
X117020000Y-91440000D01*
%TO.C,R11*%
X108840000Y-119750000D02*
X109790000Y-119750000D01*
X109790000Y-118830000D02*
X109790000Y-120670000D01*
X109790000Y-120670000D02*
X113630000Y-120670000D01*
X113630000Y-118830000D02*
X109790000Y-118830000D01*
X113630000Y-120670000D02*
X113630000Y-118830000D01*
X114580000Y-119750000D02*
X113630000Y-119750000D01*
%TD*%
D14*
%TO.C,J4*%
X100700000Y-143350000D03*
X100700000Y-146450000D03*
X100700000Y-154750000D03*
%TD*%
D15*
%TO.C,RV2*%
X109000000Y-79250000D03*
X118600000Y-79250000D03*
D16*
X111300000Y-86250000D03*
X113800000Y-86250000D03*
X116300000Y-86250000D03*
%TD*%
D15*
%TO.C,RV1*%
X96400000Y-79250000D03*
X106000000Y-79250000D03*
D16*
X98700000Y-86250000D03*
X101200000Y-86250000D03*
X103700000Y-86250000D03*
%TD*%
D14*
%TO.C,J5*%
X114500000Y-143222500D03*
X114500000Y-146322500D03*
X114500000Y-154622500D03*
%TD*%
D15*
%TO.C,RV3*%
X102950000Y-94250000D03*
X112550000Y-94250000D03*
D16*
X105250000Y-101250000D03*
X107750000Y-101250000D03*
X110250000Y-101250000D03*
%TD*%
D14*
%TO.C,J1*%
X100700000Y-70250000D03*
X100700000Y-67150000D03*
X100700000Y-58850000D03*
%TD*%
%TO.C,J2*%
X114300000Y-70230000D03*
X114300000Y-67130000D03*
X114300000Y-58830000D03*
%TD*%
%LPC*%
D17*
%TO.C,R4*%
X118700000Y-89550000D03*
D18*
X118700000Y-97170000D03*
%TD*%
D17*
%TO.C,R10*%
X99300000Y-124550000D03*
D18*
X99300000Y-116930000D03*
%TD*%
D19*
%TO.C,C4*%
X118500000Y-117800000D03*
X118500000Y-115300000D03*
%TD*%
%TO.C,C3*%
X118500000Y-109550000D03*
X118500000Y-112050000D03*
%TD*%
D14*
%TO.C,J4*%
X100700000Y-143350000D03*
X100700000Y-146450000D03*
X100700000Y-154750000D03*
%TD*%
D17*
%TO.C,R1*%
X99500000Y-89550000D03*
D18*
X99500000Y-97170000D03*
%TD*%
D17*
%TO.C,R6*%
X118700000Y-99440000D03*
D18*
X118700000Y-107060000D03*
%TD*%
D15*
%TO.C,RV2*%
X109000000Y-79250000D03*
X118600000Y-79250000D03*
D16*
X111300000Y-86250000D03*
X113800000Y-86250000D03*
X116300000Y-86250000D03*
%TD*%
D17*
%TO.C,R5*%
X96690000Y-103550000D03*
D18*
X104310000Y-103550000D03*
%TD*%
D17*
%TO.C,R8*%
X96700000Y-106320000D03*
D18*
X96700000Y-113940000D03*
%TD*%
D17*
%TO.C,R12*%
X104400000Y-116940000D03*
D18*
X104400000Y-124560000D03*
%TD*%
D17*
%TO.C,R14*%
X99300000Y-140550000D03*
D18*
X106920000Y-140550000D03*
%TD*%
D15*
%TO.C,RV1*%
X96400000Y-79250000D03*
X106000000Y-79250000D03*
D16*
X98700000Y-86250000D03*
X101200000Y-86250000D03*
X103700000Y-86250000D03*
%TD*%
D14*
%TO.C,J5*%
X114500000Y-143222500D03*
X114500000Y-146322500D03*
X114500000Y-154622500D03*
%TD*%
D17*
%TO.C,R3*%
X96700000Y-89540000D03*
D18*
X96700000Y-97160000D03*
%TD*%
D15*
%TO.C,RV3*%
X102950000Y-94250000D03*
X112550000Y-94250000D03*
D16*
X105250000Y-101250000D03*
X107750000Y-101250000D03*
X110250000Y-101250000D03*
%TD*%
D14*
%TO.C,J1*%
X100700000Y-70250000D03*
X100700000Y-67150000D03*
X100700000Y-58850000D03*
%TD*%
%TO.C,J2*%
X114300000Y-70230000D03*
X114300000Y-67130000D03*
X114300000Y-58830000D03*
%TD*%
D17*
%TO.C,R9*%
X115510000Y-117150000D03*
D18*
X107890000Y-117150000D03*
%TD*%
D20*
%TO.C,U1*%
X115040000Y-106730000D03*
D21*
X112500000Y-106730000D03*
X109960000Y-106730000D03*
X107420000Y-106730000D03*
X104880000Y-106730000D03*
X102340000Y-106730000D03*
X99800000Y-106730000D03*
X99800000Y-114350000D03*
X102340000Y-114350000D03*
X104880000Y-114350000D03*
X107420000Y-114350000D03*
X109960000Y-114350000D03*
X112500000Y-114350000D03*
X115040000Y-114350000D03*
%TD*%
D17*
%TO.C,R7*%
X101900000Y-124550000D03*
D18*
X101900000Y-116930000D03*
%TD*%
D17*
%TO.C,R13*%
X96700000Y-116920000D03*
D18*
X96700000Y-124540000D03*
%TD*%
D17*
%TO.C,R2*%
X116100000Y-89550000D03*
D18*
X116100000Y-97170000D03*
%TD*%
D17*
%TO.C,R11*%
X115520000Y-119750000D03*
D18*
X107900000Y-119750000D03*
%TD*%
D19*
%TO.C,C6*%
X106900000Y-134550000D03*
X106900000Y-136550000D03*
%TD*%
%TO.C,C1*%
X101900000Y-127850000D03*
X101900000Y-130350000D03*
%TD*%
D22*
%TO.C,J3*%
X116440000Y-126550000D03*
D23*
X113900000Y-126550000D03*
X116440000Y-129090000D03*
X113900000Y-129090000D03*
X116440000Y-131630000D03*
X113900000Y-131630000D03*
X116440000Y-134170000D03*
X113900000Y-134170000D03*
X116440000Y-136710000D03*
X113900000Y-136710000D03*
%TD*%
D19*
%TO.C,C5*%
X106900000Y-128150000D03*
X106900000Y-130150000D03*
%TD*%
%TO.C,C2*%
X101900000Y-134250000D03*
X101900000Y-136750000D03*
%TD*%
%LPD*%
M02*
