%TF.GenerationSoftware,KiCad,Pcbnew,8.0.4-8.0.4-0~ubuntu22.04.1*%
%TF.CreationDate,2024-07-28T19:50:56+02:00*%
%TF.ProjectId,VoltageProcessor,566f6c74-6167-4655-9072-6f636573736f,0.1*%
%TF.SameCoordinates,Original*%
%TF.FileFunction,Legend,Bot*%
%TF.FilePolarity,Positive*%
%FSLAX46Y46*%
G04 Gerber Fmt 4.6, Leading zero omitted, Abs format (unit mm)*
G04 Created by KiCad (PCBNEW 8.0.4-8.0.4-0~ubuntu22.04.1) date 2024-07-28 19:50:56*
%MOMM*%
%LPD*%
G01*
G04 APERTURE LIST*
G04 Aperture macros list*
%AMRoundRect*
0 Rectangle with rounded corners*
0 $1 Rounding radius*
0 $2 $3 $4 $5 $6 $7 $8 $9 X,Y pos of 4 corners*
0 Add a 4 corners polygon primitive as box body*
4,1,4,$2,$3,$4,$5,$6,$7,$8,$9,$2,$3,0*
0 Add four circle primitives for the rounded corners*
1,1,$1+$1,$2,$3*
1,1,$1+$1,$4,$5*
1,1,$1+$1,$6,$7*
1,1,$1+$1,$8,$9*
0 Add four rect primitives between the rounded corners*
20,1,$1+$1,$2,$3,$4,$5,0*
20,1,$1+$1,$4,$5,$6,$7,0*
20,1,$1+$1,$6,$7,$8,$9,0*
20,1,$1+$1,$8,$9,$2,$3,0*%
G04 Aperture macros list end*
%ADD10C,0.275000*%
%ADD11C,0.200000*%
%ADD12C,0.100000*%
%ADD13C,0.150000*%
%ADD14C,0.120000*%
%ADD15C,1.400000*%
%ADD16O,1.400000X1.400000*%
%ADD17C,1.600000*%
%ADD18C,2.000000*%
%ADD19C,3.500000*%
%ADD20O,1.500000X2.000000*%
%ADD21R,1.600000X1.600000*%
%ADD22O,1.600000X1.600000*%
%ADD23RoundRect,0.250000X0.600000X0.600000X-0.600000X0.600000X-0.600000X-0.600000X0.600000X-0.600000X0*%
%ADD24C,1.700000*%
G04 APERTURE END LIST*
D10*
X110009555Y-66076604D02*
X110009555Y-65209938D01*
X110009555Y-65457557D02*
X109947650Y-65333747D01*
X109947650Y-65333747D02*
X109885745Y-65271842D01*
X109885745Y-65271842D02*
X109761936Y-65209938D01*
X109761936Y-65209938D02*
X109638126Y-65209938D01*
X108709555Y-66014700D02*
X108833364Y-66076604D01*
X108833364Y-66076604D02*
X109080983Y-66076604D01*
X109080983Y-66076604D02*
X109204793Y-66014700D01*
X109204793Y-66014700D02*
X109266697Y-65890890D01*
X109266697Y-65890890D02*
X109266697Y-65395652D01*
X109266697Y-65395652D02*
X109204793Y-65271842D01*
X109204793Y-65271842D02*
X109080983Y-65209938D01*
X109080983Y-65209938D02*
X108833364Y-65209938D01*
X108833364Y-65209938D02*
X108709555Y-65271842D01*
X108709555Y-65271842D02*
X108647650Y-65395652D01*
X108647650Y-65395652D02*
X108647650Y-65519461D01*
X108647650Y-65519461D02*
X109266697Y-65643271D01*
X108214316Y-65209938D02*
X107904792Y-66076604D01*
X107904792Y-66076604D02*
X107595269Y-65209938D01*
X105861936Y-64776604D02*
X105738126Y-64776604D01*
X105738126Y-64776604D02*
X105614317Y-64838509D01*
X105614317Y-64838509D02*
X105552412Y-64900414D01*
X105552412Y-64900414D02*
X105490507Y-65024223D01*
X105490507Y-65024223D02*
X105428602Y-65271842D01*
X105428602Y-65271842D02*
X105428602Y-65581366D01*
X105428602Y-65581366D02*
X105490507Y-65828985D01*
X105490507Y-65828985D02*
X105552412Y-65952795D01*
X105552412Y-65952795D02*
X105614317Y-66014700D01*
X105614317Y-66014700D02*
X105738126Y-66076604D01*
X105738126Y-66076604D02*
X105861936Y-66076604D01*
X105861936Y-66076604D02*
X105985745Y-66014700D01*
X105985745Y-66014700D02*
X106047650Y-65952795D01*
X106047650Y-65952795D02*
X106109555Y-65828985D01*
X106109555Y-65828985D02*
X106171459Y-65581366D01*
X106171459Y-65581366D02*
X106171459Y-65271842D01*
X106171459Y-65271842D02*
X106109555Y-65024223D01*
X106109555Y-65024223D02*
X106047650Y-64900414D01*
X106047650Y-64900414D02*
X105985745Y-64838509D01*
X105985745Y-64838509D02*
X105861936Y-64776604D01*
X104871460Y-65952795D02*
X104809555Y-66014700D01*
X104809555Y-66014700D02*
X104871460Y-66076604D01*
X104871460Y-66076604D02*
X104933364Y-66014700D01*
X104933364Y-66014700D02*
X104871460Y-65952795D01*
X104871460Y-65952795D02*
X104871460Y-66076604D01*
X103571459Y-66076604D02*
X104314316Y-66076604D01*
X103942888Y-66076604D02*
X103942888Y-64776604D01*
X103942888Y-64776604D02*
X104066697Y-64962319D01*
X104066697Y-64962319D02*
X104190507Y-65086128D01*
X104190507Y-65086128D02*
X104314316Y-65148033D01*
D11*
G36*
X117941381Y-61970924D02*
G01*
X117727424Y-61970924D01*
X117368387Y-63323541D01*
X117008618Y-61970924D01*
X116794295Y-61970924D01*
X117242358Y-63495000D01*
X117493318Y-63495000D01*
X117941381Y-61970924D01*
G37*
G36*
X116118817Y-62322785D02*
G01*
X116202812Y-62330032D01*
X116279053Y-62348150D01*
X116347540Y-62377138D01*
X116417642Y-62424698D01*
X116469330Y-62477240D01*
X116505953Y-62528854D01*
X116541708Y-62599505D01*
X116568524Y-62679662D01*
X116584043Y-62753720D01*
X116593354Y-62834379D01*
X116596458Y-62921639D01*
X116594477Y-62991712D01*
X116586431Y-63073395D01*
X116572195Y-63148512D01*
X116546942Y-63229986D01*
X116512775Y-63302007D01*
X116469696Y-63364574D01*
X116408820Y-63424530D01*
X116337111Y-63469760D01*
X116267022Y-63496808D01*
X116188974Y-63513037D01*
X116102965Y-63518447D01*
X116017730Y-63513076D01*
X115940351Y-63496963D01*
X115870829Y-63470108D01*
X115799650Y-63425201D01*
X115739166Y-63365673D01*
X115702753Y-63314480D01*
X115667204Y-63244241D01*
X115640542Y-63164394D01*
X115625113Y-63090515D01*
X115615856Y-63009963D01*
X115612770Y-62922739D01*
X115612862Y-62919441D01*
X115812805Y-62919441D01*
X115813100Y-62945572D01*
X115817522Y-63019344D01*
X115829388Y-63096654D01*
X115851793Y-63173459D01*
X115888276Y-63245139D01*
X115902997Y-63265436D01*
X115960298Y-63318673D01*
X116030265Y-63349728D01*
X116104064Y-63358712D01*
X116121397Y-63358268D01*
X116200458Y-63342741D01*
X116266855Y-63305031D01*
X116320586Y-63245139D01*
X116334139Y-63222978D01*
X116363763Y-63155412D01*
X116383907Y-63075528D01*
X116393757Y-62995523D01*
X116396423Y-62919441D01*
X116396128Y-62893447D01*
X116391706Y-62820065D01*
X116379840Y-62743179D01*
X116357435Y-62666814D01*
X116320952Y-62595575D01*
X116306222Y-62575344D01*
X116248748Y-62522278D01*
X116178395Y-62491323D01*
X116104064Y-62482369D01*
X116086778Y-62482811D01*
X116007945Y-62498288D01*
X115941778Y-62535876D01*
X115888276Y-62595575D01*
X115874788Y-62617596D01*
X115845307Y-62684755D01*
X115825260Y-62764187D01*
X115815458Y-62843758D01*
X115812805Y-62919441D01*
X115612862Y-62919441D01*
X115614751Y-62851899D01*
X115622797Y-62769418D01*
X115637033Y-62693682D01*
X115662286Y-62611701D01*
X115696453Y-62539431D01*
X115739532Y-62476873D01*
X115800302Y-62416774D01*
X115871696Y-62371436D01*
X115941347Y-62344324D01*
X116018803Y-62328056D01*
X116104064Y-62322634D01*
X116118817Y-62322785D01*
G37*
G36*
X114631646Y-63495000D02*
G01*
X114711514Y-63488290D01*
X114789979Y-63464704D01*
X114856388Y-63424135D01*
X114893963Y-63387655D01*
X114938769Y-63320141D01*
X114966287Y-63248500D01*
X114982218Y-63165913D01*
X114986653Y-63084672D01*
X114986653Y-62060317D01*
X115288904Y-62060317D01*
X115288904Y-61900582D01*
X114797976Y-61900582D01*
X114797976Y-63080642D01*
X114792391Y-63159057D01*
X114771391Y-63233759D01*
X114750715Y-63270052D01*
X114692738Y-63318961D01*
X114618919Y-63335201D01*
X114613328Y-63335265D01*
X114392777Y-63335265D01*
X114392777Y-63495000D01*
X114631646Y-63495000D01*
G37*
G36*
X113382711Y-63495000D02*
G01*
X113457642Y-63492037D01*
X113534090Y-63481093D01*
X113606991Y-63458710D01*
X113670557Y-63420940D01*
X113682030Y-63410736D01*
X113728205Y-63346407D01*
X113755140Y-63268567D01*
X113766513Y-63194961D01*
X113769591Y-63122773D01*
X113769591Y-62505816D01*
X114075872Y-62505816D01*
X114075872Y-62346081D01*
X113769591Y-62346081D01*
X113769591Y-62046762D01*
X113580914Y-61964696D01*
X113580914Y-62346081D01*
X113152267Y-62346081D01*
X113152267Y-62505816D01*
X113580914Y-62505816D01*
X113580914Y-63114347D01*
X113575199Y-63189858D01*
X113551397Y-63261045D01*
X113532554Y-63286172D01*
X113466333Y-63322991D01*
X113393226Y-63334498D01*
X113364392Y-63335265D01*
X113152267Y-63335265D01*
X113152267Y-63495000D01*
X113382711Y-63495000D01*
G37*
G36*
X112385948Y-62324053D02*
G01*
X112459913Y-62331507D01*
X112532745Y-62345348D01*
X112580808Y-62357461D01*
X112652472Y-62378464D01*
X112723621Y-62402868D01*
X112723621Y-62591912D01*
X112679200Y-62567503D01*
X112609476Y-62536213D01*
X112536043Y-62511311D01*
X112485439Y-62498649D01*
X112408674Y-62486439D01*
X112330879Y-62482369D01*
X112267406Y-62485895D01*
X112192395Y-62502259D01*
X112122051Y-62538789D01*
X112076731Y-62593366D01*
X112053562Y-62664938D01*
X112047679Y-62738824D01*
X112047679Y-62768133D01*
X112301203Y-62768133D01*
X112317539Y-62768264D01*
X112397460Y-62772873D01*
X112474446Y-62784064D01*
X112548499Y-62801838D01*
X112616563Y-62827734D01*
X112681515Y-62867377D01*
X112736078Y-62918709D01*
X112744729Y-62929313D01*
X112782333Y-62996745D01*
X112801868Y-63071420D01*
X112807519Y-63149518D01*
X112803719Y-63213502D01*
X112786832Y-63289717D01*
X112751686Y-63363033D01*
X112699441Y-63423192D01*
X112649370Y-63460308D01*
X112576801Y-63494633D01*
X112504558Y-63512493D01*
X112425034Y-63518447D01*
X112351991Y-63513545D01*
X112274287Y-63496831D01*
X112199354Y-63468255D01*
X112136843Y-63431697D01*
X112078660Y-63379500D01*
X112031559Y-63314748D01*
X112028641Y-63334426D01*
X112015073Y-63406706D01*
X112010968Y-63424098D01*
X111987229Y-63495000D01*
X111797819Y-63495000D01*
X111817461Y-63442217D01*
X111836798Y-63365349D01*
X111847644Y-63288370D01*
X111852780Y-63224460D01*
X111856775Y-63150754D01*
X111858269Y-63075879D01*
X111858269Y-62968168D01*
X112047679Y-62968168D01*
X112049310Y-63012256D01*
X112059691Y-63084899D01*
X112081751Y-63159410D01*
X112093250Y-63186408D01*
X112132189Y-63248900D01*
X112188729Y-63303757D01*
X112233394Y-63330322D01*
X112303676Y-63352218D01*
X112378872Y-63358712D01*
X112411319Y-63357451D01*
X112486472Y-63342367D01*
X112552529Y-63307055D01*
X112568071Y-63293316D01*
X112607897Y-63227113D01*
X112618841Y-63150983D01*
X112607974Y-63074170D01*
X112569382Y-63010666D01*
X112512962Y-62970091D01*
X112443353Y-62945087D01*
X112433768Y-62943002D01*
X112361066Y-62931651D01*
X112286915Y-62927868D01*
X112047679Y-62927868D01*
X112047679Y-62968168D01*
X111858269Y-62968168D01*
X111858269Y-62841772D01*
X111859544Y-62762277D01*
X111863952Y-62688088D01*
X111874389Y-62613893D01*
X111887051Y-62569016D01*
X111919200Y-62501791D01*
X111968911Y-62442801D01*
X112001108Y-62416487D01*
X112067600Y-62376827D01*
X112136706Y-62350844D01*
X112185432Y-62338502D01*
X112259896Y-62326601D01*
X112336008Y-62322634D01*
X112385948Y-62324053D01*
G37*
G36*
X111149329Y-62326749D02*
G01*
X111222318Y-62342956D01*
X111291870Y-62374658D01*
X111327638Y-62398888D01*
X111385693Y-62452539D01*
X111429623Y-62512044D01*
X111454009Y-62556031D01*
X111483805Y-62626218D01*
X111505460Y-62701454D01*
X111515718Y-62753135D01*
X111525610Y-62830741D01*
X111528907Y-62908450D01*
X111527442Y-62960153D01*
X111519748Y-63037880D01*
X111505460Y-63115812D01*
X111491973Y-63166691D01*
X111465131Y-63238716D01*
X111430355Y-63305589D01*
X111406017Y-63341483D01*
X111352446Y-63399585D01*
X111293335Y-63443342D01*
X111242421Y-63468313D01*
X111165518Y-63488895D01*
X111085973Y-63495000D01*
X111046972Y-63493364D01*
X110969187Y-63478596D01*
X110900593Y-63448471D01*
X110867549Y-63425430D01*
X110814554Y-63369245D01*
X110775296Y-63301926D01*
X110775296Y-63440411D01*
X110775913Y-63472116D01*
X110783295Y-63549105D01*
X110800575Y-63623227D01*
X110802168Y-63628184D01*
X110834647Y-63694302D01*
X110887037Y-63747791D01*
X110911857Y-63762981D01*
X110983294Y-63786202D01*
X111059595Y-63792487D01*
X111087679Y-63791808D01*
X111165456Y-63782671D01*
X111236549Y-63764644D01*
X111258033Y-63757534D01*
X111331152Y-63730306D01*
X111401046Y-63699431D01*
X111401046Y-63892871D01*
X111380679Y-63899477D01*
X111308851Y-63919893D01*
X111236182Y-63936102D01*
X111220527Y-63938983D01*
X111147637Y-63948680D01*
X111069853Y-63952222D01*
X111054076Y-63952083D01*
X110979302Y-63947199D01*
X110898618Y-63932129D01*
X110827799Y-63907013D01*
X110757647Y-63865014D01*
X110700924Y-63809340D01*
X110693892Y-63800312D01*
X110650915Y-63731648D01*
X110618879Y-63653412D01*
X110600125Y-63578733D01*
X110589409Y-63497023D01*
X110586618Y-63423558D01*
X110586618Y-62905886D01*
X110775296Y-62905886D01*
X110775364Y-62918886D01*
X110779624Y-63004438D01*
X110790511Y-63080453D01*
X110811067Y-63155649D01*
X110844539Y-63225355D01*
X110848930Y-63232117D01*
X110899849Y-63287931D01*
X110970571Y-63324531D01*
X111048237Y-63335265D01*
X111064764Y-63334832D01*
X111140355Y-63319706D01*
X111204211Y-63282969D01*
X111256332Y-63224623D01*
X111265250Y-63210360D01*
X111298258Y-63136616D01*
X111317818Y-63057928D01*
X111327383Y-62978932D01*
X111329972Y-62903688D01*
X111329901Y-62890803D01*
X111325461Y-62806143D01*
X111314113Y-62731160D01*
X111292687Y-62657315D01*
X111257798Y-62589347D01*
X111248526Y-62576393D01*
X111194652Y-62524157D01*
X111128255Y-62492816D01*
X111049337Y-62482369D01*
X110974048Y-62491224D01*
X110906821Y-62522669D01*
X110864105Y-62562489D01*
X110824023Y-62627083D01*
X110801520Y-62689282D01*
X110785554Y-62764836D01*
X110778191Y-62832321D01*
X110775296Y-62905886D01*
X110586618Y-62905886D01*
X110586618Y-62346081D01*
X110756978Y-62346081D01*
X110775296Y-62503984D01*
X110791634Y-62475593D01*
X110840224Y-62413579D01*
X110902424Y-62365865D01*
X110937364Y-62349020D01*
X111009042Y-62328713D01*
X111083042Y-62322634D01*
X111149329Y-62326749D01*
G37*
G36*
X109835912Y-62326508D02*
G01*
X109913472Y-62340424D01*
X109984026Y-62364461D01*
X110055024Y-62403600D01*
X110097352Y-62435822D01*
X110153164Y-62491640D01*
X110199761Y-62556443D01*
X110233443Y-62621587D01*
X110259730Y-62692295D01*
X110278506Y-62767034D01*
X110289772Y-62845802D01*
X110293527Y-62928600D01*
X110291163Y-62995216D01*
X110281558Y-63073413D01*
X110264566Y-63145976D01*
X110234422Y-63225613D01*
X110193640Y-63297136D01*
X110142219Y-63360544D01*
X110102605Y-63397552D01*
X110036488Y-63443813D01*
X109962334Y-63478971D01*
X109880142Y-63503027D01*
X109805510Y-63514592D01*
X109725296Y-63518447D01*
X109673364Y-63516958D01*
X109596496Y-63509145D01*
X109520865Y-63494633D01*
X109471016Y-63481559D01*
X109396845Y-63458254D01*
X109323394Y-63430519D01*
X109323394Y-63248436D01*
X109370518Y-63270487D01*
X109442749Y-63300386D01*
X109516835Y-63326472D01*
X109567256Y-63340577D01*
X109644433Y-63354178D01*
X109723464Y-63358712D01*
X109789539Y-63355106D01*
X109867780Y-63339077D01*
X109942336Y-63305718D01*
X110002634Y-63256130D01*
X110039321Y-63207884D01*
X110073251Y-63135963D01*
X110090905Y-63062690D01*
X110096789Y-62980624D01*
X110096789Y-62974762D01*
X109279431Y-62974762D01*
X109279431Y-62881706D01*
X109280545Y-62833523D01*
X109282205Y-62815027D01*
X109468108Y-62815027D01*
X110089462Y-62815027D01*
X110086440Y-62792210D01*
X110068648Y-62716495D01*
X110039637Y-62647233D01*
X110034572Y-62637919D01*
X109989014Y-62575730D01*
X109930094Y-62527065D01*
X109902518Y-62511875D01*
X109828857Y-62488654D01*
X109755338Y-62482369D01*
X109730053Y-62483061D01*
X109656654Y-62494880D01*
X109588642Y-62526699D01*
X109534237Y-62578539D01*
X109497051Y-62646133D01*
X109490268Y-62665282D01*
X109473648Y-62736718D01*
X109468108Y-62815027D01*
X109282205Y-62815027D01*
X109287353Y-62757669D01*
X109303694Y-62673987D01*
X109328947Y-62598317D01*
X109363114Y-62530659D01*
X109406193Y-62471011D01*
X109457223Y-62420586D01*
X109525940Y-62374943D01*
X109604545Y-62343499D01*
X109679790Y-62327850D01*
X109762299Y-62322634D01*
X109835912Y-62326508D01*
G37*
G36*
X107717986Y-63495000D02*
G01*
X107510624Y-63495000D01*
X107510624Y-62880973D01*
X107270655Y-62880973D01*
X107254570Y-62880861D01*
X107177932Y-62876929D01*
X107094303Y-62864796D01*
X107019766Y-62844574D01*
X106944300Y-62810759D01*
X106881210Y-62765935D01*
X106836637Y-62718832D01*
X106796290Y-62654210D01*
X106768496Y-62579175D01*
X106754663Y-62506570D01*
X106750052Y-62426315D01*
X106750076Y-62425582D01*
X106966207Y-62425582D01*
X106974006Y-62506969D01*
X107000603Y-62582445D01*
X107046074Y-62643203D01*
X107070990Y-62664211D01*
X107138398Y-62700355D01*
X107195011Y-62715344D01*
X107270655Y-62721238D01*
X107510624Y-62721238D01*
X107510624Y-62130659D01*
X107270655Y-62130659D01*
X107252605Y-62130959D01*
X107178001Y-62139750D01*
X107107819Y-62163793D01*
X107046074Y-62207595D01*
X107036403Y-62217549D01*
X106994363Y-62281041D01*
X106972524Y-62351609D01*
X106966207Y-62425582D01*
X106750076Y-62425582D01*
X106751577Y-62380226D01*
X106761289Y-62306028D01*
X106781926Y-62232508D01*
X106790386Y-62211305D01*
X106829195Y-62143585D01*
X106882309Y-62085963D01*
X106890807Y-62078885D01*
X106956864Y-62035633D01*
X107034422Y-62003391D01*
X107110053Y-61984518D01*
X107194134Y-61973733D01*
X107270655Y-61970924D01*
X107717986Y-61970924D01*
X107717986Y-63495000D01*
G37*
G36*
X106321406Y-62346081D02*
G01*
X106149947Y-62346081D01*
X106131629Y-62573593D01*
X106096681Y-62503312D01*
X106052288Y-62444049D01*
X105992546Y-62391588D01*
X105986549Y-62387480D01*
X105915299Y-62350561D01*
X105842714Y-62330296D01*
X105762686Y-62322697D01*
X105754274Y-62322634D01*
X105677625Y-62327821D01*
X105599257Y-62345753D01*
X105528045Y-62376493D01*
X105508077Y-62388213D01*
X105508077Y-62586050D01*
X105566123Y-62540689D01*
X105637501Y-62505150D01*
X105715312Y-62486014D01*
X105770760Y-62482369D01*
X105852894Y-62489398D01*
X105924908Y-62510487D01*
X105993826Y-62551017D01*
X106038572Y-62594842D01*
X106079285Y-62657193D01*
X106108365Y-62731771D01*
X106124268Y-62807057D01*
X106131265Y-62891705D01*
X106131629Y-62917609D01*
X106131629Y-63495000D01*
X106321406Y-63495000D01*
X106321406Y-62346081D01*
G37*
G36*
X104749801Y-62322785D02*
G01*
X104833796Y-62330032D01*
X104910037Y-62348150D01*
X104978524Y-62377138D01*
X105048626Y-62424698D01*
X105100314Y-62477240D01*
X105136937Y-62528854D01*
X105172692Y-62599505D01*
X105199508Y-62679662D01*
X105215027Y-62753720D01*
X105224338Y-62834379D01*
X105227442Y-62921639D01*
X105225461Y-62991712D01*
X105217415Y-63073395D01*
X105203179Y-63148512D01*
X105177926Y-63229986D01*
X105143759Y-63302007D01*
X105100680Y-63364574D01*
X105039804Y-63424530D01*
X104968095Y-63469760D01*
X104898006Y-63496808D01*
X104819958Y-63513037D01*
X104733949Y-63518447D01*
X104648714Y-63513076D01*
X104571335Y-63496963D01*
X104501813Y-63470108D01*
X104430634Y-63425201D01*
X104370150Y-63365673D01*
X104333737Y-63314480D01*
X104298188Y-63244241D01*
X104271526Y-63164394D01*
X104256097Y-63090515D01*
X104246840Y-63009963D01*
X104243754Y-62922739D01*
X104243846Y-62919441D01*
X104443789Y-62919441D01*
X104444084Y-62945572D01*
X104448506Y-63019344D01*
X104460372Y-63096654D01*
X104482777Y-63173459D01*
X104519260Y-63245139D01*
X104533981Y-63265436D01*
X104591282Y-63318673D01*
X104661249Y-63349728D01*
X104735048Y-63358712D01*
X104752381Y-63358268D01*
X104831442Y-63342741D01*
X104897839Y-63305031D01*
X104951570Y-63245139D01*
X104965123Y-63222978D01*
X104994747Y-63155412D01*
X105014891Y-63075528D01*
X105024741Y-62995523D01*
X105027407Y-62919441D01*
X105027112Y-62893447D01*
X105022690Y-62820065D01*
X105010824Y-62743179D01*
X104988419Y-62666814D01*
X104951936Y-62595575D01*
X104937206Y-62575344D01*
X104879732Y-62522278D01*
X104809379Y-62491323D01*
X104735048Y-62482369D01*
X104717762Y-62482811D01*
X104638929Y-62498288D01*
X104572762Y-62535876D01*
X104519260Y-62595575D01*
X104505772Y-62617596D01*
X104476291Y-62684755D01*
X104456244Y-62764187D01*
X104446442Y-62843758D01*
X104443789Y-62919441D01*
X104243846Y-62919441D01*
X104245735Y-62851899D01*
X104253781Y-62769418D01*
X104268017Y-62693682D01*
X104293270Y-62611701D01*
X104327437Y-62539431D01*
X104370516Y-62476873D01*
X104431286Y-62416774D01*
X104502680Y-62371436D01*
X104572331Y-62344324D01*
X104649787Y-62328056D01*
X104735048Y-62322634D01*
X104749801Y-62322785D01*
G37*
G36*
X103381699Y-63518447D02*
G01*
X103458287Y-63514818D01*
X103539076Y-63501783D01*
X103612675Y-63479269D01*
X103679085Y-63447275D01*
X103686880Y-63442609D01*
X103751547Y-63395256D01*
X103806651Y-63338513D01*
X103852192Y-63272381D01*
X103873360Y-63231584D01*
X103900928Y-63161448D01*
X103920621Y-63086229D01*
X103932436Y-63005926D01*
X103936313Y-62931492D01*
X103936374Y-62920540D01*
X103933341Y-62845157D01*
X103922448Y-62763984D01*
X103903632Y-62688124D01*
X103876893Y-62617576D01*
X103872993Y-62609131D01*
X103832383Y-62537959D01*
X103782267Y-62476119D01*
X103722645Y-62423610D01*
X103685415Y-62398471D01*
X103619607Y-62365292D01*
X103546379Y-62341593D01*
X103465734Y-62327374D01*
X103389083Y-62322708D01*
X103377669Y-62322634D01*
X103303121Y-62326322D01*
X103229871Y-62338544D01*
X103205478Y-62344982D01*
X103132625Y-62370420D01*
X103063322Y-62402878D01*
X103048307Y-62410928D01*
X103048307Y-62612794D01*
X103107604Y-62564362D01*
X103171598Y-62525053D01*
X103194487Y-62514242D01*
X103267607Y-62491364D01*
X103343843Y-62482649D01*
X103361182Y-62482369D01*
X103434647Y-62487034D01*
X103512393Y-62505410D01*
X103582100Y-62541353D01*
X103637484Y-62591087D01*
X103679988Y-62652362D01*
X103701168Y-62699623D01*
X103721818Y-62770522D01*
X103733896Y-62846702D01*
X103737438Y-62920540D01*
X103733861Y-62993870D01*
X103721660Y-63069905D01*
X103700802Y-63141092D01*
X103666713Y-63210334D01*
X103619950Y-63268037D01*
X103581734Y-63300094D01*
X103512405Y-63335814D01*
X103435185Y-63354075D01*
X103362281Y-63358712D01*
X103285555Y-63353102D01*
X103213738Y-63336272D01*
X103194120Y-63329403D01*
X103127803Y-63297236D01*
X103065412Y-63252026D01*
X103048307Y-63236713D01*
X103048307Y-63430519D01*
X103114349Y-63464780D01*
X103184248Y-63490626D01*
X103258004Y-63508057D01*
X103335617Y-63517073D01*
X103381699Y-63518447D01*
G37*
G36*
X102256568Y-62326508D02*
G01*
X102334128Y-62340424D01*
X102404682Y-62364461D01*
X102475680Y-62403600D01*
X102518008Y-62435822D01*
X102573820Y-62491640D01*
X102620417Y-62556443D01*
X102654099Y-62621587D01*
X102680386Y-62692295D01*
X102699162Y-62767034D01*
X102710428Y-62845802D01*
X102714183Y-62928600D01*
X102711819Y-62995216D01*
X102702214Y-63073413D01*
X102685222Y-63145976D01*
X102655078Y-63225613D01*
X102614296Y-63297136D01*
X102562875Y-63360544D01*
X102523261Y-63397552D01*
X102457144Y-63443813D01*
X102382990Y-63478971D01*
X102300798Y-63503027D01*
X102226166Y-63514592D01*
X102145952Y-63518447D01*
X102094020Y-63516958D01*
X102017152Y-63509145D01*
X101941521Y-63494633D01*
X101891672Y-63481559D01*
X101817501Y-63458254D01*
X101744050Y-63430519D01*
X101744050Y-63248436D01*
X101791174Y-63270487D01*
X101863405Y-63300386D01*
X101937491Y-63326472D01*
X101987912Y-63340577D01*
X102065089Y-63354178D01*
X102144120Y-63358712D01*
X102210195Y-63355106D01*
X102288436Y-63339077D01*
X102362992Y-63305718D01*
X102423290Y-63256130D01*
X102459977Y-63207884D01*
X102493907Y-63135963D01*
X102511561Y-63062690D01*
X102517445Y-62980624D01*
X102517445Y-62974762D01*
X101700087Y-62974762D01*
X101700087Y-62881706D01*
X101701201Y-62833523D01*
X101702861Y-62815027D01*
X101888764Y-62815027D01*
X102510118Y-62815027D01*
X102507096Y-62792210D01*
X102489304Y-62716495D01*
X102460293Y-62647233D01*
X102455228Y-62637919D01*
X102409670Y-62575730D01*
X102350750Y-62527065D01*
X102323174Y-62511875D01*
X102249513Y-62488654D01*
X102175994Y-62482369D01*
X102150709Y-62483061D01*
X102077310Y-62494880D01*
X102009298Y-62526699D01*
X101954893Y-62578539D01*
X101917707Y-62646133D01*
X101910924Y-62665282D01*
X101894304Y-62736718D01*
X101888764Y-62815027D01*
X101702861Y-62815027D01*
X101708009Y-62757669D01*
X101724350Y-62673987D01*
X101749603Y-62598317D01*
X101783769Y-62530659D01*
X101826849Y-62471011D01*
X101877879Y-62420586D01*
X101946596Y-62374943D01*
X102025201Y-62343499D01*
X102100446Y-62327850D01*
X102182955Y-62322634D01*
X102256568Y-62326508D01*
G37*
G36*
X100973953Y-63518447D02*
G01*
X101048513Y-63514976D01*
X101128577Y-63504562D01*
X101201585Y-63490111D01*
X101278638Y-63470559D01*
X101359734Y-63445907D01*
X101359734Y-63251734D01*
X101280613Y-63288090D01*
X101204814Y-63316924D01*
X101132338Y-63338236D01*
X101051983Y-63353593D01*
X100976151Y-63358712D01*
X100899459Y-63352868D01*
X100828730Y-63333161D01*
X100784542Y-63309253D01*
X100733001Y-63255216D01*
X100712805Y-63181428D01*
X100712735Y-63176263D01*
X100731746Y-63103993D01*
X100772819Y-63060125D01*
X100838816Y-63024812D01*
X100909955Y-63001494D01*
X100964061Y-62988684D01*
X101042829Y-62972564D01*
X101118392Y-62953650D01*
X101190481Y-62926132D01*
X101254538Y-62887807D01*
X101280233Y-62865586D01*
X101326223Y-62801959D01*
X101349734Y-62730328D01*
X101355704Y-62662254D01*
X101348652Y-62585271D01*
X101323858Y-62509943D01*
X101281212Y-62446554D01*
X101242864Y-62410928D01*
X101180491Y-62372299D01*
X101106210Y-62344707D01*
X101031448Y-62329618D01*
X100947569Y-62322979D01*
X100921929Y-62322634D01*
X100845233Y-62325965D01*
X100769659Y-62335957D01*
X100695207Y-62352612D01*
X100621877Y-62375928D01*
X100580478Y-62392243D01*
X100580478Y-62577623D01*
X100651544Y-62540508D01*
X100724012Y-62512508D01*
X100797883Y-62493624D01*
X100873157Y-62483857D01*
X100916800Y-62482369D01*
X101001091Y-62488255D01*
X101077389Y-62510001D01*
X101140607Y-62561505D01*
X101164586Y-62639496D01*
X101164829Y-62649797D01*
X101150801Y-62723508D01*
X101143579Y-62736259D01*
X101082817Y-62781524D01*
X101061514Y-62790115D01*
X100986409Y-62812188D01*
X100911327Y-62829344D01*
X100882728Y-62835177D01*
X100806891Y-62849466D01*
X100724777Y-62871644D01*
X100656581Y-62903376D01*
X100593117Y-62954063D01*
X100549694Y-63018506D01*
X100526313Y-63096704D01*
X100521859Y-63156479D01*
X100529438Y-63236117D01*
X100552176Y-63306871D01*
X100595874Y-63375850D01*
X100643126Y-63421727D01*
X100709140Y-63464042D01*
X100786283Y-63494267D01*
X100862911Y-63510796D01*
X100948060Y-63518069D01*
X100973953Y-63518447D01*
G37*
G36*
X99710729Y-63518447D02*
G01*
X99785289Y-63514976D01*
X99865353Y-63504562D01*
X99938361Y-63490111D01*
X100015414Y-63470559D01*
X100096510Y-63445907D01*
X100096510Y-63251734D01*
X100017389Y-63288090D01*
X99941590Y-63316924D01*
X99869114Y-63338236D01*
X99788759Y-63353593D01*
X99712927Y-63358712D01*
X99636235Y-63352868D01*
X99565506Y-63333161D01*
X99521318Y-63309253D01*
X99469777Y-63255216D01*
X99449581Y-63181428D01*
X99449511Y-63176263D01*
X99468522Y-63103993D01*
X99509595Y-63060125D01*
X99575592Y-63024812D01*
X99646731Y-63001494D01*
X99700837Y-62988684D01*
X99779605Y-62972564D01*
X99855168Y-62953650D01*
X99927257Y-62926132D01*
X99991314Y-62887807D01*
X100017009Y-62865586D01*
X100062999Y-62801959D01*
X100086510Y-62730328D01*
X100092480Y-62662254D01*
X100085428Y-62585271D01*
X100060634Y-62509943D01*
X100017988Y-62446554D01*
X99979640Y-62410928D01*
X99917267Y-62372299D01*
X99842986Y-62344707D01*
X99768224Y-62329618D01*
X99684345Y-62322979D01*
X99658705Y-62322634D01*
X99582009Y-62325965D01*
X99506435Y-62335957D01*
X99431983Y-62352612D01*
X99358653Y-62375928D01*
X99317254Y-62392243D01*
X99317254Y-62577623D01*
X99388320Y-62540508D01*
X99460788Y-62512508D01*
X99534659Y-62493624D01*
X99609933Y-62483857D01*
X99653576Y-62482369D01*
X99737867Y-62488255D01*
X99814165Y-62510001D01*
X99877383Y-62561505D01*
X99901362Y-62639496D01*
X99901605Y-62649797D01*
X99887577Y-62723508D01*
X99880355Y-62736259D01*
X99819593Y-62781524D01*
X99798290Y-62790115D01*
X99723185Y-62812188D01*
X99648103Y-62829344D01*
X99619504Y-62835177D01*
X99543667Y-62849466D01*
X99461553Y-62871644D01*
X99393357Y-62903376D01*
X99329893Y-62954063D01*
X99286470Y-63018506D01*
X99263089Y-63096704D01*
X99258635Y-63156479D01*
X99266214Y-63236117D01*
X99288952Y-63306871D01*
X99332650Y-63375850D01*
X99379902Y-63421727D01*
X99445916Y-63464042D01*
X99523059Y-63494267D01*
X99599687Y-63510796D01*
X99684836Y-63518069D01*
X99710729Y-63518447D01*
G37*
G36*
X98433681Y-62322785D02*
G01*
X98517676Y-62330032D01*
X98593917Y-62348150D01*
X98662404Y-62377138D01*
X98732506Y-62424698D01*
X98784193Y-62477240D01*
X98820817Y-62528854D01*
X98856572Y-62599505D01*
X98883388Y-62679662D01*
X98898907Y-62753720D01*
X98908218Y-62834379D01*
X98911322Y-62921639D01*
X98909341Y-62991712D01*
X98901295Y-63073395D01*
X98887059Y-63148512D01*
X98861805Y-63229986D01*
X98827639Y-63302007D01*
X98784560Y-63364574D01*
X98723684Y-63424530D01*
X98651975Y-63469760D01*
X98581886Y-63496808D01*
X98503838Y-63513037D01*
X98417829Y-63518447D01*
X98332594Y-63513076D01*
X98255215Y-63496963D01*
X98185693Y-63470108D01*
X98114514Y-63425201D01*
X98054030Y-63365673D01*
X98017617Y-63314480D01*
X97982068Y-63244241D01*
X97955406Y-63164394D01*
X97939977Y-63090515D01*
X97930720Y-63009963D01*
X97927634Y-62922739D01*
X97927726Y-62919441D01*
X98127669Y-62919441D01*
X98127964Y-62945572D01*
X98132386Y-63019344D01*
X98144252Y-63096654D01*
X98166657Y-63173459D01*
X98203140Y-63245139D01*
X98217861Y-63265436D01*
X98275162Y-63318673D01*
X98345129Y-63349728D01*
X98418928Y-63358712D01*
X98436260Y-63358268D01*
X98515322Y-63342741D01*
X98581719Y-63305031D01*
X98635450Y-63245139D01*
X98649003Y-63222978D01*
X98678627Y-63155412D01*
X98698771Y-63075528D01*
X98708621Y-62995523D01*
X98711287Y-62919441D01*
X98710992Y-62893447D01*
X98706570Y-62820065D01*
X98694704Y-62743179D01*
X98672299Y-62666814D01*
X98635816Y-62595575D01*
X98621086Y-62575344D01*
X98563612Y-62522278D01*
X98493259Y-62491323D01*
X98418928Y-62482369D01*
X98401642Y-62482811D01*
X98322809Y-62498288D01*
X98256642Y-62535876D01*
X98203140Y-62595575D01*
X98189652Y-62617596D01*
X98160171Y-62684755D01*
X98140124Y-62764187D01*
X98130322Y-62843758D01*
X98127669Y-62919441D01*
X97927726Y-62919441D01*
X97929614Y-62851899D01*
X97937661Y-62769418D01*
X97951897Y-62693682D01*
X97977150Y-62611701D01*
X98011317Y-62539431D01*
X98054396Y-62476873D01*
X98115166Y-62416774D01*
X98186560Y-62371436D01*
X98256211Y-62344324D01*
X98333667Y-62328056D01*
X98418928Y-62322634D01*
X98433681Y-62322785D01*
G37*
G36*
X97478838Y-62346081D02*
G01*
X97307379Y-62346081D01*
X97289061Y-62573593D01*
X97254113Y-62503312D01*
X97209720Y-62444049D01*
X97149978Y-62391588D01*
X97143981Y-62387480D01*
X97072731Y-62350561D01*
X97000145Y-62330296D01*
X96920118Y-62322697D01*
X96911706Y-62322634D01*
X96835057Y-62327821D01*
X96756689Y-62345753D01*
X96685477Y-62376493D01*
X96665509Y-62388213D01*
X96665509Y-62586050D01*
X96723555Y-62540689D01*
X96794932Y-62505150D01*
X96872744Y-62486014D01*
X96928192Y-62482369D01*
X97010326Y-62489398D01*
X97082340Y-62510487D01*
X97151257Y-62551017D01*
X97196004Y-62594842D01*
X97236717Y-62657193D01*
X97265797Y-62731771D01*
X97281700Y-62807057D01*
X97288697Y-62891705D01*
X97289061Y-62917609D01*
X97289061Y-63495000D01*
X97478838Y-63495000D01*
X97478838Y-62346081D01*
G37*
D12*
G36*
X114831385Y-149350381D02*
G01*
X114862159Y-149324345D01*
X114862159Y-149173207D01*
X114831385Y-149147171D01*
X114683740Y-149147171D01*
X114652965Y-149173207D01*
X114652965Y-149324345D01*
X114683740Y-149350381D01*
X114831385Y-149350381D01*
G37*
G36*
X115256001Y-150776662D02*
G01*
X115016032Y-150776662D01*
X114935249Y-150762810D01*
X114877547Y-150721255D01*
X114845991Y-150662169D01*
X114833008Y-150594643D01*
X114831385Y-150555036D01*
X114831385Y-149671707D01*
X115156350Y-149671707D01*
X115156350Y-149533270D01*
X114642707Y-149533270D01*
X114642707Y-150552178D01*
X114647125Y-150624257D01*
X114660378Y-150688799D01*
X114686345Y-150753334D01*
X114723851Y-150808026D01*
X114735031Y-150820161D01*
X114792962Y-150866054D01*
X114862891Y-150896927D01*
X114935122Y-150911761D01*
X114995516Y-150915099D01*
X115256001Y-150915099D01*
X115256001Y-150776662D01*
G37*
G36*
X113618817Y-149513080D02*
G01*
X113702812Y-149519361D01*
X113779053Y-149535063D01*
X113847540Y-149560187D01*
X113917642Y-149601405D01*
X113969330Y-149646941D01*
X114005953Y-149691674D01*
X114041708Y-149752905D01*
X114068524Y-149822374D01*
X114084043Y-149886557D01*
X114093354Y-149956462D01*
X114096458Y-150032087D01*
X114094477Y-150092817D01*
X114086431Y-150163609D01*
X114072195Y-150228710D01*
X114046942Y-150299322D01*
X114012775Y-150361739D01*
X113969696Y-150415964D01*
X113908820Y-150467926D01*
X113837111Y-150507126D01*
X113767022Y-150530567D01*
X113688974Y-150544632D01*
X113602965Y-150549321D01*
X113517730Y-150544666D01*
X113440351Y-150530701D01*
X113370829Y-150507427D01*
X113299650Y-150468507D01*
X113239166Y-150416916D01*
X113202753Y-150372550D01*
X113167204Y-150311676D01*
X113140542Y-150242475D01*
X113125113Y-150178446D01*
X113115856Y-150108634D01*
X113112770Y-150033040D01*
X113112862Y-150030182D01*
X113312805Y-150030182D01*
X113313100Y-150052829D01*
X113317522Y-150116765D01*
X113329388Y-150183767D01*
X113351793Y-150250331D01*
X113388276Y-150312454D01*
X113402997Y-150330044D01*
X113460298Y-150376183D01*
X113530265Y-150403098D01*
X113604064Y-150410884D01*
X113621397Y-150410499D01*
X113700458Y-150397042D01*
X113766855Y-150364360D01*
X113820586Y-150312454D01*
X113834139Y-150293248D01*
X113863763Y-150234691D01*
X113883907Y-150165457D01*
X113893757Y-150096120D01*
X113896423Y-150030182D01*
X113896128Y-150007654D01*
X113891706Y-149944056D01*
X113879840Y-149877421D01*
X113857435Y-149811239D01*
X113820952Y-149749498D01*
X113806222Y-149731965D01*
X113748748Y-149685975D01*
X113678395Y-149659147D01*
X113604064Y-149651386D01*
X113586778Y-149651769D01*
X113507945Y-149665183D01*
X113441778Y-149697760D01*
X113388276Y-149749498D01*
X113374788Y-149768583D01*
X113345307Y-149826787D01*
X113325260Y-149895629D01*
X113315458Y-149964591D01*
X113312805Y-150030182D01*
X113112862Y-150030182D01*
X113114751Y-149971645D01*
X113122797Y-149900162D01*
X113137033Y-149834524D01*
X113162286Y-149763474D01*
X113196453Y-149700840D01*
X113239532Y-149646623D01*
X113300302Y-149594537D01*
X113371696Y-149555245D01*
X113441347Y-149531747D01*
X113518803Y-149517649D01*
X113604064Y-149512949D01*
X113618817Y-149513080D01*
G37*
G36*
X112343370Y-149516771D02*
G01*
X112422345Y-149534962D01*
X112490591Y-149568134D01*
X112548108Y-149616287D01*
X112588869Y-149669484D01*
X112607554Y-149533270D01*
X112778646Y-149533270D01*
X112778646Y-150915099D01*
X112588869Y-150915099D01*
X112588869Y-150398501D01*
X112556801Y-150441950D01*
X112501869Y-150490406D01*
X112435226Y-150524429D01*
X112356872Y-150544018D01*
X112280390Y-150549321D01*
X112230696Y-150547148D01*
X112150096Y-150532887D01*
X112077595Y-150505317D01*
X112013193Y-150464438D01*
X111956891Y-150410249D01*
X111922483Y-150364193D01*
X111888892Y-150302337D01*
X111863699Y-150233293D01*
X111849119Y-150170264D01*
X111840372Y-150102243D01*
X111837532Y-150031135D01*
X112035293Y-150031135D01*
X112037663Y-150099000D01*
X112048195Y-150179103D01*
X112067155Y-150247340D01*
X112102704Y-150315946D01*
X112151419Y-150366011D01*
X112227256Y-150401612D01*
X112304937Y-150410884D01*
X112321860Y-150410498D01*
X112398961Y-150396997D01*
X112463540Y-150364210D01*
X112515596Y-150312136D01*
X112528691Y-150292825D01*
X112557313Y-150234124D01*
X112576776Y-150164945D01*
X112586293Y-150095819D01*
X112588869Y-150030182D01*
X112588798Y-150018893D01*
X112584335Y-149944433D01*
X112572930Y-149877965D01*
X112551395Y-149811788D01*
X112516329Y-149749816D01*
X112506959Y-149737897D01*
X112452427Y-149689835D01*
X112385086Y-149660998D01*
X112304937Y-149651386D01*
X112227256Y-149660657D01*
X112151419Y-149696259D01*
X112102704Y-149746323D01*
X112067155Y-149814930D01*
X112048195Y-149883166D01*
X112037663Y-149963270D01*
X112035293Y-150031135D01*
X111837532Y-150031135D01*
X111837456Y-150029230D01*
X111839305Y-149970956D01*
X111846816Y-149902550D01*
X111860106Y-149839075D01*
X111883681Y-149769413D01*
X111915576Y-149706850D01*
X111955792Y-149651386D01*
X111994918Y-149611504D01*
X112056908Y-149567026D01*
X112127313Y-149535797D01*
X112206133Y-149517816D01*
X112280390Y-149512949D01*
X112343370Y-149516771D01*
G37*
G36*
X111080146Y-149516771D02*
G01*
X111159121Y-149534962D01*
X111227367Y-149568134D01*
X111284884Y-149616287D01*
X111325645Y-149669484D01*
X111344330Y-149533270D01*
X111515422Y-149533270D01*
X111515422Y-150915099D01*
X111325645Y-150915099D01*
X111325645Y-150398501D01*
X111293577Y-150441950D01*
X111238645Y-150490406D01*
X111172002Y-150524429D01*
X111093648Y-150544018D01*
X111017166Y-150549321D01*
X110967472Y-150547148D01*
X110886872Y-150532887D01*
X110814371Y-150505317D01*
X110749969Y-150464438D01*
X110693667Y-150410249D01*
X110659259Y-150364193D01*
X110625668Y-150302337D01*
X110600475Y-150233293D01*
X110585895Y-150170264D01*
X110577148Y-150102243D01*
X110574308Y-150031135D01*
X110772069Y-150031135D01*
X110774439Y-150099000D01*
X110784971Y-150179103D01*
X110803931Y-150247340D01*
X110839480Y-150315946D01*
X110888195Y-150366011D01*
X110964032Y-150401612D01*
X111041713Y-150410884D01*
X111058636Y-150410498D01*
X111135737Y-150396997D01*
X111200316Y-150364210D01*
X111252372Y-150312136D01*
X111265467Y-150292825D01*
X111294089Y-150234124D01*
X111313552Y-150164945D01*
X111323069Y-150095819D01*
X111325645Y-150030182D01*
X111325574Y-150018893D01*
X111321111Y-149944433D01*
X111309706Y-149877965D01*
X111288171Y-149811788D01*
X111253105Y-149749816D01*
X111243735Y-149737897D01*
X111189203Y-149689835D01*
X111121862Y-149660998D01*
X111041713Y-149651386D01*
X110964032Y-149660657D01*
X110888195Y-149696259D01*
X110839480Y-149746323D01*
X110803931Y-149814930D01*
X110784971Y-149883166D01*
X110774439Y-149963270D01*
X110772069Y-150031135D01*
X110574308Y-150031135D01*
X110574232Y-150029230D01*
X110576081Y-149970956D01*
X110583592Y-149902550D01*
X110596882Y-149839075D01*
X110620457Y-149769413D01*
X110652352Y-149706850D01*
X110692568Y-149651386D01*
X110731694Y-149611504D01*
X110793684Y-149567026D01*
X110864089Y-149535797D01*
X110942909Y-149517816D01*
X111017166Y-149512949D01*
X111080146Y-149516771D01*
G37*
G36*
X109862360Y-149516307D02*
G01*
X109939920Y-149528368D01*
X110010474Y-149549200D01*
X110081472Y-149583120D01*
X110123800Y-149611045D01*
X110179612Y-149659422D01*
X110226209Y-149715584D01*
X110259891Y-149772042D01*
X110286178Y-149833323D01*
X110304954Y-149898096D01*
X110316220Y-149966362D01*
X110319975Y-150038120D01*
X110317611Y-150095854D01*
X110308006Y-150163625D01*
X110291014Y-150226512D01*
X110260870Y-150295531D01*
X110220088Y-150357517D01*
X110168667Y-150412471D01*
X110129053Y-150444545D01*
X110062936Y-150484638D01*
X109988782Y-150515108D01*
X109906590Y-150535956D01*
X109831958Y-150545979D01*
X109751744Y-150549321D01*
X109699812Y-150548031D01*
X109622944Y-150541259D01*
X109547313Y-150528682D01*
X109497464Y-150517351D01*
X109423293Y-150497154D01*
X109349842Y-150473117D01*
X109349842Y-150315311D01*
X109396966Y-150334422D01*
X109469197Y-150360334D01*
X109543283Y-150382942D01*
X109593704Y-150395167D01*
X109670881Y-150406954D01*
X109749912Y-150410884D01*
X109815987Y-150407758D01*
X109894228Y-150393867D01*
X109968784Y-150364956D01*
X110029082Y-150321979D01*
X110065769Y-150280166D01*
X110099699Y-150217834D01*
X110117353Y-150154331D01*
X110123237Y-150083207D01*
X110123237Y-150078127D01*
X109305879Y-150078127D01*
X109305879Y-149997478D01*
X109306993Y-149955720D01*
X109308653Y-149939690D01*
X109494556Y-149939690D01*
X110115910Y-149939690D01*
X110112888Y-149919915D01*
X110095096Y-149854296D01*
X110066085Y-149794268D01*
X110061020Y-149786196D01*
X110015462Y-149732299D01*
X109956542Y-149690123D01*
X109928966Y-149676959D01*
X109855305Y-149656833D01*
X109781786Y-149651386D01*
X109756501Y-149651986D01*
X109683102Y-149662229D01*
X109615090Y-149689806D01*
X109560685Y-149734734D01*
X109523499Y-149793316D01*
X109516716Y-149809911D01*
X109500096Y-149871823D01*
X109494556Y-149939690D01*
X109308653Y-149939690D01*
X109313801Y-149889979D01*
X109330142Y-149817455D01*
X109355395Y-149751875D01*
X109389562Y-149693237D01*
X109432641Y-149641543D01*
X109483671Y-149597841D01*
X109552388Y-149558284D01*
X109630993Y-149531033D01*
X109706238Y-149517470D01*
X109788747Y-149512949D01*
X109862360Y-149516307D01*
G37*
G36*
X108986043Y-150529000D02*
G01*
X108815683Y-150529000D01*
X108797365Y-150398501D01*
X108763670Y-150441950D01*
X108706759Y-150490406D01*
X108638488Y-150524429D01*
X108558856Y-150544018D01*
X108481559Y-150549321D01*
X108415417Y-150545704D01*
X108342999Y-150531460D01*
X108274563Y-150503598D01*
X108239311Y-150482043D01*
X108182400Y-150434514D01*
X108139741Y-150381990D01*
X108113357Y-150338023D01*
X108085210Y-150275415D01*
X108066468Y-150214024D01*
X108054490Y-150156412D01*
X108046438Y-150092896D01*
X108043834Y-150031135D01*
X108242690Y-150031135D01*
X108245254Y-150092415D01*
X108252948Y-150156871D01*
X108267694Y-150220930D01*
X108291416Y-150281020D01*
X108321219Y-150327451D01*
X108374581Y-150375004D01*
X108442610Y-150403000D01*
X108519295Y-150410884D01*
X108595534Y-150403000D01*
X108663642Y-150375004D01*
X108709264Y-150336396D01*
X108747540Y-150281337D01*
X108772086Y-150221406D01*
X108787107Y-150157189D01*
X108794470Y-150096231D01*
X108797365Y-150030182D01*
X108794801Y-149968822D01*
X108787107Y-149904129D01*
X108773304Y-149843939D01*
X108747540Y-149780615D01*
X108717056Y-149734678D01*
X108663642Y-149687583D01*
X108595534Y-149659339D01*
X108519295Y-149651386D01*
X108442610Y-149659339D01*
X108374581Y-149687583D01*
X108328937Y-149726034D01*
X108291416Y-149781250D01*
X108267694Y-149840943D01*
X108252948Y-149905081D01*
X108245585Y-149965829D01*
X108242690Y-150031135D01*
X108043834Y-150031135D01*
X108043754Y-150029230D01*
X108045493Y-149977767D01*
X108053221Y-149909072D01*
X108065736Y-149846023D01*
X108078536Y-149801174D01*
X108104519Y-149737770D01*
X108138642Y-149679010D01*
X108158787Y-149651840D01*
X108210563Y-149600171D01*
X108273464Y-149558354D01*
X108335776Y-149532503D01*
X108407352Y-149517383D01*
X108480460Y-149512949D01*
X108518619Y-149514300D01*
X108596349Y-149526494D01*
X108667306Y-149551369D01*
X108701830Y-149570044D01*
X108756922Y-149615368D01*
X108797365Y-149669484D01*
X108797365Y-149147171D01*
X108986043Y-149147171D01*
X108986043Y-150529000D01*
G37*
G36*
X107302697Y-149513080D02*
G01*
X107386692Y-149519361D01*
X107462933Y-149535063D01*
X107531420Y-149560187D01*
X107601522Y-149601405D01*
X107653210Y-149646941D01*
X107689833Y-149691674D01*
X107725588Y-149752905D01*
X107752404Y-149822374D01*
X107767923Y-149886557D01*
X107777234Y-149956462D01*
X107780338Y-150032087D01*
X107778357Y-150092817D01*
X107770311Y-150163609D01*
X107756075Y-150228710D01*
X107730822Y-150299322D01*
X107696655Y-150361739D01*
X107653576Y-150415964D01*
X107592700Y-150467926D01*
X107520991Y-150507126D01*
X107450902Y-150530567D01*
X107372854Y-150544632D01*
X107286845Y-150549321D01*
X107201610Y-150544666D01*
X107124231Y-150530701D01*
X107054709Y-150507427D01*
X106983530Y-150468507D01*
X106923046Y-150416916D01*
X106886633Y-150372550D01*
X106851084Y-150311676D01*
X106824422Y-150242475D01*
X106808993Y-150178446D01*
X106799736Y-150108634D01*
X106796650Y-150033040D01*
X106796742Y-150030182D01*
X106996685Y-150030182D01*
X106996980Y-150052829D01*
X107001402Y-150116765D01*
X107013268Y-150183767D01*
X107035673Y-150250331D01*
X107072156Y-150312454D01*
X107086877Y-150330044D01*
X107144178Y-150376183D01*
X107214145Y-150403098D01*
X107287944Y-150410884D01*
X107305277Y-150410499D01*
X107384338Y-150397042D01*
X107450735Y-150364360D01*
X107504466Y-150312454D01*
X107518019Y-150293248D01*
X107547643Y-150234691D01*
X107567787Y-150165457D01*
X107577637Y-150096120D01*
X107580303Y-150030182D01*
X107580008Y-150007654D01*
X107575586Y-149944056D01*
X107563720Y-149877421D01*
X107541315Y-149811239D01*
X107504832Y-149749498D01*
X107490102Y-149731965D01*
X107432628Y-149685975D01*
X107362275Y-149659147D01*
X107287944Y-149651386D01*
X107270658Y-149651769D01*
X107191825Y-149665183D01*
X107125658Y-149697760D01*
X107072156Y-149749498D01*
X107058668Y-149768583D01*
X107029187Y-149826787D01*
X107009140Y-149895629D01*
X106999338Y-149964591D01*
X106996685Y-150030182D01*
X106796742Y-150030182D01*
X106798631Y-149971645D01*
X106806677Y-149900162D01*
X106820913Y-149834524D01*
X106846166Y-149763474D01*
X106880333Y-149700840D01*
X106923412Y-149646623D01*
X106984182Y-149594537D01*
X107055576Y-149555245D01*
X107125227Y-149531747D01*
X107202683Y-149517649D01*
X107287944Y-149512949D01*
X107302697Y-149513080D01*
G37*
G36*
X106072688Y-149516307D02*
G01*
X106150248Y-149528368D01*
X106220802Y-149549200D01*
X106291800Y-149583120D01*
X106334128Y-149611045D01*
X106389940Y-149659422D01*
X106436537Y-149715584D01*
X106470219Y-149772042D01*
X106496506Y-149833323D01*
X106515282Y-149898096D01*
X106526548Y-149966362D01*
X106530303Y-150038120D01*
X106527939Y-150095854D01*
X106518334Y-150163625D01*
X106501342Y-150226512D01*
X106471198Y-150295531D01*
X106430416Y-150357517D01*
X106378995Y-150412471D01*
X106339381Y-150444545D01*
X106273264Y-150484638D01*
X106199110Y-150515108D01*
X106116918Y-150535956D01*
X106042286Y-150545979D01*
X105962072Y-150549321D01*
X105910140Y-150548031D01*
X105833272Y-150541259D01*
X105757641Y-150528682D01*
X105707792Y-150517351D01*
X105633621Y-150497154D01*
X105560170Y-150473117D01*
X105560170Y-150315311D01*
X105607294Y-150334422D01*
X105679525Y-150360334D01*
X105753611Y-150382942D01*
X105804032Y-150395167D01*
X105881209Y-150406954D01*
X105960240Y-150410884D01*
X106026315Y-150407758D01*
X106104556Y-150393867D01*
X106179112Y-150364956D01*
X106239410Y-150321979D01*
X106276097Y-150280166D01*
X106310027Y-150217834D01*
X106327681Y-150154331D01*
X106333565Y-150083207D01*
X106333565Y-150078127D01*
X105516207Y-150078127D01*
X105516207Y-149997478D01*
X105517321Y-149955720D01*
X105518981Y-149939690D01*
X105704884Y-149939690D01*
X106326238Y-149939690D01*
X106323216Y-149919915D01*
X106305424Y-149854296D01*
X106276413Y-149794268D01*
X106271348Y-149786196D01*
X106225790Y-149732299D01*
X106166870Y-149690123D01*
X106139294Y-149676959D01*
X106065633Y-149656833D01*
X105992114Y-149651386D01*
X105966829Y-149651986D01*
X105893430Y-149662229D01*
X105825418Y-149689806D01*
X105771013Y-149734734D01*
X105733827Y-149793316D01*
X105727044Y-149809911D01*
X105710424Y-149871823D01*
X105704884Y-149939690D01*
X105518981Y-149939690D01*
X105524129Y-149889979D01*
X105540470Y-149817455D01*
X105565723Y-149751875D01*
X105599890Y-149693237D01*
X105642969Y-149641543D01*
X105693999Y-149597841D01*
X105762716Y-149558284D01*
X105841321Y-149531033D01*
X105916566Y-149517470D01*
X105999075Y-149512949D01*
X106072688Y-149516307D01*
G37*
G36*
X105291625Y-149533270D02*
G01*
X105095987Y-149533270D01*
X104762595Y-150369289D01*
X104428471Y-149533270D01*
X104232466Y-149533270D01*
X104640596Y-150529000D01*
X104883496Y-150529000D01*
X105291625Y-149533270D01*
G37*
G36*
X103546240Y-149516307D02*
G01*
X103623800Y-149528368D01*
X103694354Y-149549200D01*
X103765352Y-149583120D01*
X103807680Y-149611045D01*
X103863492Y-149659422D01*
X103910089Y-149715584D01*
X103943771Y-149772042D01*
X103970058Y-149833323D01*
X103988834Y-149898096D01*
X104000100Y-149966362D01*
X104003855Y-150038120D01*
X104001491Y-150095854D01*
X103991886Y-150163625D01*
X103974894Y-150226512D01*
X103944750Y-150295531D01*
X103903968Y-150357517D01*
X103852547Y-150412471D01*
X103812933Y-150444545D01*
X103746816Y-150484638D01*
X103672662Y-150515108D01*
X103590470Y-150535956D01*
X103515838Y-150545979D01*
X103435624Y-150549321D01*
X103383692Y-150548031D01*
X103306824Y-150541259D01*
X103231193Y-150528682D01*
X103181344Y-150517351D01*
X103107173Y-150497154D01*
X103033722Y-150473117D01*
X103033722Y-150315311D01*
X103080846Y-150334422D01*
X103153077Y-150360334D01*
X103227163Y-150382942D01*
X103277584Y-150395167D01*
X103354761Y-150406954D01*
X103433792Y-150410884D01*
X103499867Y-150407758D01*
X103578108Y-150393867D01*
X103652664Y-150364956D01*
X103712962Y-150321979D01*
X103749649Y-150280166D01*
X103783579Y-150217834D01*
X103801233Y-150154331D01*
X103807117Y-150083207D01*
X103807117Y-150078127D01*
X102989759Y-150078127D01*
X102989759Y-149997478D01*
X102990873Y-149955720D01*
X102992533Y-149939690D01*
X103178436Y-149939690D01*
X103799790Y-149939690D01*
X103796768Y-149919915D01*
X103778976Y-149854296D01*
X103749965Y-149794268D01*
X103744900Y-149786196D01*
X103699342Y-149732299D01*
X103640422Y-149690123D01*
X103612846Y-149676959D01*
X103539185Y-149656833D01*
X103465666Y-149651386D01*
X103440381Y-149651986D01*
X103366982Y-149662229D01*
X103298970Y-149689806D01*
X103244565Y-149734734D01*
X103207379Y-149793316D01*
X103200596Y-149809911D01*
X103183976Y-149871823D01*
X103178436Y-149939690D01*
X102992533Y-149939690D01*
X102997681Y-149889979D01*
X103014022Y-149817455D01*
X103039275Y-149751875D01*
X103073441Y-149693237D01*
X103116521Y-149641543D01*
X103167551Y-149597841D01*
X103236268Y-149558284D01*
X103314873Y-149531033D01*
X103390118Y-149517470D01*
X103472627Y-149512949D01*
X103546240Y-149516307D01*
G37*
G36*
X102239078Y-150549321D02*
G01*
X102310962Y-150535959D01*
X102357414Y-150507091D01*
X102396221Y-150451289D01*
X102405408Y-150396913D01*
X102391863Y-150332224D01*
X102357414Y-150287053D01*
X102292366Y-150251527D01*
X102239078Y-150244505D01*
X102164038Y-150259505D01*
X102121475Y-150287053D01*
X102082372Y-150342598D01*
X102073115Y-150396913D01*
X102086764Y-150461691D01*
X102121475Y-150507091D01*
X102186088Y-150542351D01*
X102239078Y-150549321D01*
G37*
G36*
X101404501Y-149533270D02*
G01*
X101234508Y-149533270D01*
X101215823Y-149685678D01*
X101172482Y-149626977D01*
X101119944Y-149580421D01*
X101058210Y-149546011D01*
X100987280Y-149523745D01*
X100907154Y-149513624D01*
X100878401Y-149512949D01*
X100795969Y-149519220D01*
X100724528Y-149538033D01*
X100650683Y-149579186D01*
X100594011Y-149639936D01*
X100561038Y-149702645D01*
X100539057Y-149777896D01*
X100529783Y-149842565D01*
X100526692Y-149914289D01*
X100526692Y-150529000D01*
X100716468Y-150529000D01*
X100716468Y-149912066D01*
X100720729Y-149842144D01*
X100735455Y-149777648D01*
X100767011Y-149718590D01*
X100770324Y-149714572D01*
X100828738Y-149671378D01*
X100903197Y-149652929D01*
X100937020Y-149651386D01*
X101014972Y-149659417D01*
X101086670Y-149686802D01*
X101143649Y-149733623D01*
X101181710Y-149791656D01*
X101203911Y-149855233D01*
X101214061Y-149920770D01*
X101215823Y-149966044D01*
X101215823Y-150529000D01*
X101404501Y-150529000D01*
X101404501Y-149533270D01*
G37*
G36*
X99499406Y-150529000D02*
G01*
X99579274Y-150523185D01*
X99657739Y-150502743D01*
X99724148Y-150467584D01*
X99761723Y-150435967D01*
X99806529Y-150377456D01*
X99834047Y-150315366D01*
X99849978Y-150243791D01*
X99854413Y-150173382D01*
X99854413Y-149285608D01*
X100156664Y-149285608D01*
X100156664Y-149147171D01*
X99665736Y-149147171D01*
X99665736Y-150169889D01*
X99660151Y-150237850D01*
X99639151Y-150302591D01*
X99618475Y-150334045D01*
X99560498Y-150376433D01*
X99486679Y-150390507D01*
X99481088Y-150390563D01*
X99260537Y-150390563D01*
X99260537Y-150529000D01*
X99499406Y-150529000D01*
G37*
D13*
X105659580Y-135383333D02*
X105707200Y-135335714D01*
X105707200Y-135335714D02*
X105754819Y-135192857D01*
X105754819Y-135192857D02*
X105754819Y-135097619D01*
X105754819Y-135097619D02*
X105707200Y-134954762D01*
X105707200Y-134954762D02*
X105611961Y-134859524D01*
X105611961Y-134859524D02*
X105516723Y-134811905D01*
X105516723Y-134811905D02*
X105326247Y-134764286D01*
X105326247Y-134764286D02*
X105183390Y-134764286D01*
X105183390Y-134764286D02*
X104992914Y-134811905D01*
X104992914Y-134811905D02*
X104897676Y-134859524D01*
X104897676Y-134859524D02*
X104802438Y-134954762D01*
X104802438Y-134954762D02*
X104754819Y-135097619D01*
X104754819Y-135097619D02*
X104754819Y-135192857D01*
X104754819Y-135192857D02*
X104802438Y-135335714D01*
X104802438Y-135335714D02*
X104850057Y-135383333D01*
X104754819Y-136240476D02*
X104754819Y-136050000D01*
X104754819Y-136050000D02*
X104802438Y-135954762D01*
X104802438Y-135954762D02*
X104850057Y-135907143D01*
X104850057Y-135907143D02*
X104992914Y-135811905D01*
X104992914Y-135811905D02*
X105183390Y-135764286D01*
X105183390Y-135764286D02*
X105564342Y-135764286D01*
X105564342Y-135764286D02*
X105659580Y-135811905D01*
X105659580Y-135811905D02*
X105707200Y-135859524D01*
X105707200Y-135859524D02*
X105754819Y-135954762D01*
X105754819Y-135954762D02*
X105754819Y-136145238D01*
X105754819Y-136145238D02*
X105707200Y-136240476D01*
X105707200Y-136240476D02*
X105659580Y-136288095D01*
X105659580Y-136288095D02*
X105564342Y-136335714D01*
X105564342Y-136335714D02*
X105326247Y-136335714D01*
X105326247Y-136335714D02*
X105231009Y-136288095D01*
X105231009Y-136288095D02*
X105183390Y-136240476D01*
X105183390Y-136240476D02*
X105135771Y-136145238D01*
X105135771Y-136145238D02*
X105135771Y-135954762D01*
X105135771Y-135954762D02*
X105183390Y-135859524D01*
X105183390Y-135859524D02*
X105231009Y-135811905D01*
X105231009Y-135811905D02*
X105326247Y-135764286D01*
X99759580Y-128933333D02*
X99807200Y-128885714D01*
X99807200Y-128885714D02*
X99854819Y-128742857D01*
X99854819Y-128742857D02*
X99854819Y-128647619D01*
X99854819Y-128647619D02*
X99807200Y-128504762D01*
X99807200Y-128504762D02*
X99711961Y-128409524D01*
X99711961Y-128409524D02*
X99616723Y-128361905D01*
X99616723Y-128361905D02*
X99426247Y-128314286D01*
X99426247Y-128314286D02*
X99283390Y-128314286D01*
X99283390Y-128314286D02*
X99092914Y-128361905D01*
X99092914Y-128361905D02*
X98997676Y-128409524D01*
X98997676Y-128409524D02*
X98902438Y-128504762D01*
X98902438Y-128504762D02*
X98854819Y-128647619D01*
X98854819Y-128647619D02*
X98854819Y-128742857D01*
X98854819Y-128742857D02*
X98902438Y-128885714D01*
X98902438Y-128885714D02*
X98950057Y-128933333D01*
X99854819Y-129885714D02*
X99854819Y-129314286D01*
X99854819Y-129600000D02*
X98854819Y-129600000D01*
X98854819Y-129600000D02*
X98997676Y-129504762D01*
X98997676Y-129504762D02*
X99092914Y-129409524D01*
X99092914Y-129409524D02*
X99140533Y-129314286D01*
X115433333Y-124004819D02*
X115433333Y-124719104D01*
X115433333Y-124719104D02*
X115480952Y-124861961D01*
X115480952Y-124861961D02*
X115576190Y-124957200D01*
X115576190Y-124957200D02*
X115719047Y-125004819D01*
X115719047Y-125004819D02*
X115814285Y-125004819D01*
X115052380Y-124004819D02*
X114433333Y-124004819D01*
X114433333Y-124004819D02*
X114766666Y-124385771D01*
X114766666Y-124385771D02*
X114623809Y-124385771D01*
X114623809Y-124385771D02*
X114528571Y-124433390D01*
X114528571Y-124433390D02*
X114480952Y-124481009D01*
X114480952Y-124481009D02*
X114433333Y-124576247D01*
X114433333Y-124576247D02*
X114433333Y-124814342D01*
X114433333Y-124814342D02*
X114480952Y-124909580D01*
X114480952Y-124909580D02*
X114528571Y-124957200D01*
X114528571Y-124957200D02*
X114623809Y-125004819D01*
X114623809Y-125004819D02*
X114909523Y-125004819D01*
X114909523Y-125004819D02*
X115004761Y-124957200D01*
X115004761Y-124957200D02*
X115052380Y-124909580D01*
X108859580Y-128783333D02*
X108907200Y-128735714D01*
X108907200Y-128735714D02*
X108954819Y-128592857D01*
X108954819Y-128592857D02*
X108954819Y-128497619D01*
X108954819Y-128497619D02*
X108907200Y-128354762D01*
X108907200Y-128354762D02*
X108811961Y-128259524D01*
X108811961Y-128259524D02*
X108716723Y-128211905D01*
X108716723Y-128211905D02*
X108526247Y-128164286D01*
X108526247Y-128164286D02*
X108383390Y-128164286D01*
X108383390Y-128164286D02*
X108192914Y-128211905D01*
X108192914Y-128211905D02*
X108097676Y-128259524D01*
X108097676Y-128259524D02*
X108002438Y-128354762D01*
X108002438Y-128354762D02*
X107954819Y-128497619D01*
X107954819Y-128497619D02*
X107954819Y-128592857D01*
X107954819Y-128592857D02*
X108002438Y-128735714D01*
X108002438Y-128735714D02*
X108050057Y-128783333D01*
X107954819Y-129688095D02*
X107954819Y-129211905D01*
X107954819Y-129211905D02*
X108431009Y-129164286D01*
X108431009Y-129164286D02*
X108383390Y-129211905D01*
X108383390Y-129211905D02*
X108335771Y-129307143D01*
X108335771Y-129307143D02*
X108335771Y-129545238D01*
X108335771Y-129545238D02*
X108383390Y-129640476D01*
X108383390Y-129640476D02*
X108431009Y-129688095D01*
X108431009Y-129688095D02*
X108526247Y-129735714D01*
X108526247Y-129735714D02*
X108764342Y-129735714D01*
X108764342Y-129735714D02*
X108859580Y-129688095D01*
X108859580Y-129688095D02*
X108907200Y-129640476D01*
X108907200Y-129640476D02*
X108954819Y-129545238D01*
X108954819Y-129545238D02*
X108954819Y-129307143D01*
X108954819Y-129307143D02*
X108907200Y-129211905D01*
X108907200Y-129211905D02*
X108859580Y-129164286D01*
X99859580Y-135083333D02*
X99907200Y-135035714D01*
X99907200Y-135035714D02*
X99954819Y-134892857D01*
X99954819Y-134892857D02*
X99954819Y-134797619D01*
X99954819Y-134797619D02*
X99907200Y-134654762D01*
X99907200Y-134654762D02*
X99811961Y-134559524D01*
X99811961Y-134559524D02*
X99716723Y-134511905D01*
X99716723Y-134511905D02*
X99526247Y-134464286D01*
X99526247Y-134464286D02*
X99383390Y-134464286D01*
X99383390Y-134464286D02*
X99192914Y-134511905D01*
X99192914Y-134511905D02*
X99097676Y-134559524D01*
X99097676Y-134559524D02*
X99002438Y-134654762D01*
X99002438Y-134654762D02*
X98954819Y-134797619D01*
X98954819Y-134797619D02*
X98954819Y-134892857D01*
X98954819Y-134892857D02*
X99002438Y-135035714D01*
X99002438Y-135035714D02*
X99050057Y-135083333D01*
X99050057Y-135464286D02*
X99002438Y-135511905D01*
X99002438Y-135511905D02*
X98954819Y-135607143D01*
X98954819Y-135607143D02*
X98954819Y-135845238D01*
X98954819Y-135845238D02*
X99002438Y-135940476D01*
X99002438Y-135940476D02*
X99050057Y-135988095D01*
X99050057Y-135988095D02*
X99145295Y-136035714D01*
X99145295Y-136035714D02*
X99240533Y-136035714D01*
X99240533Y-136035714D02*
X99383390Y-135988095D01*
X99383390Y-135988095D02*
X99954819Y-135416667D01*
X99954819Y-135416667D02*
X99954819Y-136035714D01*
D14*
%TO.C,C6*%
X109520000Y-135550000D02*
G75*
G02*
X104280000Y-135550000I-2620000J0D01*
G01*
X104280000Y-135550000D02*
G75*
G02*
X109520000Y-135550000I2620000J0D01*
G01*
%TO.C,C1*%
X100530000Y-131720000D02*
X100530000Y-126480000D01*
X103270000Y-126480000D02*
X100530000Y-126480000D01*
X103270000Y-131720000D02*
X100530000Y-131720000D01*
X103270000Y-131720000D02*
X103270000Y-126480000D01*
%TO.C,J3*%
X110610000Y-121340000D02*
X119730000Y-121340000D01*
X110610000Y-141920000D02*
X110610000Y-121340000D01*
X111920000Y-122640000D02*
X118420000Y-122640000D01*
X111920000Y-140620000D02*
X111920000Y-122640000D01*
X118420000Y-122640000D02*
X118420000Y-129580000D01*
X118420000Y-129580000D02*
X119730000Y-129580000D01*
X118420000Y-133680000D02*
X118420000Y-133680000D01*
X118420000Y-133680000D02*
X118420000Y-140620000D01*
X118420000Y-140620000D02*
X111920000Y-140620000D01*
X119730000Y-121340000D02*
X119730000Y-141920000D01*
X119730000Y-133680000D02*
X118420000Y-133680000D01*
X119730000Y-141920000D02*
X110610000Y-141920000D01*
X120120000Y-126550000D02*
X121120000Y-127050000D01*
X121120000Y-126050000D02*
X120120000Y-126550000D01*
X121120000Y-127050000D02*
X121120000Y-126050000D01*
%TO.C,C5*%
X109520000Y-129150000D02*
G75*
G02*
X104280000Y-129150000I-2620000J0D01*
G01*
X104280000Y-129150000D02*
G75*
G02*
X109520000Y-129150000I2620000J0D01*
G01*
%TO.C,C2*%
X100530000Y-138120000D02*
X100530000Y-132880000D01*
X103270000Y-132880000D02*
X100530000Y-132880000D01*
X103270000Y-138120000D02*
X100530000Y-138120000D01*
X103270000Y-138120000D02*
X103270000Y-132880000D01*
%TD*%
%LPC*%
D15*
%TO.C,R4*%
X118700000Y-89550000D03*
D16*
X118700000Y-97170000D03*
%TD*%
D15*
%TO.C,R10*%
X99300000Y-124550000D03*
D16*
X99300000Y-116930000D03*
%TD*%
D17*
%TO.C,C4*%
X118500000Y-117800000D03*
X118500000Y-115300000D03*
%TD*%
%TO.C,C3*%
X118500000Y-109550000D03*
X118500000Y-112050000D03*
%TD*%
D18*
%TO.C,J4*%
X100700000Y-143350000D03*
X100700000Y-146450000D03*
X100700000Y-154750000D03*
%TD*%
D15*
%TO.C,R1*%
X99500000Y-89550000D03*
D16*
X99500000Y-97170000D03*
%TD*%
D15*
%TO.C,R6*%
X118700000Y-99440000D03*
D16*
X118700000Y-107060000D03*
%TD*%
D19*
%TO.C,RV2*%
X109000000Y-79250000D03*
X118600000Y-79250000D03*
D20*
X111300000Y-86250000D03*
X113800000Y-86250000D03*
X116300000Y-86250000D03*
%TD*%
D15*
%TO.C,R5*%
X96690000Y-103550000D03*
D16*
X104310000Y-103550000D03*
%TD*%
D15*
%TO.C,R8*%
X96700000Y-106320000D03*
D16*
X96700000Y-113940000D03*
%TD*%
D15*
%TO.C,R12*%
X104400000Y-116940000D03*
D16*
X104400000Y-124560000D03*
%TD*%
D15*
%TO.C,R14*%
X99300000Y-140550000D03*
D16*
X106920000Y-140550000D03*
%TD*%
D19*
%TO.C,RV1*%
X96400000Y-79250000D03*
X106000000Y-79250000D03*
D20*
X98700000Y-86250000D03*
X101200000Y-86250000D03*
X103700000Y-86250000D03*
%TD*%
D18*
%TO.C,J5*%
X114500000Y-143222500D03*
X114500000Y-146322500D03*
X114500000Y-154622500D03*
%TD*%
D15*
%TO.C,R3*%
X96700000Y-89540000D03*
D16*
X96700000Y-97160000D03*
%TD*%
D19*
%TO.C,RV3*%
X102950000Y-94250000D03*
X112550000Y-94250000D03*
D20*
X105250000Y-101250000D03*
X107750000Y-101250000D03*
X110250000Y-101250000D03*
%TD*%
D18*
%TO.C,J1*%
X100700000Y-70250000D03*
X100700000Y-67150000D03*
X100700000Y-58850000D03*
%TD*%
%TO.C,J2*%
X114300000Y-70230000D03*
X114300000Y-67130000D03*
X114300000Y-58830000D03*
%TD*%
D15*
%TO.C,R9*%
X115510000Y-117150000D03*
D16*
X107890000Y-117150000D03*
%TD*%
D21*
%TO.C,U1*%
X115040000Y-106730000D03*
D22*
X112500000Y-106730000D03*
X109960000Y-106730000D03*
X107420000Y-106730000D03*
X104880000Y-106730000D03*
X102340000Y-106730000D03*
X99800000Y-106730000D03*
X99800000Y-114350000D03*
X102340000Y-114350000D03*
X104880000Y-114350000D03*
X107420000Y-114350000D03*
X109960000Y-114350000D03*
X112500000Y-114350000D03*
X115040000Y-114350000D03*
%TD*%
D15*
%TO.C,R7*%
X101900000Y-124550000D03*
D16*
X101900000Y-116930000D03*
%TD*%
D15*
%TO.C,R13*%
X96700000Y-116920000D03*
D16*
X96700000Y-124540000D03*
%TD*%
D15*
%TO.C,R2*%
X116100000Y-89550000D03*
D16*
X116100000Y-97170000D03*
%TD*%
D15*
%TO.C,R11*%
X115520000Y-119750000D03*
D16*
X107900000Y-119750000D03*
%TD*%
D17*
%TO.C,C6*%
X106900000Y-134550000D03*
X106900000Y-136550000D03*
%TD*%
%TO.C,C1*%
X101900000Y-127850000D03*
X101900000Y-130350000D03*
%TD*%
D23*
%TO.C,J3*%
X116440000Y-126550000D03*
D24*
X113900000Y-126550000D03*
X116440000Y-129090000D03*
X113900000Y-129090000D03*
X116440000Y-131630000D03*
X113900000Y-131630000D03*
X116440000Y-134170000D03*
X113900000Y-134170000D03*
X116440000Y-136710000D03*
X113900000Y-136710000D03*
%TD*%
D17*
%TO.C,C5*%
X106900000Y-128150000D03*
X106900000Y-130150000D03*
%TD*%
%TO.C,C2*%
X101900000Y-134250000D03*
X101900000Y-136750000D03*
%TD*%
%LPD*%
M02*
