M48
; DRILL file {KiCad 8.0.4-8.0.4-0~ubuntu22.04.1} date 2024-07-28T19:50:54+0200
; FORMAT={-:-/ absolute / metric / decimal}
; #@! TF.CreationDate,2024-07-28T19:50:54+02:00
; #@! TF.GenerationSoftware,Kicad,Pcbnew,8.0.4-8.0.4-0~ubuntu22.04.1
; #@! TF.FileFunction,Plated,1,2,PTH
FMAT,2
METRIC
; #@! TA.AperFunction,Plated,PTH,ViaDrill
T1C0.300
; #@! TA.AperFunction,Plated,PTH,ViaDrill
T2C0.400
; #@! TA.AperFunction,Plated,PTH,ComponentDrill
T3C0.700
; #@! TA.AperFunction,Plated,PTH,ComponentDrill
T4C0.800
; #@! TA.AperFunction,Plated,PTH,ComponentDrill
T5C1.000
; #@! TA.AperFunction,Plated,PTH,ComponentDrill
T6C1.600
; #@! TA.AperFunction,Plated,PTH,ComponentDrill
T7C2.200
%
G90
G05
T1
X96.5Y-86.75
X97.0Y-61.05
X98.4Y-115.55
X99.5Y-110.05
X101.1Y-105.15
X103.1Y-115.65
X104.4Y-143.25
X105.8Y-111.25
X107.3Y-71.15
X107.9Y-87.75
X108.3Y-59.85
X108.7Y-153.35
X108.9Y-103.55
X110.1Y-133.15
X110.9Y-125.45
X111.948Y-104.811
X112.0Y-139.45
X112.6Y-110.65
X115.7Y-93.15
X115.9Y-123.15
X116.4Y-114.75
X116.7Y-112.15
X116.8Y-107.95
X116.8Y-109.75
X117.0Y-104.992
X118.2Y-61.65
X118.3Y-71.05
X119.2Y-119.45
X119.3Y-113.75
T2
X106.1Y-118.05
T3
X96.69Y-103.55
X96.7Y-89.54
X96.7Y-97.16
X96.7Y-106.32
X96.7Y-113.94
X96.7Y-116.92
X96.7Y-124.54
X99.3Y-116.93
X99.3Y-124.55
X99.3Y-140.55
X99.5Y-89.55
X99.5Y-97.17
X101.9Y-116.93
X101.9Y-124.55
X104.31Y-103.55
X104.4Y-116.94
X104.4Y-124.56
X106.92Y-140.55
X107.89Y-117.15
X107.9Y-119.75
X115.51Y-117.15
X115.52Y-119.75
X116.1Y-89.55
X116.1Y-97.17
X118.7Y-89.55
X118.7Y-97.17
X118.7Y-99.44
X118.7Y-107.06
T4
X99.8Y-106.73
X99.8Y-114.35
X101.9Y-127.85
X101.9Y-130.35
X101.9Y-134.25
X101.9Y-136.75
X102.34Y-106.73
X102.34Y-114.35
X104.88Y-106.73
X104.88Y-114.35
X106.9Y-128.15
X106.9Y-130.15
X106.9Y-134.55
X106.9Y-136.55
X107.42Y-106.73
X107.42Y-114.35
X109.96Y-106.73
X109.96Y-114.35
X112.5Y-106.73
X112.5Y-114.35
X115.04Y-106.73
X115.04Y-114.35
X118.5Y-109.55
X118.5Y-112.05
X118.5Y-115.3
X118.5Y-117.8
T5
X98.7Y-86.25
X101.2Y-86.25
X103.7Y-86.25
X105.25Y-101.25
X107.75Y-101.25
X110.25Y-101.25
X111.3Y-86.25
X113.8Y-86.25
X113.9Y-126.55
X113.9Y-129.09
X113.9Y-131.63
X113.9Y-134.17
X113.9Y-136.71
X116.3Y-86.25
X116.44Y-126.55
X116.44Y-129.09
X116.44Y-131.63
X116.44Y-134.17
X116.44Y-136.71
T6
X100.7Y-58.85
X100.7Y-67.15
X100.7Y-70.25
X100.7Y-143.35
X100.7Y-146.45
X100.7Y-154.75
X114.3Y-58.83
X114.3Y-67.13
X114.3Y-70.23
X114.5Y-143.222
X114.5Y-146.322
X114.5Y-154.623
T7
X96.4Y-79.25
X102.95Y-94.25
X106.0Y-79.25
X109.0Y-79.25
X112.55Y-94.25
X118.6Y-79.25
M30
