M48
; DRILL file {KiCad 8.0.4-8.0.4-0~ubuntu22.04.1} date 2024-07-28T23:22:11+0200
; FORMAT={-:-/ absolute / metric / decimal}
; #@! TF.CreationDate,2024-07-28T23:22:11+02:00
; #@! TF.GenerationSoftware,Kicad,Pcbnew,8.0.4-8.0.4-0~ubuntu22.04.1
; #@! TF.FileFunction,NonPlated,1,2,NPTH
FMAT,2
METRIC
; #@! TA.AperFunction,NonPlated,NPTH,ComponentDrill
T1C0.500
%
G90
G05
T1
X133.6Y-39.417
X133.6Y-40.217
X133.6Y-41.017
X133.6Y-41.817
X133.6Y-42.617
X133.6Y-43.417
X133.6Y-60.833
X133.6Y-61.633
X133.6Y-62.433
X133.6Y-63.233
X133.6Y-64.033
X133.6Y-64.833
X133.6Y-82.25
X133.6Y-83.05
X133.6Y-83.85
X133.6Y-84.65
X133.6Y-85.45
X133.6Y-86.25
X133.6Y-103.667
X133.6Y-104.467
X133.6Y-105.267
X133.6Y-106.067
X133.6Y-106.867
X133.6Y-107.667
X133.6Y-125.083
X133.6Y-125.883
X133.6Y-126.683
X133.6Y-127.483
X133.6Y-128.283
X133.6Y-129.083
X136.0Y-39.417
X136.0Y-40.217
X136.0Y-41.017
X136.0Y-41.817
X136.0Y-42.617
X136.0Y-43.417
X136.0Y-60.833
X136.0Y-61.633
X136.0Y-62.433
X136.0Y-63.233
X136.0Y-64.033
X136.0Y-64.833
X136.0Y-82.25
X136.0Y-83.05
X136.0Y-83.85
X136.0Y-84.65
X136.0Y-85.45
X136.0Y-86.25
X136.0Y-103.667
X136.0Y-104.467
X136.0Y-105.267
X136.0Y-106.067
X136.0Y-106.867
X136.0Y-107.667
X136.0Y-125.083
X136.0Y-125.883
X136.0Y-126.683
X136.0Y-127.483
X136.0Y-128.283
X136.0Y-129.083
X161.0Y-39.417
X161.0Y-40.217
X161.0Y-41.017
X161.0Y-41.817
X161.0Y-42.617
X161.0Y-43.417
X161.0Y-60.833
X161.0Y-61.633
X161.0Y-62.433
X161.0Y-63.233
X161.0Y-64.033
X161.0Y-64.833
X161.0Y-82.25
X161.0Y-83.05
X161.0Y-83.85
X161.0Y-84.65
X161.0Y-85.45
X161.0Y-86.25
X161.0Y-103.667
X161.0Y-104.467
X161.0Y-105.267
X161.0Y-106.067
X161.0Y-106.867
X161.0Y-107.667
X161.0Y-125.083
X161.0Y-125.883
X161.0Y-126.683
X161.0Y-127.483
X161.0Y-128.283
X161.0Y-129.083
X163.4Y-39.417
X163.4Y-40.217
X163.4Y-41.017
X163.4Y-41.817
X163.4Y-42.617
X163.4Y-43.417
X163.4Y-60.833
X163.4Y-61.633
X163.4Y-62.433
X163.4Y-63.233
X163.4Y-64.033
X163.4Y-64.833
X163.4Y-82.25
X163.4Y-83.05
X163.4Y-83.85
X163.4Y-84.65
X163.4Y-85.45
X163.4Y-86.25
X163.4Y-103.667
X163.4Y-104.467
X163.4Y-105.267
X163.4Y-106.067
X163.4Y-106.867
X163.4Y-107.667
X163.4Y-125.083
X163.4Y-125.883
X163.4Y-126.683
X163.4Y-127.483
X163.4Y-128.283
X163.4Y-129.083
M30
