G04 #@! TF.GenerationSoftware,KiCad,Pcbnew,8.0.4-8.0.4-0~ubuntu22.04.1*
G04 #@! TF.CreationDate,2024-07-28T23:22:14+02:00*
G04 #@! TF.ProjectId,FrontPanel_panel,46726f6e-7450-4616-9e65-6c5f70616e65,0.1*
G04 #@! TF.SameCoordinates,Original*
G04 #@! TF.FileFunction,Legend,Bot*
G04 #@! TF.FilePolarity,Positive*
%FSLAX46Y46*%
G04 Gerber Fmt 4.6, Leading zero omitted, Abs format (unit mm)*
G04 Created by KiCad (PCBNEW 8.0.4-8.0.4-0~ubuntu22.04.1) date 2024-07-28 23:22:14*
%MOMM*%
%LPD*%
G01*
G04 APERTURE LIST*
%ADD10C,0.500000*%
G04 APERTURE END LIST*
%LPC*%
D10*
X161000000Y-105266666D03*
X163400000Y-61633334D03*
X161000000Y-103666666D03*
X136000000Y-83050000D03*
X133600000Y-61633334D03*
X163400000Y-107666666D03*
X133600000Y-105266666D03*
X163400000Y-86250000D03*
X163400000Y-106066666D03*
X136000000Y-41016667D03*
X133600000Y-43416667D03*
X163400000Y-64833334D03*
X163400000Y-63233334D03*
X161000000Y-60833334D03*
X161000000Y-40216667D03*
X163400000Y-85450000D03*
X133600000Y-128283333D03*
X133600000Y-82250000D03*
X133600000Y-84650000D03*
X136000000Y-63233334D03*
X136000000Y-62433334D03*
X133600000Y-106866666D03*
X163400000Y-103666666D03*
X163400000Y-83850000D03*
X133600000Y-64833334D03*
X133600000Y-41816667D03*
X161000000Y-41816667D03*
X161000000Y-125883333D03*
X161000000Y-128283333D03*
X133600000Y-85450000D03*
X163400000Y-83050000D03*
X133600000Y-103666666D03*
X161000000Y-62433334D03*
X163400000Y-43416667D03*
X161000000Y-107666666D03*
X161000000Y-63233334D03*
X136000000Y-125083333D03*
X161000000Y-129083333D03*
X133600000Y-39416667D03*
X136000000Y-104466666D03*
X136000000Y-127483333D03*
X163400000Y-41016667D03*
X133600000Y-63233334D03*
X133600000Y-125883333D03*
X136000000Y-129083333D03*
X133600000Y-104466666D03*
X161000000Y-83050000D03*
X133600000Y-60833334D03*
X163400000Y-62433334D03*
X163400000Y-42616667D03*
X161000000Y-125083333D03*
X161000000Y-64033334D03*
X133600000Y-106066666D03*
X133600000Y-42616667D03*
X136000000Y-105266666D03*
X136000000Y-83850000D03*
X133600000Y-127483333D03*
X133600000Y-125083333D03*
X136000000Y-128283333D03*
X136000000Y-85450000D03*
X161000000Y-126683333D03*
X136000000Y-82250000D03*
X133600000Y-83050000D03*
X163400000Y-125883333D03*
X163400000Y-64033334D03*
X161000000Y-64833334D03*
X133600000Y-126683333D03*
X136000000Y-64033334D03*
X163400000Y-129083333D03*
X163400000Y-126683333D03*
X161000000Y-39416667D03*
X136000000Y-42616667D03*
X161000000Y-42616667D03*
X163400000Y-104466666D03*
X136000000Y-64833334D03*
X163400000Y-106866666D03*
X133600000Y-62433334D03*
X133600000Y-83850000D03*
X163400000Y-125083333D03*
X136000000Y-40216667D03*
X161000000Y-127483333D03*
X136000000Y-103666666D03*
X136000000Y-84650000D03*
X163400000Y-105266666D03*
X136000000Y-43416667D03*
X161000000Y-85450000D03*
X161000000Y-104466666D03*
X163400000Y-60833334D03*
X136000000Y-86250000D03*
X136000000Y-125883333D03*
X133600000Y-64033334D03*
X161000000Y-86250000D03*
X161000000Y-84650000D03*
X133600000Y-107666666D03*
X163400000Y-39416667D03*
X161000000Y-106866666D03*
X161000000Y-83850000D03*
X163400000Y-84650000D03*
X136000000Y-106066666D03*
X161000000Y-106066666D03*
X136000000Y-107666666D03*
X163400000Y-128283333D03*
X133600000Y-41016667D03*
X136000000Y-126683333D03*
X163400000Y-127483333D03*
X161000000Y-82250000D03*
X161000000Y-43416667D03*
X136000000Y-39416667D03*
X136000000Y-41816667D03*
X136000000Y-60833334D03*
X163400000Y-40216667D03*
X133600000Y-86250000D03*
X133600000Y-129083333D03*
X163400000Y-41816667D03*
X161000000Y-61633334D03*
X133600000Y-40216667D03*
X163400000Y-82250000D03*
X136000000Y-61633334D03*
X136000000Y-106866666D03*
X161000000Y-41016667D03*
%LPD*%
M02*
